<svg xmlns="http://www.w3.org/2000/svg" xmlns:xlink="http://www.w3.org/1999/xlink" width="839" height="507" viewBox="0 0 839 507">
  <defs>
    <clipPath id="clip-path">
      <rect id="Rectángulo_5091" data-name="Rectángulo 5091" width="839" height="507" rx="20" transform="translate(621.333 70)" fill="none" stroke="#707070" stroke-width="1"/>
    </clipPath>
  </defs>
  <g id="Enmascarar_grupo_19" data-name="Enmascarar grupo 19" transform="translate(-621.333 -70)" clip-path="url(#clip-path)">
    <path id="Trazado_101806" data-name="Trazado 101806" d="M1513.532,739.246l16.176.1,8.9.037v-1.294l-39.595-.32-9.039-101.845,5.593-.8a.181.181,0,0,0,.066-.024.227.227,0,0,0,.072-.024c.021-.013.036-.03.055-.044a.169.169,0,0,0,.026-.022l.033-.031a.492.492,0,0,0,.038-.068.475.475,0,0,0,.03-.064.468.468,0,0,0,.008-.066c0-.006.008-.009.009-.019s0-.02,0-.032,0-.018,0-.029l-1.227-13.521c0-.014-.01-.025-.012-.04a.359.359,0,0,0-.021-.075.407.407,0,0,0-.041-.073.228.228,0,0,0-.038-.044.345.345,0,0,0-.069-.058.542.542,0,0,0-.054-.03.3.3,0,0,0-.081-.021.147.147,0,0,0-.043-.015h-.012l-16.114-177.508a.557.557,0,0,0,.066-.014l20.762-9.006c.01-.005.016-.013.025-.018a.4.4,0,0,0,.064-.043l.022-.016a.336.336,0,0,0,.032-.036.363.363,0,0,0,.042-.064.531.531,0,0,0,.03-.066c.006-.021.009-.041.013-.062s.008-.009.008-.014,0-.015,0-.023a.243.243,0,0,0,0-.054.257.257,0,0,0,0-.029l-1.956-11.82c0-.009-.008-.015-.009-.023a.345.345,0,0,0-.027-.072.4.4,0,0,0-.036-.068.28.28,0,0,0-.044-.048.39.39,0,0,0-.065-.057.409.409,0,0,0-.048-.021.316.316,0,0,0-.1-.032c-.006,0-.011,0-.017,0l-118.8-13.771-16.845-3.631h0l-.012,0a.288.288,0,0,0-.042,0h-.013a.335.335,0,0,0-.047-.007l-.017,0-.029,0a.43.43,0,0,0-.047.017c-.008,0-.018,0-.027.006L1057.276,267.5c-.007,0-.017,0-.024-.006s-.012-.008-.018-.01a.329.329,0,0,0-.054-.006.346.346,0,0,0-.078-.009.318.318,0,0,0-.076.013.348.348,0,0,0-.07.02.4.4,0,0,0-.062.039.353.353,0,0,0-.06.047.262.262,0,0,0-.044.063.308.308,0,0,0-.034.046c0,.007,0,.014-.005.022s-.009.012-.011.02l-4.192,13.148a.379.379,0,0,0-.007.057.291.291,0,0,0-.009.065l0,.011,3.8,109.135-4.762.275a.381.381,0,0,0-.194.072c-.005,0-.013,0-.019.005L1006.4,423.967l0,.007a.379.379,0,0,0-.142.238c0,.008,0,.013-.005.021s-.005.012-.006.019l-5.106,66.271c0,.016.006.03.006.044a.233.233,0,0,0,0,.046l9.547,62.964-9.76,135.329-1.9.013a.217.217,0,0,0-.038.009.363.363,0,0,0-.318.228c-.007.017-.008.034-.014.054a.285.285,0,0,0-.019.074l-.253,3.483-7.018,10.376-2.262.011c-.012,0-.022.006-.032.006a.414.414,0,0,0-.07.013l-.022.006a.365.365,0,0,0-.057.026.354.354,0,0,0-.058.04l-.011.006a.37.37,0,0,0-.05.055.153.153,0,0,0-.023.022l-9.613,14.2-6.124.014a.375.375,0,0,0-.256.1l-.008,0a.391.391,0,0,0-.119.236c0,.008-.007.011-.009.02l-1.684,20.9-13.293.048h-.021L914.936,741.3h-.015l-1.153.112c-.008,0-.015.006-.022.006a.223.223,0,0,0-.035.007.385.385,0,0,0-.065.023.2.2,0,0,0-.045.024.077.077,0,0,0-.019.011.585.585,0,0,0-.049.038L735,742.392v.786l145.73-.707L735,750.223v.787l146.363-7.785h0l31.914-.065-1.329,13.418-17.834,2.64c-.017,0-.033.014-.049.017a.53.53,0,0,0-.073.029.291.291,0,0,0-.062.041.523.523,0,0,0-.054.05.367.367,0,0,0-.04.062.382.382,0,0,0-.034.07.431.431,0,0,0-.014.073.521.521,0,0,0-.01.052c0,.011.005.019.005.026a.234.234,0,0,1,0,.027c0,.008.009.013.011.021a.368.368,0,0,0,.119.211.07.07,0,0,0,.019.015.375.375,0,0,0,.24.088h.005L994.3,758.629l97.032-1.329,447.267-6.131v-.789l-441.172,6.048,26.017-3.726h0l1.083-.157h0l4.972-.709h0l.22-.032,17.817-2.553,391.057-3.72v-.848l-8.293-.074-8.428-.092-7.785-.1-6.673-.1-.467-5.121,6.572.055Zm-15.273-1.053.013.134-4.407-.041-8.938-102.625,4.257.3Zm-133.817.476-.917-20.129v-.019l-.063-1.408v0l0-.018v0l-.064-1.4v-.024l-2.926-64.29v0l-.063-1.367-.063-1.367-.618-13.6-.338-7.407c-.009-.217-.194-.429-.409-.375a.39.39,0,0,0-.375.409l.317,6.97-97.914-6.257-35.664-2.28-.008-8.478,137.625,9.566,5.247,111.662-3.757-.048-.005-.111v0h0ZM1259.2,629.55l.168,13.607-34.007,4.806-.011-12.851Zm-33.852,4.764-.006-7.011,30.77,1.957Zm34.03,9.634.571,46.026-.116,0-.545-44.906c0-.011-.006-.017-.006-.029s0-.013,0-.02-.013-.035-.018-.053a.352.352,0,0,0-.024-.068.482.482,0,0,0-.056-.083.352.352,0,0,1-.026-.029.351.351,0,0,0-.1-.067c-.008-.005-.016-.007-.023-.012a.363.363,0,0,0-.1-.019.13.13,0,0,0-.037-.01h-.006c-.008,0-.014.005-.023.006h-.026l-23.146,3.22-10.332,1.435,0-.579Zm75.289,5.694c-.009,0-.017,0-.025,0l-.009,0a.1.1,0,0,0-.026.007.344.344,0,0,0-.122.028l-.019.012a.412.412,0,0,0-.091.066.576.576,0,0,0-.053.069.258.258,0,0,0-.029.051.344.344,0,0,0-.027.095.459.459,0,0,0-.012.045l0,.016c0,.006,0,.013,0,.019l2.427,65.359c0,.005.006.01.008.015a.384.384,0,0,0,.112.25s.007,0,.01.009a.39.39,0,0,0,.26.105l25.557.281.028.64-26.322-.264L1333.853,649l25.784,1.4.027.58Zm25.034,2.119,2.891,63.521-25.138-.276-2.4-64.556Zm-60.557-4.642,33.921,1.837,2.481,67.482-34.657-.348Zm.96,68.963-36.321-.363-.939-70.563,35.514,1.922Zm33.364-67.891-34.706-1.878-36.3-1.965-.013,0-.014,0c-.01,0-.018.005-.027.005a.355.355,0,0,0-.328.235.324.324,0,0,0-.012.049.313.313,0,0,0-.019.082v.013l0,.015.949,71.365a.329.329,0,0,0,.017.078.364.364,0,0,0,.015.069.308.308,0,0,0,.043.065.266.266,0,0,0,.041.06c.018.018.042.029.062.046a.41.41,0,0,0,.062.039.452.452,0,0,0,.081.017.324.324,0,0,0,.068.013l37.112.373,35.449.358,26.742.268.029.642-95.592-.87a.363.363,0,0,0-.352-.2l-4.264.142-.069-5.383-.005-.3-.034-2.73-.005-.3-.151-11.776,0-.3-.035-2.705-.005-.3-.034-2.7,0-.3-.6-46.775,98.01,5.392.026.578Zm-72,48.953.141,10.953-.647-.01-.137-10.891ZM1260.81,696l-.023-1.8.643-.057.024,1.877Zm.813,13.211.025,1.918-.65-.007-.024-1.877Zm.039,3.031.064,4.976-.653-.007-.062-4.938ZM1264.305,643l5.973-1.183a.393.393,0,1,0-.151-.771l-8.573,1.7-.175-13.554,97.576,6.237.584,12.813Zm-2.914,48.147.023,1.865-.64-.015-.023-1.792Zm-.655-1.151-.573-46.177.617-.122.6,46.315Zm-1.59,18.065-.129-10.866.116,0,.131,10.867Zm.132,1.189.023,1.853h-.12l-.021-1.854ZM1259,695.961l-.022-1.765.116.005.021,1.763Zm-.036-3.009-.021-1.748.114,0,.022,1.747Zm-.036-3.005-.513-43.312c0-.012-.005-.018-.005-.028s0-.013,0-.023a.322.322,0,0,0-.017-.05.485.485,0,0,0-.023-.071.428.428,0,0,0-.059-.083.1.1,0,0,0-.023-.028.375.375,0,0,0-.108-.071l-.011-.007a.32.32,0,0,0-.116-.023c-.011,0-.022-.007-.032-.007h0a.052.052,0,0,0-.023.007c-.01,0-.019-.005-.027,0l-21.447,2.934a.227.227,0,0,0-.044.014.35.35,0,0,0-.082.029.285.285,0,0,0-.055.038.444.444,0,0,0-.061.053.385.385,0,0,0-.039.06.3.3,0,0,0-.033.068.358.358,0,0,0-.014.072.413.413,0,0,0-.012.055l.189,39.791h-.05l-.182-40.733,22.365-3.108.539,44.429Zm-.772,1.238.02,1.747-21-.505-.009-1.778Zm-21-1.8-.185-39.472,20.664-2.825.506,42.841Zm21.035,4.794.022,1.765-21.028-.465-.007-1.8Zm.036,3,.129,10.872-21.114-.31-.05-11.021Zm.144,12.06.022,1.854-21.135-.271-.008-1.892Zm.035,3.027.023,2.032-21.152.6-.014-2.893Zm-22.014-18.6.007,1.8-.053,0-.005-1.8Zm.013,3.039.051,11.027h-.054l-.048-11.029Zm.057,12.217.009,1.892h-.054l-.01-1.892Zm.015,3.071.016,3.312v.009a.408.408,0,0,0,.018.075.356.356,0,0,0,.016.072c.009.018.025.034.037.054a.506.506,0,0,0,.047.067.4.4,0,0,0,.059.039.35.35,0,0,0,.065.043.407.407,0,0,0,.151.03h.011l21.941-.618a.357.357,0,0,0,.086-.019.477.477,0,0,0,.062-.014.36.36,0,0,0,.073-.051.3.3,0,0,0,.051-.037.375.375,0,0,0,.044-.065.4.4,0,0,0,.038-.06.367.367,0,0,0,.015-.081.4.4,0,0,0,.014-.069v-.007l-.029-2.392h.12l.043,3.508-22.914.592-.019-4.389Zm23.286,4.575a.508.508,0,0,0,.1-.022c.017-.007.035-.007.051-.013a.359.359,0,0,0,.088-.06.328.328,0,0,0,.036-.026.354.354,0,0,0,.053-.082.2.2,0,0,0,.03-.044.441.441,0,0,0,.016-.089.379.379,0,0,0,.013-.062v-.005l-.047-3.873h.122l.062,4.92-18.9-.174Zm.285-8.488-.132-10.859.119,0,.135,10.86Zm.137,1.186.023,1.853h-.122l-.022-1.853Zm-.284-13.277-.02-1.766.117,0,.022,1.764Zm.25-52.966-.17-13.617.609-.141.176,13.637Zm-.168,49.957h-.117l-.022-1.747.117,0Zm-24.362,15.931.009,1.892h-.052l-.009-1.893Zm-.057-1.193-.047-11.032h.051l.048,11.034Zm-.21-58.975.18,40.6h-.047l-.165-39.55c0-.008-.005-.017-.005-.029s0-.014,0-.021a.458.458,0,0,0-.016-.047.5.5,0,0,0-.025-.074.314.314,0,0,0-.055-.081c-.008-.009-.015-.02-.025-.03a.355.355,0,0,0-.1-.068l-.02-.012a.471.471,0,0,0-.108-.022c-.013,0-.023-.006-.038-.006h0c-.009,0-.016,0-.025,0a.217.217,0,0,1-.026,0l-9.516,1.3v-.581Zm-.816,1.507.163,39.075-9.306-.241-.035-37.579Zm.168,40.338.008,1.788-9.318-.227v-1.8Zm.012,3.037.009,1.8-9.329-.209,0-1.815Zm.013,3.044.048,11.038-9.369-.139-.01-11.1Zm.052,12.23.008,1.894-9.378-.123,0-1.907Zm.013,3.074.013,2.993-9.392.265,0-3.377Zm.418,3.77a.283.283,0,0,0,.071-.017.344.344,0,0,0,.078-.019.271.271,0,0,0,.057-.038.445.445,0,0,0,.065-.046.485.485,0,0,0,.04-.061.383.383,0,0,0,.043-.067.459.459,0,0,0,.015-.081.427.427,0,0,0,.013-.067v-.007l-.013-3.358.053,0,.019,4.416-10.236.265,0-.646ZM1260.68,718l1.44.017h0l100.635.915.881,19.369-11.077.045-18.76.078-108.361.451-.018-21.194Zm73.121,21.211,29.9.367.206,4.529-138.457,1.107-.006-5.553ZM1105.9,496.769v.008l-10.354.537-2.02.1-1.279.066h-.012l-.516.027-2.013.1-19,.981Zm-35.1.781.479-5.58,18.226,2.423-.1,2.191Zm19.39-1.008.1-2.043,1.212.161-.082,1.818Zm2.54-.132.072-1.577.485.065-.066,1.485Zm1.279-.067.059-1.343,1.223.164-.05,1.116Zm2.02-.1.042-.972,5.24.7Zm6.713,20.312.034-.816,5.012-.24.084.811Zm5.307,1.525.154,1.522-5.6.261.064-1.528Zm-5.2-4.131.034-.8,4.647-.224.079.8Zm.108-2.6.279-6.743,3.472.164.642,6.367Zm-.079-7.547h0a.379.379,0,0,0-.409.377l-.3,7.209-.343.015.332-7.92,4.442.21.029.287Zm-1.27,12.8.034-.814.345-.016-.034.815Zm.271,1.765-.064,1.528-.346.015.064-1.526Zm-.161-4.367.032-.8.343-.016-.032.8Zm2.344-11.217,2.435-.123.024.239Zm-7.667-1.435-.59-.028.03-.68,10.4-.532.076.738Zm4.08,15.309.033-.815.343-.016-.033.815Zm.267,1.765-.061,1.525-.348.017.064-1.526Zm-.158-4.368.033-.8.346-.017-.034.8Zm.11-2.6.31-7.353a.39.39,0,0,0-.1-.272l-.007-.01a.4.4,0,0,0-.086-.064c-.013-.008-.022-.019-.035-.026a.477.477,0,0,0-.068-.017.548.548,0,0,0-.082-.021l-4.921-.23.011-.257.3-.014,5.357.251-.335,8Zm-8.9,5.612.036-.812.5-.023-.037.812Zm.419,1.756-.067,1.523-.5.023.068-1.522Zm-.3-4.353.038-.8.5-.025-.035.8Zm.119-2.594.386-8.5.494-.026-.382,8.506Zm.468-10.329.033-.738.493-.026-.033.738Zm.117-2.572.032-.724.492-.026-.033.726Zm.387,19.811,1.248-.058-.067,1.523-1.248.057Zm.08-1.778.036-.813,1.246-.06-.034.813Zm.117-2.6.036-.8,1.245-.06-.035.8Zm.117-2.6.38-8.506,1.237-.062-.024.572h0l-.349,7.935Zm.462-10.331.033-.739,1.236-.062-.033.738Zm.116-2.572.032-.726,1.233-.064-.031.727Zm1.144,19.781,4.571-.216-.064,1.527-4.574.212Zm.079-1.781.036-.813,4.567-.217-.034.814Zm.115-2.6.035-.8,4.563-.219-.034.8Zm.113-2.6.33-7.468,4.527.213-.3,7.034Zm.57-12.91.032-.725,10.037-.519.073.724Zm-6.678,18.385.038-.81,1.24-.06-.038.811Zm1.159,1.72-.068,1.521-1.242.057.07-1.52Zm-1.038-4.318.037-.8,1.237-.057-.036.8Zm.12-2.593.392-8.5,1.23-.063-.386,8.5Zm.476-10.324.034-.737,1.229-.062-.033.738Zm.117-2.568.034-.726,1.227-.062-.033.725Zm-.753-.685-.033.726-18.706.96.062-.72Zm-.118,2.558-.033.736-18.808.955.063-.732Zm-.118,2.56-.392,8.5-19.214.932.727-8.475Zm-.475,10.293-.037.8-19.317.926.069-.793Zm-.119,2.583-.038.81-19.419.921.069-.8Zm-.119,2.589-.071,1.521-19.549.911.13-1.512Zm.324,2.289,2.029-.1.508-.023h.023l1.288-.061,2.037-.1,5.364-.25,1.136-.053,1.135-.052,6.068-.284,1.25,12.419-41.914,1.835,1.065-12.406Zm20.916,12.289,1.539,15.29-19.259-.726h-.007l-.2-.007.046-1.01a.393.393,0,0,0-.785-.034l-.062,1.4,0,0,0,0-.066,1.442h0v.007l-1.751,39.069-.53.017,1.9-41.958a.391.391,0,0,0-.375-.411.5.5,0,0,0-.143.027l.319-6.989a.392.392,0,1,0-.784-.036l-.4,8.754,0,.005,0,.005-1.847,40.644-1.29.042,2.352-50.963a.393.393,0,1,0-.785-.036l-2.354,51.021-6.836.217-15.274-1.208,4.232-49.293.294-3.437Zm-4.816,56.5,10.535.309.055.542-12.321.384-10.687-.847Zm-12.671-1.16-1.811-.054a.509.509,0,0,0-.148.024l.014-.278,6.021.179Zm16.945-.536-18.85-.558.179-3.4,24.406.744.3,3.028Zm-18.631-4.747.017-.294,24.241.744.029.288Zm.057-1.081.179-3.421,23.6.746.345,3.415Zm.217-4.2.02-.342,23.428.746.033.336Zm.06-1.125.178-3.438,22.784.742.346,3.437Zm.219-4.225.019-.386,22.607.746.038.379Zm.06-1.171.181-3.456,21.958.743.347,3.454Zm.221-4.242.023-.43,21.772.741.042.428Zm.063-1.216.18-3.472,21.123.737.35,3.472Zm.222-4.256.025-.484,20.928.738.048.478Zm.066-1.267.181-3.49,20.275.731.351,3.491Zm.222-4.276.028-.529,20.073.729.053.526Zm.068-1.313.183-3.509,19.418.723.353,3.51Zm.224-4.293.029-.582,19.21.721.059.578Zm.07-1.367.034-.661,18.99.715.066.663Zm-13.95,40.54h0l2.46.193,4.489.356.231.019,2.067.162.531.045h.025l1.3.1h0l.288.021.554.046,12.819,1.013,2.494.2,4.456.351,5.955.472,8.5.671,1.4.112h.013l.036,0h0l.6.048,1.627.129,2.527.2,4.421.349,6.126.486,7.842.618,1.023.081h0l1.021.08.386.032h0l.385.03,6.5.514.4.032h0l.4.031,6.8.539.425.032.422.035,7.128.562h0l.443.036.443.035,4.58.361.268.023h0l.567.045.569.046,6.917.544h0l.593.048.6.048,7.245.572h0l.62.05.627.05,7.6.6.655.053.657.052,5.116.405,3.549.279h0l.686.054,3.126.247-.016,15.112-170.98-11.883.406-6.94.066-1.121.016-.271v0l.076-1.3.067-1.144.016-.271.075-1.276.069-1.165h0l.016-.271.17-2.911,6.4.507,7.389.585h0Zm59.084-89.047-.065,2.188-21.791-1.035-.006-.048Zm-22.048-.713-.076-.739,9.968-.51,4.066.54Zm21.96,3.686-.008.276-10.244-.484-11.406-.538-.03-.282Zm-2.99,10.982.025-.825,2.67-.127-.023.826Zm2.619,1.661-.046,1.544-2.675.125.016-.538.008-.242h0l.024-.762Zm-2.748-4.271a.373.373,0,0,0-.177-.059l-2.5-.114h-.02a5.751,5.751,0,0,1-.1.02.337.337,0,0,0-.079.029.289.289,0,0,0-.055.036c-.005.005-.014.007-.02.013a.212.212,0,0,0-.038.041h0a.407.407,0,0,0-.04.057.354.354,0,0,0-.033.071.256.256,0,0,1-.017.034l0,.019-2.836.137.025-.813,8.795-.425-.022.815Zm-2.445,4.662,0-.145,1.727-.083-.01.3Zm1.689,1.1-.005.211-1.728.081.013-.369Zm-1.613-3.514.011-.348,1.723-.082-.015.507Zm-3.639.65.027-.824,2.455-.117-.2.833Zm1.842,1.7-.377,1.558-1.574.074.051-1.541Zm-1.67-6.924.14-4.331,8.753.412-.1,3.491Zm-.221-5.135h-.006a.35.35,0,0,0-.292.105.116.116,0,0,0-.01.015.411.411,0,0,0-.1.253h0v.005l-.155,4.791-.332.018.183-5.5,9.86.465-.007.275ZM1127,515.4l.028-.824.331-.015-.028.824Zm.273,1.77-.05,1.54-.333.015.052-1.539Zm-.185-4.387.026-.811.329-.016-.025.81Zm-.518-8.15-.187,5.575-.328.017.166-4.941a.424.424,0,0,0-.017-.1.26.26,0,0,0-.009-.049,7.776,7.776,0,0,0-.079-.128.39.39,0,0,0-.053-.04.411.411,0,0,0-.069-.049.346.346,0,0,0-.065-.016.351.351,0,0,0-.083-.021l-10.147-.478-.029-.283Zm-.691,10.819.028-.823.332-.015-.027.823Zm.274,1.77-.051,1.541-.334.014.052-1.539Zm-.186-4.385.027-.811.332-.016-.028.81Zm-.546-7.192-.154,4.617-8.921.433-.566-5.5Zm-.215,6.419-.027.811-8.567.41-.082-.8Zm-.087,2.6-.028.822-8.212.389-.084-.816Zm-.087,2.607-.052,1.537-7.761.363-.158-1.523Zm.348,2.3,1.122-.05,1.12-.052,2.294-.108.047,0h0l.455-.021h0l.042,0h.006l.467-.021.045,0h.008l.248-.012h.024l2.5-.117,3.464-.162,6.081-.283,5.487-.258,1.11-.05,1.109-.051,20.943-.977,1.1-.052,1.1-.051.427-.021h0l.431-.019,5.434-.255-.183,12.693-61.687,2.7-1.281-12.445Zm17.715-8.381-.023.816-5.279.254.024-.815Zm-5.225-1.549.113-3.816.032-1.062.029-1.061.078-2.653,1.086-.053,4.15.552-.066,2.418-.03,1.059v0l-.028,1.059-.089,3.3Zm5.154,4.161-.023.829-5.285.251.023-.827Zm-.072,2.62-.042,1.546-5.292.247.045-1.546Zm30.976-10.618-.035,2.089-.306.015.024-1.469a.266.266,0,0,0-.016-.084.3.3,0,0,0-.011-.063.375.375,0,0,0-.043-.072.474.474,0,0,0-.037-.055.28.28,0,0,0-.065-.048.431.431,0,0,0-.055-.039.331.331,0,0,0-.082-.022.3.3,0,0,0-.064-.016l-23.011-1.086-6.168-.291.007-.275Zm-29.839-2.2.053-1.949,22.831,3.035Zm29.41,9.585.012-.839.308-.015-.014.841Zm.276,1.781-.025,1.561-.31.015.027-1.562Zm-.234-4.423.015-.826.307-.014-.014.826Zm-1.138,2.7.013-.84.309-.014-.014.839Zm.276,1.778-.026,1.564-.31.013.028-1.561Zm-.231-4.419.013-.827.307-.015-.013.828Zm.045-2.637.01-.516a.389.389,0,0,0-.016-.085.317.317,0,0,0-.012-.063.3.3,0,0,0-.039-.065.385.385,0,0,0-.04-.062.4.4,0,0,0-.062-.047.432.432,0,0,0-.06-.043.533.533,0,0,0-.081-.019.416.416,0,0,0-.065-.017h-.012l-20.814-.98,0,0-.005,0h-.011a.4.4,0,0,0-.256.1c-.011.01-.022.02-.032.031a.4.4,0,0,0-.1.24l0,0v.009l-.063,2.565-.317.015.082-3.272,22.227,1.052-.019,1.139Zm-21.007,6.267.02-.832,20.122-.958-.013.837Zm20.1.842-.028,1.561-20.152.941.037-1.551Zm-20.033-3.471.021-.819,20.1-.969-.014.824Zm.063-2.625.052-2.105,20.043.942,0,.188Zm-1.235,5.309.021-.832.319-.016-.021.832Zm.274,1.774-.038,1.552-.321.014.038-1.551Zm-.209-4.4.02-.821.319-.014-.02.818Zm-.638-5.934-.084,3.347-.318.015.069-2.717a.449.449,0,0,0-.016-.1c-.005-.018,0-.035-.009-.052a.3.3,0,0,0-.048-.075.242.242,0,0,0-.032-.053.58.58,0,0,0-.062-.048.421.421,0,0,0-.06-.041.371.371,0,0,0-.066-.016.318.318,0,0,0-.082-.021l-5.067-.24.007-.274Zm-.536,8.615.02-.831.321-.016-.021.832Zm.276,1.775-.04,1.55-.321.014.039-1.55Zm-.21-4.4.021-.819.321-.015-.021.82Zm-.659-4.975-.06,2.389-4.684.228.077-2.838Zm-.107,4.2-.02.817-4.689.225.023-.817Zm-.068,2.614-.02.831-4.693.224.022-.829Zm-.065,2.621-.039,1.549-4.7.221.043-1.547Zm27.015-3.067.013-.841,4.8-.227-.012.841Zm4.772,1.568-.023,1.566-4.805.224.026-1.563Zm-4.729-4.21.014-.828,4.79-.232-.012.829Zm.042-2.639.01-.588,1.859-1.15,2.935.391-.015,1.115Zm-.408-1.255,0-.123.88-.547.165.024Zm4.868,23.937,0,.005-.524,36.357-28.088,12.578-9.374.311.684-24.991a.4.4,0,0,0-.382-.4h-.011a.393.393,0,0,0-.393.384l-.694,25.408-.2,7.233-5.435.17.211-7.178.761-25.875a.392.392,0,0,0-.381-.4h-.011a.394.394,0,0,0-.394.381l-.75,25.506-6.868.224,2.675-28.7,0-.021h0l.073-.784a.391.391,0,0,0-.353-.429.382.382,0,0,0-.1.006l.054-.19a.572.572,0,0,0,.006-.072c0-.008.009-.012.009-.021a.294.294,0,0,0-.006-.031.336.336,0,0,0-.012-.075.289.289,0,0,0-.023-.072.323.323,0,0,0-.039-.062.385.385,0,0,0-.048-.058.651.651,0,0,0-.059-.044.382.382,0,0,0-.07-.035l-.028-.017c-.017,0-.032,0-.048,0s-.028-.009-.044-.01l-1.267-.047h0l-.064,0-8.49-.32-1.651-16.033Zm-4.676,61.368.021-1.225,3.789-.118-.019,1.228Zm3.768,1.441-.058,4.013-3.793-.3.058-3.6Zm-3.723-4.231.019-1.211,3.785-.12-.018,1.215Zm.044-2.783.056-3.516,3.8-1.563-.072,4.959Zm-.378-4.188.005-.26,4.243-1.76,0,.274Zm-.5-.9a.218.218,0,0,0-.054.023l-8,3.314h0l-5.3,2.2-.558.017,18.683-7.8,0,.27Zm-7.225,10.9.023-1.222,6.338-.2-.02,1.225Zm6.316,1.362-.055,3.416-6.341-.5.05-2.725Zm-6.263-4.148.022-1.21,6.333-.2-.02,1.21Zm.052-2.78.009-.454,6.365-2.619-.046,2.874Zm-.4-1.134.005-.239,7.234-3-.005.325a.312.312,0,0,0-.048-.009h-.007a.348.348,0,0,0-.1.019.416.416,0,0,1-.047.008Zm-7.389,8.485,6.025-.182-.051,2.547-6.015-.476Zm-.291-5.326,0-.2.52-.014Zm.325,3.772.026-1.218,6.017-.185-.025,1.222Zm.06-2.778.005-.3,2.374-.977,3.655-.115-.023,1.21Zm4.268-2.911-.587.021,2.825-1.172,0,.288c-.011,0-.02-.007-.029-.007h-.008a.343.343,0,0,0-.123.026.081.081,0,0,0-.026,0Zm-5.572.177-6.714.212.166-6.954,27.6-12.36-.15,10.376Zm-6.777,2.831.025-1.051,2.69-.085Zm4.922-1.2.525-.017-3.137,1.3-.5.017Zm-4.578,2.947.117-.047.5-.016-.619.256Zm.325,2.713,5.721-.174-.038,1.716-5.71-.453Zm.036-1.552.005-.271,2.484-1.021,3.255-.1-.026,1.217Zm4.349-2.908-.526.015,2.379-.986-.005.253-.011,0h-.009a.324.324,0,0,0-.121.025l-.029,0Zm-6.15,2.962.03-1.215.239-.006-.031,1.213Zm.2,1.546-.021.917-.238-.016.021-.895Zm-9.006-4.045.032-1.2,9.107-.283-.029,1.2Zm7.781,2.53.006-.226,0-.011,0-.011c0-.008-.006-.009-.007-.017a.384.384,0,0,0-.11-.25c0-.005-.01-.006-.016-.011a.382.382,0,0,0-.25-.1l-.006,0-.005,0h-.012l-7.441.223.008-.256,8.093-.247-.023.9Zm.2,1.545-.021.808-.238-.02.019-.782Zm-1.026.03-.018.7-6.376-.505Zm-6.882-6.871.186-6.815,9.081-.3-.164,6.828Zm-6.3,2.957.036-1.193,5.437-.172-.031,1.2Zm5.4,1.391-.024.938-.008.272-5.446.164.006-.227.029-.981Zm-13.715-1.133.111-1.195,7.455-.234-.035,1.2Zm7.475,1.631-.008.255-3.07.092a.4.4,0,0,0-.1.023.187.187,0,0,1-.034.008.5.5,0,0,0-.095.062.236.236,0,0,0-.034.024.369.369,0,0,0-.049.067.438.438,0,0,0-.036.058.287.287,0,0,0-.018.074.53.53,0,0,0-.016.064l-.008.28-.228.007.026-.9Zm-4.708.8,0-.013c0-.006-.006-.009-.006-.015a.39.39,0,0,0-.111-.248.072.072,0,0,0-.018-.012.381.381,0,0,0-.246-.1h-.024l-2.562.076.024-.254,3.191-.1-.026.9-.23.007.008-.228Zm-3.033-14.625-.4-.011.11-3.41.608.019Zm.523,9.429.635-6.81,6.921-.229-.2,6.806Zm.965-37.5c0,.013,0,.026.006.038s.013.018.016.026a9.982,9.982,0,0,0,.065.1.223.223,0,0,0,.023.018.391.391,0,0,0,.059.042c.014.01.025.021.039.029a.2.2,0,0,0,.033.008c.009,0,.017.011.027.014a.385.385,0,0,0,.076.01c.005,0,.009,0,.015,0l.722.027-.034.375-8.991-.337-.067-.657Zm.974,1.477-.052.569-8.726-.327-.061-.574Zm-.125,1.352-.32,3.47-7.892-.286-.36-3.5Zm-.394,4.254-.049.519-7.633-.273-.054-.527Zm-.12,1.3-.32,3.454-6.8-.238-.358-3.483Zm-.392,4.238-.045.472-6.557-.23-.048-.476Zm-.117,1.254-.318,3.437-5.73-.194-.355-3.466Zm-1.664,4.179-.069.232a.2.2,0,0,0,0,.041.578.578,0,0,0-.013.058c0,.011,0,.02,0,.029s.006.041.008.06l-4.184-.14-.044-.427Zm1.161,1.25-.315,3.419-4.67-.155-.353-3.446Zm-1.653,4.161a.271.271,0,0,0,0,.029.287.287,0,0,0-.011.045c0,.009,0,.017,0,.026a.371.371,0,0,0,.013.081.361.361,0,0,0,.021.066.294.294,0,0,0,.043.067.286.286,0,0,0,.043.054.167.167,0,0,0,.011.013l-3.332-.11-.039-.376Zm-.237,1.157-.111,3.41-2.429-.077-.353-3.429Zm-.155,4.2v0a.35.35,0,0,0,.038.061.492.492,0,0,0,.048.06.26.26,0,0,0-.06.018.394.394,0,0,0-.219.183l-2.077-.067-.035-.331Zm.067,1.119.992.031-.314,3.387-2.583-.078-.35-3.41Zm-.63,4.166a.338.338,0,0,0-.069.133l-.005.006-.045.14-1.045-.03-.029-.287Zm1.136,1.107-.215,2.332-1.751.055-.253-2.457Zm-.615,6.654-.086.922-.738-.059-.086-.835Zm63.465-82.652-.006.451-7.268,4.262.009-.622a.443.443,0,0,0,.162.038H1182a.383.383,0,0,0,.18-.05c.006,0,.013,0,.019-.005Zm-6.695,3.042.08-5.805,6.059.8-.016,1.384Zm7.28-2.026,3.92-2.3.648.086-13,7.584.01-.624a.355.355,0,0,0,.159.038h.005a.38.38,0,0,0,.18-.048c.006,0,.013,0,.02-.007Zm.2-1.031.008-.678.012,0a.421.421,0,0,0,.173.048h0a.383.383,0,0,0,.18-.051c.007,0,.013,0,.019-.005l1.421-.84.634.084Zm5.637-1.015,19.122,2.543-33.591,18.376.181-12.587Zm19.968,2.976-.03,13.907-34.6,17.666.183-12.727Zm-.033,14.791v.914a.157.157,0,0,0-.016-.011.349.349,0,0,0-.067-.046.28.28,0,0,0-.058-.033.359.359,0,0,0-.093-.02c-.015,0-.03-.01-.046-.01h0l-.011,0a.412.412,0,0,0-.082.017.358.358,0,0,0-.073.021l-.012,0-9.123,4.624-8.719,4.419-8.343,4.23-7.973,4.04.006-.481Zm-1.021,73.453a.137.137,0,0,1,.015-.009.564.564,0,0,0,.067-.037.437.437,0,0,0,.061-.043.188.188,0,0,0,.026-.03v.546l-1.177-.094Zm-3.037.174-4.672-.371.354-66.069,7.023-3.533-.185,69.141Zm3.149-71a.339.339,0,0,0-.048-.008h0l-.011,0a.3.3,0,0,0-.082.017.4.4,0,0,0-.072.019s-.008,0-.011,0l-7.811,3.929a.252.252,0,0,0-.04.033.242.242,0,0,0-.031.02l0-.592,8.336-4.226,0,.91a.065.065,0,0,1-.013-.01.643.643,0,0,0-.063-.044.388.388,0,0,0-.064-.034A.453.453,0,0,0,1214.549,528.893Zm-16.736,8.342a.249.249,0,0,0-.092.049l0-.548,7.931-4.021-.005.836a.49.49,0,0,0-.044-.024.269.269,0,0,0-.066-.036.357.357,0,0,0-.086-.019.438.438,0,0,0-.05-.01h0l-.012,0a.412.412,0,0,0-.082.016.39.39,0,0,0-.071.022l-.012,0Zm7.193-2.741-.376,64.856-6.811-.536.51-60.96Zm-15.618,6.98s-.007.007-.012.009l.006-.517,7.553-3.83-.007.775-.018-.01a.265.265,0,0,0-.151-.054.417.417,0,0,0-.048-.011h0l-.012,0a.49.49,0,0,0-.081.018.345.345,0,0,0-.072.019l-.012.005Zm6.921-2.6-.525,59.783-6.457-.511.629-56.075Zm-14.925,6.631.006-.487,7.2-3.648-.007.717a.462.462,0,0,0-.057-.032.393.393,0,0,0-.085-.017.28.28,0,0,0-.05-.011h-.016a.57.57,0,0,0-.08.018.274.274,0,0,0-.071.02l-.014,0Zm6.6-2.442-.638,54.927-6.13-.486.717-51.4Zm28.093,57.2.164-74.4,2.616-1.333-.079,75.945Zm.168-75.28.029-13.936,2.6-1.421-.014,14.022Zm-.438-14.576-20.316-2.7-1.921-.255-1.9-.253-1.525-.2-.578-.078h0l-.576-.075h0l-6.843-.911-.552-.073-.55-.074-.259-.034-3.422-.454-1.4-.187-1.383-.185h0l-.208-.027h0l-30.569-4.064-4.538-.6-4.271-.567-1.409-.188-8.35-1.111-4.29-.57-1.4-.186-4.619-.614v0a.4.4,0,0,0-.43-.352.393.393,0,0,0-.352.43l.031.313h0l.094.9.025.254.081.785.156,1.524.026.255.081.779.082.8.111,1.072.11,1.075.65,6.328.027.26.077.745.162,1.584v0l.027.259.077.737.164,1.6h0l.026.261h0l.075.727h0l.238,2.307,1.36,13.228,1.727,16.786.148,1.446.14,1.365.442,4.294.135,1.315.439,4.272.131,1.265.436,4.255.126,1.215.435,4.236.12,1.168.435,4.218.115,1.123.431,4.2.112,1.077.334,3.266v0l.031.274.05.5v0l.015.14.106,1.029.082.8.028.276.05.488.113,1.114-7.7-.609-.033-.325h0l-.051-.491-.026-.272-.131-1.307h0l-.067-.66h0l-.05-.494v0l-.028-.273h0l-.381-3.79-.109-1.079-.423-4.2-.113-1.125-.426-4.223-.117-1.173-.427-4.24-.123-1.219-.428-4.263-.128-1.267-.432-4.28-.132-1.315h0l-.433-4.3-.136-1.367-.147-1.452-1.621-16.107-1.329-13.206-.232-2.3-.073-.728-.027-.258-.16-1.6-.075-.736-.025-.259-.159-1.581v0l-.076-.744h0l-.025-.257-.717-7.117-.108-1.075-.106-1.064-.079-.776-.026-.256-.152-1.521-.08-.783-.025-.256-.152-1.507-.054-.53a.375.375,0,0,0,.2-.272.394.394,0,0,0-.338-.441l-.245-.032-.663-.088-9.882-1.315-2-.266-1.258-.167h0l-.011,0h-.006l-.512-.071-1.993-.263-18.993-2.526-6.017-.8-1.764-.235c-.016,0-.029,0-.044,0s-.02,0-.031,0a.19.19,0,0,0-.032.009.333.333,0,0,0-.1.029l-.028.012a.408.408,0,0,0-.092.072.17.17,0,0,0-.025.029.415.415,0,0,0-.05.084.429.429,0,0,0-.02.063c0,.015-.012.027-.014.043a.24.24,0,0,0,0,.039c0,.013-.006.024-.005.037l1.989,32.126a.393.393,0,0,0,.392.368h.024a.393.393,0,0,0,.368-.417l-1.959-31.648.967.127.926,16.921a.393.393,0,0,0,.392.372h.022a.4.4,0,0,0,.37-.416l-.917-16.77,5.175.688-.52,6.063v0l-.021.254v.007l-.068.785-.13,1.507v.005l-.021.257v.005l-.067.774,0,0-.13,1.523h0l-.022.257v.005l-.064.766,0,.005-.795,9.265-.021.258v.007l-.064.732v.006l-.135,1.583v0l-.022.249,0,.005-.062.737-.137,1.594h0v0l-.021.26v0l-.062.721-.2,2.3,0,.006-1.131,13.2-.323,3.776,0,0-4.232,49.3-6.608-.522,4.206-48.465.226-2.614h0v-.01l.14-1.618v-.009l1-11.52a.393.393,0,0,0-.358-.425.381.381,0,0,0-.424.356l-.967,11.12-.143-.015-1.1-11.342-.29-3-.07-.719h0l-.025-.257h0l-.152-1.576h0l-.072-.727v0l-.023-.252v0l-.152-1.564-.071-.737h0l-.027-.256v0l-.679-7.009-.061-.646-.145-1.5-.076-.767h0l-.024-.251h0l-.058-.589v0l-.006-.077v-.005l-.081-.83h0l-.075-.774v0l-.024-.249v0l-.145-1.49-.076-.783-.024-.252-.944-9.74-.008-.076-.142-1.467-.046-.485,4.287-4.325,165.98,22.78-5.9,3.223Zm-156.5,25.611-10.232-1.1.738-12.372,7.64.877,1.1,11.345c0,.007.008.011.01.018a.377.377,0,0,0,.109.218.188.188,0,0,0,.03.026.383.383,0,0,0,.2.09l.479.053Zm-5.75-17.423a.4.4,0,0,0,.025-.178l-.038-.327,3.377-.163.075.8-3.473.164a.36.36,0,0,0,.043-.213Zm.149-2.556a.411.411,0,0,0,.024-.175l-.039-.341,2.982-.143.077.782-3.066.147a.384.384,0,0,0,.032-.19Zm.892-15.234a.391.391,0,0,0,.023-.168l-.042-.414.623-.031.02.209.048.5h-.019l-.648.034a.335.335,0,0,0,0-.045Zm.94-28.5,0,0,.085-1.45.549-.589h0l.188-.2v0l.069-.073,1.844-1.974.477-.512.58-.621-.866,15.147-3.719,3.751.192-3.263v-.01l.6-10.189Zm9.319-5.347h0l.8.117h0l7.236,1.059,18.041,2.64h0l1.974.289h0l.506.074h.01l1.256.184,1.986.291,7.092,1.037,8.294,1.214,26.3,3.848,5.964.872,30.316,4.435,6.359.931h0l.253.037h0l.546.08.548.081,6.789.992.571.083h0l.571.085h0l7.118,1.042h0l.6.088h0l.6.088,8.107,1.186h0l.631.093.633.092h0l8.555,1.252h0l.666.1h0l.671.1h0l1.346.2h0l1.373.2,1.37.2.662.1.055.009,6.559.959.035,14.185-3.024-.414-167-22.92.891-15.589,1.281.187h0l.506.075Zm-2.261-1.125.179-.249.49-.336.606-.146.579.036.709.149.279.088-.071.815-.271-.02c-.012,0-.021,0-.033,0s-.008,0-.013,0l-.116.006Zm35.364-13.569.577-13.07a.394.394,0,0,0-.375-.411.4.4,0,0,0-.409.376l-.592,13.391-.8,18.222-1.2-.176,1.481-33.033h0l1.016-22.7,3.853,38.286Zm3.629,1.716,1.794,17.819-6.244-.913.787-17.821Zm-4.117-40.416a.4.4,0,0,0-.068-.019.382.382,0,0,0-.077-.02l-1.235-.081h-.009c-.013,0-.024.006-.038.007a.408.408,0,0,0-.079.011l.48-10.571,1.079,10.712A.283.283,0,0,0,1097.473,413.556Zm-1.032.69.451.03-1.041,23.244-1.477,32.954-.474-.07Zm14.3,42.014,27.7,6.922-.4,13.68-25.563-3.74Zm34.044,21.589.354-12.993,29.34,7.332-.166,9.981Zm30.312,4.435.171-10.2,5.62-4.022-.218,15.035Zm14.243-43.95-.531,45.956-6-.878.476-34.264Zm-6.032,9.162.145-10.374,6-8.307-.091,7.874Zm6.306-20.218.422-.586-.006.537a.368.368,0,0,0-.168-.043h0c-.017,0-.029.007-.044.008s-.023.005-.037.008A.388.388,0,0,0,1189.618,427.278Zm8-3.711-.537,61.932-6.334-.927.556-49.729Zm-6.3,9.633.08-7.076,6.27-8.686-.038,4.492Zm6.444-17.228.511-.709,0,.611a.392.392,0,0,0-.193-.06h0c-.015,0-.029.008-.045.009l-.036.008a.38.38,0,0,0-.223.138Zm18.641-24.479-.193,96.8-7.77-1.137.417-83.668,3.874-6.916Zm-.322-.9.127-.227.845-1.171,0,.783-.015-.009s0-.011-.009-.014-.013,0-.018-.005a.386.386,0,0,0-.211-.07h0c-.015,0-.029.008-.045.009a.2.2,0,0,0-.035.007.379.379,0,0,0-.223.138s-.012,0-.015.009Zm-7.83,10.845v-.026l3.905-5.42-.095.169Zm7.286-11.482-8,11.1-6.242,8.664,14.355-19.972Zm-8.078,12.556,0,.689c-.005,0-.009,0-.013,0a.388.388,0,0,0-.21-.07h0a.249.249,0,0,0-.046.009.205.205,0,0,0-.034.007.383.383,0,0,0-.224.138s-.01,0-.014.008l-6.73,9.322Zm-.627,2.234-.005.76-7.2,12.865.029-3.682Zm-.013,2.387-.432,79.728-7.321-1.071.542-65.784Zm11.516,81.475.154-102.315.518-.923-.108,103.321Zm1.564-80.285-.131-.025.026-23.828,123.1,55.77,2.88,67.012-.381-.056-2.829-66.421a.313.313,0,0,0-.013-.05.334.334,0,0,0-.025-.092.215.215,0,0,0-.016-.025.372.372,0,0,0-.176-.174l-28.461-12.875-.019-.008-.024-.011-29.293-13.25a.3.3,0,0,0-.083-.039l-30.207-13.663a.352.352,0,0,0-.084-.037L1220.884,385.5h-.005a.474.474,0,0,0-.074-.017.384.384,0,0,0-.08-.017h0a.262.262,0,0,0-.038.008.341.341,0,0,0-.108.021.3.3,0,0,0-.046.029.244.244,0,0,0-.125.117.385.385,0,0,0-.042.056v.005a.333.333,0,0,0-.016.071.347.347,0,0,0-.017.081v.005l-.058,103.035-.586-.086.083-79.708c.02,0,.038.005.056.005a.393.393,0,0,0,.076-.779Zm130.19,8,4.234,92.182-7.76-1.135-2.9-67.4v-.005l-.833-19.386Zm-7.3,3.369-.092-2.182,7.245-4.3.1,2.22Zm-1.336,21.9a.337.337,0,0,0-.018-.072.3.3,0,0,0-.013-.059.456.456,0,0,0-.069-.112l-.006-.008a.362.362,0,0,0-.155-.1l-26.084-11.78h0a.278.278,0,0,0-.128-.031c-.011,0-.022,0-.034,0s-.007,0-.011,0-.028.008-.043.01a.411.411,0,0,0-.1.023c-.018.008-.033.022-.051.032a.232.232,0,0,0-.114.112.547.547,0,0,0-.04.054l0,.012a.439.439,0,0,0-.017.074.413.413,0,0,0-.013.077l0,.011,2.419,73.217-.427-.063-2.427-74.441,27.665,12.515,2.811,66.031-.384-.057Zm1.965,65.323-25.656-3.753-2.4-72.728,25.316,11.433Zm-30.477-78.2a.309.309,0,0,0-.013-.057.467.467,0,0,0-.02-.082.387.387,0,0,0-.055-.089c-.009-.009-.012-.021-.021-.03a.369.369,0,0,0-.17-.109l-26.8-12.1a.29.29,0,0,0-.24-.078h-.028c-.015,0-.028.008-.044.01a.37.37,0,0,0-.1.023.276.276,0,0,0-.057.035.383.383,0,0,0-.067.047.377.377,0,0,0-.047.065.292.292,0,0,0-.037.051v.01a.306.306,0,0,0-.018.075.516.516,0,0,0-.014.077v.009l1.861,82.1-.474-.069-1.853-83.347,28.571,12.924,2.436,74.687-.429-.063Zm1.595,73.969-26.671-3.9-1.851-81.607,26.148,11.809Zm-31.011-87.25c0-.012-.008-.024-.009-.037a.392.392,0,0,0-.031-.116l0,0a.4.4,0,0,0-.19-.193l-27.81-12.558,0,0a.439.439,0,0,0-.085-.019.391.391,0,0,0-.068-.014h-.009a.378.378,0,0,0-.051.011.443.443,0,0,0-.093.02.534.534,0,0,0-.056.035.457.457,0,0,0-.07.048.634.634,0,0,0-.046.065.362.362,0,0,0-.038.053l0,.007a.428.428,0,0,0-.016.073.363.363,0,0,0-.016.079v.008l1.086,91.234-.527-.078-1.057-92.506,29.522,13.353,1.858,83.59-.476-.071Zm1.021,82.862-27.744-4.059-1.078-90.741,27.021,12.2Zm81.565-78.044-3.639,2.042-.187-3.738Zm-2.642-2.03,3.3.684-.1.734Zm3.711,2.332s.006-.007.011-.01.015-.014.025-.021l.007-.007a.272.272,0,0,0,.032-.027.405.405,0,0,0,.072-.1c.006-.009.016-.013.019-.023s0-.019.008-.028.009-.025.012-.038l9.583,1.977-5.551,3.037-8.865-1.8-.017-.346Zm.3-1.029.066-.459,11.084,2.3-.612.335Zm3.607,6.531.291,5.459-8.528-1.7-.275-5.49Zm.334,6.269.187,3.53h0l.1,1.776.014.259-8.546-1.665-.281-5.6Zm.339,6.374.5,9.389-8.577-1.612-.472-9.442Zm.544,10.2.025.472-8.582-1.606-.023-.48Zm.068,1.28.024.474-8.585-1.6-.024-.481Zm.068,1.281,3.307,62.085-8.776-1.274-3.118-62.412Zm28.681,265.034h.028a.27.27,0,0,0,.057-.016.35.35,0,0,0,.082-.021.376.376,0,0,0,.059-.039.315.315,0,0,0,.063-.048c.016-.017.025-.037.04-.056a.7.7,0,0,0,.04-.068.681.681,0,0,0,.014-.07.346.346,0,0,0,.015-.068.059.059,0,0,0,0-.017l0-.013-3.629-62.717a.225.225,0,0,0-.015-.058.272.272,0,0,0-.017-.07.442.442,0,0,0-.05-.085c-.009-.012-.016-.023-.026-.035a.429.429,0,0,0-.1-.077l-.013-.007a.38.38,0,0,0-.117-.031.243.243,0,0,0-.031-.007l-13.595-.724-.03-.559,14.212.77,3.763,64.63-14.5-.146-.034-.62Zm-13.827-.938-3.33-62.5,13.162.7,3.583,61.946Zm14.986,2.342h.027c.02,0,.037-.012.057-.015a.644.644,0,0,0,.082-.022.576.576,0,0,0,.058-.039.326.326,0,0,0,.063-.047.357.357,0,0,0,.039-.057.476.476,0,0,0,.042-.069.435.435,0,0,0,.015-.07.4.4,0,0,0,.014-.069c0-.006,0-.011,0-.015l0-.013-3.807-65.4c0-.022-.012-.039-.015-.061a.408.408,0,0,0-.016-.065.5.5,0,0,0-.062-.1.042.042,0,0,0-.01-.012.338.338,0,0,0-.247-.122.047.047,0,0,0-.021-.006l-14.648-.793-.029-.558,15.261.841,3.942,67.308-15.581-.143-.033-.62Zm.79,1.4,1.1,18.834-15.674.064-1.015-19.042Zm.787.007,48.573.441,1.355,18.178-48.826.2Zm-.047-.788-3.938-67.271,47.652,2.619,4.847,65.094Zm-4.334-68.078-15.7-.865-.672-12.6,63.46,4.056.9,12.05Zm-16.412-14.258-.4-7.626,41.539,2.888,1.1.078,55.489,3.855-1.225.179-32.648,4.707ZM1222.645,509.806a.31.31,0,0,0,.044,0l.012,0,135.6,18.223.61,12.964-136.1-17.067a.141.141,0,0,0-.029,0c-.011,0-.018-.009-.029-.011l-3.1-.388.014-14.131Zm-2.136-1.08,5.775-3.16,2.154.3-5.815,3.148Zm2.141,15.978.044,0c.006,0,.009.005.014.006l136.237,17.082,3.291,70.021L1222.8,600.789c-.009,0-.012.006-.019.006s-.026-.009-.039-.009l-3.175-.252.079-76.207Zm141.433,4.108.633,12.916-5.016-.63-.61-12.956Zm-3.8-1.3,3.668-1.371.094,1.875Zm-.545,14.386,5.017.627,3.416,69.76-5.146-.406Zm16.128-26.216.028.542-8.785-1.259-.028-.549Zm-8.824-2.064-.027-.548,8.779,1.273.029.539Zm6.2-62.011,12.357,2.3,3.563,61.576-12.615-1.827Zm16.284,64.727a.368.368,0,0,0,.056.005h.023a.4.4,0,0,0,.212-.088.3.3,0,0,0,.029-.021.4.4,0,0,0,.115-.208c0-.008.01-.013.011-.019a.326.326,0,0,1,0-.042.235.235,0,0,0,.005-.039l-3.609-62.365c0-.009-.007-.017-.009-.027a.3.3,0,0,0-.024-.089.255.255,0,0,0-.021-.048.408.408,0,0,0-.076-.1l-.012-.012a.382.382,0,0,0-.107-.063l-.033-.013a.349.349,0,0,0-.039-.016l-12.846-2.394-.026-.473,13.437,2.515,3.736,64.134-13.727-1.979-.03-.54Zm6.417,96.736-14.162-1.134-.033-.639,13.361,1.084h.054a.386.386,0,0,0,.226-.1c.006-.007.014-.009.022-.019a.377.377,0,0,0,.111-.225c0-.009.009-.013.011-.022s0-.019,0-.028,0-.017,0-.027l-3.693-63.817c0-.012-.01-.024-.011-.039a.337.337,0,0,0-.022-.081.317.317,0,0,0-.031-.061.389.389,0,0,0-.047-.062.52.52,0,0,0-.061-.054l-.05-.029a.335.335,0,0,0-.092-.031.209.209,0,0,0-.031-.009l-13.217-1.633-.031-.571,13.865,1.726ZM1392.9,547.4l24.451,3.044,4.321,64.681-24.942-1.995Zm-25.709-2.193a.16.16,0,0,0-.005.032l3.223,64.8c0,.007.009.01.009.018a.38.38,0,0,0,.107.235l.025.019a.373.373,0,0,0,.22.1l10.184.824.033.64L1370.068,611l-3.3-66.85,10.682,1.328.03.573-9.855-1.219c-.012,0-.023,0-.035,0s-.022-.005-.033,0a.176.176,0,0,0-.031.008.344.344,0,0,0-.24.121h0a.358.358,0,0,0-.066.11.2.2,0,0,0-.016.052.342.342,0,0,0-.017.052C1367.188,545.184,1367.191,545.2,1367.191,545.207Zm11.124,1.736,12.755,1.575,3.647,63.04L1381.7,610.5Zm2.6,63.5-9.735-.789-3.183-63.984,9.531,1.178Zm-3.466-79.831,40.005,5.375.837,12.463-40.16-5.038Zm-.042-.8-.676-12.674,39.839,5.707.83,12.341Zm-.718-13.473-.029-.542,14.049,2.025,25.019,3.606a.277.277,0,0,0,.057.005h.026a.382.382,0,0,0,.207-.087.226.226,0,0,0,.031-.023.39.39,0,0,0,.115-.206c0-.009.008-.014.008-.02a.179.179,0,0,0,0-.041.321.321,0,0,0,.006-.041l-4.273-63.936c0-.009-.006-.016-.006-.025a.414.414,0,0,0-.026-.091c-.007-.017-.013-.034-.022-.051a.4.4,0,0,0-.061-.075.3.3,0,0,0-.039-.04.436.436,0,0,0-.066-.038.305.305,0,0,0-.079-.032.116.116,0,0,0-.02-.008l-24.528-4.592-13.927-2.607-.026-.473,39,7.335,4.41,65.661Zm10.717-63.348,23.735,4.444,4.219,63.147-24.22-3.492ZM1376.653,530.5l.683,12.808-11.83-1.485-.633-12.907Zm-8.445,82.573.673,13.733-5.171-.362-.649-13.779Zm-2.663-70.452,11.833,1.483.031.571-11.007-1.371c-.012,0-.022,0-.034,0s-.022-.007-.033-.006-.026.01-.039.012a.48.48,0,0,0-.093.021c-.015.007-.027.016-.042.022a.329.329,0,0,0-.081.063.281.281,0,0,0-.032.036.586.586,0,0,0-.049.079.508.508,0,0,0-.019.064.267.267,0,0,0-.016.048c0,.013,0,.024,0,.035a.185.185,0,0,0-.005.032l3.339,67.663c0,.009.009.011.009.02a.38.38,0,0,0,.108.236c.007.007.015.011.022.018a.374.374,0,0,0,.222.1l11.368.913.034.639-12.106-.957Zm15.561,71.474.725,13.609-12.161-.845L1369,613.139Zm.713-1.37,14.507,1.159,25.737,2.06h.059a.376.376,0,0,0,.22-.1.211.211,0,0,0,.025-.02.382.382,0,0,0,.11-.222c0-.01.009-.016.01-.023s0-.019,0-.03,0-.018,0-.029l-4.374-65.461c0-.013-.009-.024-.01-.037a.393.393,0,0,0-.023-.083.452.452,0,0,0-.028-.055.416.416,0,0,0-.054-.07.38.38,0,0,0-.048-.041.433.433,0,0,0-.069-.042.484.484,0,0,0-.074-.023.231.231,0,0,0-.037-.013l-25.24-3.141-14.33-1.786-.03-.568,40.17,5.037,4.525,67.365-41.011-3.244Zm41.1,4.675.888,13.222-41.186-2.864-.724-13.6Zm1.883.043,4.8-.9h0l.037-.008.925,13.328-4.87.8Zm-.487-.708a.186.186,0,0,0-.055.022.393.393,0,0,0-.068.026.728.728,0,0,0-.062.048.348.348,0,0,0-.051.051.313.313,0,0,0-.038.067.3.3,0,0,0-.029.066.427.427,0,0,0-.011.081.28.28,0,0,0-.006.049l.916,13.553-.313-.021-.917-13.67-4.578-68.141-.857-12.778,5.711.767h.024l5.467,78.915Zm-6.123-81.447-.861-12.818-4.431-65.942,5.543,1.042a.329.329,0,0,0,.044,0l5.439,78.484Zm-5.645-79.627-39.487-7.426-.5-9.383,45.194,8.8a.231.231,0,0,0,.046.005l.63,9.111Zm-40.071-18.38-.052-.967,45.157,8.87c.017,0,.033,0,.048,0l.064.92Zm-5.146,87.592.016-.009a.46.46,0,0,0,.07-.044c.006,0,.014-.008.02-.013a.169.169,0,0,0,.017-.011l.019-.019a.372.372,0,0,0,.042-.057.4.4,0,0,0,.042-.069.548.548,0,0,0,.013-.063l.005-.013c0-.006.007-.01.008-.016s0-.011,0-.017,0-.027,0-.039,0-.011,0-.018l-.437-8.725,8.788,1.259.675,12.682-11.776-1.583-.111-2.27Zm-3.15.337-5.549,2.074L1224,509.2l5.811-3.146,135.783,18.634Zm-134.422-34.934c-.009,0-.018,0-.029,0h0c-.008,0-.015-.01-.024-.01l-6.893-1.008a.139.139,0,0,0-.029,0,.094.094,0,0,0-.026-.01l-.326-.048.006-79.665a.429.429,0,0,0,.172.1c.011,0,.021.012.033.015a.171.171,0,0,0,.022,0h0a.387.387,0,0,0,.073.01.389.389,0,0,0,.179-.735l-.019-.009a.423.423,0,0,0-.06-.03l-.025-.006a.2.2,0,0,0-.024,0c-.009,0-.016-.007-.024-.009l-.03,0a.382.382,0,0,0-.068,0l-.017,0a.366.366,0,0,0-.216.1l0-20.519,29.947,13.524,1.008,91.753Zm23.41-88.553a.436.436,0,0,0-.013-.064.53.53,0,0,0-.018-.078.422.422,0,0,0-.045-.074.464.464,0,0,0-.035-.051.38.38,0,0,0-.09-.065.34.34,0,0,0-.031-.022l-.007,0,0,0L1222.2,387.494h0a.486.486,0,0,0-.073-.018.428.428,0,0,0-.084-.016h0c-.011,0-.02.006-.031.006a.413.413,0,0,0-.116.024.322.322,0,0,0-.05.031.43.43,0,0,0-.077.051.359.359,0,0,0-.046.067.42.42,0,0,0-.039.053v.005a.349.349,0,0,0-.017.071.483.483,0,0,0-.016.081l0,.005-.008,101.24-.584-.085.059-102.541,32.53,14.715,1.06,92.749-.526-.077Zm-33.6,199.6,3.112.246h.037a.038.038,0,0,1,.021.007l139.536,11.031.648,13.787-140.123-9.74a.17.17,0,0,0-.032,0c-.009,0-.017-.006-.026-.006l-3.19-.223Zm144.179,25.914,5.174.362,5.446,111.224-5.375.024Zm5.963.416,12.164.844.43,8.071.713,13.4.071,1.346.073,1.348,3.372,63.3.074,1.407.075,1.408,1.055,19.812h0v.018l.009.154-12.595.056Zm18.453,111.893h.018c.021,0,.039-.012.057-.014a.452.452,0,0,0,.086-.022.552.552,0,0,0,.061-.042.336.336,0,0,0,.06-.045.488.488,0,0,0,.042-.064.372.372,0,0,0,.039-.065.365.365,0,0,0,.014-.069.414.414,0,0,0,.014-.072l0-.011,0-.01-.009-.153,16.05-.067,49.253-.205.349,4.674-78.789.631-.217-4.407Zm65.028-20.221-4.906-65.862-.928-12.473,31.912-4.6,8.7,101.841-33.4-.308Zm34.849,19.692.423,4.961-33.479-.592-.348-4.677Zm-7.992-102.742,4.094-.59,8.935,102.591-4.314-.038Zm13.1,102.79.436,5-4.329-.076-.423-4.968Zm-3.613-103.872-5.009-.347-55.812-3.88,2.288-.377,60.8,4.282Zm5.543-.879-63.727-4.488-.925-13.329.647.052.619.049h0l.479.041h0l1.1.087.614.048.482.04,1.1.087.61.048.483.04,1.093.086.6.051.484.038,1.089.086.6.048.486.039,1.086.087.6.048.487.039,1.081.087.593.047.488.038,1.078.088.59.048.488.038,1.075.088.582.044h0l.49.042h0l1.072.085.58.047.492.038,1.068.085.576.047.491.04,1.066.085.571.045.494.041,1.062.084.568.047.494.038,1.06.084.563.046h0l.494.038,1.057.085.558.046.5.042,1.053.081.556.046.495.039,1.051.084.552.046h0l.5.038,1.045.086.548.043.5.039,1.041.084.545.043h0l.5.039,1.04.085.54.043.5.04,1.038.085.536.043.5.038,1.035.082.53.044.5.041h0l1.031.083.527.041.5.04,1.029.083.524.041.5.042,1.026.08.518.042.505.041h0l1.023.08.515.045h0l.5.038,1.021.083.512.041.506.04,1.016.082h.007l.006,0h0l.495.039.507.04,1.013.081.505.04.508.041,1.008.082h0l.5.039h0l.507.04.678.055Zm-75.259-187.331.044.626-.476-.093-.044-.625Zm-.485-.206-.111-1.612.476.093.111,1.611Zm.537.947.685,9.79-.478-.09-.682-9.792Zm.693,9.9,5.537,79.066-.494-.066-5.52-79.09Zm5.544,79.18,5.531,79-.5-.04h0l-5.518-79.025Zm-4.2-89.417.043.624-.472-.091-.043-.624Zm-.48-.206-.114-1.61.473.093.112,1.608Zm.531.946.691,9.777-.473-.09-.689-9.779Zm.7,9.891,5.587,78.959-.489-.064-5.572-78.985Zm5.594,79.073,5.582,78.887-.5-.04h0l-5.568-78.911Zm-4.265-89.3.044.625-.467-.092-.043-.623Zm-.475-.2-.115-1.607.467.092.115,1.606Zm.528.944.7,9.764-.469-.088-.7-9.767Zm.707,9.878,5.636,78.854-.486-.064-5.62-78.878Zm5.644,78.969,5.629,78.774-.493-.039h-.006l-5.614-78.8ZM1426.06,448.2l.045.623-.463-.09-.045-.623Zm-.47-.2-.117-1.6.464.091.114,1.6Zm.523.942.7,9.751-.466-.088-.7-9.753Zm.713,9.866,5.687,78.75-.481-.065-5.671-78.773Zm5.694,78.863,5.679,78.661-.489-.038h-.005L1432.04,537.6Zm-4.39-89.062.044.621-.458-.089-.045-.621Zm-.468-.2-.117-1.6.46.09.117,1.6Zm.521.94.711,9.738-.462-.086-.707-9.741Zm.719,9.853,5.736,78.647-.477-.065-5.72-78.668Zm5.743,78.759,5.728,78.552-.486-.041h0l-5.713-78.575Zm-4.451-88.945.045.619-.455-.088-.046-.619Zm-.465-.2-.117-1.6.455.089.118,1.6Zm.518.939.717,9.727-.458-.086-.714-9.729Zm.726,9.841,5.783,78.541-.471-.064-5.77-78.563Zm5.79,78.653,5.777,78.439-.479-.038h-.006l-5.762-78.464Zm-4.511-88.828.045.619-.451-.087-.046-.619Zm-.461-.2-.119-1.6.452.088.119,1.6Zm.515.938.722,9.713-.454-.084-.72-9.716Zm.73,9.827,5.832,78.437-.466-.062-5.819-78.459Zm5.841,78.55,5.824,78.328-.476-.037h0l-5.811-78.354Zm-4.574-88.711.047.618-.449-.087-.045-.618Zm-.456-.2-.12-1.6.447.088.12,1.6Zm.511.935.728,9.7-.449-.085-.728-9.7Zm.737,9.816,5.879,78.333-.461-.063-5.868-78.355Zm5.888,78.446,5.873,78.218-.471-.039h-.006l-5.858-78.243Zm-4.634-88.6.047.618-.444-.086-.047-.618Zm-.453-.2-.12-1.594.443.088.122,1.593Zm.508.934.734,9.689-.445-.084-.732-9.691Zm.743,9.8,5.928,78.229-.458-.061-5.915-78.252Zm5.937,78.341L1449,617.2l-.467-.036h-.005l-5.906-78.132Zm-4.695-88.479.047.617-.439-.085-.049-.616Zm-.449-.2-.121-1.591.44.086.12,1.591Zm.505.932.74,9.676-.441-.083-.739-9.679Zm.748,9.791,5.977,78.125-.454-.061-5.964-78.147Zm5.986,78.237,5.967,78-.463-.037h-.007l-5.953-78.023Zm-4.756-88.362.048.616-.436-.085-.048-.616Zm-.445-.2-.122-1.59.435.086.124,1.588Zm.5.929.746,9.664-.439-.082-.745-9.667Zm.754,9.779,6.023,78.023-.451-.061-6.01-78.046Zm6.032,78.135,6.014,77.888-.457-.037h-.007l-6-77.912Zm-4.815-88.248.048.615-.432-.084-.047-.615Zm-.44-.2-.124-1.587.431.085.125,1.586Zm.5.929.752,9.651-.435-.082-.75-9.652Zm.761,9.765,6.071,77.918-.447-.058-6.059-77.941Zm6.08,78.033,6.06,77.78-.454-.038h-.007l-6.047-77.8Zm-4.876-88.133.049.613-.427-.083-.049-.614Zm-.436-.2-.125-1.585.429.084.124,1.585Zm.495.927.757,9.638-.43-.081-.756-9.64Zm.766,9.753,6.119,77.817-.444-.06-6.1-77.838Zm6.127,77.931,6.106,77.669-.449-.036h-.007l-6.093-77.693Zm-4.934-88.019.049.613-.425-.083-.048-.612Zm-.433-.2-.126-1.582.425.083.126,1.582Zm.491.926.764,9.625-.427-.079-.761-9.628Zm.773,9.74,6.164,77.714-.438-.058L1446.9,462.58Zm6.173,77.827,6.152,77.563-.445-.036h-.006l-6.14-77.585Zm-4.992-87.9.05.612-.421-.083-.049-.611Zm-.429-.2-.125-1.58.419.082.125,1.579Zm.487.924.769,9.613-.421-.079-.767-9.616Zm.779,9.728,6.21,77.612-.434-.059-6.2-77.632Zm6.219,77.725,6.2,77.454-.439-.037h-.009l-6.184-77.476Zm-5.05-87.789.05.611-.418-.08-.048-.612Zm-.426-.2-.127-1.578.416.082.129,1.577Zm.485.923.774,9.6-.416-.078-.775-9.6Zm.783,9.716,6.257,77.51-.429-.057-6.246-77.533Zm6.267,77.623,6.243,77.344-.436-.035h-.008l-6.23-77.368Zm-5.109-87.675.051.61-.413-.08-.05-.61Zm-.421-.2-.128-1.576.411.081.129,1.576Zm.481.921.779,9.588-.414-.076-.779-9.592Zm.789,9.7,6.3,77.409-.427-.055-6.29-77.43Zm6.311,77.523,6.29,77.237-.432-.035h-.007l-6.277-77.259Zm-5.164-87.562.051.61-.41-.079-.05-.611Zm-.419-.194-.129-1.574.409.08.129,1.574Zm.478.919.786,9.576-.41-.077-.786-9.579Zm.8,9.692,6.349,77.307-.424-.057-6.334-77.328Zm6.357,77.419,6.334,77.13-.428-.033-.009,0-6.319-77.151Zm-5.222-87.447.05.608-.4-.079-.051-.608Zm-.415-.194-.131-1.572.406.079.132,1.573Zm.475.917.791,9.565-.406-.077-.792-9.566Zm.8,9.679,6.393,77.208-.419-.056-6.38-77.228Zm6.4,77.32,6.377,77.024-.423-.035h-.008l-6.367-77.044Zm-5.281-87.335.051.608-.4-.078-.051-.609Zm-.411-.193-.132-1.57.4.079.131,1.57Zm.472.916.8,9.552-.406-.076-.8-9.554Zm.808,9.666,6.437,77.107-.416-.057-6.425-77.125Zm6.445,77.22,6.424,76.914-.42-.032-.008,0-6.411-76.937Zm-5.336-87.223.052.606-.4-.076-.051-.607Zm-.407-.192-.131-1.568.4.078.13,1.568Zm.469.914.8,9.54-.4-.075-.8-9.542Zm.813,9.654,6.481,77.007-.412-.056-6.468-77.026Zm6.492,77.119,6.465,76.809-.415-.033-.009,0-6.454-76.83Zm-5.394-87.109.052.605-.394-.076-.051-.606Zm-.4-.192-.133-1.566.393.078.134,1.564Zm.464.912.809,9.528-.394-.074-.809-9.531Zm.819,9.643,6.526,76.905-.407-.055-6.514-76.925Zm6.536,77.018,6.509,76.7-.41-.032h-.009l-6.5-76.723Zm-5.449-87,.053.6-.391-.076-.051-.605Zm-.4-.191-.135-1.564.39.077.134,1.563Zm.461.91.812,9.517-.391-.075-.812-9.517Zm.822,9.631,6.573,76.8-.405-.055-6.559-76.823Zm6.581,76.918,6.553,76.6-.405-.034-.01,0-6.541-76.617Zm-5.5-86.885.053.6-.386-.075-.053-.6Zm-.4-.191-.133-1.561.386.076.134,1.561Zm.46.91.819,9.5-.388-.073-.818-9.505Zm.829,9.618,6.614,76.7-.4-.053-6.6-76.725Zm6.625,76.818,6.595,76.492-.4-.032-.01,0-6.584-76.511Zm-5.7-88.447.135,1.559-.383-.075-.135-1.559Zm-.393-.189-1.648-19,.379.08,1.651,19Zm.538,1.863.052.6-.382-.075-.052-.6Zm.062.718.826,9.49-.386-.072-.823-9.493Zm.836,9.607,6.657,76.6-.4-.051-6.647-76.625Zm6.668,76.716,6.638,76.387-.4-.031h-.01l-6.626-76.406Zm-5.76-88.332.135,1.557-.381-.075-.134-1.556Zm-.39-.189L1468.072,436l.375.079,1.663,18.971Zm.535,1.861.053.6-.38-.074-.052-.6Zm.063.716.831,9.48-.383-.072-.827-9.481Zm.84,9.6,6.7,76.507-.393-.054-6.689-76.524Zm6.711,76.62,6.68,76.279-.391-.031h-.011l-6.67-76.3Zm-5.816-88.221.138,1.554-.376-.073-.137-1.555Zm-.386-.188L1470.01,436.4l.372.079,1.672,18.947Zm.533,1.858.054.6-.377-.074-.053-.6Zm.062.715.837,9.468-.376-.071-.835-9.469Zm.847,9.583,6.744,76.408-.387-.053-6.734-76.426Zm6.755,76.519,6.723,76.176-.389-.031h-.011l-6.713-76.2Zm1.611.149-6.786-76.443-.849-9.573-.064-.715-.149-1.668-.926-10.443.337-.146,15.58,175.177-.372-.026h-.01Zm-6.963-99.628.347-.15,15.784,176.13-.382-.031h-.011Zm1.821-.789.343-.149,15.986,177.08-.377-.03h-.012Zm1.769-1.256-.8-8.854a.056.056,0,0,0-.056-.05h-.006a.054.054,0,0,0-.049.06l.807,8.89-.065.029a.389.389,0,0,0,.135.747l16.113,177.488-.885-.071h-.011l-16.93-187.193a.056.056,0,0,0-.055-.05h-.006a.055.055,0,0,0-.049.06l16.928,187.173-.384-.031h-.012L1476.79,443.528l-.882-9.771a.051.051,0,0,0-.06-.05.054.054,0,0,0-.05.06l.879,9.731-.343.149-.92-10.194a.055.055,0,0,0-.055-.05h-.006a.055.055,0,0,0-.05.06l.926,10.27,15.942,176.921-.887-.07h-.011l-16.807-187.23a.058.058,0,0,0-.056-.051h-.005a.054.054,0,0,0-.05.06l16.806,187.211-.384-.03h-.01l-15.793-176.226-.963-10.758a.057.057,0,0,0-.056-.051h-.005a.056.056,0,0,0-.051.06l.962,10.719-.347.15-1-11.183a.055.055,0,0,0-.055-.05h-.006a.054.054,0,0,0-.049.06l1.006,11.259,15.74,175.972-.891-.072h-.011l-16.687-187.269a.055.055,0,0,0-.055-.05h-.006a.054.054,0,0,0-.049.06l16.685,187.249-.384-.031h-.011l-15.588-175.273-1.045-11.749a.055.055,0,0,0-.055-.05h-.005a.056.056,0,0,0-.05.06l1.041,11.709-.337.146-.754-8.485c0-.007-.011-.007-.014-.013l-.326-3.672a.053.053,0,0,0-.06-.051.056.056,0,0,0-.051.061l.328,3.681,1.689,19.046.148,1.667.064.715.85,9.574,6.786,76.443,6.758,76.144-.893-.073h-.01l-16.564-187.307a.055.055,0,0,0-.055-.051h-.006a.057.057,0,0,0-.05.061L1487.1,620.248l-.383-.03h-.012l-6.727-76.239-6.755-76.517-.846-9.583-.062-.716-.148-1.67-1.682-19.061-.289-3.275a.056.056,0,0,0-.055-.05h-.006a.058.058,0,0,0-.05.06l.283,3.2-.372-.079-.3-3.437a.056.056,0,0,0-.055-.05h0a.054.054,0,0,0-.051.06l.306,3.478,1.681,19.068.146,1.671.064.716.843,9.585,6.743,76.543,6.717,76.246-.9-.071h-.01l-16.44-187.347a.056.056,0,0,0-.055-.05h-.006a.054.054,0,0,0-.049.06l16.438,187.327-.381-.03-.011,0-6.689-76.343-6.709-76.618-.839-9.594-.064-.717-.146-1.671-1.672-19.086-.27-3.07a.053.053,0,0,0-.058-.05.054.054,0,0,0-.051.06l.261,2.995-.375-.079-.283-3.233a.051.051,0,0,0-.06-.051.057.057,0,0,0-.051.06l.287,3.275,1.669,19.092.145,1.672.063.717.839,9.6,6.7,76.642L1484.046,620l-.9-.071h0l-.011,0-16.316-187.383a.052.052,0,0,0-.06-.05.055.055,0,0,0-.051.06l16.314,187.365-.38-.03h0l-.011,0-6.643-76.449-6.667-76.716-.836-9.606-.061-.718-.147-1.673-1.66-19.109-.249-2.866a.055.055,0,0,0-.056-.05h0a.055.055,0,0,0-.052.06l.244,2.791-.382-.08-.262-3.029c0-.029-.031-.059-.059-.05a.056.056,0,0,0-.051.06l.266,3.07,1.658,19.115.145,1.674.063.718.832,9.61,6.657,76.74L1482,619.839l-.9-.072h-.01l-16.193-187.423a.055.055,0,0,0-.055-.05h0a.057.057,0,0,0-.051.06l16.192,187.4-.383-.03h-.009l-6.6-76.556-6.624-76.815-.829-9.619-.064-.719-.143-1.675-1.639-19.005-.24-2.788a.056.056,0,0,0-.055-.051h0a.055.055,0,0,0-.051.06l.24,2.788,1.632,18.932-.386-.075-1.628-18.917-.263-3.046a.055.055,0,0,0-.055-.051h0a.056.056,0,0,0-.051.06l.262,3.047,1.632,18.957.144,1.677.062.719.827,9.621,6.613,76.841,6.59,76.562-.908-.072-.009,0L1462.962,432.14a.056.056,0,0,0-.056-.051h0a.056.056,0,0,0-.051.061l16.068,187.442-.383-.03h-.009l-6.558-76.66-6.58-76.915-.824-9.631-.061-.719-.144-1.678-1.61-18.82-.238-2.792a.057.057,0,0,0-.055-.05h-.006a.055.055,0,0,0-.05.06l.239,2.792,1.6,18.747-.391-.077-1.6-18.731-.261-3.05a.055.055,0,0,0-.055-.05h-.005a.054.054,0,0,0-.05.06l.26,3.05,1.6,18.771.142,1.679.06.719.823,9.634,6.569,76.941,6.546,76.669-.909-.072-.011,0-15.943-187.5a.056.056,0,0,0-.056-.051h0a.055.055,0,0,0-.051.061l15.94,187.482-.378-.031h-.011l-6.514-76.765-6.536-77.016-.818-9.642-.061-.721-.143-1.679-1.581-18.634-.238-2.795a.055.055,0,0,0-.055-.051h-.005a.057.057,0,0,0-.05.06l.237,2.8,1.575,18.56-.393-.077-1.57-18.544-.259-3.055a.057.057,0,0,0-.055-.05h-.006a.055.055,0,0,0-.05.06l.258,3.055,1.575,18.585.142,1.681.062.719.816,9.647,6.524,77.04,6.5,76.776-.914-.074h-.008l-15.819-187.541a.054.054,0,0,0-.055-.05h0a.057.057,0,0,0-.051.06l15.816,187.523-.379-.031-.009,0-6.471-76.871-6.492-77.117-.813-9.655-.06-.721-.142-1.682-1.553-18.447-.235-2.8a.06.06,0,0,0-.06-.051.057.057,0,0,0-.05.061l.235,2.8,1.546,18.373-.4-.078-1.543-18.357-.256-3.059a.056.056,0,0,0-.056-.05h0a.056.056,0,0,0-.051.061l.256,3.058,1.547,18.4.141,1.682.06.723.811,9.656,6.48,77.143,6.458,76.88-.917-.075h-.009l-15.692-187.578a.056.056,0,0,0-.055-.051h-.005a.056.056,0,0,0-.05.06l15.69,187.562-.378-.031h-.009l-6.427-76.979-6.447-77.216-.807-9.667-.061-.722-.141-1.684-1.523-18.259-.234-2.8a.055.055,0,0,0-.055-.05h0a.055.055,0,0,0-.052.06l.233,2.8,1.518,18.186-.4-.078-1.513-18.169h0l-.256-3.063a.055.055,0,0,0-.055-.05h0a.056.056,0,0,0-.051.061l.255,3.062,1.517,18.21h0l.141,1.684.059.722h0l.806,9.67,6.436,77.242,6.414,76.987-.92-.073h-.009L1455.18,431.32a.052.052,0,0,0-.06-.051.058.058,0,0,0-.051.06l15.566,187.6-.377-.03h-.011l-6.382-77.085-6.4-77.318-.8-9.679-.06-.723-.14-1.686-1.5-18.072-.232-2.807a.056.056,0,0,0-.055-.051h-.006a.056.056,0,0,0-.049.06l.232,2.807,1.491,18-.406-.079-1.485-17.981-.253-3.067a.056.056,0,0,0-.055-.051h-.005a.057.057,0,0,0-.05.06l.253,3.067,1.488,18.022.14,1.687.06.723.8,9.682,6.389,77.344,6.37,77.094-.923-.073h-.008l-15.44-187.659a.052.052,0,0,0-.06-.05.057.057,0,0,0-.051.059l15.44,187.642-.379-.032-.009,0-6.338-77.192-6.357-77.416-.8-9.692-.06-.724-.138-1.689-1.469-17.882-.23-2.812a.056.056,0,0,0-.055-.051h-.005a.057.057,0,0,0-.051.06l.231,2.811,1.462,17.81-.409-.08-1.458-17.792-.25-3.071a.058.058,0,0,0-.055-.051h-.005a.057.057,0,0,0-.051.06l.251,3.071,1.461,17.834.139,1.688.059.725.794,9.694,6.345,77.444,6.325,77.2-.926-.074h-.008l-15.314-187.7a.05.05,0,0,0-.058-.051.057.057,0,0,0-.051.06l15.312,187.678-.377-.027h0l-.007,0-6.3-77.3-6.31-77.52-.791-9.7-.058-.725-.138-1.69-1.441-17.7-.23-2.815a.054.054,0,0,0-.054-.05h-.005a.053.053,0,0,0-.05.059l.229,2.815,1.434,17.622-.412-.081-1.43-17.6-.25-3.075a.057.057,0,0,0-.059-.051.056.056,0,0,0-.051.059l.25,3.076,1.433,17.644.137,1.691.059.726.789,9.707,6.3,77.545,6.282,77.312-.932-.076h-.007L1449.285,430.7a.056.056,0,0,0-.056-.051h0a.057.057,0,0,0-.052.059l15.184,187.721-.377-.031-.007,0-6.249-77.406-6.266-77.62-.783-9.716-.059-.726-.136-1.693-1.412-17.505-.229-2.819a.055.055,0,0,0-.055-.051h0a.057.057,0,0,0-.051.06l.228,2.819,1.407,17.433-.417-.083-1.4-17.413-.248-3.079a.056.056,0,0,0-.055-.052h0a.056.056,0,0,0-.051.06l.248,3.08,1.406,17.455.134,1.693.059.726.783,9.719,6.254,77.646,6.234,77.421-.933-.075h-.007L1447.309,430.49a.055.055,0,0,0-.055-.051h-.005a.056.056,0,0,0-.05.06l15.056,187.76-.378-.031h-.007l-6.2-77.516-6.22-77.723-.779-9.728-.058-.727-.135-1.694-1.385-17.316-.227-2.823a.056.056,0,0,0-.055-.051h0a.055.055,0,0,0-.051.06l.226,2.823,1.379,17.243-.419-.082-1.376-17.224-.246-3.084a.055.055,0,0,0-.055-.051h0a.056.056,0,0,0-.053.059l.246,3.085,1.379,17.264.136,1.7.057.727.777,9.731,6.207,77.751,6.19,77.526-.937-.077h-.007l-14.929-187.816a.053.053,0,0,0-.06-.051.055.055,0,0,0-.05.06l14.927,187.8-.374-.031h-.009l-6.157-77.626-6.172-77.824-.774-9.74-.057-.728-.135-1.7-1.358-17.126-.224-2.827a.054.054,0,0,0-.059-.05.055.055,0,0,0-.051.059l.224,2.827,1.352,17.053-.424-.084-1.347-17.032-.245-3.089a.055.055,0,0,0-.056-.051h0a.055.055,0,0,0-.051.06l.244,3.089,1.351,17.074.134,1.7.058.729.771,9.743,6.16,77.851,6.144,77.638-.94-.077h-.007l-14.8-187.857a.055.055,0,0,0-.055-.051h0a.055.055,0,0,0-.051.059l14.8,187.841-.376-.03-.007,0-6.111-77.73-6.127-77.928-.768-9.753-.056-.728-.134-1.7-1.331-16.934-.222-2.83a.059.059,0,0,0-.06-.052.057.057,0,0,0-.052.06l.224,2.831,1.326,16.862-.427-.085-1.323-16.841-.241-3.092a.055.055,0,0,0-.056-.052h0a.057.057,0,0,0-.051.06l.242,3.092,1.325,16.884.133,1.7.057.73.765,9.755,6.114,77.956,6.1,77.742-.944-.073h-.007l-14.671-187.9a.053.053,0,0,0-.059-.051.055.055,0,0,0-.051.06l14.67,187.879-.376-.03h-.006l-6.064-77.842-6.08-78.03-.761-9.764-.056-.731-.134-1.7-1.3-16.743-.22-2.835a.065.065,0,0,0-.06-.051.056.056,0,0,0-.051.06l.221,2.835,1.3,16.671-.431-.085-1.3-16.651-.24-3.1a.054.054,0,0,0-.06-.051.057.057,0,0,0-.051.06l.241,3.1,1.3,16.692.132,1.7.057.73.759,9.768,6.067,78.06,6.051,77.851-.948-.076h-.007l-14.54-187.938a.052.052,0,0,0-.059-.051.056.056,0,0,0-.05.06l14.538,187.92-.374-.029h-.006l-6.018-77.953-6.032-78.133-.755-9.777-.055-.731-.133-1.7L1439.12,432.7l-.218-2.839a.055.055,0,0,0-.056-.051h0a.057.057,0,0,0-.052.06l.219,2.839,1.273,16.478-.435-.085-1.268-16.458-.24-3.1a.051.051,0,0,0-.058-.051.055.055,0,0,0-.052.059l.24,3.1,1.27,16.5.131,1.7.056.731.754,9.781,6.02,78.16,6,77.964-.951-.076h-.006l-14.41-187.98a.055.055,0,0,0-.055-.05h-.005a.056.056,0,0,0-.052.059l14.41,187.96-.372-.028h-.007l-5.972-78.061-5.984-78.237-.749-9.79-.056-.732-.13-1.7-1.251-16.359-.218-2.843a.057.057,0,0,0-.059-.051.055.055,0,0,0-.051.06L1437,432.5l1.246,16.286-.44-.086-1.241-16.265-.237-3.1a.054.054,0,0,0-.055-.051h0a.057.057,0,0,0-.051.06l.237,3.1,1.243,16.307.13,1.706.058.732.747,9.793,5.971,78.263,5.958,78.074-.952-.075h0l-.006,0-14.28-188.017a.054.054,0,0,0-.055-.051h0a.056.056,0,0,0-.051.06l14.279,188-.372-.031h-.006l-5.925-78.169-5.937-78.34-.742-9.8-.056-.733-.13-1.708-1.225-16.166-.216-2.847a.052.052,0,0,0-.059-.051.057.057,0,0,0-.051.06l.215,2.847,1.221,16.094-.444-.088-1.215-16.072-.235-3.11a.058.058,0,0,0-.059-.051.056.056,0,0,0-.052.06l.236,3.11,1.218,16.114.13,1.708.055.732.741,9.807,5.924,78.366,5.91,78.182-.958-.075h-.006l-14.149-188.059a.052.052,0,0,0-.06-.051.056.056,0,0,0-.05.06l14.148,188.041-.371-.031h-.007l-5.876-78.281-5.889-78.443-.737-9.814-.054-.733-.13-1.711-1.2-15.972-.212-2.851a.057.057,0,0,0-.057-.051h0a.056.056,0,0,0-.051.059l.214,2.851,1.193,15.9-.447-.087-1.188-15.878-.233-3.115a.056.056,0,0,0-.055-.051h0a.055.055,0,0,0-.051.06l.232,3.115,1.191,15.919.13,1.711.054.733.735,9.818,5.876,78.473,5.862,78.293-.961-.078h-.006l-14.016-188.1a.058.058,0,0,0-.059-.051.056.056,0,0,0-.052.059l14.015,188.083-.37-.031h-.006l-5.828-78.39-5.84-78.548-.732-9.828-.054-.735-.127-1.711-1.174-15.78-.211-2.854a.055.055,0,0,0-.055-.051h-.005a.053.053,0,0,0-.05.06l.211,2.855,1.168,15.706-.452-.089-1.162-15.684-.232-3.119a.056.056,0,0,0-.055-.051h-.005a.057.057,0,0,0-.051.06l.232,3.119,1.166,15.726.128,1.712.054.735.729,9.831,5.827,78.577,5.815,78.4-.965-.078h-.006l-13.884-188.14a.056.056,0,0,0-.056-.05h0a.056.056,0,0,0-.051.059l13.885,188.123-.371-.03h0l-5.782-78.5-5.792-78.652-.725-9.841-.053-.735-.126-1.714-1.148-15.584-.212-2.859a.053.053,0,0,0-.054-.051h0a.053.053,0,0,0-.051.059l.211,2.859,1.141,15.513-.455-.09-1.137-15.489-.23-3.124a.054.054,0,0,0-.054-.051h-.005a.054.054,0,0,0-.051.059l.229,3.124,1.141,15.531.126,1.714h0l.054.735.723,9.844,5.779,78.679,5.766,78.515-.97-.076h0l-13.752-188.182a.056.056,0,0,0-.056-.051h0a.054.054,0,0,0-.051.059l13.751,188.164-.371-.03h0l-5.732-78.612-5.742-78.756-.719-9.853-.053-.736-.127-1.716-1.121-15.39-.208-2.863a.056.056,0,0,0-.056-.052h0a.054.054,0,0,0-.05.059l.207,2.863L1428,446.776l-.46-.09-1.111-15.294-.227-3.127a.056.056,0,0,0-.055-.052h-.005a.055.055,0,0,0-.05.06l.227,3.127,1.115,15.335.125,1.718.053.736.717,9.856,5.729,78.785,5.717,78.628-.971-.077h-.005l-13.62-188.224a.055.055,0,0,0-.055-.051h-.005a.056.056,0,0,0-.051.059l13.619,188.2-.368-.028h0l-5.684-78.725-5.694-78.86-.712-9.866-.053-.737-.123-1.719-1.1-15.194-.207-2.867a.056.056,0,0,0-.056-.052h0a.055.055,0,0,0-.051.059l.206,2.868,1.092,15.122-.463-.091-1.087-15.1-.225-3.132a.055.055,0,0,0-.055-.051h0a.053.053,0,0,0-.051.058l.225,3.133,1.089,15.14.125,1.719.052.737.71,9.869,5.681,78.891,5.668,78.738-.975-.078h-.005l-13.485-188.264a.057.057,0,0,0-.056-.052h0a.055.055,0,0,0-.051.06L1436.5,616.2l-.368-.031h0l-5.635-78.836-5.642-78.965-.707-9.878-.053-.738-.123-1.721-1.073-15-.2-2.872a.054.054,0,0,0-.055-.051h0a.054.054,0,0,0-.051.059l.2,2.871,1.068,14.926-.468-.091-1.062-14.9-.223-3.137a.057.057,0,0,0-.055-.052h-.005a.057.057,0,0,0-.051.06l.223,3.136,1.066,14.943.122,1.722.052.738.706,9.883,5.628,78.994,5.62,78.85-.979-.079h0l-13.352-188.3a.053.053,0,0,0-.055-.051h0a.056.056,0,0,0-.051.059l13.35,188.288-.366-.03h-.006l-5.584-78.948-5.593-79.07-.7-9.892-.051-.739-.122-1.723-1.047-14.8-.2-2.876a.055.055,0,0,0-.055-.052h-.005a.056.056,0,0,0-.05.06l.2,2.875,1.042,14.73-.471-.093-1.037-14.7-.221-3.141a.056.056,0,0,0-.056-.052h0a.057.057,0,0,0-.052.06l.22,3.14,1.041,14.747.121,1.724.053.739.7,9.895,5.581,79.1,5.568,78.961-.981-.078h0l-13.218-188.346a.053.053,0,0,0-.055-.051h-.005a.056.056,0,0,0-.05.059l13.217,188.331-.368-.031h0l-5.536-79.061-5.543-79.177-.694-9.9-.051-.739-.121-1.725-1.022-14.605-.2-2.88a.056.056,0,0,0-.055-.051h-.005a.056.056,0,0,0-.051.059l.2,2.88,1.018,14.532-.476-.093-1.012-14.507-.219-3.145a.057.057,0,0,0-.055-.052h-.006a.054.054,0,0,0-.05.059l.22,3.146,1.016,14.549.12,1.726.051.74.692,9.907,5.529,79.206,5.521,79.075-.987-.077h0l-13.082-188.389a.055.055,0,0,0-.056-.051h0a.055.055,0,0,0-.052.059l13.081,188.387-.361.067-5.468-78.92a.377.377,0,0,0,.31-.311.394.394,0,0,0-.337-.441l-.024,0-5.443-78.525a.38.38,0,0,0,.307-.292.393.393,0,0,0-.314-.458l-.045-.009-.634-9.158a.377.377,0,0,0,.305-.289.392.392,0,0,0-.31-.461l-.014,0a.375.375,0,0,0,.273-.277.393.393,0,0,0-.31-.461l-.047-.009-.068-.968a.377.377,0,0,0,.3-.289.39.39,0,0,0-.308-.461l-.049-.009-.97-14.016-.2-2.884a.055.055,0,0,0-.056-.051h0a.056.056,0,0,0-.051.059l.2,2.883.968,13.987-45.192-8.876-.187-3.53h0l-.322-6.02,6.4-3.5,1.571-.858,117.5,12.569Zm18.452-20.034,1.822,11.016-118.252-12.651-.673-11.939Zm-117.89-13.6.091,1.639-.217-1.666Zm-.941-.2L1379.3,420.7l-17.079-3.538-.113-2.254-.485-9.708Zm-16.009,14.3.044.895.316,6.3.32,6.408.513,10.252.064,1.287h0l.064,1.288,3.159,63.23.068,1.348.067,1.35.436,8.727L1230.131,505.3l-.037-14.177,23.636,3.457,1.317.193,1.314.193,28.536,4.174,1.266.186h0l1.261.183h0l27.466,4.019h0l1.216.178h0l1.218.178,26.451,3.869h0l1.171.172h0l1.174.173,8.551,1.248a.392.392,0,0,0,.058.005h.018a.394.394,0,0,0,.216-.085l.028-.023a.385.385,0,0,0,.116-.208c0-.006.009-.011.01-.02a.159.159,0,0,0,0-.038c0-.013.007-.024.005-.037l-4.262-92.8,10.626,2.2Zm-.386-7.72.113,2.255v.025l-10.623-2.2-.106-2.3,10.455,2.183ZM1057.355,268.394l303.031,136.5a.389.389,0,0,0,.044.268.4.4,0,0,0,.339.192.37.37,0,0,0,.075-.021l.455,9.1-10.894-2.275h0l-.015,0a.346.346,0,0,0-.046,0,.391.391,0,0,0-.053-.008l-.016,0a.266.266,0,0,0-.03,0,.5.5,0,0,0-.062.02.4.4,0,0,0-.058.023l-.016.005-.014.008v0l-.075.044L1053.405,280.786ZM1001.92,490.54l5.089-66.049,44.722-33.288,4.627-.267.034,1.014a.394.394,0,0,0,.393.38h.013a.393.393,0,0,0,.38-.407l-.049-1.416-3.791-108.891,295.851,131.133-6.91,4.1-4.847-2.294h-.006l0,0-53.106-23.306a.393.393,0,0,0-.316.719l53.1,23.3,4.82,2.282.12,2.827v.005l.817,18.983-123.061-55.752.022-20.415a.393.393,0,0,0-.787,0l-.022,20.542-.514.717.03-20.09a.393.393,0,0,0-.009-.049.528.528,0,0,0-.021-.1.349.349,0,0,0-.039-.061.366.366,0,0,0-.044-.066,79.4,79.4,0,0,0-.122-.086l-146.9-64.333h0a.352.352,0,0,0-.107-.023.26.26,0,0,0-.045-.01h0a.494.494,0,0,0-.067.013.437.437,0,0,0-.08.016,3.846,3.846,0,0,0-.126.082.365.365,0,0,0-.076.11s-.008.008-.011.014h0a.4.4,0,0,0-.023.106.236.236,0,0,0-.009.048v0l-.146,93.513a.394.394,0,0,0,.393.394h0a.393.393,0,0,0,.393-.392l.144-92.913,146.113,63.989-.033,20.93-35.291,49.1.544-37.974,29.589-26.739a.393.393,0,0,0-.526-.583l-29.66,26.8a.4.4,0,0,0-.182.314l0,.013v.01l-.565,39.4-.031,2.239-.129.154,0,0-.024.03c-.021.025-.014.059-.027.088-.022.046-.061.083-.063.142l-.018.313,0,.006,0,.01-.407,28.214-6.1,4.369-29.636-7.406.739-27.088a.393.393,0,0,0-.381-.4.365.365,0,0,0-.4.382l-.748,27.4-.365,13.389-5.18-.758.416-14.087.808-27.48a.393.393,0,0,0-.383-.4h-.011a.394.394,0,0,0-.393.382l-.794,26.992-27.808-6.949L1096.021,313.1a.4.4,0,0,0-.431-.351.393.393,0,0,0-.35.431l14.665,142.607,1.77,17.222-7.49-1.1-1.842-18.29-14.378-142.861a.392.392,0,1,0-.781.079l8.878,88.217a.391.391,0,0,0-.242.336l-1.713,37.69-1.505,33.135-1.2-.175,3.409-73.866a.393.393,0,0,0-.375-.411.369.369,0,0,0-.41.375l-3.405,73.788-17.245-2.524,6.258-72.913,3.592-41.839a.394.394,0,0,0-.36-.425.382.382,0,0,0-.425.358l-3.591,41.838-6.254,72.866-6.457-.944.107-1.222v0l.02-.247v-.005l.155-1.779,6.023-69.4,3.743-43.123a.393.393,0,1,0-.782-.069l-3.743,43.124-5.98,68.908-.44-.136a.162.162,0,0,0-.022,0,.092.092,0,0,0-.023-.009l-.777-.142a.156.156,0,0,0-.03,0,.2.2,0,0,0-.026-.008l-.838-.029c-.015,0-.028.005-.044.005s-.016,0-.025,0l-.721.1c-.013,0-.023.01-.037.013a.26.26,0,0,0-.037.006l-.685.239c-.012,0-.019.013-.03.018a.144.144,0,0,0-.033.011l-.631.355c-.014.008-.023.023-.036.032s-.013,0-.019.006l-.4.322a3.211,3.211,0,0,1-.055,1.2h0l.418-.483.505-.409.568-.32.616-.217.651-.091.772.027.729.132.577.178-.085.969-.567-.18h-.018l-.019-.008-.755-.16a.288.288,0,0,0-.029,0,.239.239,0,0,0-.029-.007l-.67-.042a.282.282,0,0,0-.042.008.366.366,0,0,0-.074,0l-.733.176a.4.4,0,0,0-.121.056l-.01,0-.61.419a.391.391,0,0,0-.04.041c-.005.005-.012,0-.018.007s0,.014-.007.018-.014.014-.019.022-.009,0-.011.007l-.012.015v0l-.416.577,0,.011a.349.349,0,0,0-.06.12l-.063.242-.908-.133a3.313,3.313,0,0,1-1.375.978c.8-.323,0,.014-.2.127s-.421.243-.624.377c-.088.058-.174.118-.26.179-.031.028-.056.052-.084.073-.043.037-.082.077-.128.114l-.013.237-1.006,1.076.021-.353c-.14.148-.291.283-.425.436s-.273.351-.421.512a.692.692,0,0,1-.062.071c-.055.076-.11.15-.164.226s-.1.168-.162.25l.044.109-.375.4c-.053.082-.109.164-.161.247-.015.036-.044.065-.046.107l-.016.261-.066-.169c-.173.287-.33.583-.487.878l.126.289c0,.007.011.01.015.019s.007.026.016.039l.3.447c0,.005.01.007.013.012l-.555,9.44-.134-.05a.562.562,0,0,0-.057-.009c-.017,0-.031-.012-.048-.014l-.09-.007c.024.274.051.547.067.82l.008,0,.086.063.107.143.005,0-.129,2.2c0,1.468-.044,2.938-.052,4.421l.2-.009.865,8.927-2.4.125q.048.518.094,1.036l1.346-.069a.336.336,0,0,0-.067.02.279.279,0,0,0-.06.019.39.39,0,0,0-.22.391l.111,1.075,0,0-.991.05q.12,1.476.187,2.952a2.647,2.647,0,0,1,2.492,1.267l.175-.009.05.514a2.755,2.755,0,0,1,.108,1.227l.016.062.636,6.568-6.068.295a.46.46,0,0,0-.1.024l-.006,0a.376.376,0,0,0-.211.176c-.007.01-.012.019-.018.029a.339.339,0,0,0-.025.089.3.3,0,0,0-.014.047l-.015.258c0,.007,0,.013,0,.022s0,.013,0,.02l0,.008c0,.01,0,.016,0,.024l.218,1.712a.348.348,0,0,0,.084.156l-.068,0a.386.386,0,0,0-.32.206.11.11,0,0,1-.014.023.383.383,0,0,0-.026.094.2.2,0,0,0-.014.046l-.015.256c0,.008,0,.015,0,.023s0,.013,0,.021l.005.007c0,.009,0,.016,0,.023l.219,1.693a.387.387,0,0,0,.1.182l-.082,0a.32.32,0,0,0-.091.022.048.048,0,0,0-.017,0,.382.382,0,0,0-.209.176l-.018.028a.348.348,0,0,0-.024.091.308.308,0,0,0-.014.048l-.016.256c0,.008,0,.015,0,.022s0,.014,0,.02,0,.006.005.009a.22.22,0,0,0,0,.024l.22,1.675a.4.4,0,0,0,.391.341.434.434,0,0,0,.05,0,.392.392,0,0,0,.339-.441l-.164-1.249,2.111-.1a.387.387,0,0,0-.168.364l.117.989a.4.4,0,0,0,.391.347c.015,0,.03,0,.046,0a.393.393,0,0,0,.344-.436l-.01-.078a.388.388,0,0,0,.025-.18l-.038-.314,3.773-.178.209,2.14-7.885-.9a.035.035,0,0,0-.011,0l-.01,0c-.006,0-.007,0-.012,0a.379.379,0,0,0-.276.094l-.006.007a.393.393,0,0,0-.12.242v.014l0,.007-.784,13.142v.019a.265.265,0,0,0,.005.039c0,.014,0,.026,0,.043l.62,4.136a.393.393,0,0,0,.388.336c.019,0,.039,0,.059,0a.394.394,0,0,0,.33-.448l-.544-3.634,10.114,1.089-.194,2.238-4.207,48.473-6.414-.507h-.009a.377.377,0,0,0-.411.352l0,.007v.008h0l-.173,2.954-1.937.06c-.012,0-.023.007-.035.008a.354.354,0,0,0-.316.237c-.006.015-.006.032-.011.049a.409.409,0,0,0-.018.076l-.016.27,0,.017,0,.018a.229.229,0,0,0,.009.04.15.15,0,0,0,0,.037l.259,1.139a.4.4,0,0,0,.384.306.458.458,0,0,0,.088-.01.4.4,0,0,0,.3-.471l-.153-.674,1.388-.043-.043.734h0l-.055.917-1.937.059a.014.014,0,0,0-.012.005.33.33,0,0,0-.339.242.394.394,0,0,0-.011.046.49.49,0,0,0-.019.08l-.015.271,0,.014c0,.006,0,.014,0,.02s.008.026.01.04,0,.025,0,.036l.261,1.119a.393.393,0,0,0,.383.3.3.3,0,0,0,.088-.011.389.389,0,0,0,.294-.469l-.152-.654,1.388-.043-.043.715-.054.94-1.94.061c-.013,0-.022.006-.035.006a.363.363,0,0,0-.314.235.536.536,0,0,0-.016.063.491.491,0,0,0-.016.064l-.016.274,0,.014c0,.007,0,.013,0,.019a.352.352,0,0,0,.01.042.26.26,0,0,0,0,.04l.264,1.1a.4.4,0,0,0,.383.3.579.579,0,0,0,.091-.011.394.394,0,0,0,.291-.474l-.15-.629,1.386-.042-.042.7-.429,7.318v.007c0,.017.007.035.008.053a.316.316,0,0,0,0,.062l.41,1.706-2.475.068c-.012,0-.021.007-.032.007a.344.344,0,0,0-.241.115l-.007.01a.339.339,0,0,0-.068.107.367.367,0,0,0-.018.069c0,.022-.014.041-.016.064l-.016.272,0,.014c0,.009,0,.014,0,.021a.321.321,0,0,0,.011.044.316.316,0,0,0,0,.044l.27,1.015a.4.4,0,0,0,.38.291.436.436,0,0,0,.1-.012.4.4,0,0,0,.279-.482l-.142-.532,1.983-.055a.391.391,0,0,0,.006.127l.146.6a.383.383,0,0,0,.337.284l.156.65-3.293.089c-.011,0-.019.007-.03.008a.344.344,0,0,0-.321.237.388.388,0,0,0-.011.043.5.5,0,0,0-.019.08l-.017.276,0,.017c0,.007,0,.013,0,.019s.009.031.011.048a.315.315,0,0,0,0,.044l.271.992a.394.394,0,0,0,.38.289.335.335,0,0,0,.1-.016.391.391,0,0,0,.276-.482l-.14-.507,1.984-.054a.412.412,0,0,0,.006.12l.146.584a.393.393,0,0,0,.381.3.316.316,0,0,0,.095-.014.391.391,0,0,0,.286-.476l-.007-.03a.365.365,0,0,0,.029-.08l.225-.007.3,1.246-4.113.11c-.012,0-.021.007-.033.007a.432.432,0,0,0-.113.026.164.164,0,0,0-.027.017.286.286,0,0,0-.136.129.229.229,0,0,0-.034.051.336.336,0,0,0-.025.09.254.254,0,0,0-.013.051l-.017.273,0,.014c0,.008,0,.015,0,.021a.5.5,0,0,0,.012.05.228.228,0,0,0,0,.045l.273.97a.393.393,0,0,0,.378.286.428.428,0,0,0,.106-.014.391.391,0,0,0,.272-.484l-.136-.485,1.983-.053a.37.37,0,0,0,.006.115l.149.572a.392.392,0,0,0,.38.3.482.482,0,0,0,.1-.013.391.391,0,0,0,.281-.478l-.007-.031c.008-.021.018-.043.024-.064l1.043-.029.78,3.233-6.021-.378h0a.357.357,0,0,0-.411.349.059.059,0,0,0-.005.018l-.837,14.039v0c0,.015.006.028.006.044a.427.427,0,0,0,.015.105l.762,2.2a.394.394,0,0,0,.372.263.413.413,0,0,0,.129-.021.393.393,0,0,0,.242-.5l-.571-1.644,7.484.411-.1,1.2-4.832,55.683-41.688.308,13.8-20.43a.372.372,0,0,0,.061-.181c0-.005.006-.007.006-.013l3.257-48.478c0-.014-.006-.025-.006-.041a.3.3,0,0,0,0-.043L1011.469,553.5Zm51.017,25.663c.006.052.044.087.068.134l-2.007.1a.379.379,0,0,0,.046-.226l-.164-1.29,2.129-.1a.385.385,0,0,0-.188.378Zm-2.208,1.284,2.12-.1a.391.391,0,0,0-.179.373l.118,1a.348.348,0,0,0,.081.154l-2.035.1a.384.384,0,0,0,.059-.252Zm-.694,100.111,1.612,6.689-.574,6.618-7.7-.424.79-13.251Zm-38.817-60.5,9.5,62.673-3.247,48.326-14.049,20.789-1.713.013ZM999.161,692.926l.234-3.223,1.9-.016,2.345-.017,42.36-.309-1.171,13.519-46.41.227Zm-.891,1.413-.641,8.774-5.311.025Zm-8.8,9.6,2.106-.007L998,703.9l46.761-.229-1.19,13.7-3.405.009v-4.1a5.5,5.5,0,0,0-.215-1.668,3.092,3.092,0,0,0-.606-1.11,2.279,2.279,0,0,0-.9-.635,3.212,3.212,0,0,0-1.144-.194,2.905,2.905,0,0,0-1.537.428,6.555,6.555,0,0,0-1.451,1.258,2.461,2.461,0,0,0-1.016-1.294,2.976,2.976,0,0,0-1.534-.392,2.8,2.8,0,0,0-1.393.352,5.991,5.991,0,0,0-1.28,1v-1.083h-1.643v7.467l-3.178.006v-2.19h1.545v-1.4h-1.545V706.7h-1.608l-5.817,6.7v1.835h5.747v2.195l-6.993.018a3.847,3.847,0,0,0,.251-1.366,3.113,3.113,0,0,0-.586-1.956,4.577,4.577,0,0,0-1.721-1.293v-.051a3.476,3.476,0,0,0,1.471-1.337,3.33,3.33,0,0,0,.512-1.731,3.011,3.011,0,0,0-1.071-2.379,4.177,4.177,0,0,0-2.842-.929,4.1,4.1,0,0,0-2.813.976,3.131,3.131,0,0,0-1.109,2.446,2.827,2.827,0,0,0,.463,1.66,4.378,4.378,0,0,0,1.423,1.224v.052a3.921,3.921,0,0,0-1.638,1.41,3.565,3.565,0,0,0-.563,1.945,4.129,4.129,0,0,0,.234,1.348l-2.548.006v-.253h-2.088v.26l-3,.006a12.318,12.318,0,0,0,.611-4.285,10.135,10.135,0,0,0-1-5.076,3.815,3.815,0,0,0-6.294-.055,10.021,10.021,0,0,0-1.017,5.148,12.114,12.114,0,0,0,.628,4.285l-4.456.011Zm45.141,8.858c-.008-.137-.015-.253-.021-.351a5.562,5.562,0,0,1,1.2-.9,2.3,2.3,0,0,1,1.088-.311,1.9,1.9,0,0,1,.872.166,1.123,1.123,0,0,1,.5.514,2.477,2.477,0,0,1,.22.9q.051.573.051,1.246v3.326l-3.9.008v-4.111C1034.626,713.095,1034.621,712.932,1034.612,712.795Zm-1.629,1.263V717.4l-3.9.011v-4.991a5.891,5.891,0,0,1,1.136-.846,2.273,2.273,0,0,1,1.117-.333,1.917,1.917,0,0,1,.875.166,1.13,1.13,0,0,1,.5.514,2.527,2.527,0,0,1,.218.9Q1032.983,713.385,1032.983,714.058Zm-10.394-5.311v5.084H1018.2Zm-13.09,8.708a2.891,2.891,0,0,1-.37-1.475,3.3,3.3,0,0,1,.384-1.6,3.345,3.345,0,0,1,1.11-1.183c.413.173.783.325,1.113.454a6.441,6.441,0,0,1,.79.358,3.357,3.357,0,0,1,1.215.961,2.269,2.269,0,0,1,.315,1.276,2.726,2.726,0,0,1-.259,1.2Zm3.65.778a2.475,2.475,0,0,1-1.522.463,2.333,2.333,0,0,1-1.436-.458Zm-3.4-7.52a1.859,1.859,0,0,1-.31-1.091,1.773,1.773,0,0,1,.607-1.416,2.3,2.3,0,0,1,1.56-.525,2.2,2.2,0,0,1,1.624.586,1.982,1.982,0,0,1,.585,1.458,3.475,3.475,0,0,1-.271,1.411,3.207,3.207,0,0,1-1.031,1.2,8.749,8.749,0,0,1-1.009-.411c-.37-.175-.645-.313-.826-.409A2.85,2.85,0,0,1,1009.745,710.713Zm-15.071,6.779a2.594,2.594,0,0,1-.184-.361,6.1,6.1,0,0,1-.364-1.641q-.081-.918-.082-2.279,0-1.277.095-2.289a6.289,6.289,0,0,1,.36-1.678,2.3,2.3,0,0,1,.736-1.026,1.968,1.968,0,0,1,1.194-.344,1.937,1.937,0,0,1,1.192.344,2.284,2.284,0,0,1,.721,1.01,6.237,6.237,0,0,1,.366,1.641,25.853,25.853,0,0,1,0,4.655,6.442,6.442,0,0,1-.357,1.635,2.848,2.848,0,0,1-.171.325Zm2.769.78a2.118,2.118,0,0,1-2.019,0Zm-8.84-13.281-.949,12.518-7.537.019Zm-96.336,37.424,21.093-.1-.005.06Zm7.788,16.718,12.013-1.778c.014.008.025.024.04.032l.508.282,0,0h0l.007,0a.451.451,0,0,0,.137.044l2.253.27h.023l3.984.245h.008l5.654.216h.006l7.2.172h0l2.609.039Zm93.878-1.286-10.8.121-11.3.079-11.092.025-10.554-.029-9.7-.077-8.567-.13-7.2-.173-5.655-.216h-.008l-3.957-.241-2.163-.259-.221-.122L914.1,742.8l.052-.524.1.022a.256.256,0,0,0,.055.006h.02l0,0h0l2.239.1h.009l3.979.094h0l5.638.08h0l7.176.067h0l8.532.049h0l9.659.03h0l10.5.01,11.037-.01h0l11.24-.03h0l10.681-.044Zm97.277-7.47-.256,6.14-96.231,1.319,1.106-15.183,95.726-.5Zm.535,6.073.237-5.668,11.173-.177,10.5-.2h0l6.02-.135-.04,1.239a.259.259,0,0,0,.013.075.349.349,0,0,0,.013.073.273.273,0,0,0,.031.055.4.4,0,0,0,.047.074c.015.016.036.027.054.043a.364.364,0,0,0,.065.045.372.372,0,0,0,.088.024.292.292,0,0,0,.058.016h.009l0,0h.006l1.086.066-.007.2,0,.009,0,.008a.41.41,0,0,0,.011.05Zm29.385-5.256-.7-.042.03-.9.7-.016Zm7.941-.09-4.62.66-2.552.03,0-.169.046-1.412,1.056-.023h0l6.1-.17Zm.791-.113.029-.994,1.229-.034h0l.257-.007,0,.038s.008.009.008.014a.384.384,0,0,0,.111.22.281.281,0,0,0,.028.023.367.367,0,0,0,.179.09l.253.043a.515.515,0,0,0,.065.005h0l.533-.005h.022l.777-.051h.011l.966-.094,0,0h.006l1.093-.13h.007l1.14-.159h.007l1.108-.173h.008l.258-.047,1.03-.044Zm21.725-4.809-.042,1.841h0l-1.279.2-2.777.24h0l-4.109.237h0l-5.448.239h-.016l-6.189.212h0l-.624.022-1.6.043-6.511.181-1.427.034-1.488.033-6.434.149-10.5.2-11.1.176.327-7.848,11.11-.094h0l10.466-.1,9.322-.11h0l8.089-.119h0l6.791-.121h0l5.458-.124h0l4.11-.123,0,0h0l2.751-.122h.034l1.191-.1Zm-17.966-105.529a.364.364,0,0,0-.405.38l-.441,14.995-1.466.2-2.736-26.606,50.005-1.126-.2,13.53-3.37.554c-.006,0-.011,0-.015,0l-.015,0-.975.239-.01.006a.348.348,0,0,0-.066.024h-.005l-20.187,10.188-.76.175-13.028,1.808.376-13.837a.393.393,0,0,0-.382-.4.409.409,0,0,0-.4.382l-.39,14.3-.295,10.807-.031,1.085-.443,16.24-4.271-.118-1.056-10.263.119-4.011.031-1.072.032-1.073.314-10.686.451-15.327A.393.393,0,0,0,1133.621,640.653Zm-.869,16.173-.291,9.883-.074.008-1-9.7Zm-5.808-43.037-.177-1.723.868.06Zm.9-.109-.029.938-.364.01Zm.269,1.719.092,0h.017l.28-.008,2.316-.059h.108l3.469-.092,6.278-.16,7.915-.2h0l1.032-.026,1.033-.025.389-.011h0l.391-.011,6.552-.168.408-.009h0l.409-.011,3.595-.094,16.637,1.147-.172,12.043-50.368,1.136-1.38-13.419Zm.512-1.052.067-2.145,1.8.123-.063,2.066Zm2.7.182.067-2.144,2.669.184-.056,1.892Zm3.467-.091.053-1.814,5.473.374-.036,1.3Zm6.278-.159.033-1.227,7.107.49-.013.556Zm7.913-.2.014-.479.241.018-.01.455Zm2.846-.074.005-.209,2.227.153Zm39.341,11.124,25.427,1.62-.015,9.012-30.183,4.959.151-12.445a.4.4,0,0,0-.389-.4h0a.4.4,0,0,0-.394.39l-.156,12.914-.153,12.765-.016,1.283-.015,1.282-.379,31.531-6.53-.169.439-30.358.019-1.268.017-1.267.182-12.6.2-13.9Zm-11.514,2.443.168-11.85,33.551,2.307-21.1,5.972a.415.415,0,0,0-.078.024l-1.156.326a.366.366,0,0,0-.089.024Zm35.6,87.943.009-3.789,1.178.013-.006,3.744Zm1.181.755,0,.544-1.964-.019v-.843a.53.53,0,0,0,.016.064.208.208,0,0,0,.066.138.324.324,0,0,0,.031.046.409.409,0,0,0,.089.06.263.263,0,0,0,.035.023.335.335,0,0,0,.126.026c.009,0,.017.006.025.006h.012Zm-1.17-5.729.005-1.927,1.178.02,0,1.92Zm.009-3.123.026-11.177,1.171.025-.021,11.169Zm.029-12.421,0-1.834,1.167.027,0,1.834Zm.008-3.091,0-1.816,1.166.032,0,1.812Zm.007-3.083.087-35.957,1.142-.156-.064,36.144Zm-.358-36.689a.306.306,0,0,0-.046.015.366.366,0,0,0-.08.029.356.356,0,0,0-.058.038.568.568,0,0,0-.057.052.538.538,0,0,0-.042.061.41.41,0,0,0-.033.067l-.006.013,0-.788,1.908-.265v.561Zm-.765-1.244-20.026,2.784-.05.006c-.011.005-.023,0-.033.007l-7.861,1.092.006-.491,30.32-4.282v.557Zm-1.217,39.143-.005,1.817-17.979-.432.017-1.848Zm-17.956-1.736.295-32.686,17.77-2.43-.1,35.582Zm17.948,4.811-.006,1.837-18-.4.018-1.865Zm-.009,3.08-.033,11.2-18.077-.269.1-11.321Zm-.037,12.394,0,1.928-18.1-.233.018-1.957Zm-.008,3.113-.011,3.887-18.134.512.043-4.627Zm.391,4.663a.378.378,0,0,0,.072-.015c.025-.006.051-.009.076-.017a.507.507,0,0,0,.063-.043c.018-.016.042-.027.06-.044a.557.557,0,0,0,.043-.064.429.429,0,0,0,.039-.061.469.469,0,0,0,.016-.081c0-.013.007-.026.008-.038l0,.793-11.779-.108Zm.332-63.984-.007,0a.32.32,0,0,0-.117-.023.089.089,0,0,0-.033-.009h0c-.009,0-.018.005-.026.005s-.018,0-.027,0l-18.554,2.538a.329.329,0,0,0-.044.014.451.451,0,0,0-.08.029.467.467,0,0,0-.057.037.752.752,0,0,0-.06.051c-.008.011-.018.021-.024.03l.005-.636,19.241-2.676,0,.894a.528.528,0,0,0-.02-.061.425.425,0,0,0-.064-.1c-.006-.005-.009-.011-.015-.016A.314.314,0,0,0,1213.637,652.37Zm-28.08,57.785.024-1.973,7.022.1-.019,1.959Zm7.015,1.28-.045,4.719-7.044.2.059-5.007Zm-6.977-4.458.137-11.388,6.99.154-.108,11.338Zm.153-12.641.022-1.879,6.981.167-.018,1.868Zm.036-3.143.023-1.862,6.973.18-.017,1.849Zm.038-3.139.376-31.2,6.9-.945-.309,32.326Zm.386-31.995.005-.489,7.612-1.059-.007.725a.187.187,0,0,0-.023-.026l-.029-.036a.423.423,0,0,0-.1-.068l-.02-.009a.361.361,0,0,0-.111-.024c-.011,0-.022-.006-.034-.006h0c-.007,0-.017.005-.024.005a.236.236,0,0,0-.027,0Zm.031-2.567.144-11.979,30.19-4.961-.022,12.656Zm-8.05,1.93-.007.47-2.71.378h-.008a.317.317,0,0,0-.2.088l.007-.523Zm-2.908-.381.182-11.735,2.908-.479-.17,11.8Zm2.89,1.646-.006.474-2.042.277c-.011,0-.018.007-.03.01a.365.365,0,0,0-.111.039l-.017.012a.245.245,0,0,0-.059.04l.008-.538Zm-2.412,54.536,1.626.019-.076,5.21-1.631-.015Zm.016-1.193.031-1.99,1.624.024-.028,1.985Zm.048-3.2.176-11.458,1.614.035-.165,11.446Zm.192-12.715.03-1.892,1.614.037-.029,1.894Zm.049-3.16.029-1.877,1.61.043-.027,1.873Zm.049-3.156.45-29.631,1.59-.22-.431,29.894Zm2.058,23.45,6.586.083-.064,5.184-6.6-.061Zm.017-1.193.028-1.985,6.578.095-.024,1.974Zm.045-3.192.166-11.439,6.547.142-.138,11.4Zm.184-12.694.028-1.892,6.539.155-.023,1.883Zm.045-3.156.028-1.874,6.532.167-.023,1.863Zm-10.515,18.91.033-2,4.179.06-.03,2Zm4.162,1.247-.085,5.23-4.193-.039.094-5.243ZM1168,706.717l.206-11.512,4.156.092-.186,11.483Zm.227-12.768.033-1.909,4.152.1-.031,1.9Zm.056-3.175.033-1.892,4.147.108-.03,1.881Zm.055-3.172.478-26.847,4.131-1.735-.463,28.691Zm.254-27.6.007-.356,4.623-1.976-.007.394h-.018Zm-.537-.981-5.033,2.15a.322.322,0,0,0-.15.064l-4.706,2.012L1154,665.023l.007-.25,19.49-8.469-.006.394h-.019l0,0Zm-8.463,50.8.042-2.017,1.962.03-.04,2.011Zm1.942,1.221-.1,5.264-1.972-.017.108-5.27Zm-1.877-4.447.237-11.573,1.951.042-.226,11.56Zm.263-12.832.038-1.92,1.95.046-.039,1.916Zm.065-3.191.039-1.9,1.944.052-.036,1.9Zm.065-3.185.057-2.783V684.6a.356.356,0,0,0-.018-.1.443.443,0,0,0-.009-.047.392.392,0,0,0-.079-.121l0-.007a.368.368,0,0,0-.1-.072c-.01,0-.016-.012-.024-.014a.337.337,0,0,0-.083-.021.382.382,0,0,0-.069-.015l-1.232-.036.405-19.238,3.568-1.5L1162,687.44Zm-1.348-23.23.007-.29,4-1.712-.005.315a.045.045,0,0,0-.019.012Zm4.072,46.9,3.878.05-.093,5.246-3.889-.037Zm.023-1.2.038-2.01,3.876.056-.037,2Zm.062-3.221.224-11.548,3.855.084-.205,11.523Zm.249-12.806.037-1.916,3.849.091-.034,1.91Zm.061-3.185.037-1.9,3.844.1-.032,1.889Zm.063-3.18.476-24.565,3.836-1.614-.47,26.278Zm.268-25.33,0-.324,4.3-1.837-.005.332a.326.326,0,0,0-.084.054Zm-9.325,3.919.006-.257,3.734-1.6-.006.284Zm3.5-.62-.4,18.691-3.313-.091.387-17.2Zm-3.652-1.533.23-10.242,19.438-9.809-.184,11.584Zm19.381,47.287h.2l-.082,5.223-.207,0Zm.019-1.194.032-1.993.2,0-.029,1.992Zm.051-3.2.181-11.475.2.005-.179,11.473Zm.2-12.731.028-1.9.2,0-.03,1.9Zm.049-3.165.031-1.88.2.005-.03,1.88Zm.051-3.161.506-31.723.19-.04-.5,31.77Zm.52-32.527.187-11.694.184-.046-.182,11.7Zm-21.091,8.977.235-10.269.019,0-.232,10.269Zm0,.8-.431,19.014h-.027l.436-19.011ZM1139.744,668a.447.447,0,0,0-.119.039l.008-.32,12.152-1.426-.008.406-.027-.015a.205.205,0,0,0-.033-.016.348.348,0,0,0-.1-.024c-.014,0-.024-.009-.039-.009h-.008c-.009,0-.016.005-.023.005a.192.192,0,0,0-.023,0Zm11.421-.528-.382,16.477-11.014-.306.4-14.9Zm-11.538-.542.006-.29,12.773-1.528-.01.409h0a.478.478,0,0,0-.072-.036.272.272,0,0,0-.066-.015.249.249,0,0,0-.057-.014c-.012,0-.023.005-.034.005l-.021,0Zm.028-1.085.274-10.019,12.727-1.769-.234,10.263Zm-.9,18.556h.035l.567.017,11.8.327.6.016.6.015.814.023.2.006.2.005,4.1.115.212.007h0l.211,0,1.231.033-.057,2.788v0l-.006.314h0l0,.178v0l-.055,2.686v0l-.006.316v0l0,.164h0l-.054,2.707-.007.319,0,.153v0l-.252,12.36-.007.322,0,.1-.057,2.8-.008.324v0h0v.084l-.117,5.671-21.209-.192-3.273-31.812Zm20.3,32.666h0l2.754.027h.231l.224,0h0l4.671.041h0l.24,0h0l.242,0h0l4.975.044h0l.257,0h0l.256,0h0l.991.008h0l.675.006h0l.675.005h0l2.417.024h0l7.385.067,8.557.078,20.433.186,2.361.021-.037,21.314-76.549.318-2.3-22.35ZM1152.2,740.22c-.012,0-.017-.007-.027-.008s-.014-.007-.024-.007l-1.052-.113h-.013l-.009,0-2.216-.106h0l-.006,0-.193,0,67.736-.283-.009,5.588-64,.511.118-5.19a.273.273,0,0,0-.008-.04.268.268,0,0,0-.007-.062.175.175,0,0,0-.01-.035.533.533,0,0,0-.026-.055.277.277,0,0,0-.016-.036s-.007,0-.009-.006l-.024-.034c-.016-.015-.036-.03-.056-.046s-.039-.03-.062-.045-.049-.014-.074-.021Zm.033,8.2.012-.017s0-.01.006-.018a.379.379,0,0,0,.079-.216l.035-1.591,64.016-.511,0,.7a.392.392,0,0,0,.392.393h0a.394.394,0,0,0,.394-.392v-1.093l.014-6.371.038-22.094h0v-1.344l.008-4.51v0c0-.016-.008-.029-.008-.042a.3.3,0,0,0,.008-.041h0v0l0-.308v0l.005-2.7v-.415l.021-11.946v-.463l.005-2.612v-.476l.005-2.594v-.487l.066-37,0-1.354V649.55l.025-13.46.017-9.713v-.421l.015-8.383a.4.4,0,0,0-.392-.394h0a.4.4,0,0,0-.393.393l-.014,7.966-21.93-1.4,21.091-5.971a.381.381,0,0,0,.153-.09c.005,0,.009-.01.015-.014a.383.383,0,0,0,.113-.24l0-.007a.414.414,0,0,0-.008-.07.264.264,0,0,0-.006-.063l0-.01a.364.364,0,0,0-.043-.083.335.335,0,0,0-.031-.052.355.355,0,0,0-.069-.059.52.52,0,0,0-.045-.036.57.57,0,0,0-.083-.025.276.276,0,0,0-.064-.018s-.007,0-.012,0l-36.217-2.489-17.032-1.172-3.6-.249h0l-.407-.027-.406-.027-6.538-.451-.389-.025-.388-.029-1.031-.07-1.031-.072-7.89-.543-6.258-.429h-.015l-3.439-.237h-.016l-.093-.007h-.015l-2.568-.176h0l-.014,0h0l-.084-.006h0l-1.575-.108a.391.391,0,0,0-.743.207l.021.207.349,3.4,1.461,14.2,2.822,27.432,1.076,10.476.108,1.055.111,1.057.407,3.974,1.094,10.634,3.354,32.607,2.379,23.144.055.532.007.054c0,.013.013.019.016.033a.311.311,0,0,0,.033.063.354.354,0,0,0,.331.231h.045a.248.248,0,0,0,.072-.025l4.744.114-.813.023-5.454.123-6.791.121-8.087.119-9.321.113-10.466.1-11.484.1h0l-.006,0-.01,0h0l-96.5.507-11.106.047-11.238.031-11.036.008-10.5-.008-9.658-.031-8.532-.05-7.173-.067-4.95-.072,36.415-2.081,34.621-.124,7.132-.025,23.033-.083h1a.392.392,0,1,0,0-.785h-1l-23.026-.028-7.13-.008-20.532-.024,1.63-20.24,5.971-.012,8.642-.021,5.245-.014a.1.1,0,0,0,.011.023,3.822,3.822,0,0,0,6.292.029c.012-.018.021-.047.032-.068l3.371-.007V719.7h2.088v-1.449l2.916-.007a3.42,3.42,0,0,0,.516.636,3.777,3.777,0,0,0,1.354.83,5.231,5.231,0,0,0,1.765.287,4.268,4.268,0,0,0,3.026-1.127,4.012,4.012,0,0,0,.556-.643l7.4-.02V719.7h1.678v-1.5l3.178-.008v1.5h1.643v-1.507l3.9-.011V719.7h1.643v-1.523l3.9-.008V719.7h1.643v-1.535l3.336-.009-.849,9.794-5.2.028a.392.392,0,0,0-.392.393.4.4,0,0,0,.394.394h0l5.129-.029-.4,4.572-5.051-.008h0a.4.4,0,0,0-.137.029l-11.623-.023-1.566-.007h0a.392.392,0,0,0-.393.389.4.4,0,0,0,.391.4l1.15.005-.312,4.907v.024h0l0,.03a.374.374,0,0,0,.375.388h.016a.358.358,0,0,0,.1-.024l16.818.019a.491.491,0,0,0,.095.026h.03a.405.405,0,0,0,.361-.258.368.368,0,0,0,.015-.055.314.314,0,0,0,.021-.073v-.005l.428-4.945,6.792.013-.418,4.878v0h0l0,.034a.382.382,0,0,0,.367.4h.024a.361.361,0,0,0,.078-.017l20.695.024h.01l8.169-.208a.381.381,0,0,0,.248-.1l.015-.008a.385.385,0,0,0,.113-.247c0-.006.006-.01.006-.016l.036-.773.181-3.917,5.521.009-.123,2.8-.047,1.058a.39.39,0,0,0,.374.409h.018a.394.394,0,0,0,.392-.376l.047-1.056.125-2.835,8.863.014-.114,2.762-.025.62a.4.4,0,0,0,.376.41h.017a.4.4,0,0,0,.392-.378l.027-.618.115-2.793,5.053.008-.108,2.739-.024.625a.4.4,0,0,0,.378.41h.015a.4.4,0,0,0,.394-.379l.024-.627.108-2.765,19.182.033-.087,2.653-.091,2.771v0a.416.416,0,0,0,.016.094.341.341,0,0,0,.011.057.348.348,0,0,0,.068.108.1.1,0,0,0,.012.02.375.375,0,0,0,.09.064.167.167,0,0,0,.033.024.571.571,0,0,0,.081.021.531.531,0,0,0,.069.014h0l1.132.029a.391.391,0,0,0,.339.229h.013a.394.394,0,0,0,.393-.381l.008-.221.177-5.479,7.107-.006-.16,5.385v0l-.008.261v0a.374.374,0,0,0,.013.073c.006.025.006.054.014.078a.426.426,0,0,0,.039.062.491.491,0,0,0,.043.065.381.381,0,0,0,.052.037.6.6,0,0,0,.07.05.412.412,0,0,0,.065.015.347.347,0,0,0,.086.019h0l.649.016a.382.382,0,0,0,.358.29l.039,0a.394.394,0,0,0,.352-.431l-.028-.282-.028-.285v0l-2.341-23.26-3.3-32.767-.91-9.057-.316-3.128-.1-.95,0-.007v-.01l0-.009,0-.006-.028-.279-.446-4.433v0l-.011-.1-.03-.295c0-.011-.007-.019-.008-.026a.167.167,0,0,0,0-.03c0-.005,0-.01,0-.016v-.008a.069.069,0,0,0,0-.02v0l-.448-4.455v0l-.056-.543-.451-4.473-.058-.584-.453-4.5-.062-.629-.456-4.518-.066-.672-.458-4.538-.071-.718v0l-.11-1.09-.916-9.093-1.426-14.178-.048-.473-.1-.981v0l-.032-.325v0l-.024-.229v0l-.183-1.834a.386.386,0,0,0,.149-.274.391.391,0,0,0-.364-.417l-.185-.013-1.424-.1-2.921-.2-1.543-.108h-.014l-1.139-.078h-.047l-.011,0h0l-.174-.01-.01,0h0l-1-.067-.01,0h0l-2.237-.152-.008,0h0l-1.153-.079h-.031l-.01,0h0l-.581-.039h-.013l-2.851-.2h-.013l-1.151-.078h-.037l-1.527-.107h-.013l-1.919-.132-.009,0h0l-1.155-.078h-.007l0,0h-.019l-3.472-.238-1.168-.08h-.006l-.006,0-.228-.015h0l-4.508-.311-2.877-.2-21.162-1.452-2.335-.161-.862-.061-3.458-.239a.572.572,0,0,0-.085.006h-.007l-.008,0a.336.336,0,0,0-.245.153l0,.006a.425.425,0,0,0-.047.1.316.316,0,0,0-.015.06.259.259,0,0,0-.009.036c0,.015.006.028.006.046a.257.257,0,0,0,0,.048l4.033,23.623-.471-.024-.464-.027.305-3.555a.393.393,0,0,0-.784-.067l-.34,3.958,0,0,0,.006-.073.854v0l-.091,1.065-4.816,56.115-1.23,14.327-1.246,14.509-.875,10.2-2.339.014a.393.393,0,0,0,0,.786h0l2.7-.015,4.578-.024,56.474-.3-.181,5.067-10.813-.017h-.013l-5.828-.011h-.012l-9.648-.018-6.305-.011-8.146-.014-20.573-.036-3.167-.007h0a.437.437,0,0,0-.141.026l-3.846-.006.43-4.963.917-10.578,1.259-14.492L1046.819,689l4.864-56.041.14-1.606v-.012l.409-4.722a.385.385,0,0,0,.343.243.479.479,0,0,0,.092-.012.394.394,0,0,0,.291-.475l-.533-2.211-1.694-7.029-.979-4.062h0l-.1-.416-.066-.272-.489-2.028h0l-.1-.426h0v0l-.066-.267v0l-.484-2.012-.1-.436v0l-.064-.268v0l-.4-1.655,171.253,11.906,3.555.247h.027l.008,0c.008,0,.014.005.024.006l1.8.126.008,8.9v.419l.007,7.894.012,13.637v1.372l0,1.372.034,38.3v.477l0,2.589V693l0,2.606v.455l.011,11.9v.406l0,2.7v.4l0,4.174v1.649l.021,21.988h0l.005,6.336v1.171a.393.393,0,0,0,.785,0v-.781l138.493-1.108.027.584a.393.393,0,0,0,.392.374h.019a.39.39,0,0,0,.373-.41l-.043-.944v0l0-.013-.222-4.889,3.758.045.28,5.948a.392.392,0,0,0,.392.375.057.057,0,0,0,.018,0,.39.39,0,0,0,.374-.409l-.278-5.909,5.377-.024.234,4.8v0l0,.016.053,1.1a.4.4,0,0,0,.394.375.064.064,0,0,0,.019,0,.392.392,0,0,0,.373-.411l-.034-.69,79.17-.632,34.27.607,5.118.09,11.32.2Zm-110.116-14.3-.393,4.525-16.271-.02.289-4.533Zm7.982,4.534.388-4.518,19.8.035-.22,4.507Zm20.754.013.219-4.493,7.359.013-.177,3.882-.019.41Zm-10.346-126.179.059.416v0l.548,3.819-.564,10.5-3.406-19.953,2.64.182.5,3.471.184,1.284v0Zm23.662-2.616-.059,1.272-22.916.609-.127-.89.031-.364Zm-22.944-.869.107-1.247,1.99-.057,12.966.893Zm24.907,3.573-.141,3.113-1.307.031.145-3.11Zm-1.235-1.454.058-1.272,1.3-.034-.058,1.27Zm1.48,5.341.489-.01.046,0h.013l1.329-.033,2.1-.054.6-.016h0l.858-.022h.011l1.176-.031,3.5-.09h.021l1.173-.031,1.942-.049,1.548-.039h.007l.026,0h0l1.163-.03,3.478-.09h.031l1.17-.031h0l.691-.017,2.772-.07h.039l1.165-.031.65-.017,2.8-.071.046,0,1.164-.027,1.41-.036.055,0,1.348,13.391-58.044,1.31.713-13.264,22.4-.575Zm1.631-3.938-.139,3.113-.542.016.141-3.113Zm-.473-1.475.057-1.272.54-.014-.058,1.273Zm2.574,1.419,0,.073v.005l-.011.23-.013.329v.013l-.078,1.735v.012h0l-.011.215v.006l-.013.324v.009l-.007.166-1.317.032.14-3.113Zm-1.247-1.452.058-1.273,1.311-.037-.057,1.274Zm3.9,1.384-.009.212-.01.231,0,0,0,0,0,0-.016.319v.008h0l-.075,1.739h0l-.009.232,0,0,0,0,0,0-.015.307,0,.005v.043l-.389.011.137-3.118Zm-.322-1.48.053-1.216.385.029-.05,1.176Zm3.767,2.738-.041.959-2.711-.065.041-.962Zm-2.592-2.768.048-1.1,2.7.183-.036.846Zm3.84,1.384-.019.452-.011.23-.013.329v0l-.072,1.746-.01.229-.006.134-.385.01.133-3.123Zm-.323-1.478.033-.769.382.026-.031.731Zm2.263,1.427-.007.166-1.151-.03.008-.106Zm-1.089-1.459.026-.656,1.147.077-.022.548Zm1.027,2.969-.039.961-1.152-.029.04-.961Zm1.608-1.55-.009.242-.757-.017.008-.206Zm-.7-1.472.019-.471.755.051-.017.4Zm.631,3.059-.037.96-.758-.017.038-.961Zm1.26-1.621-.027.692v0l-.01.229-.013.33-.069,1.744-.005.129-.382.009.125-3.124Zm-.32-1.479.014-.322.377.025-.011.287Zm3.2,1.4-.019.452-2.085-.053.014-.344Zm-2.03-1.437.009-.211,2.079.144,0,.013Zm1.959,3.232-.038.957-2.085-.049.037-.957Zm1.365,1.3.122-3.128.38-.01-.036.931-.01.228v0l-.011.326-.064,1.642Zm2.683-1.2-.037.957-1.467-.037.037-.954Zm-1.417-1.38.024-.584,1.469-.039-.025.66ZM1110,614l-.035.955-.227,0,.036-.957Zm-.175-1.349.027-.7.226-.006-.027.711Zm1.149,2.4.117-3.132.378-.011-.043,1.169-.01.231-.012.327h0l-.052,1.4Zm3.858-.934-.03.835-2.42.062-.24-.006.034-.957Zm-2.607-1.408.031-.822,2.657-.07-.033.957Zm3.41,2.221.112-3.135.373-.01-.047,1.406-.009.231v0l-.012.325-.041,1.172Zm2.082-.741.044.432s-.009,0-.013.007l-.181.253-.769.021.027-.735Zm-.844-1.365.036-1.062.562-.013.11,1.093Zm-55.465.413,22.634-.6-.144,3.111-22.049.566Zm.409,18.14a.409.409,0,0,0,.114-.075l.01-.007a.373.373,0,0,0,.1-.168l57.252-1.291.834,8.291-32.246-.625-.2,0,.015-.34a.392.392,0,0,0-.374-.41.041.041,0,0,0-.018,0,.393.393,0,0,0-.392.378l-.033.742v.015l-.05,1.079v.014l-1.8,40.1-1.7,38.035-.589.011,3.621-79.992a.392.392,0,0,0-.375-.41.308.308,0,0,0-.157.015l.158-3.516a.388.388,0,0,0-.374-.409.369.369,0,0,0-.409.374l-.211,4.644v.013l-1.782,39.211-1.684,37.024v.016h0l-.138,3.054-1.378.027,1.3-28.138,2.614-56.641a.391.391,0,0,0-.375-.409l-.018,0a.392.392,0,0,0-.392.374l-2.593,56.2-1.289-.221c-.009,0-.016,0-.025,0s-.015,0-.022,0h-.009l-.01,0h0l-24.775.182,4.778-55.683.059-.687.515.027a.045.045,0,0,0,.022,0,.388.388,0,0,0,.147-.031Zm17.074,71.964,0-.007.662-14.149.947.162-1.284,27.841-2.756.054.648-13.689,1.347.154.044,0a.393.393,0,0,0,.264-.105c.023-.023.025-.057.043-.083a.39.39,0,0,0,.084-.161A.14.14,0,0,0,1078.889,703.342Zm.71,14.626,2.164-.038.559-.011h.008l1.374-.026,2.173-.041,9.605-.182,5.815-.108.193-.005h0l.5-.008.5-.011,10.416-.2.524-.01.526-.009,5.72-.109-.153,4.646-47.856.586h-.027l.211-4.336.046,0h.03l4.127-.078ZM1122.7,679.9l-.021.63-.07,2.2-36.483-.372h0a.393.393,0,0,0-.005.785l.867.01-.081,1.841v.015l-1.414,32.062-1.387.027,1.682-37.551a.376.376,0,0,0,.3-.332l.2-3.833a.367.367,0,0,0,.179.053l36.575.43-.379,3.837A.36.36,0,0,0,1122.7,679.9Zm-18.964,4.874h-.011l-.485-.005h-.011l-.485-.006h-.011l-.182,0h-.012l-5.734-.054h-.012l-9.087-.089.065-1.461,33.084.338a.249.249,0,0,0-.014.028.35.35,0,0,0-.029.062.4.4,0,0,0-.019.076c0,.017-.009.027-.01.042l-.04,1.234-5.673-.053h-.009l-.509-.006h-.012l-.507-.005h-.009Zm9.876.88-1.094,30.9-9.627.182,1.208-31.178Zm-16.446-.161,4.961.049-1.223,31.235-5.024.1Zm-2.074,31.392-8.817.167,1.4-31.649,8.708.084Zm19.263-.361,1.081-30.852,5.281.053-1.016,30.7ZM1120.11,728l.191-5.74.179-5.435,1.047-31.646.037-1.123.277-.043-1.057,32.307-.56,17.108h-.293Zm.786,8.943.088-2.675h.692l-.163,5.064-.695-.015Zm.114-3.509.548-16.7,6.483.06,1.681,16.685Zm.573-17.491,1.046-31.989,2.113.059,3.22,31.987Zm1.809-32.968.074-2.279.489-.562c.005-.005,0-.012.006-.016a.39.39,0,0,0,.08-.187c0-.006.008-.011.008-.017l.141-1.4.43,4.27Zm-.23-8.32-36.814-.438.193-3.653,36.9.473.04.411Zm-36.555-5.344.194-3.668,36.141.495h0l.366,3.649Zm.262-4.962.193-3.69,35.382.523.37,3.666Zm.265-5.023.195-3.71,34.611.548.369,3.686Zm.268-5.087.2-3.729,33.829.572.374,3.707Zm.272-5.147.2-3.751,33.038.594.376,3.729Zm.275-5.21.2-3.773,32.237.613.378,3.752Zm.278-5.278.016-.309,31.96.619.032.3Zm-9.456,50.514-.644,13.758-1.346-.154-.01,0a.118.118,0,0,0-.016,0h-.009l-.009,0h0l-23.562.118,1.163-13.54Zm-2.445,14.391-.651,13.745-3.753.072-.418-.025h0l-.011,0-.008,0h0l-19.555.049,1.179-13.727Zm-5.256,14.578-.213,4.365-15.409.191a.394.394,0,0,0,0,.787h0l15.779-.2.444,0,47.821-.587-.163,4.949-7.27-.018h-.016l-56.884.306-4.146.022.838-9.769Zm48.241,10.293-.167,5.046-6.891.008.179-5.071Zm375.059,15.7-.436-5.012,12.234.114.467,5.115Z" transform="translate(-85.847 -175.391)" fill="#fff"/>
  </g>
</svg>
