<svg id="Grupo_55995" data-name="Grupo 55995" xmlns="http://www.w3.org/2000/svg" xmlns:xlink="http://www.w3.org/1999/xlink" width="312" height="182" viewBox="0 0 312 182">
  <defs>
    <clipPath id="clip-path">
      <rect id="Rectángulo_5792" data-name="Rectángulo 5792" width="312" height="182" rx="25" fill="none" opacity="0.4"/>
    </clipPath>
  </defs>
  <g id="Grupo_10" data-name="Grupo 10" clip-path="url(#clip-path)">
    <g id="Grupo_59503" data-name="Grupo 59503" transform="translate(-334.606 -317.144)">
      <g id="Grupo_59495" data-name="Grupo 59495" transform="translate(372.606 334.144)">
        <rect id="Rectángulo_30239" data-name="Rectángulo 30239" width="201.736" height="139.264" transform="translate(0 0)" fill="#8aa8ba"/>
        <path id="Trazado_124855" data-name="Trazado 124855" d="M556.453,435.686a102.76,102.76,0,0,1-32.556,10.16c-21.753,2.963-43.622-2.327-62.164-13.917-18.139-11.338-33.782-27.31-41.921-47.332-6.438-15.837-8.193-33.434-6.356-50.453h-40.85V473.408H574.343V423.4A86.111,86.111,0,0,1,556.453,435.686Z" transform="translate(-372.606 -334.144)" fill="#5f7380"/>
        <g id="Grupo_59494" data-name="Grupo 59494" transform="translate(29.025 20.761)">
          <g id="Grupo_59488" data-name="Grupo 59488" transform="translate(25.158 57.501)">
            <rect id="Rectángulo_30240" data-name="Rectángulo 30240" width="2.197" height="40.241" fill="none" stroke="#1d120e" stroke-miterlimit="10" stroke-width="1"/>
            <rect id="Rectángulo_30241" data-name="Rectángulo 30241" width="2.194" height="40.241" transform="translate(38.048)" fill="none" stroke="#1d120e" stroke-miterlimit="10" stroke-width="1"/>
            <rect id="Rectángulo_30242" data-name="Rectángulo 30242" width="40.242" height="2.194" transform="translate(0 38.048)" fill="none" stroke="#1d120e" stroke-miterlimit="10" stroke-width="1"/>
            <rect id="Rectángulo_30243" data-name="Rectángulo 30243" width="27.451" height="2.195" fill="none" stroke="#1d120e" stroke-miterlimit="10" stroke-width="1"/>
            <path id="Trazado_124856" data-name="Trazado 124856" d="M430.207,390.915s-.051,7.815,10.6,8.631" transform="translate(-402.757 -388.72)" fill="none" stroke="#1d120e" stroke-miterlimit="10" stroke-width="1"/>
          </g>
          <g id="Grupo_59489" data-name="Grupo 59489" transform="translate(65.4)">
            <rect id="Rectángulo_30244" data-name="Rectángulo 30244" width="2.195" height="40.241" fill="none" stroke="#1d120e" stroke-miterlimit="10" stroke-width="1"/>
            <rect id="Rectángulo_30245" data-name="Rectángulo 30245" width="2.194" height="40.241" transform="translate(38.045)" fill="none" stroke="#1d120e" stroke-miterlimit="10" stroke-width="1"/>
            <rect id="Rectángulo_30246" data-name="Rectángulo 30246" width="40.239" height="2.196" fill="none" stroke="#1d120e" stroke-miterlimit="10" stroke-width="1"/>
            <rect id="Rectángulo_30247" data-name="Rectángulo 30247" width="27.448" height="2.195" transform="translate(0 38.047)" fill="none" stroke="#1d120e" stroke-miterlimit="10" stroke-width="1"/>
            <path id="Trazado_124857" data-name="Trazado 124857" d="M458.6,378.18s-.047-7.815,10.6-8.631" transform="translate(-431.152 -340.133)" fill="none" stroke="#1d120e" stroke-miterlimit="10" stroke-width="1"/>
          </g>
          <g id="Grupo_59490" data-name="Grupo 59490" transform="translate(103.445)">
            <rect id="Rectángulo_30248" data-name="Rectángulo 30248" width="2.195" height="40.241" transform="translate(38.047)" fill="none" stroke="#1d120e" stroke-miterlimit="10" stroke-width="1"/>
            <rect id="Rectángulo_30249" data-name="Rectángulo 30249" width="40.242" height="2.197" fill="none" stroke="#1d120e" stroke-miterlimit="10" stroke-width="1"/>
            <rect id="Rectángulo_30250" data-name="Rectángulo 30250" width="27.451" height="2.195" transform="translate(0 38.047)" fill="none" stroke="#1d120e" stroke-miterlimit="10" stroke-width="1"/>
            <path id="Trazado_124858" data-name="Trazado 124858" d="M485.448,378.18s-.052-7.815,10.6-8.632" transform="translate(-457.997 -340.133)" fill="none" stroke="#1d120e" stroke-miterlimit="10" stroke-width="1"/>
          </g>
          <g id="Grupo_59491" data-name="Grupo 59491" transform="translate(103.445 57.501)">
            <rect id="Rectángulo_30251" data-name="Rectángulo 30251" width="2.194" height="40.241" fill="none" stroke="#1d120e" stroke-miterlimit="10" stroke-width="1"/>
            <rect id="Rectángulo_30252" data-name="Rectángulo 30252" width="2.195" height="40.241" transform="translate(38.047)" fill="none" stroke="#1d120e" stroke-miterlimit="10" stroke-width="1"/>
            <rect id="Rectángulo_30253" data-name="Rectángulo 30253" width="40.242" height="2.196" transform="translate(0 38.046)" fill="none" stroke="#1d120e" stroke-miterlimit="10" stroke-width="1"/>
            <rect id="Rectángulo_30254" data-name="Rectángulo 30254" width="27.451" height="2.195" fill="none" stroke="#1d120e" stroke-miterlimit="10" stroke-width="1"/>
            <path id="Trazado_124859" data-name="Trazado 124859" d="M485.448,390.915s-.052,7.815,10.6,8.631" transform="translate(-457.997 -388.72)" fill="none" stroke="#1d120e" stroke-miterlimit="10" stroke-width="1"/>
          </g>
          <rect id="Rectángulo_30255" data-name="Rectángulo 30255" width="38.045" height="2.196" transform="translate(65.4 95.547)" fill="none" stroke="#1d120e" stroke-miterlimit="10" stroke-width="1"/>
          <rect id="Rectángulo_30256" data-name="Rectángulo 30256" width="27.834" height="2.195" transform="translate(63.206 57.501)" fill="none" stroke="#1d120e" stroke-miterlimit="10" stroke-width="1"/>
          <rect id="Rectángulo_30257" data-name="Rectángulo 30257" width="11.438" height="4.125" transform="translate(89.267 87.572)" fill="none" stroke="#1d120e" stroke-miterlimit="10" stroke-width="1"/>
          <path id="Trazado_124860" data-name="Trazado 124860" d="M461.8,402.47a5.75,5.75,0,1,1-5.754,5.75A5.748,5.748,0,0,1,461.8,402.47Z" transform="translate(-366.816 -326.398)" fill="none" stroke="#1d120e" stroke-miterlimit="10" stroke-width="1"/>
          <path id="Trazado_124861" data-name="Trazado 124861" d="M461.273,403.744a3.944,3.944,0,1,1-3.948,3.944A3.943,3.943,0,0,1,461.273,403.744Z" transform="translate(-366.285 -325.866)" fill="none" stroke="#1d120e" stroke-miterlimit="10" stroke-width="1"/>
          <rect id="Rectángulo_30258" data-name="Rectángulo 30258" width="1.634" height="35.851" transform="translate(83.834 59.696)" fill="none" stroke="#1d120e" stroke-miterlimit="10" stroke-width="1"/>
          <path id="Trazado_124862" data-name="Trazado 124862" d="M444.736,392.956a1.635,1.635,0,1,1-1.634,1.635A1.635,1.635,0,0,1,444.736,392.956Z" transform="translate(-372.219 -330.367)" fill="none" stroke="#1d120e" stroke-miterlimit="10" stroke-width="1"/>
          <path id="Trazado_124863" data-name="Trazado 124863" d="M467.336,392.974l-.085,0c-2.679,0-4.847,1.8-4.847,4.016v3.4c0,2.218,2.168,4.015,4.847,4.015h.085Z" transform="translate(-364.166 -330.361)" fill="none" stroke="#1d120e" stroke-miterlimit="10" stroke-width="1"/>
          <rect id="Rectángulo_30259" data-name="Rectángulo 30259" width="2.197" height="97.661" transform="translate(0 0.082)" fill="none" stroke="#1d120e" stroke-miterlimit="10" stroke-width="1"/>
          <rect id="Rectángulo_30260" data-name="Rectángulo 30260" width="67.595" height="2.197" transform="translate(0 0.082)" fill="none" stroke="#1d120e" stroke-miterlimit="10" stroke-width="1"/>
          <rect id="Rectángulo_30261" data-name="Rectángulo 30261" width="5.702" height="2.196" transform="translate(21.653 95.547)" fill="none" stroke="#1d120e" stroke-miterlimit="10" stroke-width="1"/>
          <g id="Grupo_59492" data-name="Grupo 59492" transform="translate(37.862 8.464)">
            <path id="Trazado_124864" data-name="Trazado 124864" d="M431.84,357.53a9.062,9.062,0,1,1-9.063,9.062A9.062,9.062,0,0,1,431.84,357.53Z" transform="translate(-418.561 -353.611)" fill="none" stroke="#1d120e" stroke-miterlimit="10" stroke-width="1"/>
            <path id="Trazado_124865" data-name="Trazado 124865" d="M421.367,361.791c.866,0,1.565,1.114,1.565,2.49s-.7,2.49-1.565,2.49-1.565-1.115-1.565-2.49S420.5,361.791,421.367,361.791Z" transform="translate(-419.802 -351.834)" fill="none" stroke="#1d120e" stroke-miterlimit="10" stroke-width="1"/>
            <path id="Trazado_124866" data-name="Trazado 124866" d="M437.465,361.791c.863,0,1.563,1.114,1.563,2.49s-.7,2.49-1.563,2.49-1.566-1.115-1.566-2.49S436.6,361.791,437.465,361.791Z" transform="translate(-413.086 -351.834)" fill="none" stroke="#1d120e" stroke-miterlimit="10" stroke-width="1"/>
            <path id="Trazado_124867" data-name="Trazado 124867" d="M432.394,372.718c0,.863-1.113,1.565-2.489,1.565s-2.49-.7-2.49-1.565,1.111-1.565,2.49-1.565S432.394,371.853,432.394,372.718Z" transform="translate(-416.626 -347.928)" fill="none" stroke="#1d120e" stroke-miterlimit="10" stroke-width="1"/>
            <path id="Trazado_124868" data-name="Trazado 124868" d="M432.394,356.328c0,.864-1.113,1.565-2.489,1.565s-2.49-.7-2.49-1.565,1.111-1.563,2.49-1.563S432.394,355.465,432.394,356.328Z" transform="translate(-416.626 -354.765)" fill="none" stroke="#1d120e" stroke-miterlimit="10" stroke-width="1"/>
          </g>
          <g id="Grupo_59493" data-name="Grupo 59493" transform="translate(4.291 4.382)">
            <path id="Trazado_124869" data-name="Trazado 124869" d="M403.384,351.885a5.108,5.108,0,0,1,5.108,5.106v16.22a5.109,5.109,0,0,1-5.108,5.1h0a5.107,5.107,0,0,1-5.109-5.1v-16.22a5.107,5.107,0,0,1,5.109-5.106Z" transform="translate(-395.212 -351.885)" fill="none" stroke="#1d120e" stroke-miterlimit="10" stroke-width="1"/>
            <path id="Trazado_124870" data-name="Trazado 124870" d="M397.646,351.885a1.608,1.608,0,0,1,1.531,1.677v23.716a1.609,1.609,0,0,1-1.531,1.677h0a1.609,1.609,0,0,1-1.532-1.677V353.562a1.608,1.608,0,0,1,1.532-1.677Z" transform="translate(-396.114 -351.885)" fill="none" stroke="#1d120e" stroke-miterlimit="10" stroke-width="1"/>
          </g>
          <path id="Trazado_124871" data-name="Trazado 124871" d="M412.811,378.355a5.105,5.105,0,0,1-5.108-5.106v-16.22a5.106,5.106,0,0,1,5.108-5.106h0a5.108,5.108,0,0,1,5.108,5.106v16.22a5.107,5.107,0,0,1-5.108,5.106Z" transform="translate(-386.988 -347.487)" fill="none" stroke="#1d120e" stroke-miterlimit="10" stroke-width="1"/>
          <path id="Trazado_124872" data-name="Trazado 124872" d="M416.442,378.542a1.608,1.608,0,0,1-1.531-1.677V353.153a1.611,1.611,0,0,1,1.531-1.681h0a1.609,1.609,0,0,1,1.529,1.681v23.713a1.607,1.607,0,0,1-1.529,1.677Z" transform="translate(-383.981 -347.675)" fill="none" stroke="#1d120e" stroke-miterlimit="10" stroke-width="1"/>
          <path id="Trazado_124873" data-name="Trazado 124873" d="M413.965,422.017s.085-14.023-19.022-15.49" transform="translate(-392.312 -324.705)" fill="none" stroke="#1d120e" stroke-miterlimit="10" stroke-width="1"/>
        </g>
        <rect id="Rectángulo_30262" data-name="Rectángulo 30262" width="189.711" height="127.183" transform="translate(6.013 6.041)" fill="none" stroke="#1d120e" stroke-miterlimit="10" stroke-width="0.75"/>
        <rect id="Rectángulo_30263" data-name="Rectángulo 30263" width="179.481" height="120.323" transform="translate(11.128 9.471)" fill="none" stroke="#1d120e" stroke-miterlimit="10" stroke-width="0.75"/>
      </g>
      <g id="Grupo_59502" data-name="Grupo 59502" transform="translate(489.089 355.419)">
        <g id="Grupo_59497" data-name="Grupo 59497" transform="translate(0 13.057)">
          <path id="Trazado_124874" data-name="Trazado 124874" d="M466.161,349.145l-20.668,22.476a2.654,2.654,0,0,0,.157,3.752L517.228,441.2a2.655,2.655,0,0,0,3.752-.158l20.67-22.477a2.657,2.657,0,0,0-.157-3.751l-71.581-65.826A2.656,2.656,0,0,0,466.161,349.145Z" transform="translate(-444.791 -347.695)" fill="#c3c4c9" style="mix-blend-mode: multiply;isolation: isolate"/>
          <g id="Grupo_59496" data-name="Grupo 59496" transform="translate(3.473)">
            <path id="Trazado_124875" data-name="Trazado 124875" d="M544.439,414.31a2.658,2.658,0,0,1,.157,3.752l-20.67,22.477a2.656,2.656,0,0,1-3.752.157l-71.579-65.824a2.654,2.654,0,0,1-.157-3.752l20.668-22.477a2.657,2.657,0,0,1,3.752-.157Z" transform="translate(-447.736 -347.785)" fill="#fff"/>
            <rect id="Rectángulo_30264" data-name="Rectángulo 30264" width="25.49" height="11.169" transform="translate(6.166 24.933) rotate(-47.4)" fill="#e15a4f"/>
            <rect id="Rectángulo_30265" data-name="Rectángulo 30265" width="25.49" height="11.169" transform="matrix(0.677, -0.736, 0.736, 0.677, 15.306, 33.338)" fill="#ce5348"/>
            <rect id="Rectángulo_30266" data-name="Rectángulo 30266" width="25.491" height="11.168" transform="matrix(0.677, -0.736, 0.736, 0.677, 24.445, 41.742)" fill="#ac453a"/>
            <rect id="Rectángulo_30267" data-name="Rectángulo 30267" width="25.491" height="11.169" transform="translate(33.542 50.108) rotate(-47.4)" fill="#a33135"/>
            <rect id="Rectángulo_30268" data-name="Rectángulo 30268" width="25.492" height="11.17" transform="matrix(0.677, -0.736, 0.736, 0.677, 42.723, 58.552)" fill="#822f28"/>
            <rect id="Rectángulo_30269" data-name="Rectángulo 30269" width="25.492" height="11.168" transform="translate(51.865 66.958) rotate(-47.397)" fill="#761d21"/>
            <rect id="Rectángulo_30270" data-name="Rectángulo 30270" width="25.492" height="11.169" transform="matrix(0.677, -0.736, 0.736, 0.677, 61.003, 75.362)" fill="#510f0a"/>
          </g>
        </g>
        <g id="Grupo_59499" data-name="Grupo 59499" transform="translate(22.846 1.659)">
          <path id="Trazado_124876" data-name="Trazado 124876" d="M491.85,338.482l-26.369,15.4a2.655,2.655,0,0,0-.953,3.632l49.045,83.971a2.656,2.656,0,0,0,3.632.954l26.366-15.4a2.656,2.656,0,0,0,.955-3.633l-49.044-83.97A2.656,2.656,0,0,0,491.85,338.482Z" transform="translate(-464.165 -338.119)" fill="#c3c4c9" style="mix-blend-mode: multiply;isolation: isolate"/>
          <g id="Grupo_59498" data-name="Grupo 59498" transform="translate(4.491 0.496)">
            <path id="Trazado_124877" data-name="Trazado 124877" d="M544.935,426.253a2.654,2.654,0,0,1-1.132,3.58l-27.091,14.086a2.656,2.656,0,0,1-3.581-1.132l-44.857-86.28a2.656,2.656,0,0,1,1.131-3.581L496.5,338.84a2.656,2.656,0,0,1,3.58,1.131Z" transform="translate(-467.974 -338.54)" fill="#fff"/>
            <rect id="Rectángulo_30271" data-name="Rectángulo 30271" width="25.491" height="11.17" transform="translate(6.023 17.75) rotate(-27.468)" fill="#88c7c7"/>
            <rect id="Rectángulo_30272" data-name="Rectángulo 30272" width="25.49" height="11.169" transform="translate(11.751 28.767) rotate(-27.47)" fill="#73bfc5"/>
            <rect id="Rectángulo_30273" data-name="Rectángulo 30273" width="25.49" height="11.169" transform="translate(17.479 39.783) rotate(-27.469)" fill="#2ba8b6"/>
            <rect id="Rectángulo_30274" data-name="Rectángulo 30274" width="25.491" height="11.17" transform="translate(23.179 50.749) rotate(-27.468)" fill="#1c8b94"/>
            <rect id="Rectángulo_30275" data-name="Rectángulo 30275" width="25.491" height="11.17" transform="translate(28.934 61.817) rotate(-27.469)" fill="#0a747c"/>
            <rect id="Rectángulo_30276" data-name="Rectángulo 30276" width="25.49" height="11.169" transform="translate(34.661 72.834) rotate(-27.468)" fill="#005156"/>
            <rect id="Rectángulo_30277" data-name="Rectángulo 30277" width="25.491" height="11.17" transform="translate(40.389 83.851) rotate(-27.47)" fill="#004145"/>
          </g>
        </g>
        <path id="Trazado_124878" data-name="Trazado 124878" d="M517.905,337.163,488.2,344.211a2.656,2.656,0,0,0-1.972,3.2l22.447,94.618a2.655,2.655,0,0,0,3.2,1.97l29.712-7.049a2.653,2.653,0,0,0,1.968-3.2L521.1,339.133A2.655,2.655,0,0,0,517.905,337.163Z" transform="translate(-437.379 -336.645)" fill="#c3c4c9" style="mix-blend-mode: multiply;isolation: isolate"/>
        <g id="Grupo_59500" data-name="Grupo 59500" transform="translate(52.81)">
          <path id="Trazado_124879" data-name="Trazado 124879" d="M543.127,434.377a2.655,2.655,0,0,1-2.108,3.107l-29.988,5.746a2.656,2.656,0,0,1-3.108-2.108l-18.3-95.507a2.656,2.656,0,0,1,2.108-3.108l29.988-5.746a2.658,2.658,0,0,1,3.108,2.108Z" transform="translate(-489.575 -336.713)" fill="#fff"/>
          <rect id="Rectángulo_30278" data-name="Rectángulo 30278" width="25.49" height="11.169" transform="matrix(0.982, -0.188, 0.188, 0.982, 5.595, 10.333)" fill="#f2a90a"/>
          <rect id="Rectángulo_30279" data-name="Rectángulo 30279" width="25.49" height="11.169" transform="translate(7.931 22.528) rotate(-10.848)" fill="#ec8b10"/>
          <rect id="Rectángulo_30280" data-name="Rectángulo 30280" width="25.49" height="11.169" transform="translate(10.268 34.723) rotate(-10.846)" fill="#e87813"/>
          <rect id="Rectángulo_30281" data-name="Rectángulo 30281" width="25.492" height="11.169" transform="translate(12.592 46.861) rotate(-10.845)" fill="#c66013"/>
          <rect id="Rectángulo_30282" data-name="Rectángulo 30282" width="25.49" height="11.17" transform="matrix(0.982, -0.188, 0.188, 0.982, 14.94, 59.112)" fill="#a04e0f"/>
          <rect id="Rectángulo_30283" data-name="Rectángulo 30283" width="25.49" height="11.169" transform="translate(17.277 71.308) rotate(-10.848)" fill="#7f3008"/>
          <rect id="Rectángulo_30284" data-name="Rectángulo 30284" width="25.49" height="11.169" transform="matrix(0.982, -0.188, 0.188, 0.982, 19.613, 83.503)" fill="#4b1c00"/>
        </g>
        <path id="Trazado_124880" data-name="Trazado 124880" d="M552.066,344.476l-30.276-3.992a2.655,2.655,0,0,0-2.978,2.287L506.1,439.182a2.654,2.654,0,0,0,2.285,2.979l30.273,3.992a2.657,2.657,0,0,0,2.981-2.285l12.711-96.412A2.657,2.657,0,0,0,552.066,344.476Z" transform="translate(-433.808 -336.041)" fill="#c3c4c9" style="mix-blend-mode: multiply;isolation: isolate"/>
        <g id="Grupo_59501" data-name="Grupo 59501" transform="translate(72.397 5.747)">
          <path id="Trazado_124881" data-name="Trazado 124881" d="M541.522,445.788a2.655,2.655,0,0,1-3.078,2.151l-30.067-5.331a2.657,2.657,0,0,1-2.151-3.078l16.979-95.751a2.657,2.657,0,0,1,3.079-2.151l30.065,5.331a2.656,2.656,0,0,1,2.153,3.079Z" transform="translate(-506.185 -341.586)" fill="#fff"/>
          <rect id="Rectángulo_30285" data-name="Rectángulo 30285" width="11.17" height="25.491" transform="translate(19.741 16.505) rotate(-79.945)" fill="#c3cf1f"/>
          <rect id="Rectángulo_30286" data-name="Rectángulo 30286" width="11.169" height="25.49" transform="translate(17.574 28.731) rotate(-79.943)" fill="#b0c625"/>
          <rect id="Rectángulo_30287" data-name="Rectángulo 30287" width="11.17" height="25.491" transform="translate(15.405 40.958) rotate(-79.945)" fill="#8bae29"/>
          <rect id="Rectángulo_30288" data-name="Rectángulo 30288" width="11.169" height="25.491" transform="translate(13.247 53.126) rotate(-79.945)" fill="#759625"/>
          <rect id="Rectángulo_30289" data-name="Rectángulo 30289" width="11.169" height="25.491" transform="matrix(0.175, -0.985, 0.985, 0.175, 11.069, 65.41)" fill="#5b791b"/>
          <rect id="Rectángulo_30290" data-name="Rectángulo 30290" width="11.169" height="25.491" transform="matrix(0.175, -0.985, 0.985, 0.175, 8.902, 77.635)" fill="#405909"/>
          <rect id="Rectángulo_30291" data-name="Rectángulo 30291" width="11.17" height="25.491" transform="translate(6.733 89.862) rotate(-79.945)" fill="#203900"/>
        </g>
      </g>
    </g>
  </g>
  <rect id="Rectángulo_5793" data-name="Rectángulo 5793" width="312" height="182" rx="25" fill="none" opacity="0.4"/>
</svg>
