<svg xmlns="http://www.w3.org/2000/svg" width="565.523" height="353.455" viewBox="0 0 565.523 353.455">
  <g id="Grupo_59887" data-name="Grupo 59887" transform="translate(-495 -3603)">
    <g id="Grupo_57753" data-name="Grupo 57753" transform="translate(0 -2)">
      <g id="Grupo_57752" data-name="Grupo 57752">
        <g id="Grupo_57750" data-name="Grupo 57750" transform="translate(299.857 3642.866)">
          <path id="Trazado_125612" data-name="Trazado 125612" d="M1.033,0V-11.565H4.591a5.4,5.4,0,0,1,2.728.687A4.791,4.791,0,0,1,9.2-8.924a6.027,6.027,0,0,1,.675,2.879v.532A6.044,6.044,0,0,1,9.21-2.645,4.75,4.75,0,0,1,7.339-.7,5.445,5.445,0,0,1,4.615,0ZM3.416-9.635v7.721H4.567A2.588,2.588,0,0,0,6.7-2.828a4.128,4.128,0,0,0,.755-2.613v-.612a4.193,4.193,0,0,0-.731-2.673,2.579,2.579,0,0,0-2.137-.909ZM13.877,0h-2.3V-8.594h2.3ZM11.438-10.818a1.13,1.13,0,0,1,.346-.85A1.3,1.3,0,0,1,12.725-12a1.3,1.3,0,0,1,.937.334,1.124,1.124,0,0,1,.349.85,1.127,1.127,0,0,1-.353.858,1.3,1.3,0,0,1-.933.334,1.3,1.3,0,0,1-.933-.334A1.127,1.127,0,0,1,11.438-10.818Zm8.984,8.443A.74.74,0,0,0,20-3.038a4.737,4.737,0,0,0-1.338-.433Q15.6-4.115,15.6-6.076a2.361,2.361,0,0,1,.949-1.91,3.829,3.829,0,0,1,2.482-.767,4.121,4.121,0,0,1,2.617.77,2.428,2.428,0,0,1,.981,2h-2.3a1.111,1.111,0,0,0-.318-.814,1.345,1.345,0,0,0-.993-.322,1.374,1.374,0,0,0-.9.262.827.827,0,0,0-.318.667.707.707,0,0,0,.361.616,3.718,3.718,0,0,0,1.219.405,9.959,9.959,0,0,1,1.446.385A2.375,2.375,0,0,1,22.654-2.47a2.242,2.242,0,0,1-1.009,1.9,4.352,4.352,0,0,1-2.605.727,4.545,4.545,0,0,1-1.918-.385,3.219,3.219,0,0,1-1.315-1.056,2.455,2.455,0,0,1-.477-1.45h2.176a1.2,1.2,0,0,0,.453.937,1.8,1.8,0,0,0,1.128.326,1.662,1.662,0,0,0,1-.25A.779.779,0,0,0,20.422-2.375ZM28.087.159A4.219,4.219,0,0,1,25.009-1a4.122,4.122,0,0,1-1.187-3.09v-.222a5.192,5.192,0,0,1,.5-2.315A3.673,3.673,0,0,1,25.739-8.2a3.98,3.98,0,0,1,2.093-.552,3.567,3.567,0,0,1,2.776,1.112,4.519,4.519,0,0,1,1.013,3.153v.937H26.149A2.132,2.132,0,0,0,26.82-2.2a2.029,2.029,0,0,0,1.418.508,2.478,2.478,0,0,0,2.073-.961L31.439-1.39a3.446,3.446,0,0,1-1.4,1.14A4.587,4.587,0,0,1,28.087.159ZM27.825-6.9a1.434,1.434,0,0,0-1.108.463,2.4,2.4,0,0,0-.544,1.324h3.193V-5.3a1.709,1.709,0,0,0-.413-1.185A1.48,1.48,0,0,0,27.825-6.9Zm7.212-1.692.071.993a3,3,0,0,1,2.47-1.152,2.494,2.494,0,0,1,2.033.8,3.743,3.743,0,0,1,.683,2.4V0H38V-5.509a1.5,1.5,0,0,0-.318-1.063,1.42,1.42,0,0,0-1.056-.33,1.579,1.579,0,0,0-1.454.828V0h-2.3V-8.594ZM39.6-12.1a2.223,2.223,0,0,1-.524,1.505,1.628,1.628,0,0,1-1.279.608,1.94,1.94,0,0,1-.536-.068,3.6,3.6,0,0,1-.647-.29,3.492,3.492,0,0,0-.6-.274,1.456,1.456,0,0,0-.4-.052.637.637,0,0,0-.473.2.772.772,0,0,0-.195.564l-1.334-.079a2.257,2.257,0,0,1,.52-1.5,1.6,1.6,0,0,1,1.275-.62,1.641,1.641,0,0,1,.449.06,4.942,4.942,0,0,1,.687.29,4.466,4.466,0,0,0,.659.278,1.5,1.5,0,0,0,.381.048.67.67,0,0,0,.481-.195.741.741,0,0,0,.2-.56Zm2.081,7.721a5.1,5.1,0,0,1,.492-2.28,3.605,3.605,0,0,1,1.418-1.549,4.137,4.137,0,0,1,2.149-.548,3.914,3.914,0,0,1,2.84,1.064A4.272,4.272,0,0,1,49.8-4.8l.016.588a4.492,4.492,0,0,1-1.1,3.173,3.838,3.838,0,0,1-2.963,1.2,3.857,3.857,0,0,1-2.967-1.191,4.571,4.571,0,0,1-1.108-3.241Zm2.3.163a3.213,3.213,0,0,0,.461,1.873,1.52,1.52,0,0,0,1.319.648,1.523,1.523,0,0,0,1.3-.64,3.515,3.515,0,0,0,.469-2.048,3.18,3.18,0,0,0-.469-1.862,1.523,1.523,0,0,0-1.319-.66,1.5,1.5,0,0,0-1.3.656A3.574,3.574,0,0,0,43.973-4.214Z" transform="translate(585.352 36.935)" fill="#12263f"/>
          <path id="Trazado_125606" data-name="Trazado 125606" d="M7.991-4.726H3.416V0H1.033V-11.565h7.53v1.93H3.416v2.987H7.991ZM12.216,0h-2.3V-8.594h2.3ZM9.778-10.818a1.13,1.13,0,0,1,.346-.85A1.3,1.3,0,0,1,11.065-12a1.3,1.3,0,0,1,.937.334,1.124,1.124,0,0,1,.349.85A1.127,1.127,0,0,1,12-9.961a1.3,1.3,0,0,1-.933.334,1.3,1.3,0,0,1-.933-.334A1.127,1.127,0,0,1,9.778-10.818ZM16.22-8.594l.071.993a3,3,0,0,1,2.47-1.152,2.494,2.494,0,0,1,2.033.8,3.743,3.743,0,0,1,.683,2.4V0h-2.3V-5.509a1.5,1.5,0,0,0-.318-1.063,1.42,1.42,0,0,0-1.056-.33,1.579,1.579,0,0,0-1.454.828V0h-2.3V-8.594ZM28.2,0a2.549,2.549,0,0,1-.23-.77A2.778,2.778,0,0,1,25.8.159a3.051,3.051,0,0,1-2.093-.731,2.35,2.35,0,0,1-.83-1.843,2.429,2.429,0,0,1,1.013-2.1,5,5,0,0,1,2.927-.739h1.056v-.492a1.416,1.416,0,0,0-.306-.953,1.2,1.2,0,0,0-.965-.357,1.368,1.368,0,0,0-.909.278.944.944,0,0,0-.33.763h-2.3a2.306,2.306,0,0,1,.461-1.382,3.045,3.045,0,0,1,1.3-1,4.747,4.747,0,0,1,1.89-.361,3.751,3.751,0,0,1,2.522.8,2.793,2.793,0,0,1,.933,2.244v3.725a4.109,4.109,0,0,0,.342,1.851V0ZM26.3-1.6a1.977,1.977,0,0,0,.937-.226,1.487,1.487,0,0,0,.635-.608V-3.908h-.858q-1.724,0-1.835,1.191l-.008.135a.919.919,0,0,0,.3.707A1.172,1.172,0,0,0,26.3-1.6Zm7.752-7,.071.993a3,3,0,0,1,2.47-1.152,2.494,2.494,0,0,1,2.033.8,3.743,3.743,0,0,1,.683,2.4V0h-2.3V-5.509A1.5,1.5,0,0,0,36.7-6.572,1.42,1.42,0,0,0,35.64-6.9a1.579,1.579,0,0,0-1.454.828V0h-2.3V-8.594Zm10.572,6.9a1.506,1.506,0,0,0,1.033-.349,1.225,1.225,0,0,0,.413-.929h2.153a2.945,2.945,0,0,1-.477,1.6A3.145,3.145,0,0,1,46.463-.242a4.015,4.015,0,0,1-1.8.4,3.731,3.731,0,0,1-2.907-1.172A4.636,4.636,0,0,1,40.692-4.25V-4.4A4.583,4.583,0,0,1,41.749-7.57a3.688,3.688,0,0,1,2.9-1.184,3.615,3.615,0,0,1,2.585.917,3.248,3.248,0,0,1,.989,2.442H46.07a1.577,1.577,0,0,0-.413-1.09A1.377,1.377,0,0,0,44.608-6.9a1.383,1.383,0,0,0-1.211.585,3.389,3.389,0,0,0-.409,1.9v.239a3.432,3.432,0,0,0,.405,1.909A1.4,1.4,0,0,0,44.624-1.692ZM51.956,0h-2.3V-8.594h2.3ZM49.517-10.818a1.13,1.13,0,0,1,.346-.85A1.3,1.3,0,0,1,50.8-12a1.3,1.3,0,0,1,.937.334,1.124,1.124,0,0,1,.349.85,1.127,1.127,0,0,1-.353.858,1.3,1.3,0,0,1-.933.334,1.3,1.3,0,0,1-.933-.334A1.127,1.127,0,0,1,49.517-10.818ZM58.826,0a2.549,2.549,0,0,1-.23-.77,2.778,2.778,0,0,1-2.168.929,3.051,3.051,0,0,1-2.093-.731,2.35,2.35,0,0,1-.83-1.843,2.429,2.429,0,0,1,1.013-2.1,5,5,0,0,1,2.927-.739H58.5v-.492a1.416,1.416,0,0,0-.306-.953,1.2,1.2,0,0,0-.965-.357,1.368,1.368,0,0,0-.909.278.944.944,0,0,0-.33.763H53.7a2.306,2.306,0,0,1,.461-1.382,3.045,3.045,0,0,1,1.3-1,4.747,4.747,0,0,1,1.89-.361,3.751,3.751,0,0,1,2.522.8A2.793,2.793,0,0,1,60.8-5.711v3.725a4.109,4.109,0,0,0,.342,1.851V0Zm-1.9-1.6a1.977,1.977,0,0,0,.937-.226,1.487,1.487,0,0,0,.635-.608V-3.908h-.858q-1.724,0-1.835,1.191l-.008.135a.919.919,0,0,0,.3.707A1.172,1.172,0,0,0,56.928-1.6Zm7.792-7,.071.961a3.02,3.02,0,0,1,2.47-1.12,2.292,2.292,0,0,1,2.28,1.311,2.951,2.951,0,0,1,2.581-1.311,2.563,2.563,0,0,1,2.081.814,3.742,3.742,0,0,1,.683,2.45V0h-2.3V-5.493A1.643,1.643,0,0,0,72.3-6.564,1.265,1.265,0,0,0,71.289-6.9a1.433,1.433,0,0,0-1.43.987L69.867,0h-2.3V-5.485a1.623,1.623,0,0,0-.294-1.083,1.278,1.278,0,0,0-1-.334,1.487,1.487,0,0,0-1.414.812V0h-2.3V-8.594ZM79.073,0h-2.3V-8.594h2.3ZM76.635-10.818a1.13,1.13,0,0,1,.346-.85A1.3,1.3,0,0,1,77.921-12a1.3,1.3,0,0,1,.937.334,1.124,1.124,0,0,1,.349.85,1.127,1.127,0,0,1-.353.858,1.3,1.3,0,0,1-.933.334,1.3,1.3,0,0,1-.933-.334A1.127,1.127,0,0,1,76.635-10.818ZM84.919.159A4.219,4.219,0,0,1,81.841-1a4.122,4.122,0,0,1-1.187-3.09v-.222a5.192,5.192,0,0,1,.5-2.315A3.673,3.673,0,0,1,82.572-8.2a3.979,3.979,0,0,1,2.093-.552,3.567,3.567,0,0,1,2.776,1.112,4.519,4.519,0,0,1,1.013,3.153v.937H82.981a2.132,2.132,0,0,0,.671,1.35,2.029,2.029,0,0,0,1.418.508,2.478,2.478,0,0,0,2.073-.961L88.271-1.39a3.446,3.446,0,0,1-1.4,1.14A4.587,4.587,0,0,1,84.919.159ZM84.657-6.9a1.434,1.434,0,0,0-1.108.463A2.4,2.4,0,0,0,83-5.115H86.2V-5.3a1.709,1.709,0,0,0-.413-1.185A1.48,1.48,0,0,0,84.657-6.9Zm7.212-1.692.071.993a3,3,0,0,1,2.47-1.152,2.494,2.494,0,0,1,2.033.8,3.743,3.743,0,0,1,.683,2.4V0h-2.3V-5.509a1.5,1.5,0,0,0-.318-1.063,1.42,1.42,0,0,0-1.056-.33A1.579,1.579,0,0,0,92-6.075V0h-2.3V-8.594Zm9.746-2.113v2.113h1.469V-6.91h-1.469v4.289a1.024,1.024,0,0,0,.183.683.918.918,0,0,0,.7.207,3.661,3.661,0,0,0,.675-.056v1.74a4.726,4.726,0,0,1-1.39.207A2.192,2.192,0,0,1,99.32-2.28V-6.91H98.065V-8.594H99.32v-2.113Zm2.153,6.331a5.1,5.1,0,0,1,.492-2.28,3.605,3.605,0,0,1,1.418-1.549,4.136,4.136,0,0,1,2.149-.548,3.914,3.914,0,0,1,2.84,1.064A4.272,4.272,0,0,1,111.894-4.8l.016.588a4.492,4.492,0,0,1-1.1,3.173,3.838,3.838,0,0,1-2.963,1.2,3.857,3.857,0,0,1-2.967-1.191,4.571,4.571,0,0,1-1.108-3.241Zm2.3.163a3.213,3.213,0,0,0,.461,1.873,1.52,1.52,0,0,0,1.319.648,1.523,1.523,0,0,0,1.3-.64,3.515,3.515,0,0,0,.469-2.048,3.18,3.18,0,0,0-.469-1.862,1.523,1.523,0,0,0-1.319-.66,1.5,1.5,0,0,0-1.3.656A3.575,3.575,0,0,0,106.064-4.214Z" transform="translate(311.182 36.935)" fill="#12263f"/>
          <path id="Trazado_125611" data-name="Trazado 125611" d="M3.416-4.075V0H1.033V-11.565H5.544a5.22,5.22,0,0,1,2.292.477A3.512,3.512,0,0,1,9.357-9.734a3.776,3.776,0,0,1,.532,2A3.321,3.321,0,0,1,8.725-5.056,4.847,4.847,0,0,1,5.5-4.075Zm0-1.93H5.544A2.093,2.093,0,0,0,6.986-6.45a1.618,1.618,0,0,0,.5-1.271,1.908,1.908,0,0,0-.5-1.374A1.869,1.869,0,0,0,5.6-9.635H3.416ZM13.8,0h-2.3V-12.2h2.3Zm6.871,0a2.549,2.549,0,0,1-.23-.77,2.778,2.778,0,0,1-2.168.929,3.051,3.051,0,0,1-2.093-.731,2.35,2.35,0,0,1-.83-1.843,2.429,2.429,0,0,1,1.013-2.1,5,5,0,0,1,2.927-.739h1.056v-.492a1.416,1.416,0,0,0-.306-.953,1.2,1.2,0,0,0-.965-.357,1.368,1.368,0,0,0-.909.278.944.944,0,0,0-.33.763h-2.3A2.306,2.306,0,0,1,16-7.395a3.045,3.045,0,0,1,1.3-1,4.747,4.747,0,0,1,1.89-.361,3.751,3.751,0,0,1,2.522.8,2.793,2.793,0,0,1,.933,2.244v3.725a4.109,4.109,0,0,0,.342,1.851V0Zm-1.9-1.6a1.977,1.977,0,0,0,.937-.226,1.487,1.487,0,0,0,.635-.608V-3.908h-.858q-1.724,0-1.835,1.191l-.008.135a.919.919,0,0,0,.3.707A1.172,1.172,0,0,0,18.769-1.6Zm7.752-7,.071.993a3,3,0,0,1,2.47-1.152,2.494,2.494,0,0,1,2.033.8,3.743,3.743,0,0,1,.683,2.4V0h-2.3V-5.509a1.5,1.5,0,0,0-.318-1.063A1.42,1.42,0,0,0,28.11-6.9a1.579,1.579,0,0,0-1.454.828V0h-2.3V-8.594ZM35.942,0h-2.3V-8.594h2.3ZM33.5-10.818a1.13,1.13,0,0,1,.346-.85A1.3,1.3,0,0,1,34.791-12a1.3,1.3,0,0,1,.937.334,1.124,1.124,0,0,1,.349.85,1.127,1.127,0,0,1-.353.858,1.3,1.3,0,0,1-.933.334,1.3,1.3,0,0,1-.933-.334A1.127,1.127,0,0,1,33.5-10.818ZM38.389,0V-6.91H37.11V-8.594h1.279v-.4a3.223,3.223,0,0,1,1-2.5,4.011,4.011,0,0,1,2.768-.878,9.182,9.182,0,0,1,2.605.469L44.425-10a10.165,10.165,0,0,0-1.207-.3,5.932,5.932,0,0,0-.921-.068q-1.6,0-1.6,1.422v.349h1.692V-6.91H40.692V0Zm7.443,0h-2.3V-8.594h2.3ZM51.3-1.692a1.506,1.506,0,0,0,1.033-.349,1.225,1.225,0,0,0,.413-.929H54.9a2.945,2.945,0,0,1-.477,1.6A3.145,3.145,0,0,1,53.143-.242a4.015,4.015,0,0,1-1.8.4,3.731,3.731,0,0,1-2.907-1.172A4.636,4.636,0,0,1,47.372-4.25V-4.4A4.583,4.583,0,0,1,48.429-7.57a3.688,3.688,0,0,1,2.9-1.184,3.615,3.615,0,0,1,2.585.917A3.248,3.248,0,0,1,54.9-5.393H52.75a1.577,1.577,0,0,0-.413-1.09A1.377,1.377,0,0,0,51.288-6.9a1.383,1.383,0,0,0-1.211.585,3.389,3.389,0,0,0-.409,1.9v.239a3.432,3.432,0,0,0,.405,1.909A1.4,1.4,0,0,0,51.3-1.692ZM61.193,0a2.549,2.549,0,0,1-.23-.77,2.778,2.778,0,0,1-2.168.929A3.051,3.051,0,0,1,56.7-.572a2.35,2.35,0,0,1-.83-1.843,2.429,2.429,0,0,1,1.013-2.1,5,5,0,0,1,2.927-.739h1.056v-.492a1.416,1.416,0,0,0-.306-.953,1.2,1.2,0,0,0-.965-.357,1.368,1.368,0,0,0-.909.278.944.944,0,0,0-.33.763h-2.3a2.306,2.306,0,0,1,.461-1.382,3.045,3.045,0,0,1,1.3-1,4.747,4.747,0,0,1,1.89-.361,3.751,3.751,0,0,1,2.522.8,2.793,2.793,0,0,1,.933,2.244v3.725a4.109,4.109,0,0,0,.342,1.851V0Zm-1.9-1.6a1.977,1.977,0,0,0,.937-.226,1.487,1.487,0,0,0,.635-.608V-3.908H60.01q-1.724,0-1.835,1.191l-.008.135a.919.919,0,0,0,.3.707A1.172,1.172,0,0,0,59.295-1.6Zm9.214-.1a1.506,1.506,0,0,0,1.033-.349,1.225,1.225,0,0,0,.413-.929h2.153a2.945,2.945,0,0,1-.477,1.6A3.145,3.145,0,0,1,70.348-.242a4.015,4.015,0,0,1-1.8.4,3.731,3.731,0,0,1-2.907-1.172A4.636,4.636,0,0,1,64.577-4.25V-4.4A4.583,4.583,0,0,1,65.633-7.57a3.688,3.688,0,0,1,2.9-1.184,3.615,3.615,0,0,1,2.585.917,3.248,3.248,0,0,1,.989,2.442H69.954a1.577,1.577,0,0,0-.413-1.09A1.377,1.377,0,0,0,68.493-6.9a1.383,1.383,0,0,0-1.211.585,3.389,3.389,0,0,0-.409,1.9v.239a3.432,3.432,0,0,0,.405,1.909A1.4,1.4,0,0,0,68.509-1.692ZM75.84,0h-2.3V-8.594h2.3ZM73.4-10.818a1.13,1.13,0,0,1,.346-.85A1.3,1.3,0,0,1,74.689-12a1.3,1.3,0,0,1,.937.334,1.124,1.124,0,0,1,.349.85,1.127,1.127,0,0,1-.353.858,1.3,1.3,0,0,1-.933.334,1.3,1.3,0,0,1-.933-.334A1.127,1.127,0,0,1,73.4-10.818Zm3.972,6.442a5.1,5.1,0,0,1,.492-2.28,3.605,3.605,0,0,1,1.418-1.549,4.136,4.136,0,0,1,2.149-.548,3.914,3.914,0,0,1,2.84,1.064A4.272,4.272,0,0,1,85.5-4.8l.016.588a4.492,4.492,0,0,1-1.1,3.173,3.838,3.838,0,0,1-2.963,1.2,3.857,3.857,0,0,1-2.967-1.191,4.571,4.571,0,0,1-1.108-3.241Zm2.3.163A3.213,3.213,0,0,0,80.13-2.34a1.52,1.52,0,0,0,1.319.648,1.523,1.523,0,0,0,1.3-.64,3.515,3.515,0,0,0,.469-2.048,3.18,3.18,0,0,0-.469-1.862,1.523,1.523,0,0,0-1.319-.66,1.5,1.5,0,0,0-1.3.656A3.575,3.575,0,0,0,79.669-4.214ZM81.885-12.2h2.5l-2.2,2.462H80.32Zm7.157,3.606.071.993a3,3,0,0,1,2.47-1.152,2.494,2.494,0,0,1,2.033.8,3.743,3.743,0,0,1,.683,2.4V0H92V-5.509a1.5,1.5,0,0,0-.318-1.063A1.42,1.42,0,0,0,90.63-6.9a1.579,1.579,0,0,0-1.454.828V0h-2.3V-8.594Z" transform="translate(666.366 181.217)" fill="#12263f"/>
          <path id="Trazado_125609" data-name="Trazado 125609" d="M3.416-4.075V0H1.033V-11.565H5.544a5.22,5.22,0,0,1,2.292.477A3.512,3.512,0,0,1,9.357-9.734a3.776,3.776,0,0,1,.532,2A3.321,3.321,0,0,1,8.725-5.056,4.847,4.847,0,0,1,5.5-4.075Zm0-1.93H5.544A2.093,2.093,0,0,0,6.986-6.45a1.618,1.618,0,0,0,.5-1.271,1.908,1.908,0,0,0-.5-1.374A1.869,1.869,0,0,0,5.6-9.635H3.416ZM16.2-6.442a6.236,6.236,0,0,0-.826-.064,1.681,1.681,0,0,0-1.708.882V0h-2.3V-8.594h2.168l.064,1.025a2.127,2.127,0,0,1,1.914-1.184,2.4,2.4,0,0,1,.715.1Zm.461,2.065a5.1,5.1,0,0,1,.492-2.28,3.605,3.605,0,0,1,1.418-1.549,4.137,4.137,0,0,1,2.149-.548,3.914,3.914,0,0,1,2.84,1.064A4.272,4.272,0,0,1,24.79-4.8l.016.588a4.492,4.492,0,0,1-1.1,3.173,3.838,3.838,0,0,1-2.963,1.2,3.857,3.857,0,0,1-2.967-1.191,4.571,4.571,0,0,1-1.108-3.241Zm2.3.163a3.213,3.213,0,0,0,.461,1.873,1.52,1.52,0,0,0,1.319.648,1.523,1.523,0,0,0,1.3-.64,3.515,3.515,0,0,0,.469-2.048,3.18,3.18,0,0,0-.469-1.862,1.523,1.523,0,0,0-1.319-.66,1.5,1.5,0,0,0-1.3.656A3.574,3.574,0,0,0,18.96-4.214Zm6.9-.147a5.179,5.179,0,0,1,.9-3.2A2.925,2.925,0,0,1,29.23-8.753a2.632,2.632,0,0,1,2.073.937V-12.2h2.3V0H31.534l-.111-.913A2.7,2.7,0,0,1,29.215.159a2.917,2.917,0,0,1-2.435-1.2A5.346,5.346,0,0,1,25.863-4.361Zm2.3.163a3.411,3.411,0,0,0,.421,1.859,1.37,1.37,0,0,0,1.223.646,1.535,1.535,0,0,0,1.5-.9V-6a1.514,1.514,0,0,0-1.485-.9Q28.158-6.9,28.158-4.2ZM40.533-.874A2.879,2.879,0,0,1,38.182.159a2.715,2.715,0,0,1-2.109-.794,3.391,3.391,0,0,1-.743-2.327V-8.594h2.3v5.559q0,1.344,1.223,1.344a1.657,1.657,0,0,0,1.6-.811V-8.594h2.3V0H40.6Zm7.53-.818A1.506,1.506,0,0,0,49.1-2.041a1.225,1.225,0,0,0,.413-.929h2.153a2.945,2.945,0,0,1-.477,1.6A3.145,3.145,0,0,1,49.9-.242a4.015,4.015,0,0,1-1.8.4A3.731,3.731,0,0,1,45.2-1.013,4.636,4.636,0,0,1,44.132-4.25V-4.4A4.583,4.583,0,0,1,45.188-7.57a3.688,3.688,0,0,1,2.9-1.184,3.615,3.615,0,0,1,2.585.917,3.248,3.248,0,0,1,.989,2.442H49.509a1.577,1.577,0,0,0-.413-1.09A1.377,1.377,0,0,0,48.048-6.9a1.383,1.383,0,0,0-1.211.585,3.389,3.389,0,0,0-.409,1.9v.239a3.432,3.432,0,0,0,.405,1.909A1.4,1.4,0,0,0,48.063-1.692Zm8.483,0a1.506,1.506,0,0,0,1.033-.349,1.225,1.225,0,0,0,.413-.929h2.153a2.945,2.945,0,0,1-.477,1.6A3.145,3.145,0,0,1,58.385-.242a4.015,4.015,0,0,1-1.8.4,3.731,3.731,0,0,1-2.907-1.172A4.636,4.636,0,0,1,52.615-4.25V-4.4A4.583,4.583,0,0,1,53.671-7.57a3.688,3.688,0,0,1,2.9-1.184,3.615,3.615,0,0,1,2.585.917,3.248,3.248,0,0,1,.989,2.442H57.992a1.577,1.577,0,0,0-.413-1.09A1.377,1.377,0,0,0,56.531-6.9a1.383,1.383,0,0,0-1.211.585,3.389,3.389,0,0,0-.409,1.9v.239a3.432,3.432,0,0,0,.405,1.909A1.4,1.4,0,0,0,56.547-1.692ZM63.878,0h-2.3V-8.594h2.3ZM61.44-10.818a1.13,1.13,0,0,1,.346-.85A1.3,1.3,0,0,1,62.726-12a1.3,1.3,0,0,1,.937.334,1.124,1.124,0,0,1,.349.85,1.127,1.127,0,0,1-.353.858,1.3,1.3,0,0,1-.933.334,1.3,1.3,0,0,1-.933-.334A1.127,1.127,0,0,1,61.44-10.818Zm3.972,6.442a5.1,5.1,0,0,1,.492-2.28,3.605,3.605,0,0,1,1.418-1.549,4.136,4.136,0,0,1,2.149-.548,3.914,3.914,0,0,1,2.84,1.064A4.272,4.272,0,0,1,73.537-4.8l.016.588a4.492,4.492,0,0,1-1.1,3.173,3.838,3.838,0,0,1-2.963,1.2,3.857,3.857,0,0,1-2.967-1.191,4.571,4.571,0,0,1-1.108-3.241Zm2.3.163a3.213,3.213,0,0,0,.461,1.873,1.52,1.52,0,0,0,1.319.648,1.523,1.523,0,0,0,1.3-.64,3.515,3.515,0,0,0,.469-2.048,3.18,3.18,0,0,0-.469-1.862A1.523,1.523,0,0,0,69.47-6.9a1.5,1.5,0,0,0-1.3.656A3.575,3.575,0,0,0,67.707-4.214ZM69.923-12.2h2.5l-2.2,2.462H68.358Zm7.157,3.606.071.993a3,3,0,0,1,2.47-1.152,2.494,2.494,0,0,1,2.033.8,3.743,3.743,0,0,1,.683,2.4V0h-2.3V-5.509a1.5,1.5,0,0,0-.318-1.063,1.42,1.42,0,0,0-1.056-.33,1.579,1.579,0,0,0-1.454.828V0h-2.3V-8.594Z" transform="translate(585.353 315.431)" fill="#12263f"/>
          <path id="Trazado_125608" data-name="Trazado 125608" d="M7.562-2.383H3.384L2.589,0H.056L4.361-11.565H6.569L10.9,0H8.364ZM4.027-4.313H6.918L5.465-8.642Zm7.443-.048a5.179,5.179,0,0,1,.9-3.2,2.925,2.925,0,0,1,2.466-1.191,2.632,2.632,0,0,1,2.073.937V-12.2h2.3V0H17.141L17.03-.913A2.7,2.7,0,0,1,14.822.159a2.917,2.917,0,0,1-2.435-1.2A5.346,5.346,0,0,1,11.47-4.361Zm2.3.163a3.411,3.411,0,0,0,.421,1.859,1.37,1.37,0,0,0,1.223.646,1.535,1.535,0,0,0,1.5-.9V-6a1.514,1.514,0,0,0-1.485-.9Q13.765-6.9,13.765-4.2Zm9.381-4.4.071.961a3.02,3.02,0,0,1,2.47-1.12,2.292,2.292,0,0,1,2.28,1.311,2.951,2.951,0,0,1,2.581-1.311,2.563,2.563,0,0,1,2.081.814,3.742,3.742,0,0,1,.683,2.45V0h-2.3V-5.493a1.643,1.643,0,0,0-.286-1.071A1.265,1.265,0,0,0,29.715-6.9a1.433,1.433,0,0,0-1.43.987L28.293,0H26V-5.485A1.623,1.623,0,0,0,25.7-6.568a1.278,1.278,0,0,0-1-.334,1.487,1.487,0,0,0-1.414.812V0h-2.3V-8.594ZM37.5,0H35.2V-8.594h2.3ZM35.061-10.818a1.13,1.13,0,0,1,.346-.85A1.3,1.3,0,0,1,36.347-12a1.3,1.3,0,0,1,.937.334,1.124,1.124,0,0,1,.349.85,1.127,1.127,0,0,1-.353.858,1.3,1.3,0,0,1-.933.334,1.3,1.3,0,0,1-.933-.334A1.127,1.127,0,0,1,35.061-10.818ZM41.5-8.594l.071.993a3,3,0,0,1,2.47-1.152,2.494,2.494,0,0,1,2.033.8,3.743,3.743,0,0,1,.683,2.4V0h-2.3V-5.509a1.5,1.5,0,0,0-.318-1.063,1.42,1.42,0,0,0-1.056-.33,1.579,1.579,0,0,0-1.454.828V0h-2.3V-8.594ZM50.923,0h-2.3V-8.594h2.3ZM48.484-10.818a1.13,1.13,0,0,1,.346-.85A1.3,1.3,0,0,1,49.771-12a1.3,1.3,0,0,1,.937.334,1.124,1.124,0,0,1,.349.85,1.127,1.127,0,0,1-.353.858,1.3,1.3,0,0,1-.933.334,1.3,1.3,0,0,1-.933-.334A1.127,1.127,0,0,1,48.484-10.818Zm8.984,8.443a.74.74,0,0,0-.417-.663,4.737,4.737,0,0,0-1.338-.433q-3.066-.643-3.066-2.605a2.361,2.361,0,0,1,.949-1.91,3.829,3.829,0,0,1,2.482-.767,4.121,4.121,0,0,1,2.617.77,2.428,2.428,0,0,1,.981,2h-2.3a1.111,1.111,0,0,0-.318-.814,1.345,1.345,0,0,0-.993-.322,1.374,1.374,0,0,0-.9.262.827.827,0,0,0-.318.667.707.707,0,0,0,.361.616,3.718,3.718,0,0,0,1.219.405,9.959,9.959,0,0,1,1.446.385A2.375,2.375,0,0,1,59.7-2.47a2.242,2.242,0,0,1-1.009,1.9,4.352,4.352,0,0,1-2.605.727,4.545,4.545,0,0,1-1.918-.385,3.219,3.219,0,0,1-1.315-1.056,2.455,2.455,0,0,1-.477-1.45h2.176a1.2,1.2,0,0,0,.453.937,1.8,1.8,0,0,0,1.128.326,1.662,1.662,0,0,0,1-.25A.779.779,0,0,0,57.468-2.375Zm6.458-8.332v2.113H65.4V-6.91H63.926v4.289a1.024,1.024,0,0,0,.183.683.918.918,0,0,0,.7.207,3.661,3.661,0,0,0,.675-.056v1.74a4.726,4.726,0,0,1-1.39.207A2.192,2.192,0,0,1,61.63-2.28V-6.91H60.375V-8.594H61.63v-2.113ZM71.5-6.442a6.236,6.236,0,0,0-.826-.064,1.681,1.681,0,0,0-1.708.882V0h-2.3V-8.594h2.168l.064,1.025A2.127,2.127,0,0,1,70.82-8.753a2.4,2.4,0,0,1,.715.1ZM77.349,0a2.549,2.549,0,0,1-.23-.77,2.778,2.778,0,0,1-2.168.929,3.051,3.051,0,0,1-2.093-.731,2.35,2.35,0,0,1-.83-1.843,2.429,2.429,0,0,1,1.013-2.1,5,5,0,0,1,2.927-.739h1.056v-.492a1.416,1.416,0,0,0-.306-.953,1.2,1.2,0,0,0-.965-.357,1.368,1.368,0,0,0-.909.278.944.944,0,0,0-.33.763h-2.3a2.306,2.306,0,0,1,.461-1.382,3.045,3.045,0,0,1,1.3-1,4.747,4.747,0,0,1,1.89-.361,3.751,3.751,0,0,1,2.522.8,2.793,2.793,0,0,1,.933,2.244v3.725a4.109,4.109,0,0,0,.342,1.851V0Zm-1.9-1.6a1.977,1.977,0,0,0,.937-.226,1.487,1.487,0,0,0,.635-.608V-3.908h-.858q-1.724,0-1.835,1.191l-.008.135a.919.919,0,0,0,.3.707A1.172,1.172,0,0,0,75.451-1.6Zm9.214-.1A1.506,1.506,0,0,0,85.7-2.041a1.225,1.225,0,0,0,.413-.929h2.153a2.945,2.945,0,0,1-.477,1.6A3.145,3.145,0,0,1,86.5-.242a4.015,4.015,0,0,1-1.8.4A3.731,3.731,0,0,1,81.8-1.013,4.636,4.636,0,0,1,80.733-4.25V-4.4A4.583,4.583,0,0,1,81.79-7.57a3.688,3.688,0,0,1,2.9-1.184,3.615,3.615,0,0,1,2.585.917,3.248,3.248,0,0,1,.989,2.442H86.111a1.577,1.577,0,0,0-.413-1.09A1.377,1.377,0,0,0,84.649-6.9a1.383,1.383,0,0,0-1.211.585,3.389,3.389,0,0,0-.409,1.9v.239a3.432,3.432,0,0,0,.405,1.909A1.4,1.4,0,0,0,84.665-1.692ZM92,0h-2.3V-8.594H92ZM89.558-10.818a1.13,1.13,0,0,1,.346-.85A1.3,1.3,0,0,1,90.845-12a1.3,1.3,0,0,1,.937.334,1.124,1.124,0,0,1,.349.85,1.127,1.127,0,0,1-.353.858,1.3,1.3,0,0,1-.933.334,1.3,1.3,0,0,1-.933-.334A1.127,1.127,0,0,1,89.558-10.818Zm3.972,6.442a5.1,5.1,0,0,1,.492-2.28A3.605,3.605,0,0,1,95.44-8.205a4.136,4.136,0,0,1,2.149-.548,3.914,3.914,0,0,1,2.84,1.064A4.272,4.272,0,0,1,101.655-4.8l.016.588a4.492,4.492,0,0,1-1.1,3.173A3.838,3.838,0,0,1,97.6.159a3.857,3.857,0,0,1-2.967-1.191,4.571,4.571,0,0,1-1.108-3.241Zm2.3.163a3.213,3.213,0,0,0,.461,1.873,1.52,1.52,0,0,0,1.319.648,1.523,1.523,0,0,0,1.3-.64,3.515,3.515,0,0,0,.469-2.048,3.18,3.18,0,0,0-.469-1.862,1.523,1.523,0,0,0-1.319-.66,1.5,1.5,0,0,0-1.3.656A3.575,3.575,0,0,0,95.825-4.214ZM98.041-12.2h2.5l-2.2,2.462H96.476ZM105.2-8.594l.071.993a3,3,0,0,1,2.47-1.152,2.494,2.494,0,0,1,2.033.8,3.743,3.743,0,0,1,.683,2.4V0h-2.3V-5.509a1.5,1.5,0,0,0-.318-1.063,1.42,1.42,0,0,0-1.056-.33,1.579,1.579,0,0,0-1.454.828V0h-2.3V-8.594Z" transform="translate(313.008 315.431)" fill="#12263f"/>
          <path id="Trazado_125607" data-name="Trazado 125607" d="M4.146-11.565,7.117-3.177l2.955-8.388H13.2V0H10.81V-3.161l.238-5.457L7.927,0H6.291L3.177-8.61l.238,5.449V0H1.033V-11.565ZM19.087.159A4.219,4.219,0,0,1,16.009-1a4.122,4.122,0,0,1-1.187-3.09v-.222a5.192,5.192,0,0,1,.5-2.315A3.672,3.672,0,0,1,16.74-8.2a3.98,3.98,0,0,1,2.093-.552,3.567,3.567,0,0,1,2.776,1.112,4.519,4.519,0,0,1,1.013,3.153v.937H17.149A2.132,2.132,0,0,0,17.82-2.2a2.029,2.029,0,0,0,1.418.508,2.478,2.478,0,0,0,2.073-.961L22.439-1.39a3.446,3.446,0,0,1-1.4,1.14A4.587,4.587,0,0,1,19.087.159ZM18.825-6.9a1.434,1.434,0,0,0-1.108.463,2.4,2.4,0,0,0-.544,1.324h3.193V-5.3a1.709,1.709,0,0,0-.413-1.185A1.48,1.48,0,0,0,18.825-6.9Zm9.929.461a6.236,6.236,0,0,0-.826-.064,1.681,1.681,0,0,0-1.708.882V0h-2.3V-8.594h2.168l.064,1.025a2.127,2.127,0,0,1,1.914-1.184,2.4,2.4,0,0,1,.715.1Zm4.528,4.75a1.506,1.506,0,0,0,1.033-.349,1.225,1.225,0,0,0,.413-.929H36.88a2.945,2.945,0,0,1-.477,1.6A3.145,3.145,0,0,1,35.12-.242a4.015,4.015,0,0,1-1.8.4,3.731,3.731,0,0,1-2.907-1.172A4.636,4.636,0,0,1,29.35-4.25V-4.4A4.583,4.583,0,0,1,30.406-7.57a3.688,3.688,0,0,1,2.9-1.184,3.615,3.615,0,0,1,2.585.917,3.248,3.248,0,0,1,.989,2.442H34.727a1.577,1.577,0,0,0-.413-1.09A1.377,1.377,0,0,0,33.265-6.9a1.383,1.383,0,0,0-1.211.585,3.389,3.389,0,0,0-.409,1.9v.239a3.432,3.432,0,0,0,.405,1.909A1.4,1.4,0,0,0,33.281-1.692ZM43.17,0a2.549,2.549,0,0,1-.23-.77,2.778,2.778,0,0,1-2.168.929,3.051,3.051,0,0,1-2.093-.731,2.35,2.35,0,0,1-.83-1.843,2.429,2.429,0,0,1,1.013-2.1,5,5,0,0,1,2.927-.739h1.056v-.492a1.416,1.416,0,0,0-.306-.953,1.2,1.2,0,0,0-.965-.357,1.368,1.368,0,0,0-.909.278.944.944,0,0,0-.33.763h-2.3A2.306,2.306,0,0,1,38.5-7.395a3.045,3.045,0,0,1,1.3-1,4.747,4.747,0,0,1,1.89-.361,3.751,3.751,0,0,1,2.522.8,2.793,2.793,0,0,1,.933,2.244v3.725A4.109,4.109,0,0,0,45.49-.135V0Zm-1.9-1.6a1.977,1.977,0,0,0,.937-.226,1.487,1.487,0,0,0,.635-.608V-3.908h-.858q-1.724,0-1.835,1.191l-.008.135a.919.919,0,0,0,.3.707A1.172,1.172,0,0,0,41.272-1.6Zm5.282-2.764a5.179,5.179,0,0,1,.9-3.2,2.925,2.925,0,0,1,2.466-1.191A2.632,2.632,0,0,1,52-7.816V-12.2h2.3V0H52.226l-.111-.913A2.7,2.7,0,0,1,49.906.159a2.917,2.917,0,0,1-2.435-1.2A5.346,5.346,0,0,1,46.554-4.361Zm2.3.163a3.411,3.411,0,0,0,.421,1.859,1.37,1.37,0,0,0,1.223.646,1.535,1.535,0,0,0,1.5-.9V-6a1.514,1.514,0,0,0-1.485-.9Q48.85-6.9,48.85-4.2Zm6.871-.179a5.1,5.1,0,0,1,.492-2.28,3.605,3.605,0,0,1,1.418-1.549,4.137,4.137,0,0,1,2.149-.548,3.914,3.914,0,0,1,2.84,1.064A4.272,4.272,0,0,1,63.846-4.8l.016.588a4.492,4.492,0,0,1-1.1,3.173A3.838,3.838,0,0,1,59.8.159a3.857,3.857,0,0,1-2.967-1.191,4.571,4.571,0,0,1-1.108-3.241Zm2.3.163a3.213,3.213,0,0,0,.461,1.873,1.52,1.52,0,0,0,1.319.648,1.523,1.523,0,0,0,1.3-.64,3.515,3.515,0,0,0,.469-2.048A3.18,3.18,0,0,0,61.1-6.242a1.523,1.523,0,0,0-1.319-.66,1.5,1.5,0,0,0-1.3.656A3.574,3.574,0,0,0,58.016-4.214Zm10.008-6.494v2.113h1.469V-6.91H68.024v4.289a1.024,1.024,0,0,0,.183.683.918.918,0,0,0,.7.207,3.661,3.661,0,0,0,.675-.056v1.74a4.726,4.726,0,0,1-1.39.207A2.192,2.192,0,0,1,65.729-2.28V-6.91H64.474V-8.594h1.255v-2.113ZM74.728.159A4.219,4.219,0,0,1,71.65-1a4.122,4.122,0,0,1-1.187-3.09v-.222a5.192,5.192,0,0,1,.5-2.315A3.673,3.673,0,0,1,72.381-8.2a3.979,3.979,0,0,1,2.093-.552A3.567,3.567,0,0,1,77.25-7.641a4.519,4.519,0,0,1,1.013,3.153v.937H72.79a2.132,2.132,0,0,0,.671,1.35,2.029,2.029,0,0,0,1.418.508,2.478,2.478,0,0,0,2.073-.961L78.08-1.39a3.446,3.446,0,0,1-1.4,1.14A4.587,4.587,0,0,1,74.728.159ZM74.466-6.9a1.434,1.434,0,0,0-1.108.463,2.4,2.4,0,0,0-.544,1.324h3.193V-5.3a1.709,1.709,0,0,0-.413-1.185A1.48,1.48,0,0,0,74.466-6.9ZM83.14-1.692a1.506,1.506,0,0,0,1.033-.349,1.225,1.225,0,0,0,.413-.929h2.153a2.945,2.945,0,0,1-.477,1.6A3.145,3.145,0,0,1,84.979-.242a4.015,4.015,0,0,1-1.8.4,3.731,3.731,0,0,1-2.907-1.172A4.636,4.636,0,0,1,79.208-4.25V-4.4A4.583,4.583,0,0,1,80.265-7.57a3.688,3.688,0,0,1,2.9-1.184,3.615,3.615,0,0,1,2.585.917,3.248,3.248,0,0,1,.989,2.442H84.586a1.577,1.577,0,0,0-.413-1.09A1.377,1.377,0,0,0,83.124-6.9a1.383,1.383,0,0,0-1.211.585,3.389,3.389,0,0,0-.409,1.9v.239a3.432,3.432,0,0,0,.405,1.909A1.4,1.4,0,0,0,83.14-1.692Zm7.022-6.9.071.993A3,3,0,0,1,92.7-8.753a2.494,2.494,0,0,1,2.033.8,3.743,3.743,0,0,1,.683,2.4V0h-2.3V-5.509a1.5,1.5,0,0,0-.318-1.063A1.42,1.42,0,0,0,91.75-6.9a1.579,1.579,0,0,0-1.454.828V0H88V-8.594ZM99.582,0h-2.3V-8.594h2.3ZM97.144-10.818a1.13,1.13,0,0,1,.346-.85A1.3,1.3,0,0,1,98.43-12a1.3,1.3,0,0,1,.937.334,1.124,1.124,0,0,1,.349.85,1.127,1.127,0,0,1-.353.858,1.3,1.3,0,0,1-.933.334,1.3,1.3,0,0,1-.933-.334A1.127,1.127,0,0,1,97.144-10.818ZM106.453,0a2.549,2.549,0,0,1-.23-.77,2.778,2.778,0,0,1-2.168.929,3.051,3.051,0,0,1-2.093-.731,2.35,2.35,0,0,1-.83-1.843,2.429,2.429,0,0,1,1.013-2.1,5,5,0,0,1,2.927-.739h1.056v-.492a1.416,1.416,0,0,0-.306-.953,1.2,1.2,0,0,0-.965-.357,1.368,1.368,0,0,0-.909.278.944.944,0,0,0-.33.763h-2.3a2.306,2.306,0,0,1,.461-1.382,3.045,3.045,0,0,1,1.3-1,4.747,4.747,0,0,1,1.89-.361,3.751,3.751,0,0,1,2.522.8,2.793,2.793,0,0,1,.933,2.244v3.725a4.109,4.109,0,0,0,.342,1.851V0Zm-1.9-1.6a1.977,1.977,0,0,0,.937-.226,1.487,1.487,0,0,0,.635-.608V-3.908h-.858q-1.724,0-1.835,1.191l-.008.135a.919.919,0,0,0,.3.707A1.172,1.172,0,0,0,104.554-1.6Z" transform="translate(240.143 181.217)" fill="#12263f"/>
          <path id="Trazado_121520" data-name="Trazado 121520" d="M431.244,308.621H584.466l76.611-132.694L584.466,43.233H431.244L354.633,175.927Z" fill="none" stroke="#f12e34" stroke-miterlimit="10" stroke-width="2"/>
          <path id="Trazado_121521" data-name="Trazado 121521" d="M584.466,43.233,507.854,89.644,431.244,43.233l1.886,89.552-78.5,43.142,78.5,43.141-1.886,89.553,76.609-46.412,76.613,46.412-1.89-89.553,78.5-43.141-78.5-43.142Z" fill="none" stroke="#f12e34" stroke-miterlimit="10" stroke-width="2"/>
          <line id="Línea_235" data-name="Línea 235" y1="264.357" x2="154.993" transform="translate(430.359 43.748)" fill="none" stroke="#f12e34" stroke-miterlimit="10" stroke-width="2"/>
          <line id="Línea_236" data-name="Línea 236" y1="2.756" x2="306.431" transform="translate(354.64 174.549)" fill="none" stroke="#f12e34" stroke-miterlimit="10" stroke-width="2"/>
          <line id="Línea_237" data-name="Línea 237" x2="153.222" y2="265.388" transform="translate(431.244 43.233)" fill="none" stroke="#f12e34" stroke-miterlimit="10" stroke-width="2"/>
          <path id="Trazado_121522" data-name="Trazado 121522" d="M582.576,219.068V132.785L507.854,89.644l-74.723,43.141v86.283l74.723,43.141Z" fill="#463c3c" stroke="#f12e34" stroke-miterlimit="10" stroke-width="2"/>
          <path id="Trazado_125610" data-name="Trazado 125610" d="M-50.482,0V-11.565h4.051a5.319,5.319,0,0,1,3.193.806A2.757,2.757,0,0,1-42.15-8.4a2.613,2.613,0,0,1-.437,1.5,2.523,2.523,0,0,1-1.215.949,2.442,2.442,0,0,1,1.4.9A2.654,2.654,0,0,1-41.888-3.4,3.052,3.052,0,0,1-42.952-.874,4.792,4.792,0,0,1-45.986,0ZM-48.1-5.036v3.122h2.041a1.97,1.97,0,0,0,1.315-.4,1.376,1.376,0,0,0,.473-1.108,1.452,1.452,0,0,0-1.644-1.612Zm0-1.684h1.763q1.8-.032,1.8-1.438a1.329,1.329,0,0,0-.457-1.132,2.4,2.4,0,0,0-1.442-.346H-48.1ZM-35.271,0a2.549,2.549,0,0,1-.23-.77A2.778,2.778,0,0,1-37.67.159a3.051,3.051,0,0,1-2.093-.731,2.35,2.35,0,0,1-.83-1.843,2.429,2.429,0,0,1,1.013-2.1,5,5,0,0,1,2.927-.739H-35.6v-.492A1.416,1.416,0,0,0-35.9-6.7a1.2,1.2,0,0,0-.965-.357,1.368,1.368,0,0,0-.909.278.944.944,0,0,0-.33.763h-2.3a2.306,2.306,0,0,1,.461-1.382,3.045,3.045,0,0,1,1.3-1,4.747,4.747,0,0,1,1.89-.361,3.751,3.751,0,0,1,2.522.8,2.793,2.793,0,0,1,.933,2.244v3.725a4.109,4.109,0,0,0,.342,1.851V0Zm-1.9-1.6a1.977,1.977,0,0,0,.937-.226,1.487,1.487,0,0,0,.635-.608V-3.908h-.858q-1.724,0-1.835,1.191l-.008.135a.919.919,0,0,0,.3.707A1.172,1.172,0,0,0-37.17-1.6Zm10.294-.778a.74.74,0,0,0-.417-.663,4.737,4.737,0,0,0-1.338-.433Q-31.7-4.115-31.7-6.076a2.361,2.361,0,0,1,.949-1.91,3.829,3.829,0,0,1,2.482-.767,4.121,4.121,0,0,1,2.617.77,2.428,2.428,0,0,1,.981,2h-2.3A1.111,1.111,0,0,0-27.28-6.8a1.345,1.345,0,0,0-.993-.322,1.374,1.374,0,0,0-.9.262.827.827,0,0,0-.318.667.707.707,0,0,0,.361.616,3.718,3.718,0,0,0,1.219.405,9.959,9.959,0,0,1,1.446.385A2.375,2.375,0,0,1-24.643-2.47a2.242,2.242,0,0,1-1.009,1.9,4.352,4.352,0,0,1-2.605.727,4.545,4.545,0,0,1-1.918-.385A3.219,3.219,0,0,1-31.49-1.283a2.455,2.455,0,0,1-.477-1.45h2.176a1.2,1.2,0,0,0,.453.937,1.8,1.8,0,0,0,1.128.326,1.662,1.662,0,0,0,1-.25A.779.779,0,0,0-26.875-2.375ZM-19.21.159A4.219,4.219,0,0,1-22.288-1a4.122,4.122,0,0,1-1.187-3.09v-.222a5.192,5.192,0,0,1,.5-2.315A3.673,3.673,0,0,1-21.557-8.2a3.98,3.98,0,0,1,2.093-.552,3.567,3.567,0,0,1,2.776,1.112,4.519,4.519,0,0,1,1.013,3.153v.937h-5.473a2.132,2.132,0,0,0,.671,1.35,2.029,2.029,0,0,0,1.418.508,2.478,2.478,0,0,0,2.073-.961l1.128,1.263a3.446,3.446,0,0,1-1.4,1.14A4.587,4.587,0,0,1-19.21.159ZM-19.472-6.9a1.434,1.434,0,0,0-1.108.463,2.4,2.4,0,0,0-.544,1.324h3.193V-5.3a1.709,1.709,0,0,0-.413-1.185A1.48,1.48,0,0,0-19.472-6.9Zm8.793,2.542a5.179,5.179,0,0,1,.9-3.2A2.925,2.925,0,0,1-7.312-8.753a2.632,2.632,0,0,1,2.073.937V-12.2h2.3V0H-5.008l-.111-.913A2.7,2.7,0,0,1-7.327.159a2.917,2.917,0,0,1-2.435-1.2A5.346,5.346,0,0,1-10.679-4.361Zm2.3.163a3.411,3.411,0,0,0,.421,1.859,1.37,1.37,0,0,0,1.223.646,1.535,1.535,0,0,0,1.5-.9V-6a1.514,1.514,0,0,0-1.485-.9Q-8.384-6.9-8.384-4.2ZM2.8.159A4.219,4.219,0,0,1-.278-1a4.122,4.122,0,0,1-1.187-3.09v-.222a5.192,5.192,0,0,1,.5-2.315A3.673,3.673,0,0,1,.453-8.2a3.98,3.98,0,0,1,2.093-.552A3.567,3.567,0,0,1,5.322-7.641,4.519,4.519,0,0,1,6.335-4.488v.937H.862A2.132,2.132,0,0,0,1.533-2.2a2.029,2.029,0,0,0,1.418.508,2.478,2.478,0,0,0,2.073-.961L6.152-1.39a3.446,3.446,0,0,1-1.4,1.14A4.587,4.587,0,0,1,2.8.159ZM2.538-6.9A1.434,1.434,0,0,0,1.43-6.44,2.4,2.4,0,0,0,.886-5.115H4.079V-5.3a1.709,1.709,0,0,0-.413-1.185A1.48,1.48,0,0,0,2.538-6.9Zm8.793,2.542a5.179,5.179,0,0,1,.9-3.2A2.925,2.925,0,0,1,14.7-8.753a2.632,2.632,0,0,1,2.073.937V-12.2h2.3V0H17l-.111-.913A2.7,2.7,0,0,1,14.683.159a2.917,2.917,0,0,1-2.435-1.2A5.346,5.346,0,0,1,11.331-4.361Zm2.3.163a3.411,3.411,0,0,0,.421,1.859,1.37,1.37,0,0,0,1.223.646,1.535,1.535,0,0,0,1.5-.9V-6a1.514,1.514,0,0,0-1.485-.9Q13.626-6.9,13.626-4.2ZM25.835,0a2.549,2.549,0,0,1-.23-.77,2.778,2.778,0,0,1-2.168.929,3.051,3.051,0,0,1-2.093-.731,2.35,2.35,0,0,1-.83-1.843,2.429,2.429,0,0,1,1.013-2.1,5,5,0,0,1,2.927-.739h1.056v-.492A1.416,1.416,0,0,0,25.2-6.7a1.2,1.2,0,0,0-.965-.357,1.368,1.368,0,0,0-.909.278.944.944,0,0,0-.33.763H20.7a2.306,2.306,0,0,1,.461-1.382,3.045,3.045,0,0,1,1.3-1,4.747,4.747,0,0,1,1.89-.361,3.751,3.751,0,0,1,2.522.8,2.793,2.793,0,0,1,.933,2.244v3.725a4.109,4.109,0,0,0,.342,1.851V0Zm-1.9-1.6a1.977,1.977,0,0,0,.937-.226,1.487,1.487,0,0,0,.635-.608V-3.908h-.858q-1.724,0-1.835,1.191l-.008.135a.919.919,0,0,0,.3.707A1.172,1.172,0,0,0,23.936-1.6Zm8.388-9.111v2.113h1.469V-6.91H32.324v4.289a1.024,1.024,0,0,0,.183.683.918.918,0,0,0,.7.207,3.661,3.661,0,0,0,.675-.056v1.74a4.726,4.726,0,0,1-1.39.207A2.192,2.192,0,0,1,30.029-2.28V-6.91H28.774V-8.594h1.255v-2.113Zm2.153,6.331a5.1,5.1,0,0,1,.492-2.28,3.605,3.605,0,0,1,1.418-1.549,4.137,4.137,0,0,1,2.149-.548,3.914,3.914,0,0,1,2.84,1.064A4.272,4.272,0,0,1,42.6-4.8l.016.588a4.492,4.492,0,0,1-1.1,3.173,3.838,3.838,0,0,1-2.963,1.2,3.857,3.857,0,0,1-2.967-1.191,4.571,4.571,0,0,1-1.108-3.241Zm2.3.163a3.213,3.213,0,0,0,.461,1.873,1.52,1.52,0,0,0,1.319.648,1.523,1.523,0,0,0,1.3-.64,3.515,3.515,0,0,0,.469-2.048,3.18,3.18,0,0,0-.469-1.862,1.523,1.523,0,0,0-1.319-.66,1.5,1.5,0,0,0-1.3.656A3.574,3.574,0,0,0,36.772-4.214ZM48.687-2.375a.74.74,0,0,0-.417-.663,4.737,4.737,0,0,0-1.338-.433q-3.066-.643-3.066-2.605a2.361,2.361,0,0,1,.949-1.91A3.829,3.829,0,0,1,47.3-8.753a4.121,4.121,0,0,1,2.617.77,2.428,2.428,0,0,1,.981,2H48.6a1.111,1.111,0,0,0-.318-.814,1.345,1.345,0,0,0-.993-.322,1.374,1.374,0,0,0-.9.262.827.827,0,0,0-.318.667.707.707,0,0,0,.361.616,3.718,3.718,0,0,0,1.219.405,9.959,9.959,0,0,1,1.446.385A2.375,2.375,0,0,1,50.919-2.47a2.242,2.242,0,0,1-1.009,1.9A4.352,4.352,0,0,1,47.3.159a4.545,4.545,0,0,1-1.918-.385,3.219,3.219,0,0,1-1.315-1.056,2.455,2.455,0,0,1-.477-1.45h2.176a1.2,1.2,0,0,0,.453.937,1.8,1.8,0,0,0,1.128.326,1.662,1.662,0,0,0,1-.25A.779.779,0,0,0,48.687-2.375ZM-26.562,15.16a5.179,5.179,0,0,1,.9-3.2,2.925,2.925,0,0,1,2.466-1.191,2.632,2.632,0,0,1,2.073.937V7.32h2.3v12.2H-20.89L-21,18.607A2.7,2.7,0,0,1-23.21,19.68a2.917,2.917,0,0,1-2.435-1.2A5.346,5.346,0,0,1-26.562,15.16Zm2.3.163a3.411,3.411,0,0,0,.421,1.859,1.37,1.37,0,0,0,1.223.646,1.535,1.535,0,0,0,1.5-.9V13.52a1.514,1.514,0,0,0-1.485-.9Q-24.266,12.618-24.266,15.323Zm11.184,4.356a4.219,4.219,0,0,1-3.078-1.16,4.122,4.122,0,0,1-1.187-3.09v-.222a5.192,5.192,0,0,1,.5-2.315,3.673,3.673,0,0,1,1.418-1.573,3.98,3.98,0,0,1,2.093-.552A3.567,3.567,0,0,1-10.56,11.88a4.519,4.519,0,0,1,1.013,3.153v.937H-15.02a2.132,2.132,0,0,0,.671,1.35,2.029,2.029,0,0,0,1.418.508,2.478,2.478,0,0,0,2.073-.961l1.128,1.263a3.446,3.446,0,0,1-1.4,1.14A4.587,4.587,0,0,1-13.082,19.68Zm-.262-7.061a1.434,1.434,0,0,0-1.108.463A2.4,2.4,0,0,0-15,14.406H-11.8v-.184a1.709,1.709,0,0,0-.413-1.185A1.48,1.48,0,0,0-13.344,12.618Zm18.38,3.05a4.092,4.092,0,0,1-1.378,2.939A4.84,4.84,0,0,1,.381,19.68a4.352,4.352,0,0,1-3.5-1.5,6.139,6.139,0,0,1-1.275-4.111v-.707A6.933,6.933,0,0,1-3.8,10.426a4.4,4.4,0,0,1,1.68-1.95A4.706,4.706,0,0,1,.413,7.8,4.715,4.715,0,0,1,3.638,8.869a4.4,4.4,0,0,1,1.414,3.01H2.669a2.415,2.415,0,0,0-.624-1.624,2.309,2.309,0,0,0-1.632-.5A2.025,2.025,0,0,0-1.37,10.6a4.785,4.785,0,0,0-.608,2.649v.874a5.122,5.122,0,0,0,.568,2.74,1.987,1.987,0,0,0,1.791.866,2.353,2.353,0,0,0,1.648-.5,2.278,2.278,0,0,0,.624-1.561Zm8.094,1.469H8.952l-.794,2.383H5.624L9.929,7.956h2.208l4.329,11.565H13.932ZM9.6,15.208h2.891l-1.454-4.329Zm7.951,4.313V7.956H21.1a5.4,5.4,0,0,1,2.728.687A4.791,4.791,0,0,1,25.712,10.6a6.027,6.027,0,0,1,.675,2.879v.532a6.044,6.044,0,0,1-.663,2.867,4.75,4.75,0,0,1-1.871,1.946,5.445,5.445,0,0,1-2.724.7Zm2.383-9.635v7.721h1.152a2.588,2.588,0,0,0,2.137-.913,4.128,4.128,0,0,0,.755-2.613v-.612a4.193,4.193,0,0,0-.731-2.673A2.579,2.579,0,0,0,21.1,9.886Z" transform="translate(507.853 170.92)" fill="#fff"/>
        </g>
      </g>
    </g>
    <rect id="Rectángulo_30672" data-name="Rectángulo 30672" width="4" height="21" transform="translate(495 3603)" fill="#fba321"/>
    <path id="Trazado_125605" data-name="Trazado 125605" d="M1.073,0V-9.242H4.094a3.507,3.507,0,0,1,2.263.622,2.242,2.242,0,0,1,.759,1.841,1.877,1.877,0,0,1-.368,1.146,2.387,2.387,0,0,1-1,.771,2.143,2.143,0,0,1,1.184.8,2.286,2.286,0,0,1,.435,1.4A2.472,2.472,0,0,1,6.557-.711,3.334,3.334,0,0,1,4.278,0ZM2.292-4.323V-1H4.3a1.938,1.938,0,0,0,1.343-.441,1.549,1.549,0,0,0,.492-1.216q0-1.669-1.815-1.669Zm0-.978H4.132a1.93,1.93,0,0,0,1.279-.4,1.344,1.344,0,0,0,.479-1.088A1.321,1.321,0,0,0,5.446-7.9a2.182,2.182,0,0,0-1.352-.347h-1.8ZM13.222,0a2.467,2.467,0,0,1-.165-.724A2.62,2.62,0,0,1,11.1.127,2.424,2.424,0,0,1,9.436-.448,1.859,1.859,0,0,1,8.785-1.9,1.942,1.942,0,0,1,9.6-3.571,3.846,3.846,0,0,1,11.9-4.164h1.143V-4.7a1.319,1.319,0,0,0-.368-.981,1.48,1.48,0,0,0-1.085-.365,1.712,1.712,0,0,0-1.054.317.935.935,0,0,0-.425.768H8.925a1.621,1.621,0,0,1,.365-.993,2.491,2.491,0,0,1,.99-.759A3.331,3.331,0,0,1,11.654-7a2.715,2.715,0,0,1,1.86.594,2.141,2.141,0,0,1,.7,1.635v3.161a3.865,3.865,0,0,0,.241,1.5V0ZM11.273-.9a2.064,2.064,0,0,0,1.047-.286,1.728,1.728,0,0,0,.717-.743V-3.333h-.92q-2.158,0-2.158,1.263a1.069,1.069,0,0,0,.368.863A1.415,1.415,0,0,0,11.273-.9Zm8.779-.927a.864.864,0,0,0-.359-.74,3.452,3.452,0,0,0-1.25-.454,5.912,5.912,0,0,1-1.416-.457,2.014,2.014,0,0,1-.774-.635A1.518,1.518,0,0,1,16-4.983a1.782,1.782,0,0,1,.714-1.428A2.789,2.789,0,0,1,18.542-7a2.87,2.87,0,0,1,1.895.6,1.915,1.915,0,0,1,.727,1.542H19.982a1.06,1.06,0,0,0-.409-.832,1.534,1.534,0,0,0-1.031-.349,1.606,1.606,0,0,0-1,.279.879.879,0,0,0-.362.73.712.712,0,0,0,.336.641,4.139,4.139,0,0,0,1.216.413,6.334,6.334,0,0,1,1.425.47,2.079,2.079,0,0,1,.809.657,1.615,1.615,0,0,1,.263.936A1.758,1.758,0,0,1,20.49-.428,3.089,3.089,0,0,1,18.58.127a3.459,3.459,0,0,1-1.46-.292,2.375,2.375,0,0,1-.993-.816,1.966,1.966,0,0,1-.359-1.133h1.174a1.216,1.216,0,0,0,.473.936,1.835,1.835,0,0,0,1.165.346,1.894,1.894,0,0,0,1.07-.27A.829.829,0,0,0,20.052-1.822ZM25.606.127A3,3,0,0,1,23.334-.79a3.4,3.4,0,0,1-.876-2.453v-.216a4.121,4.121,0,0,1,.39-1.825A3.045,3.045,0,0,1,23.94-6.541,2.745,2.745,0,0,1,25.46-7a2.572,2.572,0,0,1,2.082.882,3.82,3.82,0,0,1,.743,2.526V-3.1H23.632a2.441,2.441,0,0,0,.594,1.641,1.866,1.866,0,0,0,1.444.625,2.045,2.045,0,0,0,1.054-.254,2.648,2.648,0,0,0,.755-.673L28.2-1.2A2.884,2.884,0,0,1,25.606.127ZM25.46-6.03a1.566,1.566,0,0,0-1.193.517,2.515,2.515,0,0,0-.6,1.45h3.44v-.089a2.237,2.237,0,0,0-.482-1.387A1.475,1.475,0,0,0,25.46-6.03Zm7.116,2.539a4.023,4.023,0,0,1,.749-2.542A2.369,2.369,0,0,1,35.287-7,2.382,2.382,0,0,1,37.2-6.17V-9.75h1.174V0H37.292l-.057-.736a2.391,2.391,0,0,1-1.961.863,2.346,2.346,0,0,1-1.946-.978A4.069,4.069,0,0,1,32.576-3.4Zm1.174.133a3.046,3.046,0,0,0,.482,1.828,1.56,1.56,0,0,0,1.333.66,1.713,1.713,0,0,0,1.631-1V-5.027A1.726,1.726,0,0,0,35.579-6a1.567,1.567,0,0,0-1.346.667A3.354,3.354,0,0,0,33.75-3.358ZM43.043.127A3,3,0,0,1,40.771-.79,3.4,3.4,0,0,1,39.9-3.244v-.216a4.121,4.121,0,0,1,.39-1.825,3.045,3.045,0,0,1,1.092-1.257A2.745,2.745,0,0,1,42.9-7a2.572,2.572,0,0,1,2.082.882,3.82,3.82,0,0,1,.743,2.526V-3.1H41.069a2.441,2.441,0,0,0,.594,1.641,1.866,1.866,0,0,0,1.444.625,2.045,2.045,0,0,0,1.054-.254,2.648,2.648,0,0,0,.755-.673l.717.559A2.884,2.884,0,0,1,43.043.127ZM42.9-6.03a1.566,1.566,0,0,0-1.193.517,2.515,2.515,0,0,0-.6,1.45h3.44v-.089a2.237,2.237,0,0,0-.482-1.387A1.475,1.475,0,0,0,42.9-6.03Zm7.116,2.539a4.023,4.023,0,0,1,.749-2.542A2.369,2.369,0,0,1,52.724-7a2.382,2.382,0,0,1,1.911.825V-9.75h1.174V0H54.729l-.057-.736a2.391,2.391,0,0,1-1.961.863,2.346,2.346,0,0,1-1.946-.978A4.069,4.069,0,0,1,50.013-3.4Zm1.174.133A3.046,3.046,0,0,0,51.67-1.53,1.56,1.56,0,0,0,53-.87a1.713,1.713,0,0,0,1.631-1V-5.027A1.726,1.726,0,0,0,53.016-6a1.567,1.567,0,0,0-1.346.667A3.354,3.354,0,0,0,51.188-3.358ZM61.871,0a2.467,2.467,0,0,1-.165-.724A2.62,2.62,0,0,1,59.75.127a2.424,2.424,0,0,1-1.666-.574A1.859,1.859,0,0,1,57.434-1.9a1.942,1.942,0,0,1,.816-1.666,3.846,3.846,0,0,1,2.295-.594h1.143V-4.7a1.319,1.319,0,0,0-.368-.981,1.48,1.48,0,0,0-1.085-.365,1.712,1.712,0,0,0-1.054.317.935.935,0,0,0-.425.768H57.573a1.621,1.621,0,0,1,.365-.993,2.491,2.491,0,0,1,.99-.759A3.331,3.331,0,0,1,60.3-7a2.715,2.715,0,0,1,1.86.594,2.141,2.141,0,0,1,.7,1.635v3.161A3.865,3.865,0,0,0,63.1-.1V0ZM59.922-.9a2.064,2.064,0,0,0,1.047-.286,1.728,1.728,0,0,0,.717-.743V-3.333h-.92q-2.158,0-2.158,1.263a1.069,1.069,0,0,0,.368.863A1.415,1.415,0,0,0,59.922-.9Zm6.373-7.636v1.663h1.282v.908H66.295V-1.7a.953.953,0,0,0,.171.62.721.721,0,0,0,.584.207,2.843,2.843,0,0,0,.559-.076V0a3.424,3.424,0,0,1-.9.126,1.462,1.462,0,0,1-1.187-.476,2.045,2.045,0,0,1-.4-1.352V-5.96H63.87v-.908h1.25V-8.531ZM68.51-3.5a4.057,4.057,0,0,1,.4-1.815,2.96,2.96,0,0,1,1.1-1.244A3.007,3.007,0,0,1,71.627-7a2.9,2.9,0,0,1,2.269.971,3.736,3.736,0,0,1,.866,2.583v.083a4.092,4.092,0,0,1-.384,1.8,2.916,2.916,0,0,1-1.1,1.241A3.041,3.041,0,0,1,71.64.127a2.889,2.889,0,0,1-2.263-.971,3.718,3.718,0,0,1-.866-2.571Zm1.181.14a2.938,2.938,0,0,0,.53,1.834,1.7,1.7,0,0,0,1.419.692,1.686,1.686,0,0,0,1.422-.7A3.213,3.213,0,0,0,73.588-3.5a2.933,2.933,0,0,0-.536-1.831,1.705,1.705,0,0,0-1.425-.7,1.686,1.686,0,0,0-1.4.692A3.189,3.189,0,0,0,69.691-3.358ZM80.234-1.822a.864.864,0,0,0-.359-.74,3.452,3.452,0,0,0-1.25-.454,5.912,5.912,0,0,1-1.416-.457,2.014,2.014,0,0,1-.774-.635,1.518,1.518,0,0,1-.251-.876A1.782,1.782,0,0,1,76.9-6.411,2.789,2.789,0,0,1,78.724-7a2.87,2.87,0,0,1,1.895.6,1.915,1.915,0,0,1,.727,1.542H80.165a1.06,1.06,0,0,0-.409-.832,1.534,1.534,0,0,0-1.031-.349,1.606,1.606,0,0,0-1,.279.879.879,0,0,0-.362.73.712.712,0,0,0,.336.641,4.139,4.139,0,0,0,1.216.413,6.334,6.334,0,0,1,1.425.47,2.079,2.079,0,0,1,.809.657,1.615,1.615,0,0,1,.263.936,1.758,1.758,0,0,1-.736,1.476,3.089,3.089,0,0,1-1.911.555A3.459,3.459,0,0,1,77.3-.165a2.375,2.375,0,0,1-.993-.816,1.966,1.966,0,0,1-.359-1.133h1.174a1.216,1.216,0,0,0,.473.936,1.835,1.835,0,0,0,1.165.346,1.894,1.894,0,0,0,1.07-.27A.829.829,0,0,0,80.234-1.822Zm5.637-1.669a4.023,4.023,0,0,1,.749-2.542A2.369,2.369,0,0,1,88.582-7a2.382,2.382,0,0,1,1.911.825V-9.75h1.174V0H90.587L90.53-.736a2.391,2.391,0,0,1-1.961.863,2.346,2.346,0,0,1-1.946-.978A4.069,4.069,0,0,1,85.871-3.4Zm1.174.133a3.046,3.046,0,0,0,.482,1.828,1.56,1.56,0,0,0,1.333.66,1.713,1.713,0,0,0,1.631-1V-5.027A1.726,1.726,0,0,0,88.874-6a1.567,1.567,0,0,0-1.346.667A3.354,3.354,0,0,0,87.045-3.358ZM96.338.127A3,3,0,0,1,94.066-.79a3.4,3.4,0,0,1-.876-2.453v-.216a4.121,4.121,0,0,1,.39-1.825,3.045,3.045,0,0,1,1.092-1.257A2.745,2.745,0,0,1,96.192-7a2.572,2.572,0,0,1,2.082.882,3.82,3.82,0,0,1,.743,2.526V-3.1H94.364a2.441,2.441,0,0,0,.594,1.641A1.866,1.866,0,0,0,96.4-.832a2.045,2.045,0,0,0,1.054-.254,2.648,2.648,0,0,0,.755-.673l.717.559A2.884,2.884,0,0,1,96.338.127ZM96.192-6.03A1.566,1.566,0,0,0,95-5.513a2.515,2.515,0,0,0-.6,1.45h3.44v-.089a2.237,2.237,0,0,0-.482-1.387A1.475,1.475,0,0,0,96.192-6.03Zm14.384,3.1A3.4,3.4,0,0,1,109.494-.67a3.547,3.547,0,0,1-2.422.8,3.257,3.257,0,0,1-2.625-1.174,4.724,4.724,0,0,1-.987-3.142v-.889a5.266,5.266,0,0,1,.46-2.266,3.437,3.437,0,0,1,1.3-1.5,3.632,3.632,0,0,1,1.955-.524,3.34,3.34,0,0,1,2.361.822,3.441,3.441,0,0,1,1.035,2.276h-1.225a2.655,2.655,0,0,0-.689-1.6,2.084,2.084,0,0,0-1.482-.5,2.181,2.181,0,0,0-1.831.864,3.966,3.966,0,0,0-.663,2.459v.9a4.077,4.077,0,0,0,.628,2.4,2.031,2.031,0,0,0,1.758.889,2.345,2.345,0,0,0,1.558-.46,2.554,2.554,0,0,0,.72-1.6Zm6.767.514h-3.872L112.6,0h-1.257l3.529-9.242h1.066L119.476,0h-1.25Zm-3.5-1h3.142l-1.574-4.323ZM120.72,0V-9.242h2.609a4.2,4.2,0,0,1,2.133.533,3.606,3.606,0,0,1,1.431,1.517,4.938,4.938,0,0,1,.511,2.26v.59a4.955,4.955,0,0,1-.5,2.292A3.55,3.55,0,0,1,125.458-.54a4.467,4.467,0,0,1-2.18.54Zm1.219-8.246V-1h1.282a2.79,2.79,0,0,0,2.193-.877,3.622,3.622,0,0,0,.784-2.5v-.54a3.68,3.68,0,0,0-.74-2.449,2.632,2.632,0,0,0-2.1-.886Z" transform="translate(510 3618)" fill="#12263f"/>
  </g>
</svg>
