<svg xmlns="http://www.w3.org/2000/svg" width="34.273" height="38.156" viewBox="0 0 34.273 38.156">
  <g id="Grupo_60100" data-name="Grupo 60100" transform="translate(-347.864 -472.677)">
    <path id="Trazado_125553" data-name="Trazado 125553" d="M382.124,509.882c-.579-2.87-1.27-5.715-2.015-8.546-.387-1.47-.769-2.942-1.228-4.391h0a4.3,4.3,0,0,1-.447-1.068c-.792-2.116-1.659-4.2-2.572-6.267q-1.551-3.512-3.312-6.923c-1.1-2.119-2.239-4.216-3.469-6.263-.707-1.176-1.407-2.355-2.17-3.5h-3.88a7.612,7.612,0,0,1-.738,1.25c-.861,1.355-1.673,2.739-2.466,4.134-.768,1.35-1.493,2.722-2.216,4.1q-.761,1.448-1.478,2.918c-.983,2.025-1.923,4.07-2.8,6.145-.68,1.616-1.34,3.239-1.943,4.885a1.019,1.019,0,0,1-.088.159s-.02,0-.028-.008a.113.113,0,0,1-.021-.023h0a12.751,12.751,0,0,0-.4,1.332c-1.128,3.987-2.149,8-2.978,12.061-.037.183-.007.262.157.34.572.272,1.136.558,1.7.838q1.338-3.288,2.676-6.575c.12-.294.258-.58.368-.877a.5.5,0,0,1,.209-.223c-.115-.013-.1-.074-.064-.155q.664-1.576,1.324-3.154a.628.628,0,0,1,.369-.358c1.967-.827,3.969-1.56,5.983-2.267,2.86-1,5.766-1.857,8.678-2.692,1.145-.328,2.306-.6,3.455-.91.263-.071.35.045.438.252q1.15,2.7,2.311,5.386c.021.048.045.1.068.143h0q2.325,5.52,4.562,11.075c.046.116.042.287.222.316h0c.54-.266,1.078-.538,1.622-.8C382.123,510.144,382.161,510.067,382.124,509.882ZM370.35,488.4c-.849.491-1.694.989-2.54,1.484h0l-7.376,4.325-4.791,2.8-.05-.045c.26-.606.515-1.215.78-1.819q.629-1.435,1.268-2.866a1.339,1.339,0,0,1,.1-.16c.275-.755.638-1.471.971-2.2.5-1.094,1.022-2.179,1.534-3.268a60.474,60.474,0,0,1,3.791-7.036c.175-.264.372-.513.568-.762a.464.464,0,0,1,.8,0,16.873,16.873,0,0,1,1.682,2.573c.969,1.7,1.826,3.463,2.677,5.227h0c.234.485.462.972.706,1.452C370.548,488.268,370.476,488.324,370.35,488.4Z" transform="translate(0 -0.234)" fill="#cf3135"/>
    <path id="Trazado_125554" data-name="Trazado 125554" d="M617.151,638.839a.107.107,0,0,1,.035,0l-.017-.035Z" transform="translate(-252.166 -155.566)" fill="#cf3135"/>
    <path id="Trazado_125555" data-name="Trazado 125555" d="M446.1,807.886c.747-.107,1.495-.216,2.243-.32.478-.067.957-.126,1.436-.188-.023-.048-.047-.095-.068-.144q-1.157-2.692-2.311-5.385c-.089-.207-.175-.324-.438-.252-1.149.312-2.311.582-3.455.91-2.912.835-5.818,1.688-8.678,2.692-2.013.707-4.015,1.44-5.983,2.267a.628.628,0,0,0-.369.358q-.66,1.578-1.324,3.154c-.034.081-.051.142.064.155l3.666-.8.524-.112h0l.949-.179h0l1.029-.19c3.091-.562,6.194-1.054,9.3-1.508.983-.144,1.97-.265,2.955-.4A1.112,1.112,0,0,1,446.1,807.886Z" transform="translate(-74.222 -307.988)" fill="#b41f23"/>
    <path id="Trazado_125556" data-name="Trazado 125556" d="M733.775,903.913q-2.226-5.561-4.563-11.076h0c-.479.062-.957.122-1.435.188-.748.1-1.5.213-2.243.32.695,1.861,1.34,3.74,1.962,5.627.572,1.735,1.112,3.481,1.634,5.232a.348.348,0,0,0,.112.04c1.126,0,2.253,0,3.379,0a9.747,9.747,0,0,1,1.166.02c.074.009.152.038.21-.038h0C733.817,904.2,733.821,904.029,733.775,903.913Z" transform="translate(-353.658 -393.446)" fill="#e17374"/>
    <path id="Trazado_125557" data-name="Trazado 125557" d="M384.793,937.855c.03-.09.126-.189,0-.285h0l-.524.112-3.666.8a.5.5,0,0,0-.209.223c-.11.3-.249.583-.368.877q-1.34,3.287-2.676,6.575l.134,0a.841.841,0,0,1,.313-.021q2.12,0,4.241,0a.372.372,0,0,0,.1-.038c.721-2.39,1.471-4.77,2.272-7.134C384.538,938.592,384.671,938.226,384.793,937.855Z" transform="translate(-27.613 -435.335)" fill="#e17374"/>
    <path id="Trazado_125558" data-name="Trazado 125558" d="M649.593,476.19c1.23,2.047,2.371,4.144,3.469,6.262q1.767,3.407,3.312,6.924c.913,2.067,1.78,4.151,2.572,6.267a4.3,4.3,0,0,0,.447,1.068h0c-.021-.093-.036-.187-.063-.278a156.572,156.572,0,0,0-6.4-18.042q-1.189-2.768-2.529-5.468c-.066-.133-.115-.25-.314-.247-.89.016-1.779.013-2.669.017h0C648.187,473.834,648.886,475.014,649.593,476.19Z" transform="translate(-280.513 0)" fill="#e13a3a"/>
    <path id="Trazado_125559" data-name="Trazado 125559" d="M401.207,496.283c.008.005.027.01.028.008a1.015,1.015,0,0,0,.088-.159c.6-1.646,1.263-3.269,1.943-4.885.874-2.076,1.814-4.12,2.8-6.145q.714-1.471,1.478-2.918c.723-1.375,1.449-2.747,2.216-4.1.793-1.4,1.605-2.779,2.466-4.134a7.613,7.613,0,0,0,.738-1.25c-.847,0-1.693,0-2.54-.015a.358.358,0,0,0-.384.239c-.46.985-.944,1.959-1.4,2.947a142.418,142.418,0,0,0-6.3,16.534c-.4,1.278-.82,2.553-1.157,3.852h0A.113.113,0,0,0,401.207,496.283Z" transform="translate(-49.932 -0.01)" fill="#c32a2e"/>
    <path id="Trazado_125560" data-name="Trazado 125560" d="M718.779,900.716a1.111,1.111,0,0,0-.459.062c.194.747.373,1.5.512,2.256a46.529,46.529,0,0,1,.695,6.46.363.363,0,0,0,.153.35c.886.576,1.765,1.163,2.646,1.746.024.024.04.018.05-.013h0c-.522-1.751-1.062-3.5-1.634-5.232C720.119,904.457,719.473,902.578,718.779,900.716Z" transform="translate(-346.902 -400.818)" fill="#c32a2e"/>
    <path id="Trazado_125561" data-name="Trazado 125561" d="M455.211,934.932c.124.1.027.195,0,.285-.122.37-.256.737-.381,1.107-.8,2.364-1.552,4.744-2.272,7.134l0,.01,0,.035q1.36-.9,2.722-1.8a.284.284,0,0,0,.136-.26c.047-1.331.147-2.657.314-3.979a22.685,22.685,0,0,1,.44-2.715h0l-.949.179Z" transform="translate(-98.028 -432.697)" fill="#c32a2e"/>
    <path id="Trazado_125562" data-name="Trazado 125562" d="M547.041,568.077l.3-.6.017-.035.017.035.3.6c.776.447,1.548.9,2.328,1.338.708.4,1.374.867,2.113,1.209-.85-1.764-1.708-3.524-2.677-5.227a16.883,16.883,0,0,0-1.682-2.573.464.464,0,0,0-.8,0c-.2.249-.393.5-.568.762a60.487,60.487,0,0,0-3.791,7.036c.725-.365,1.409-.8,2.112-1.205C545.493,568.973,546.242,568.483,547.041,568.077Z" transform="translate(-182.358 -84.205)" fill="#6c4c42"/>
    <path id="Trazado_125563" data-name="Trazado 125563" d="M507.791,654.109h0l1.016-2.312,1.333-3.034c-.8.405-1.549.9-2.325,1.341-.7.4-1.387.84-2.112,1.205-.513,1.089-1.034,2.173-1.534,3.268-.333.729-.7,1.445-.971,2.2q1.966-1.148,3.933-2.3C507.348,654.353,507.57,654.233,507.791,654.109Z" transform="translate(-145.457 -164.891)" fill="#8a6d63"/>
    <path id="Trazado_125564" data-name="Trazado 125564" d="M476.173,732.848h0c-.22.124-.443.244-.661.371q-1.967,1.147-3.933,2.3a1.336,1.336,0,0,0-.1.16q-.636,1.432-1.268,2.866c-.265.6-.52,1.212-.78,1.819l.05.046,4.791-2.805a15.88,15.88,0,0,1,.635-1.648C475.323,734.916,475.75,733.883,476.173,732.848Z" transform="translate(-113.839 -243.629)" fill="#e17374"/>
    <path id="Trazado_125565" data-name="Trazado 125565" d="M626.829,651.315h0c-.739-.342-1.4-.812-2.112-1.209-.781-.438-1.553-.891-2.328-1.338.121.28.239.56.362.839.721,1.64,1.477,3.265,2.13,4.935h0c.846-.5,1.691-.993,2.54-1.484.126-.073.2-.129.116-.291C627.292,652.287,627.063,651.8,626.829,651.315Z" transform="translate(-257.07 -164.895)" fill="#8a6d63"/>
  </g>
</svg>
