<svg id="Grupo_59890" data-name="Grupo 59890" xmlns="http://www.w3.org/2000/svg" width="218.057" height="218.058" viewBox="0 0 218.057 218.058">
  <rect id="Rectángulo_30675" data-name="Rectángulo 30675" width="27.737" height="48.22" transform="translate(115.643 84.919)" fill="#fff"/>
  <path id="Trazado_125386" data-name="Trazado 125386" d="M223.713,119.13a3.2,3.2,0,0,1,3.2-3.2h34.138a3.2,3.2,0,0,1,3.2,3.2v51.421h24.323V100.2L243.982,65.166,199.389,100.2v70.348h24.324Z" transform="translate(-114.471 -37.412)" fill="#453e3e"/>
  <path id="Trazado_125387" data-name="Trazado 125387" d="M187.561,167.151h95.587a3.2,3.2,0,0,0,3.2-3.2v-75.1a3.2,3.2,0,0,0-1.223-2.517L237.331,48.778a3.2,3.2,0,0,0-3.955,0L185.583,86.33a3.2,3.2,0,0,0-1.223,2.517v75.1A3.2,3.2,0,0,0,187.561,167.151Zm61.662-6.4H221.485V112.53h27.738ZM190.761,90.4l44.593-35.037L279.947,90.4V160.75H255.623V109.329a3.2,3.2,0,0,0-3.2-3.2H218.285a3.2,3.2,0,0,0-3.2,3.2V160.75H190.761Z" transform="translate(-105.842 -27.611)"/>
  <path id="Trazado_125388" data-name="Trazado 125388" d="M460.093,160.75a3.2,3.2,0,1,0,0,6.4h13.655a3.2,3.2,0,0,0,0-6.4h-3.627V54.495h3.627a3.2,3.2,0,0,0,0-6.4H460.093a3.2,3.2,0,1,0,0,6.4h3.627V160.75Z" transform="translate(-262.305 -27.611)"/>
  <path id="Trazado_125389" data-name="Trazado 125389" d="M214.857,163.863H177.3a3.2,3.2,0,1,0,0,6.4h34.352v41.393h-17.5V201.2a3.2,3.2,0,1,0-6.4,0v10.455H166.85V197.788a3.2,3.2,0,1,0-6.4,0v13.869H139.54V201.2a3.2,3.2,0,1,0-6.4,0v10.455h-20.91V197.788a3.2,3.2,0,1,0-6.4,0v13.869H84.918V201.2a3.2,3.2,0,1,0-6.4,0v10.455H57.608V197.788a3.2,3.2,0,1,0-6.4,0v13.869H30.3V201.2a3.2,3.2,0,1,0-6.4,0v10.455H6.4V194.15c.071,0,.141.011.213.011H16.856a3.2,3.2,0,1,0,0-6.4H6.614c-.072,0-.142.006-.213.011V166.839c.071,0,.141.011.213.011H23.683a3.2,3.2,0,0,0,0-6.4H6.614c-.072,0-.142.006-.213.011V139.529c.071,0,.141.011.213.011H16.856a3.2,3.2,0,1,0,0-6.4H6.614c-.072,0-.142.006-.213.011V112.219c.071,0,.141.011.213.011H23.683a3.2,3.2,0,0,0,0-6.4H6.614c-.072,0-.142.006-.213.011V84.908c.071,0,.141.011.213.011H16.856a3.2,3.2,0,1,0,0-6.4H6.614c-.072,0-.142.006-.213.011V57.6c.071,0,.141.011.213.011H23.683a3.2,3.2,0,0,0,0-6.4H6.614c-.072,0-.142.006-.213.011V30.287c.071,0,.141.011.213.011H16.856a3.2,3.2,0,1,0,0-6.4H6.614c-.072,0-.142.006-.213.011V6.4H47.793V167.063a3.2,3.2,0,0,0,3.2,3.2H161.7a3.2,3.2,0,0,0,0-6.4H54.194V3.2a3.2,3.2,0,0,0-3.2-3.2H3.2A3.2,3.2,0,0,0,0,3.2V214.857a3.2,3.2,0,0,0,3.2,3.2H214.857a3.2,3.2,0,0,0,3.2-3.2V167.063A3.2,3.2,0,0,0,214.857,163.863Z"/>
  <g id="Grupo_59889" data-name="Grupo 59889">
    <path id="Trazado_125390" data-name="Trazado 125390" d="M214.857,163.863H177.3a3.189,3.189,0,0,0-3.111,3.939h0a3.2,3.2,0,0,0,3.111,2.462h34.352v41.393h-17.5V201.2a3.2,3.2,0,1,0-6.4,0v10.455H166.85V197.788a3.2,3.2,0,1,0-6.4,0v13.869H139.54V201.2a3.2,3.2,0,1,0-6.4,0v10.455h-20.91V197.788a3.2,3.2,0,1,0-6.4,0v13.869H84.918V201.2a3.2,3.2,0,1,0-6.4,0v10.455H57.608V197.788a3.2,3.2,0,1,0-6.4,0v13.869H30.3V201.2a3.2,3.2,0,1,0-6.4,0v10.455H6.4V194.15c.071,0,.141.011.213.011H16.856a3.2,3.2,0,1,0,0-6.4H6.614c-.072,0-.142.006-.213.011V166.839c.071,0,.141.011.213.011H23.683a3.2,3.2,0,0,0,0-6.4H6.614c-.072,0-.142.006-.213.011V139.529c.071,0,.141.011.213.011H16.856a3.2,3.2,0,1,0,0-6.4H6.614c-.072,0-.142.006-.213.011V112.219c.071,0,.141.011.213.011H23.683a3.2,3.2,0,0,0,0-6.4H6.614c-.072,0-.142.006-.213.011V84.908c.071,0,.141.011.213.011H16.856a3.2,3.2,0,1,0,0-6.4H6.614c-.072,0-.142.006-.213.011V57.6c.071,0,.141.011.213.011H23.683a3.2,3.2,0,0,0,0-6.4H6.614c-.072,0-.142.006-.213.011V30.287c.071,0,.141.011.213.011H16.856a3.2,3.2,0,1,0,0-6.4H6.614c-.072,0-.142.006-.213.011V6.4H47.793V167.063a3.2,3.2,0,0,0,3.2,3.2H161.7a3.2,3.2,0,0,0,3.111-2.462h0a3.191,3.191,0,0,0-3.111-3.939H54.194V3.2a3.2,3.2,0,0,0-3.2-3.2H3.2A3.2,3.2,0,0,0,0,3.2V214.857a3.2,3.2,0,0,0,3.2,3.2H214.857a3.2,3.2,0,0,0,3.2-3.2V167.063A3.2,3.2,0,0,0,214.857,163.863Z" fill="none"/>
    <path id="Trazado_125391" data-name="Trazado 125391" d="M187.561,167.151h95.587a3.2,3.2,0,0,0,3.2-3.2v-75.1a3.2,3.2,0,0,0-1.223-2.517L237.331,48.778a3.2,3.2,0,0,0-3.955,0L185.583,86.33a3.2,3.2,0,0,0-1.223,2.517v75.1A3.2,3.2,0,0,0,187.561,167.151Z" transform="translate(-105.842 -27.611)" fill="none"/>
    <path id="Trazado_125392" data-name="Trazado 125392" d="M460.093,160.75a3.2,3.2,0,1,0,0,6.4h13.655a3.2,3.2,0,0,0,0-6.4h-3.627V54.495h3.627a3.2,3.2,0,0,0,0-6.4H460.093a3.2,3.2,0,1,0,0,6.4h3.627V160.75Z" transform="translate(-262.305 -27.611)" fill="none"/>
    <path id="Trazado_125393" data-name="Trazado 125393" d="M170.33,178.892H59.622a3.2,3.2,0,0,1-3.2-3.2V15.029H15.029V32.536c.071,0,.141-.011.213-.011H25.484a3.2,3.2,0,1,1,0,6.4H15.242c-.072,0-.142-.006-.213-.011V59.846c.071,0,.141-.011.213-.011H32.312a3.2,3.2,0,0,1,0,6.4H15.242c-.072,0-.142-.006-.213-.011V87.157c.071,0,.141-.011.213-.011H25.484a3.2,3.2,0,1,1,0,6.4H15.242c-.072,0-.142-.006-.213-.011v20.931c.071,0,.141-.011.213-.011H32.312a3.2,3.2,0,0,1,0,6.4H15.242c-.072,0-.142-.006-.213-.011v20.931c.071,0,.141-.011.213-.011H25.484a3.2,3.2,0,1,1,0,6.4H15.242c-.072,0-.142-.006-.213-.011v20.931c.071,0,.141-.011.213-.011H32.312a3.2,3.2,0,0,1,0,6.4H15.242c-.072,0-.142-.006-.213-.011V196.4c.071,0,.141-.011.213-.011H25.484a3.2,3.2,0,1,1,0,6.4H15.242c-.072,0-.142-.006-.213-.011v17.507h17.5V209.83a3.2,3.2,0,1,1,6.4,0v10.455h20.91V206.416a3.2,3.2,0,1,1,6.4,0v13.869h20.91V209.83a3.2,3.2,0,1,1,6.4,0v10.455h20.91V206.416a3.2,3.2,0,1,1,6.4,0v13.869h20.91V209.83a3.2,3.2,0,1,1,6.4,0v10.455h20.91V206.416a3.2,3.2,0,1,1,6.4,0v13.869h20.91V209.83a3.2,3.2,0,1,1,6.4,0v10.455h17.5V178.892H185.933a3.2,3.2,0,0,1-3.111-2.462h-9.381A3.2,3.2,0,0,1,170.33,178.892Z" transform="translate(-8.628 -8.628)" fill="#eaa123"/>
  </g>
</svg>
