<svg xmlns="http://www.w3.org/2000/svg" width="134" height="134" viewBox="0 0 134 134">
  <g id="Grupo_57250" data-name="Grupo 57250" transform="translate(-313 -1255)">
    <rect id="Rectángulo_5956" data-name="Rectángulo 5956" width="134" height="134" transform="translate(313 1255)" fill="none"/>
    <g id="Grupo_57248" data-name="Grupo 57248" transform="translate(321 1260)">
      <g id="Trazado_121046" data-name="Trazado 121046" transform="translate(-1350.899 -837.509)" fill="#fff" stroke-miterlimit="10">
        <path d="M 1414.722534179688 960.5215454101562 L 1361.773559570312 926.2713623046875 L 1361.773559570312 873.5133666992188 L 1414.722534179688 907.7635498046875 L 1414.722534179688 960.5215454101562 Z" stroke="none"/>
        <path d="M 1414.222534179688 959.6026000976562 L 1414.222534179688 908.03564453125 L 1362.273559570312 874.4323120117188 L 1362.273559570312 925.999267578125 L 1414.222534179688 959.6026000976562 M 1415.222534179688 961.4404296875 L 1361.273559570312 926.5433959960938 L 1361.273559570312 872.594482421875 L 1415.222534179688 907.4915161132812 L 1415.222534179688 961.4404296875 Z" stroke="none" fill="#000"/>
      </g>
      <g id="Trazado_121047" data-name="Trazado 121047" transform="translate(-1363.591 -837.509)" fill="#fff" stroke-miterlimit="10">
        <path d="M 1428.414306640625 960.5215454101562 L 1428.414306640625 907.7635498046875 L 1481.36328125 873.5133666992188 L 1481.36328125 926.2713623046875 L 1428.414306640625 960.5215454101562 Z" stroke="none"/>
        <path d="M 1428.914306640625 959.6026000976562 L 1480.86328125 925.999267578125 L 1480.86328125 874.4323120117188 L 1428.914306640625 908.03564453125 L 1428.914306640625 959.6026000976562 M 1427.914306640625 961.4404296875 L 1427.914306640625 907.4915161132812 L 1481.86328125 872.594482421875 L 1481.86328125 926.5433959960938 L 1427.914306640625 961.4404296875 Z" stroke="none" fill="#000"/>
      </g>
      <g id="Trazado_121048" data-name="Trazado 121048" transform="translate(-1350.899 -829.255)" fill="#fff" stroke-miterlimit="10">
        <path d="M 1415.222534179688 898.6420288085938 L 1362.1923828125 864.3392944335938 L 1415.222534179688 829.8511962890625 L 1468.252685546875 864.3392944335938 L 1415.222534179688 898.6420288085938 Z" stroke="none"/>
        <path d="M 1415.222534179688 830.4476318359375 L 1363.111206054688 864.3381958007812 L 1415.222534179688 898.0465087890625 L 1467.333862304688 864.3381958007812 L 1415.222534179688 830.4476318359375 M 1415.222534179688 829.2547607421875 L 1469.171508789062 864.3404541015625 L 1415.222534179688 899.2374877929688 L 1361.273559570312 864.3404541015625 L 1415.222534179688 829.2547607421875 Z" stroke="none" fill="#000"/>
      </g>
      <line id="Línea_228" data-name="Línea 228" x2="78.693" y2="46.442" transform="translate(0 56.386)" fill="#fff" stroke="#000" stroke-miterlimit="10" stroke-width="3"/>
      <line id="Línea_229" data-name="Línea 229" y2="82.511" transform="translate(37.349 34.991)" fill="#fff" stroke="#000" stroke-miterlimit="10" stroke-width="3"/>
    </g>
  </g>
</svg>
