<svg xmlns="http://www.w3.org/2000/svg" width="820.375" height="361" viewBox="0 0 820.375 361">
  <g id="Grupo_59973" data-name="Grupo 59973" transform="translate(-369.625 -11315.103)">
    <rect id="Rectángulo_30682" data-name="Rectángulo 30682" width="820" height="361" transform="translate(370 11315.103)" fill="none"/>
    <g id="Grupo_60005" data-name="Grupo 60005" transform="translate(346.779 10869.586)">
      <g id="Grupo_60085" data-name="Grupo 60085" transform="translate(23.221 469.714)">
        <g id="Grupo_60042" data-name="Grupo 60042" transform="translate(306.371 113.896)">
          <g id="Grupo_60005-2" data-name="Grupo 60005" transform="translate(0 7.931)">
            <path id="Trazado_125483" data-name="Trazado 125483" d="M593.265,710.9H528.357l-7.31-4.209H316.138L296.375,710.9H237.553l-11.854-6.98c-1.189-.027-10.439-.339-27.078-3.213-18.779-3.664-31.767-19.916-37.57-47a165.963,165.963,0,0,1-3.138-40.109,165.626,165.626,0,0,1,3.138-40.048c5.8-27.082,18.791-43.331,37.561-47,16.648-2.876,25.9-3.186,27.087-3.216l11.854-6.98,58.925.011,19.661,4.2H521.047l7.31-4.209,65,.046,21.4,9.927c1.738.085,25.409,1.519,35.925,15.468,9.635,12.781,20.694,32.5,20.694,71.828s-11.059,59.048-20.694,71.828c-10.515,13.949-34.186,15.384-35.925,15.47Zm-64.65-.966H593.05l21.574-9.966c.246-.009,24.7-1.045,35.29-15.09,9.545-12.66,20.5-32.2,20.5-71.247s-10.954-58.585-20.5-71.248c-10.592-14.049-35.044-15.081-35.29-15.09l-.187-.046-21.387-9.92H528.614l-7.308,4.209-205.319-.012-19.663-4.2h-58.51l-11.847,6.976h-.128c-.091,0-9.369.148-27.055,3.2-12.79,2.5-29.563,12.544-36.786,46.228a164.811,164.811,0,0,0-3.122,39.865A165.128,165.128,0,0,0,162,653.531c7.224,33.685,24,43.732,36.8,46.231,17.675,3.054,26.953,3.2,27.044,3.2l.128,0,11.849,6.973h58.508l19.763-4.209H521.306Z" transform="translate(-157.749 -516.367)"/>
          </g>
          <g id="Grupo_60006" data-name="Grupo 60006" transform="translate(0 7.931)">
            <path id="Trazado_125484" data-name="Trazado 125484" d="M671.378,614.118H157.943l-.03-.451a165.956,165.956,0,0,1,3.138-40.109c5.8-27.082,18.791-43.331,37.561-47,16.648-2.876,25.9-3.186,27.087-3.216l11.854-6.98,58.925.011,19.661,4.2H521.047l7.31-4.209,65,.046,21.4,9.927c1.74.087,25.411,1.519,35.925,15.468,9.635,12.781,20.694,32.5,20.694,71.828Zm-512.527-.965H670.413c-.091-38.722-11-58.155-20.5-70.765-10.592-14.049-35.044-15.081-35.29-15.09l-.187-.046-21.387-9.92H528.614l-7.308,4.209-205.319-.012-19.663-4.2h-58.51l-11.847,6.976h-.128c-.091,0-9.369.148-27.055,3.2-12.79,2.5-29.563,12.544-36.786,46.228A165.372,165.372,0,0,0,158.851,613.153Z" transform="translate(-157.749 -516.367)"/>
          </g>
          <g id="Grupo_60007" data-name="Grupo 60007" transform="translate(366.57 104.717)">
            <path id="Trazado_125485" data-name="Trazado 125485" d="M318.711,619.182l10.633-60.316h127.38L449.5,601.64l-.353.046Zm11.441-59.351L319.891,618.05l128.778-17.274,6.914-40.945Z" transform="translate(-318.711 -558.866)"/>
          </g>
          <g id="Grupo_60008" data-name="Grupo 60008" transform="translate(366.57 45.366)">
            <path id="Trazado_125486" data-name="Trazado 125486" d="M456.724,593.121H329.344l-.071-.4-10.562-59.918.654.089L449.5,550.35Zm-126.572-.966H455.583l-6.914-40.945L319.891,533.937Z" transform="translate(-318.711 -532.805)"/>
          </g>
          <g id="Grupo_60009" data-name="Grupo 60009" transform="translate(92.682 165.202)">
            <path id="Trazado_125487" data-name="Trazado 125487" d="M414.919,609.057c-65.315,0-185.583-3.348-213.964-4.748l-2.51-.123,2.378-.815c24.438-8.371,46.153-11.164,113.511-17.078,67.438-5.917,141,20.36,141.732,20.624l1.681.608-1.758.321C451.221,608.713,435.905,609.057,414.919,609.057ZM203.57,603.464c41.193,1.849,222.93,6.545,250.26,3.7-11.993-4.063-78.246-25.277-139.409-19.909C249.4,592.963,226.977,595.755,203.57,603.464Z" transform="translate(-198.446 -585.425)"/>
          </g>
          <g id="Grupo_60010" data-name="Grupo 60010" transform="translate(3.969 104.717)">
            <path id="Trazado_125488" data-name="Trazado 125488" d="M226.577,624.308l-44.614-.8a12.524,12.524,0,0,1-8.893-1.95c-4.625-2.956-7.846-8.688-9.567-17.039-4.445-21.564-4-44.946-4-45.181l.011-.471H211.8v.483c0,28.037,3.68,43.965,6.768,52.389,3.343,9.123,6.727,11.644,6.762,11.669Zm-44.714-1.767h.059l41.885.754c-3.161-3.391-12.906-17.572-12.974-63.464H160.465c-.039,3.416-.091,24.725,3.983,44.491,1.665,8.071,4.732,13.594,9.121,16.409a11.681,11.681,0,0,0,8.237,1.822Z" transform="translate(-159.492 -558.866)"/>
          </g>
          <g id="Grupo_60011" data-name="Grupo 60011" transform="translate(15.079 164.109)">
            <path id="Trazado_125489" data-name="Trazado 125489" d="M186.205,612.148l-.132-.064c-.2-.093-19.918-9.6-21.571-25.859l-.132-1.28.941.879a12.051,12.051,0,0,0,10.264,3.416l.449-.1.125.446c.041.15,4.354,15.042,19.567,20.159l1.87.629ZM165.627,587.37c2.334,14.291,19.068,22.954,20.726,23.778l7.3-1.141c-12.908-5.227-17.506-17.34-18.306-19.747A12.91,12.91,0,0,1,165.627,587.37Z" transform="translate(-164.37 -584.945)"/>
          </g>
          <g id="Grupo_60012" data-name="Grupo 60012" transform="translate(492.734 104.717)">
            <path id="Trazado_125490" data-name="Trazado 125490" d="M374.11,602.009l.36-.968c.052-.139,5.174-14.215,5.174-41.692v-.483h10.931v.483c0,13.049-3.812,34.93-5.24,38.5l-.08.2Zm6.5-42.177c-.048,23.352-3.79,37.005-4.917,40.592l8.825-3.138c1.291-3.66,5.006-24.115,5.095-37.454Z" transform="translate(-374.11 -558.866)"/>
          </g>
          <g id="Grupo_60013" data-name="Grupo 60013" transform="translate(461.384 147.98)">
            <path id="Trazado_125491" data-name="Trazado 125491" d="M372.364,618.011h-12.02l2.888-.943c12.127-3.949,21.7-26.377,24.347-33.156a6.1,6.1,0,0,1,3.835-3.612l7.577-2.437-.264.879c-4.616,15.329-11.492,25.163-16.447,30.712-5.388,6.035-9.629,8.4-9.806,8.5Zm-6.627-.966h6.374c1.421-.84,16.994-10.6,25.422-37.7l-5.823,1.872a5.148,5.148,0,0,0-3.232,3.045C379.679,606.815,370.711,614.458,365.737,617.045Z" transform="translate(-360.344 -577.863)"/>
          </g>
          <g id="Grupo_60014" data-name="Grupo 60014" transform="translate(376.709 142.49)">
            <path id="Trazado_125492" data-name="Trazado 125492" d="M323.163,597l1.127-2.837,115.6-14.614,11.53-4.1-5.375,6.645-6.839,2.2a5.1,5.1,0,0,0-1.649.925l-.159.13-.2-.025Zm1.815-1.952-.33.831,112.427-11.505a5.873,5.873,0,0,1,1.833-1l6.566-2.111,3.04-3.762-8.453,2.995Z" transform="translate(-323.163 -575.452)"/>
          </g>
          <g id="Grupo_60017" data-name="Grupo 60017" transform="translate(132.388 165.195)">
            <g id="Grupo_60015" data-name="Grupo 60015" transform="translate(93.682)">
              <path id="Trazado_125493" data-name="Trazado 125493" d="M274.858,608.357l-.751-.014q-5.346-.1-10.752-.2l-.364-.007-5.974-22.7.619-.007c2.287-.023,4.593-.016,6.85.018l.31,0Zm-11.12-1.168q4.837.092,9.633.175l-9.207-20.952c-1.947-.027-3.931-.032-5.9-.018Z" transform="translate(-257.017 -585.422)"/>
            </g>
            <g id="Grupo_60016" data-name="Grupo 60016" transform="translate(0 5.244)">
              <path id="Trazado_125494" data-name="Trazado 125494" d="M222.283,602.917l-6.4-.2,22.831-14.22c1.635-.187,3.311-.371,5.04-.558l2.018-.219Zm-3.2-1.064,2.922.089,19.822-12.819-2.9.323Z" transform="translate(-215.881 -587.725)"/>
            </g>
          </g>
          <g id="Grupo_60018" data-name="Grupo 60018" transform="translate(34.832 187.162)">
            <path id="Trazado_125495" data-name="Trazado 125495" d="M573.727,610.374H508.82l-7.31-4.209H296.6l-19.763,4.209H218.015l-11.854-6.98c-1.189-.03-10.439-.339-27.078-3.213a40.907,40.907,0,0,1-4.02-1l-2.02-.613,11.414-1.783.055,0c1.216.077,122.406,7.736,180.379,6.09,16.6-.469,40.241-.624,65.274-.788,64.5-.419,144.777-.943,172.363-7.008l.1-.011h9.046l1.852,1.683-.779.262a71.049,71.049,0,0,1-17.531,3.391Zm-64.65-.963h64.436l21.574-9.968a69.723,69.723,0,0,0,16.575-3.088l-.355-.321h-8.62c-27.736,6.076-108.007,6.6-172.513,7.019-25.028.164-48.668.317-65.254.788-57.542,1.633-177.287-5.892-180.416-6.087l-7,1.093q.878.215,1.754.385c17.675,3.054,26.953,3.2,27.044,3.2l.128,0,11.849,6.976h58.508L296.55,605.2H501.769Z" transform="translate(-173.044 -595.068)"/>
          </g>
          <g id="Grupo_60019" data-name="Grupo 60019" transform="translate(322.481 185.601)">
            <path id="Trazado_125496" data-name="Trazado 125496" d="M301.867,619.182a2.51,2.51,0,0,1-1.437-.46,2.484,2.484,0,0,1-.982-2.742l4.056-14.375a4.561,4.561,0,0,1,3.45-3.227l.957-.205.389-1.33a3.389,3.389,0,0,1,5.5-1.608,3.406,3.406,0,0,1,.927,3.851l-.449-.18.449.18-4.99,12.51a12.868,12.868,0,0,1-4.4,5.657l-2,1.444A2.518,2.518,0,0,1,301.867,619.182Zm9.695-23.849a2.37,2.37,0,0,0-1.148.307,2.429,2.429,0,0,0-1.187,1.471L308.676,599l-1.521.323a3.593,3.593,0,0,0-2.721,2.546l-4.056,14.375a1.547,1.547,0,0,0,2.4,1.674l1.995-1.446a11.859,11.859,0,0,0,4.074-5.231l4.99-12.51a2.428,2.428,0,0,0-.667-2.772A2.464,2.464,0,0,0,311.562,595.333Z" transform="translate(-299.351 -594.383)"/>
          </g>
          <g id="Grupo_60020" data-name="Grupo 60020" transform="translate(92.682 21.565)">
            <path id="Trazado_125497" data-name="Trazado 125497" d="M334.911,545.989c-6.866,0-13.751-.269-20.576-.87-67.358-5.914-89.073-8.706-113.511-17.078l-2.378-.813,2.51-.125c37.5-1.852,235.421-7.1,255.034-3.537l1.758.321-1.681.608C455.406,524.734,395.908,545.989,334.911,545.989ZM203.57,527.948c23.407,7.709,45.834,10.5,110.851,16.21,61.159,5.365,127.417-15.844,139.409-19.909C426.5,521.4,244.763,526.1,203.57,527.948Z" transform="translate(-198.446 -522.354)"/>
          </g>
          <g id="Grupo_60021" data-name="Grupo 60021" transform="translate(3.969 40.238)">
            <path id="Trazado_125498" data-name="Trazado 125498" d="M211.8,596H159.517l-.011-.471c0-.235-.449-23.616,4-45.179,1.722-8.351,4.942-14.086,9.567-17.041a12.515,12.515,0,0,1,8.893-1.949l44.723-.8-1.371.913c-.121.089-13.516,10.385-13.516,64.049Zm-51.334-.965h50.369c.068-45.891,9.813-60.073,12.974-63.461l-41.945.754-.057-.013a11.678,11.678,0,0,0-8.237,1.822c-4.389,2.817-7.456,8.338-9.121,16.408C160.374,570.309,160.426,591.616,160.465,595.032Z" transform="translate(-159.492 -530.553)"/>
          </g>
          <g id="Grupo_60022" data-name="Grupo 60022" transform="translate(15.083 19.088)">
            <path id="Trazado_125499" data-name="Trazado 125499" d="M164.372,548.469l.13-1.28c1.651-16.26,21.369-25.766,21.569-25.86l.132-.064,11.38,1.779-1.87.629c-15.213,5.12-19.526,20.009-19.567,20.159l-.123.444-.451-.1a12.1,12.1,0,0,0-10.262,3.416Zm21.979-26.2c-1.658.824-18.392,9.487-20.726,23.778a12.892,12.892,0,0,1,9.724-2.888c.8-2.409,5.4-14.523,18.306-19.749Z" transform="translate(-164.372 -521.266)"/>
          </g>
          <g id="Grupo_60023" data-name="Grupo 60023" transform="translate(492.732 62.54)">
            <path id="Trazado_125500" data-name="Trazado 125500" d="M390.577,583.488H379.645v-.483c0-27.5-5.122-41.553-5.174-41.69l-.362-.97,11.148,3.963.08.2c1.428,3.564,5.24,25.445,5.24,38.495Zm-9.968-.965h9c-.089-13.336-3.8-33.794-5.094-37.454l-8.825-3.136C376.819,545.518,380.561,559.171,380.609,582.523Z" transform="translate(-374.109 -540.346)"/>
          </g>
          <g id="Grupo_60024" data-name="Grupo 60024" transform="translate(461.384 22.272)">
            <path id="Trazado_125501" data-name="Trazado 125501" d="M398.991,562.812l-7.577-2.437a6.1,6.1,0,0,1-3.835-3.612c-2.646-6.78-12.22-29.205-24.347-33.159l-2.888-.941h12.02l.109.059c.173.1,17.413,9.847,26.253,39.209ZM365.737,523.63c4.974,2.585,13.942,10.23,22.742,32.783a5.147,5.147,0,0,0,3.232,3.045l5.823,1.874c-8.44-27.135-24-36.864-25.422-37.7Z" transform="translate(-360.344 -522.664)"/>
          </g>
          <g id="Grupo_60025" data-name="Grupo 60025" transform="translate(376.709 46.362)">
            <path id="Trazado_125502" data-name="Trazado 125502" d="M451.418,554.793l-11.53-4.1L324.29,536.08l-1.127-2.837L437.2,544.914l.15-.027.2.134a5.074,5.074,0,0,0,1.649.925l6.839,2.2Zm-126.44-19.6,115.135,14.555.048.018,8.353,2.97-3.04-3.76-6.566-2.113a5.828,5.828,0,0,1-1.831-.993L324.648,534.362Z" transform="translate(-323.163 -533.242)"/>
          </g>
          <g id="Grupo_60026" data-name="Grupo 60026" transform="translate(226.07 22.272)">
            <path id="Trazado_125503" data-name="Trazado 125503" d="M260.342,545.6c-.906,0-1.811,0-2.706-.014l-.619-.007,5.974-22.7.364-.007q5.4-.1,10.752-.2l.751-.011-10.061,22.9-.31,0C263.1,545.586,261.717,545.6,260.342,545.6Zm-2.075-.972c1.94.016,3.922.009,5.9-.018l9.207-20.952q-4.8.086-9.633.175Z" transform="translate(-257.017 -522.664)"/>
          </g>
          <g id="Grupo_60027" data-name="Grupo 60027" transform="translate(132.388 24.768)">
            <path id="Trazado_125504" data-name="Trazado 125504" d="M245.769,538.952l-2.018-.219c-1.729-.187-3.4-.371-5.04-.556l-.2-.071-22.628-14.152,6.4-.2Zm-6.841-1.722q1.431.161,2.9.323l-19.822-12.819-2.922.089Z" transform="translate(-215.881 -523.76)"/>
          </g>
          <g id="Grupo_60028" data-name="Grupo 60028" transform="translate(34.832 7.931)">
            <path id="Trazado_125505" data-name="Trazado 125505" d="M611.679,531.673l-9.15-.011c-27.586-6.065-107.859-6.589-172.361-7.008-25.033-.164-48.679-.319-65.276-.788-57.961-1.644-179.161,6.012-180.379,6.09l-.055,0-.05-.009-11.364-1.776,2.02-.613a40.762,40.762,0,0,1,4.01-1c16.648-2.876,25.9-3.186,27.087-3.216l11.854-6.98,58.925.011,19.661,4.2H501.509l7.31-4.209,65,.046,21.4,9.927a70.942,70.942,0,0,1,17.531,3.391l.781.26Zm-8.993-.966h8.62l.355-.321a69.626,69.626,0,0,0-16.575-3.088l-.187-.046-21.387-9.92H509.077l-7.308,4.209L296.45,521.53l-19.663-4.2H218.279l-11.849,6.976H206.3c-.091,0-9.369.148-27.055,3.2q-.868.171-1.742.383l7,1.093c3.129-.2,122.869-7.718,180.416-6.087,16.588.471,40.228.624,65.256.788C494.682,524.11,574.952,524.631,602.686,530.708Z" transform="translate(-173.044 -516.367)"/>
          </g>
          <g id="Grupo_60029" data-name="Grupo 60029" transform="translate(322.481)">
            <path id="Trazado_125506" data-name="Trazado 125506" d="M311.566,537.691a3.354,3.354,0,0,1-1.619-.419,3.406,3.406,0,0,1-1.647-2.05l-.389-1.33-.957-.2a4.565,4.565,0,0,1-3.45-3.229l-4.056-14.375a2.513,2.513,0,0,1,3.892-2.717l2,1.444a12.88,12.88,0,0,1,4.4,5.657l4.99,12.51a3.41,3.41,0,0,1-.927,3.853A3.366,3.366,0,0,1,311.566,537.691Zm-9.688-23.844a1.583,1.583,0,0,0-.9.289,1.514,1.514,0,0,0-.6,1.687l4.056,14.375a3.593,3.593,0,0,0,2.721,2.546l1.521.323.551,1.886a2.426,2.426,0,0,0,3.938,1.155,2.426,2.426,0,0,0,.667-2.769l-4.99-12.512a11.871,11.871,0,0,0-4.074-5.231l-1.995-1.444A1.5,1.5,0,0,0,301.878,513.847Z" transform="translate(-299.351 -512.884)"/>
          </g>
          <g id="Grupo_60031" data-name="Grupo 60031" transform="translate(133.099 158.256)">
            <g id="Grupo_60030" data-name="Grupo 60030">
              <path id="Trazado_125507" data-name="Trazado 125507" d="M388.346,592.8l-.462-.132c-.485-.141-49.97-13.965-171.04-4.9l-.481.036-.171-2.289.483-.037c122.27-9.15,171.372,4.844,171.853,4.988l.462.137Zm-94.7-9.073c61.366,0,90.116,6.868,94.037,7.889l.1-.351c-5.252-1.389-55.115-13.455-170.564-4.858l.027.362C246.9,584.559,272.262,583.723,293.651,583.723Z" transform="translate(-216.193 -582.375)"/>
            </g>
          </g>
          <g id="Grupo_60033" data-name="Grupo 60033" transform="translate(133.099 41.723)">
            <g id="Grupo_60032" data-name="Grupo 60032">
              <path id="Trazado_125508" data-name="Trazado 125508" d="M294.018,541.629c-21.6,0-47.246-.852-77.342-3.1l-.483-.036.171-2.289.481.036c121.07,9.068,170.555-4.755,171.04-4.9l.462-.134.644,2.2-.462.137C388.166,533.646,360.157,541.629,294.018,541.629ZM217.227,537.6c115.449,8.6,165.314-3.469,170.564-4.858l-.1-.351c-5.29,1.376-55.748,13.384-170.434,4.846Z" transform="translate(-216.193 -531.205)"/>
            </g>
          </g>
          <g id="Grupo_60034" data-name="Grupo 60034" transform="translate(293.405 26.593)">
            <path id="Trazado_125509" data-name="Trazado 125509" d="M353.716,681.776a7.407,7.407,0,0,1-2.239-.353c-3.111-.982-63.817-17.105-64.429-17.269l-.465-.123.121-.465c.057-.216,5.634-22.1,5.634-60.4s-5.577-60.182-5.632-60.4l-.123-.464.465-.123c.613-.162,61.318-16.288,64.429-17.267,4-1.266,8.03.854,12.323,6.477,18,24.773,16.725,71.325,16.709,71.792.016.437,1.291,46.987-16.7,71.751C360.309,679.518,356.987,681.776,353.716,681.776Zm-65.962-18.433c6.051,1.608,60.99,16.206,64.015,17.16,3.562,1.127,7.249-.881,11.264-6.147,17.793-24.484,16.527-70.708,16.513-71.172.014-.494,1.28-46.718-16.52-71.214-4.01-5.254-7.688-7.26-11.257-6.138-3.024.954-57.964,15.555-64.015,17.16.8,3.37,5.548,24.814,5.548,60.175S288.556,659.973,287.755,663.344Z" transform="translate(-286.584 -524.561)"/>
          </g>
          <g id="Grupo_60035" data-name="Grupo 60035" transform="translate(55.311 40.252)">
            <path id="Trazado_125510" data-name="Trazado 125510" d="M196.119,660.456l-.148-.1c-.569-.4-13.935-10.512-13.935-64.844s13.366-64.441,13.935-64.844l.148-.1.18.018,70.749,6.919-.118.531c-3.928,17.9-4.411,57.094-4.418,57.488s.49,39.569,4.418,57.474l.118.531-.542.052Zm.282-128.9C195.01,532.766,183,544.7,183,595.507c0,50.965,12,62.758,13.4,63.951l69.476-6.793c-3.849-18.23-4.322-56.761-4.327-57.151s.478-38.934,4.327-57.162Z" transform="translate(-182.036 -530.559)"/>
          </g>
          <g id="Grupo_60038" data-name="Grupo 60038" transform="translate(477.251 152.838)">
            <g id="Grupo_60036" data-name="Grupo 60036" transform="translate(6.632)">
              <path id="Trazado_125511" data-name="Trazado 125511" d="M371.936,592.109a4.841,4.841,0,0,1-1.118-.137l-.594-.137.271-.547c2.031-4.1,3.55-7.754,4.466-10.1a3.131,3.131,0,0,1,.191-.38l.424-.811.467.567a7.444,7.444,0,0,1,1.637,4.751C377.679,589.06,375.1,592.109,371.936,592.109Zm-.289-.977c.1.007.194.011.289.011,2.635,0,4.778-2.617,4.778-5.83a6.648,6.648,0,0,0-.961-3.5C374.867,584.063,373.477,587.4,371.646,591.132Z" transform="translate(-370.223 -579.996)"/>
            </g>
            <g id="Grupo_60037" data-name="Grupo 60037" transform="translate(0 15.91)">
              <path id="Trazado_125512" data-name="Trazado 125512" d="M369.4,594.923a3,3,0,0,1-1.676-.538l-.412-.273.285-.405c1.278-1.826,2.553-3.853,3.79-6.021l.4-.7.428.688a5.206,5.206,0,0,1,.768,2.758C372.982,592.908,371.374,594.923,369.4,594.923Zm-.706-1.109a1.864,1.864,0,0,0,.706.143c1.444,0,2.619-1.583,2.619-3.53a4.411,4.411,0,0,0-.25-1.473C370.759,590.678,369.729,592.309,368.693,593.814Z" transform="translate(-367.311 -586.982)"/>
            </g>
          </g>
          <g id="Grupo_60041" data-name="Grupo 60041" transform="translate(477.251 33.711)">
            <g id="Grupo_60039" data-name="Grupo 60039" transform="translate(6.632 11.74)">
              <path id="Trazado_125513" data-name="Trazado 125513" d="M375.575,544.953l-.421-.811a2.83,2.83,0,0,1-.194-.38c-.916-2.348-2.435-6.008-4.466-10.1l-.271-.547.594-.139a4.834,4.834,0,0,1,1.118-.134c3.168,0,5.744,3.047,5.744,6.793a7.455,7.455,0,0,1-1.637,4.753Zm-3.929-11.134c1.829,3.733,3.22,7.064,4.106,9.319a6.648,6.648,0,0,0,.961-3.5c0-3.216-2.143-5.83-4.778-5.83C371.84,533.805,371.744,533.81,371.646,533.819Z" transform="translate(-370.223 -532.842)"/>
            </g>
            <g id="Grupo_60040" data-name="Grupo 60040">
              <path id="Trazado_125514" data-name="Trazado 125514" d="M371.786,535.626l-.4-.7c-1.239-2.17-2.512-4.195-3.79-6.021l-.285-.405.412-.273a3.007,3.007,0,0,1,1.676-.537c1.975,0,3.582,2.018,3.582,4.5a5.205,5.205,0,0,1-.768,2.758Zm-3.093-6.832c1.034,1.505,2.066,3.136,3.074,4.862a4.409,4.409,0,0,0,.25-1.473c0-1.947-1.175-3.53-2.619-3.53A1.9,1.9,0,0,0,368.693,528.794Z" transform="translate(-367.311 -527.687)"/>
            </g>
          </g>
        </g>
        <g id="Grupo_60080" data-name="Grupo 60080" transform="translate(0.001 197.954)">
          <g id="Grupo_60043" data-name="Grupo 60043" transform="translate(0 1.629)">
            <path id="Trazado_125515" data-name="Trazado 125515" d="M112.749,590.5H99.406l-1.5-.865H55.78l-4.063.865H39.625l-2.437-1.435a41.3,41.3,0,0,1-5.566-.66c-3.86-.754-6.529-4.095-7.723-9.661a52.991,52.991,0,0,1,0-16.479c1.193-5.566,3.862-8.907,7.72-9.658a41.568,41.568,0,0,1,5.568-.663l2.437-1.435,12.113,0,4.042.863H97.9l1.5-.865,13.361.009,4.4,2.041c.358.018,5.222.312,7.386,3.182,1.979,2.626,4.254,6.679,4.254,14.764s-2.275,12.138-4.254,14.766c-2.161,2.867-7.028,3.161-7.386,3.179Zm-13.291-.2H112.7l4.436-2.049c.05,0,5.076-.214,7.253-3.1,1.963-2.6,4.215-6.618,4.215-14.646s-2.252-12.043-4.215-14.646c-2.177-2.888-7.2-3.1-7.253-3.1l-.039-.009-4.4-2.041H99.458l-1.5.865-42.207,0-4.042-.863H39.679l-2.435,1.435h-.027a39.906,39.906,0,0,0-5.561.658c-2.628.513-6.076,2.578-7.563,9.5a52.866,52.866,0,0,0,0,16.4c1.487,6.926,4.935,8.991,7.565,9.5a39.86,39.86,0,0,0,5.559.658h.027l2.435,1.435H51.706l4.063-.865H97.955Z" transform="translate(-23.221 -550.51)"/>
          </g>
          <g id="Grupo_60044" data-name="Grupo 60044" transform="translate(0 1.629)">
            <path id="Trazado_125516" data-name="Trazado 125516" d="M128.807,570.605H23.26l0-.093a34.119,34.119,0,0,1,.644-8.246c1.193-5.566,3.862-8.907,7.72-9.658a41.568,41.568,0,0,1,5.568-.663l2.437-1.435,12.113,0,4.042.863H97.9l1.5-.865,13.361.009,4.4,2.041c.358.018,5.224.312,7.386,3.182,1.979,2.626,4.254,6.679,4.254,14.764Zm-105.36-.2h105.16c-.018-7.962-2.259-11.956-4.213-14.548-2.177-2.888-7.2-3.1-7.253-3.1l-.039-.009-4.4-2.041H99.458l-1.5.865-42.207,0-4.042-.863H39.679l-2.435,1.435h-.027a39.906,39.906,0,0,0-5.561.658c-2.628.513-6.076,2.578-7.563,9.5A34.193,34.193,0,0,0,23.446,570.407Z" transform="translate(-23.221 -550.51)"/>
          </g>
          <g id="Grupo_60045" data-name="Grupo 60045" transform="translate(75.353 21.527)">
            <path id="Trazado_125517" data-name="Trazado 125517" d="M56.309,571.645l2.186-12.4H84.68L83.2,568.038l-.071.011Zm2.353-12.2-2.109,11.968,26.472-3.55,1.421-8.417Z" transform="translate(-56.309 -559.247)"/>
          </g>
          <g id="Grupo_60046" data-name="Grupo 60046" transform="translate(75.353 9.324)">
            <path id="Trazado_125518" data-name="Trazado 125518" d="M84.68,566.289H58.5l-.014-.082-2.173-12.318.134.018L83.2,557.5Zm-26.019-.2H84.446l-1.421-8.417-26.472-3.553Z" transform="translate(-56.309 -553.889)"/>
          </g>
          <g id="Grupo_60047" data-name="Grupo 60047" transform="translate(19.052 33.958)">
            <path id="Trazado_125519" data-name="Trazado 125519" d="M76.087,569.564c-13.427,0-38.151-.688-43.985-.975l-.515-.025.487-.169c5.024-1.722,9.488-2.3,23.336-3.512s28.984,4.186,29.134,4.24l.346.125-.362.066A78.85,78.85,0,0,1,76.087,569.564Zm-43.448-1.148c8.47.378,45.828,1.344,51.446.758-2.464-.836-16.085-5.195-28.658-4.093C42.061,566.257,37.451,566.831,32.639,568.416Z" transform="translate(-31.587 -564.706)"/>
          </g>
          <g id="Grupo_60048" data-name="Grupo 60048" transform="translate(0.815 21.527)">
            <path id="Trazado_125520" data-name="Trazado 125520" d="M37.371,572.7l-9.173-.166a2.556,2.556,0,0,1-1.826-.4,5.185,5.185,0,0,1-1.968-3.5,48.429,48.429,0,0,1-.822-9.287l0-.1H34.333v.1c0,5.764.756,9.039,1.391,10.77a5.378,5.378,0,0,0,1.389,2.4Zm-9.194-.364h.014l8.608.155c-.649-.7-2.651-3.612-2.667-13.045H23.78a48.1,48.1,0,0,0,.818,9.146,5.017,5.017,0,0,0,1.877,3.373,2.4,2.4,0,0,0,1.692.373Z" transform="translate(-23.579 -559.247)"/>
          </g>
          <g id="Grupo_60049" data-name="Grupo 60049" transform="translate(3.099 33.736)">
            <path id="Trazado_125521" data-name="Trazado 125521" d="M29.071,570.2l-.027-.014c-.041-.018-4.095-1.972-4.434-5.315l-.027-.262.194.18a2.476,2.476,0,0,0,2.109.7l.093-.02.025.091a6.623,6.623,0,0,0,4.022,4.145l.385.127ZM24.839,565.1c.481,2.938,3.922,4.719,4.261,4.89l1.5-.235a6.856,6.856,0,0,1-3.764-4.061A2.654,2.654,0,0,1,24.839,565.1Z" transform="translate(-24.582 -564.608)"/>
          </g>
          <g id="Grupo_60050" data-name="Grupo 60050" transform="translate(101.288 21.527)">
            <path id="Trazado_125522" data-name="Trazado 125522" d="M67.7,568.115l.075-.2a27.256,27.256,0,0,0,1.064-8.57v-.1h2.248v.1a37.282,37.282,0,0,1-1.077,7.914l-.016.041Zm1.337-8.67a29.088,29.088,0,0,1-1.011,8.344l1.815-.647a38,38,0,0,0,1.048-7.7Z" transform="translate(-67.697 -559.247)"/>
          </g>
          <g id="Grupo_60051" data-name="Grupo 60051" transform="translate(94.845 30.42)">
            <path id="Trazado_125523" data-name="Trazado 125523" d="M67.339,571.405H64.868l.592-.194c2.494-.813,4.461-5.422,5.006-6.816a1.256,1.256,0,0,1,.788-.742l1.558-.5-.055.18a16.541,16.541,0,0,1-3.38,6.313,8.638,8.638,0,0,1-2.015,1.747Zm-1.362-.2h1.309c.292-.171,3.493-2.177,5.227-7.75l-1.2.385a1.073,1.073,0,0,0-.665.626C68.842,569.1,67,570.674,65.977,571.2Z" transform="translate(-64.868 -563.152)"/>
          </g>
          <g id="Grupo_60052" data-name="Grupo 60052" transform="translate(77.437 29.29)">
            <path id="Trazado_125524" data-name="Trazado 125524" d="M57.224,567.086l.232-.583,23.764-3,2.371-.843-1.107,1.366-1.405.451a1.089,1.089,0,0,0-.339.191l-.032.027-.041-.007Zm.373-.4-.066.171,23.111-2.366a1.194,1.194,0,0,1,.376-.2l1.351-.435.624-.772-1.738.615Z" transform="translate(-57.224 -562.656)"/>
          </g>
          <g id="Grupo_60055" data-name="Grupo 60055" transform="translate(27.214 33.958)">
            <g id="Grupo_60053" data-name="Grupo 60053" transform="translate(19.257)">
              <path id="Trazado_125525" data-name="Trazado 125525" d="M47.3,569.421l-.155,0-2.211-.041-.075,0-1.227-4.666h.128c.469,0,.945,0,1.407,0l.064,0Zm-2.286-.241q.994.021,1.979.036L45.1,564.909c-.4,0-.808-.007-1.212,0Z" transform="translate(-43.627 -564.706)"/>
            </g>
            <g id="Grupo_60054" data-name="Grupo 60054" transform="translate(0 1.078)">
              <path id="Trazado_125526" data-name="Trazado 125526" d="M36.487,568.3l-1.316-.039,4.694-2.924c.335-.039.681-.075,1.036-.114l.414-.045Zm-.658-.219.6.018,4.074-2.635c-.2.023-.4.046-.6.066Z" transform="translate(-35.171 -565.179)"/>
            </g>
          </g>
          <g id="Grupo_60056" data-name="Grupo 60056" transform="translate(7.16 38.472)">
            <path id="Trazado_125527" data-name="Trazado 125527" d="M108.733,569.835H95.39l-1.5-.865H51.765l-4.063.865H35.609L33.172,568.4a41.673,41.673,0,0,1-5.566-.66c-.276-.055-.553-.123-.827-.205l-.414-.127,2.346-.367.011,0c.251.016,25.163,1.59,37.08,1.25,3.412-.1,8.274-.128,13.418-.162,13.259-.087,29.761-.194,35.434-1.442l.02,0h1.858l.383.346-.162.055a14.6,14.6,0,0,1-3.6.7Zm-13.291-.2h13.245l4.436-2.05a14.238,14.238,0,0,0,3.407-.633l-.073-.066h-1.772c-5.7,1.248-22.2,1.355-35.463,1.442-5.145.034-10,.066-13.414.162-11.829.337-36.445-1.209-37.089-1.25l-1.437.223c.121.03.239.057.36.08a39.856,39.856,0,0,0,5.559.658h.027l2.435,1.435H47.69l4.063-.865H93.939Z" transform="translate(-26.365 -566.688)"/>
          </g>
          <g id="Grupo_60057" data-name="Grupo 60057" transform="translate(66.291 38.152)">
            <path id="Trazado_125528" data-name="Trazado 125528" d="M52.848,571.646a.522.522,0,0,1-.5-.658l.836-2.954a.936.936,0,0,1,.708-.665l.2-.041.08-.273a.7.7,0,0,1,1.132-.332.7.7,0,0,1,.191.792l-.093-.036.093.036-1.027,2.571a2.632,2.632,0,0,1-.9,1.164l-.41.3A.524.524,0,0,1,52.848,571.646Zm1.993-4.9a.508.508,0,0,0-.237.064.5.5,0,0,0-.244.3l-.114.387-.312.066a.741.741,0,0,0-.56.524l-.834,2.956a.32.32,0,0,0,.494.344l.41-.3a2.428,2.428,0,0,0,.836-1.075l1.027-2.571a.515.515,0,0,0-.467-.7Z" transform="translate(-52.33 -566.547)"/>
          </g>
          <g id="Grupo_60058" data-name="Grupo 60058" transform="translate(19.052 4.432)">
            <path id="Trazado_125529" data-name="Trazado 125529" d="M59.64,556.6c-1.412,0-2.826-.055-4.229-.178-13.849-1.216-18.312-1.79-23.336-3.512l-.487-.166.515-.025c7.709-.382,48.4-1.46,52.427-.729l.362.066-.346.125C84.408,552.231,72.179,556.6,59.64,556.6Zm-27-3.708c4.812,1.585,9.421,2.159,22.787,3.332,12.573,1.1,26.194-3.257,28.658-4.092C78.467,551.545,41.109,552.511,32.639,552.891Z" transform="translate(-31.587 -551.741)"/>
          </g>
          <g id="Grupo_60059" data-name="Grupo 60059" transform="translate(0.815 8.27)">
            <path id="Trazado_125530" data-name="Trazado 125530" d="M34.333,566.881H23.584l0-.1A48.429,48.429,0,0,1,24.4,557.5a5.184,5.184,0,0,1,1.968-3.5,2.555,2.555,0,0,1,1.826-.4l9.194-.166-.28.189c-.025.018-2.778,2.134-2.778,13.166Zm-10.553-.2H34.132c.016-9.435,2.018-12.35,2.667-13.047l-8.62.155-.014,0a2.4,2.4,0,0,0-1.692.374,5.023,5.023,0,0,0-1.877,3.375A48.085,48.085,0,0,0,23.78,566.683Z" transform="translate(-23.579 -553.426)"/>
          </g>
          <g id="Grupo_60060" data-name="Grupo 60060" transform="translate(3.099 3.923)">
            <path id="Trazado_125531" data-name="Trazado 125531" d="M24.582,557.11l.027-.264c.339-3.343,4.393-5.3,4.434-5.315l.027-.014,2.339.366-.385.13A6.627,6.627,0,0,0,27,556.156l-.025.091-.093-.02a2.49,2.49,0,0,0-2.109.7Zm4.518-5.388c-.339.171-3.78,1.952-4.261,4.89a2.655,2.655,0,0,1,2-.594,6.862,6.862,0,0,1,3.764-4.06Z" transform="translate(-24.582 -551.517)"/>
          </g>
          <g id="Grupo_60061" data-name="Grupo 60061" transform="translate(101.288 12.854)">
            <path id="Trazado_125532" data-name="Trazado 125532" d="M71.083,564.309H68.836v-.1a27.224,27.224,0,0,0-1.064-8.57l-.075-.2,2.293.815.016.041a37.28,37.28,0,0,1,1.077,7.914Zm-2.05-.2h1.852a38.034,38.034,0,0,0-1.048-7.7l-1.815-.645A29.072,29.072,0,0,1,69.034,564.111Z" transform="translate(-67.697 -555.439)"/>
          </g>
          <g id="Grupo_60062" data-name="Grupo 60062" transform="translate(94.845 4.578)">
            <path id="Trazado_125533" data-name="Trazado 125533" d="M72.811,560.058l-1.558-.5a1.255,1.255,0,0,1-.788-.742c-.544-1.394-2.512-6.006-5.006-6.816l-.592-.194h2.471l.023.011c.034.02,3.578,2.025,5.4,8.06ZM65.977,552c1.02.531,2.865,2.1,4.673,6.739a1.061,1.061,0,0,0,.665.626l1.2.385c-1.735-5.577-4.935-7.579-5.227-7.75Z" transform="translate(-64.868 -551.805)"/>
          </g>
          <g id="Grupo_60063" data-name="Grupo 60063" transform="translate(77.437 9.529)">
            <path id="Trazado_125534" data-name="Trazado 125534" d="M83.591,558.409l-2.371-.843-23.764-3-.232-.583,23.443,2.4.032-.007.041.027a1.09,1.09,0,0,0,.339.191l1.405.451ZM57.6,554.38l23.669,2.992.009,0,1.717.61-.624-.774-1.351-.433a1.244,1.244,0,0,1-.376-.2l-23.111-2.366Z" transform="translate(-57.224 -553.979)"/>
          </g>
          <g id="Grupo_60064" data-name="Grupo 60064" transform="translate(46.472 4.578)">
            <path id="Trazado_125535" data-name="Trazado 125535" d="M44.31,556.519c-.187,0-.371,0-.556,0h-.128l1.227-4.666.075,0q1.11-.02,2.211-.039l.155,0-2.07,4.705-.064,0C44.88,556.517,44.593,556.519,44.31,556.519Zm-.426-.2c.4,0,.806,0,1.212,0l1.893-4.307q-.984.017-1.979.036Z" transform="translate(-43.627 -551.805)"/>
          </g>
          <g id="Grupo_60065" data-name="Grupo 60065" transform="translate(27.214 5.091)">
            <path id="Trazado_125536" data-name="Trazado 125536" d="M41.315,555.152l-.414-.043c-.355-.039-.7-.077-1.036-.116l-.043-.013-4.65-2.908,1.316-.041Zm-1.407-.353c.2.021.4.043.6.066L36.43,552.23l-.6.018Z" transform="translate(-35.171 -552.03)"/>
          </g>
          <g id="Grupo_60066" data-name="Grupo 60066" transform="translate(7.16 1.629)">
            <path id="Trazado_125537" data-name="Trazado 125537" d="M116.533,553.657l-1.879,0c-5.673-1.248-22.173-1.355-35.434-1.442-5.145-.034-10.007-.066-13.418-.162-11.915-.337-36.83,1.237-37.08,1.252h-.011l-.009,0-2.337-.364.414-.125a7.74,7.74,0,0,1,.824-.2,41.568,41.568,0,0,1,5.568-.663l2.437-1.435,12.113,0,4.042.863H93.887l1.5-.865,13.361.009,4.4,2.041a14.727,14.727,0,0,1,3.6.7l.162.055Zm-1.847-.2h1.772l.073-.066a14.2,14.2,0,0,0-3.407-.635l-.039-.009-4.4-2.041H95.442l-1.5.865-42.207,0-4.042-.863H35.664l-2.435,1.435H33.2a39.905,39.905,0,0,0-5.561.658c-.118.023-.239.05-.358.08l1.437.223c.644-.039,25.258-1.585,37.089-1.25,3.409.1,8.269.128,13.414.162C92.484,552.1,108.983,552.209,114.686,553.459Z" transform="translate(-26.365 -550.51)"/>
          </g>
          <g id="Grupo_60067" data-name="Grupo 60067" transform="translate(66.291)">
            <path id="Trazado_125538" data-name="Trazado 125538" d="M54.84,554.892a.7.7,0,0,1-.333-.084.712.712,0,0,1-.339-.421l-.08-.276-.2-.041a.933.933,0,0,1-.708-.663l-.836-2.956a.518.518,0,0,1,.8-.558l.41.3a2.643,2.643,0,0,1,.9,1.164l1.027,2.571a.7.7,0,0,1-.191.793A.692.692,0,0,1,54.84,554.892Zm-1.99-4.9a.324.324,0,0,0-.184.059.311.311,0,0,0-.125.348l.834,2.954a.737.737,0,0,0,.56.524l.312.066.114.387a.477.477,0,0,0,.232.3.488.488,0,0,0,.576-.057.5.5,0,0,0,.139-.572l-1.027-2.571a2.442,2.442,0,0,0-.836-1.075l-.41-.3A.307.307,0,0,0,52.85,549.991Z" transform="translate(-52.33 -549.795)"/>
          </g>
          <g id="Grupo_60069" data-name="Grupo 60069" transform="translate(27.36 32.531)">
            <g id="Grupo_60068" data-name="Grupo 60068">
              <path id="Trazado_125539" data-name="Trazado 125539" d="M70.623,566.222l-.093-.027c-.1-.03-10.273-2.87-35.16-1.007l-.1.007-.036-.469.1-.009c25.135-1.881,35.229,1,35.329,1.025l.1.03Zm-19.465-1.865c12.614,0,18.524,1.412,19.33,1.622l.021-.073c-1.079-.285-11.33-2.765-35.062-1l.007.075C41.546,564.528,46.761,564.357,51.158,564.357Z" transform="translate(-35.235 -564.079)"/>
            </g>
          </g>
          <g id="Grupo_60071" data-name="Grupo 60071" transform="translate(27.36 8.575)">
            <g id="Grupo_60070" data-name="Grupo 60070">
              <path id="Trazado_125540" data-name="Trazado 125540" d="M51.234,555.7c-4.441,0-9.713-.175-15.9-.637l-.1-.007.036-.471.1.007c24.887,1.865,35.06-.977,35.16-1.006l.093-.027.134.453-.1.027C70.587,554.063,64.829,555.7,51.234,555.7Zm-15.787-.829c23.732,1.767,33.983-.713,35.062-1l-.021-.073c-1.086.282-11.46,2.751-35.035,1Z" transform="translate(-35.235 -553.56)"/>
            </g>
          </g>
          <g id="Grupo_60072" data-name="Grupo 60072" transform="translate(60.314 5.466)">
            <path id="Trazado_125541" data-name="Trazado 125541" d="M63.506,584.513a1.527,1.527,0,0,1-.46-.073c-.64-.2-13.12-3.516-13.245-3.55l-.1-.025.025-.1a55.058,55.058,0,0,0,1.157-12.416,55.034,55.034,0,0,0-1.157-12.416l-.025-.1.1-.025c.125-.032,12.605-3.348,13.245-3.548.822-.262,1.651.175,2.532,1.33,3.7,5.092,3.439,14.662,3.434,14.76s.266,9.658-3.432,14.748C64.861,584.049,64.178,584.513,63.506,584.513Zm-13.559-3.789c1.243.33,12.537,3.332,13.159,3.528.733.23,1.489-.182,2.316-1.264,3.657-5.033,3.4-14.536,3.393-14.63s.264-9.606-3.4-14.641c-.824-1.079-1.581-1.492-2.314-1.259-.622.2-11.915,3.2-13.159,3.525a56.832,56.832,0,0,1,1.141,12.371A56.81,56.81,0,0,1,49.946,580.724Z" transform="translate(-49.705 -552.195)"/>
          </g>
          <g id="Grupo_60073" data-name="Grupo 60073" transform="translate(11.368 8.275)">
            <path id="Trazado_125542" data-name="Trazado 125542" d="M31.11,580.13l-.032-.023c-.116-.082-2.865-2.161-2.865-13.33s2.749-13.247,2.865-13.329l.032-.021.036,0,14.543,1.423-.025.109c-.806,3.68-.906,11.735-.906,11.817s.1,8.132.906,11.815l.025.107-.112.011Zm.057-26.5c-.287.248-2.753,2.7-2.753,13.145,0,10.476,2.466,12.9,2.753,13.147l14.281-1.4c-.79-3.746-.888-11.667-.888-11.747s.1-8,.888-11.751Z" transform="translate(-28.213 -553.428)"/>
          </g>
          <g id="Grupo_60076" data-name="Grupo 60076" transform="translate(98.107 31.417)">
            <g id="Grupo_60074" data-name="Grupo 60074" transform="translate(1.364)">
              <path id="Trazado_125543" data-name="Trazado 125543" d="M67.25,566.079a1.019,1.019,0,0,1-.23-.027l-.121-.027.055-.114c.417-.841.729-1.592.918-2.075a.853.853,0,0,1,.039-.08L68,563.59l.1.116a1.541,1.541,0,0,1,.337.977A1.3,1.3,0,0,1,67.25,566.079Zm-.059-.2.059,0a1.107,1.107,0,0,0,.982-1.2,1.374,1.374,0,0,0-.2-.72C67.853,564.426,67.566,565.111,67.191,565.879Z" transform="translate(-66.899 -563.59)"/>
            </g>
            <g id="Grupo_60075" data-name="Grupo 60075" transform="translate(0 3.27)">
              <path id="Trazado_125544" data-name="Trazado 125544" d="M66.728,566.659a.61.61,0,0,1-.344-.112l-.084-.055.059-.084c.262-.376.524-.793.779-1.237l.082-.146.087.141a1.059,1.059,0,0,1,.159.567A.848.848,0,0,1,66.728,566.659Zm-.143-.228a.36.36,0,0,0,.143.03c.3,0,.54-.326.54-.727a.9.9,0,0,0-.052-.3C67.008,565.787,66.8,566.121,66.585,566.431Z" transform="translate(-66.3 -565.026)"/>
            </g>
          </g>
          <g id="Grupo_60079" data-name="Grupo 60079" transform="translate(98.107 6.929)">
            <g id="Grupo_60077" data-name="Grupo 60077" transform="translate(1.364 2.414)">
              <path id="Trazado_125545" data-name="Trazado 125545" d="M68,556.386l-.089-.166a.848.848,0,0,1-.039-.077c-.189-.483-.5-1.237-.918-2.077l-.055-.114.121-.027a1.024,1.024,0,0,1,.23-.027,1.3,1.3,0,0,1,1.182,1.4,1.537,1.537,0,0,1-.337.977Zm-.808-2.289c.376.768.663,1.453.845,1.915a1.369,1.369,0,0,0,.2-.72,1.107,1.107,0,0,0-.982-1.2Z" transform="translate(-66.899 -553.897)"/>
            </g>
            <g id="Grupo_60078" data-name="Grupo 60078">
              <path id="Trazado_125546" data-name="Trazado 125546" d="M67.22,554.47l-.082-.146c-.255-.444-.517-.861-.779-1.236L66.3,553l.084-.055a.616.616,0,0,1,.344-.112.847.847,0,0,1,.738.925,1.059,1.059,0,0,1-.159.567Zm-.635-1.405c.212.31.424.645.631,1a.9.9,0,0,0,.052-.3c0-.4-.241-.727-.54-.727A.409.409,0,0,0,66.585,553.065Z" transform="translate(-66.3 -552.837)"/>
            </g>
          </g>
        </g>
        <line id="Línea_663" data-name="Línea 663" x2="82.546" transform="translate(11.52 179.752)" fill="none" stroke="#000" stroke-miterlimit="10" stroke-width="0.75"/>
        <g id="Grupo_60081" data-name="Grupo 60081" transform="translate(0 172.606)">
          <path id="Trazado_125547" data-name="Trazado 125547" d="M40.16,552.956l-3.036-7.146,3.036-7.146L23.221,545.81Z" transform="translate(-23.221 -538.664)"/>
        </g>
        <g id="Grupo_60082" data-name="Grupo 60082" transform="translate(88.646 172.606)">
          <path id="Trazado_125548" data-name="Trazado 125548" d="M62.146,552.956l3.036-7.146-3.036-7.146,16.939,7.146Z" transform="translate(-62.146 -538.664)"/>
        </g>
        <line id="Línea_664" data-name="Línea 664" x2="223.553" transform="translate(308.889 13.629)" fill="none" stroke="#000" stroke-miterlimit="10" stroke-width="0.75"/>
        <line id="Línea_665" data-name="Línea 665" x2="236.801" transform="translate(568.702 13.629)" fill="none" stroke="#000" stroke-miterlimit="10" stroke-width="0.75"/>
        <line id="Línea_666" data-name="Línea 666" y2="289.62" transform="translate(815.57)" fill="none" stroke="#000" stroke-miterlimit="10" stroke-width="0.75"/>
        <line id="Línea_667" data-name="Línea 667" y2="289.62" transform="translate(306.37)" fill="none" stroke="#000" stroke-miterlimit="10" stroke-width="0.75"/>
        <line id="Línea_668" data-name="Línea 668" y2="64.518" transform="translate(105.585 176.489)" fill="none" stroke="#000" stroke-miterlimit="10" stroke-width="0.75"/>
        <line id="Línea_669" data-name="Línea 669" y2="64.518" transform="translate(0 176.489)" fill="none" stroke="#000" stroke-miterlimit="10" stroke-width="0.75"/>
        <g id="Grupo_60083" data-name="Grupo 60083" transform="translate(306.37 6.483)">
          <path id="Trazado_125549" data-name="Trazado 125549" d="M174.688,480.011l-3.036-7.146,3.036-7.146-16.939,7.146Z" transform="translate(-157.749 -465.719)"/>
        </g>
        <g id="Grupo_60084" data-name="Grupo 60084" transform="translate(796.474 6.483)">
          <path id="Trazado_125550" data-name="Trazado 125550" d="M372.955,480.011l3.036-7.146-3.036-7.146,16.94,7.146Z" transform="translate(-372.955 -465.719)"/>
        </g>
        <path id="Trazado_125624" data-name="Trazado 125624" d="M8.43-4.7a5.762,5.762,0,0,1-.977,3.609A3.409,3.409,0,0,1,4.594.156,3.433,3.433,0,0,1,1.75-1.07,5.594,5.594,0,0,1,.742-4.586V-6.68A5.687,5.687,0,0,1,1.73-10.3a3.434,3.434,0,0,1,2.848-1.234,3.437,3.437,0,0,1,2.844,1.223A5.576,5.576,0,0,1,8.43-6.8Zm-2.258-2.3a4.165,4.165,0,0,0-.387-2.061,1.307,1.307,0,0,0-1.207-.645A1.284,1.284,0,0,0,3.4-9.1,3.9,3.9,0,0,0,3-7.177v2.768a4.372,4.372,0,0,0,.379,2.068,1.29,1.29,0,0,0,1.215.676,1.268,1.268,0,0,0,1.2-.649A4.268,4.268,0,0,0,6.172-4.3Zm3.992,5.9a1.137,1.137,0,0,1,.363-.875,1.289,1.289,0,0,1,.91-.336,1.3,1.3,0,0,1,.918.336,1.137,1.137,0,0,1,.363.875,1.121,1.121,0,0,1-.359.863,1.305,1.305,0,0,1-.922.332,1.294,1.294,0,0,1-.914-.332A1.121,1.121,0,0,1,10.164-1.109ZM22.258-4.7a5.763,5.763,0,0,1-.977,3.609A3.409,3.409,0,0,1,18.422.156,3.433,3.433,0,0,1,15.578-1.07,5.594,5.594,0,0,1,14.57-4.586V-6.68a5.687,5.687,0,0,1,.988-3.617,3.434,3.434,0,0,1,2.848-1.234,3.437,3.437,0,0,1,2.844,1.223A5.576,5.576,0,0,1,22.258-6.8ZM20-7.005a4.165,4.165,0,0,0-.387-2.061,1.307,1.307,0,0,0-1.207-.645A1.284,1.284,0,0,0,17.23-9.1a3.9,3.9,0,0,0-.4,1.92v2.768a4.373,4.373,0,0,0,.379,2.068,1.29,1.29,0,0,0,1.215.676,1.268,1.268,0,0,0,1.2-.649A4.268,4.268,0,0,0,20-4.3ZM31.438-4.7a5.763,5.763,0,0,1-.977,3.609A3.409,3.409,0,0,1,27.6.156,3.433,3.433,0,0,1,24.758-1.07,5.594,5.594,0,0,1,23.75-4.586V-6.68a5.687,5.687,0,0,1,.988-3.617,3.434,3.434,0,0,1,2.848-1.234,3.437,3.437,0,0,1,2.844,1.223A5.576,5.576,0,0,1,31.438-6.8Zm-2.258-2.3a4.165,4.165,0,0,0-.387-2.061,1.307,1.307,0,0,0-1.207-.645A1.284,1.284,0,0,0,26.41-9.1a3.9,3.9,0,0,0-.4,1.92v2.768a4.373,4.373,0,0,0,.379,2.068,1.29,1.29,0,0,0,1.215.676,1.268,1.268,0,0,0,1.2-.649A4.268,4.268,0,0,0,29.18-4.3ZM40.617-4.7a5.762,5.762,0,0,1-.977,3.609A3.409,3.409,0,0,1,36.781.156,3.433,3.433,0,0,1,33.938-1.07,5.594,5.594,0,0,1,32.93-4.586V-6.68a5.687,5.687,0,0,1,.988-3.617,3.434,3.434,0,0,1,2.848-1.234,3.437,3.437,0,0,1,2.844,1.223A5.576,5.576,0,0,1,40.617-6.8Zm-2.258-2.3a4.165,4.165,0,0,0-.387-2.061,1.307,1.307,0,0,0-1.207-.645A1.284,1.284,0,0,0,35.59-9.1a3.9,3.9,0,0,0-.4,1.92v2.768a4.372,4.372,0,0,0,.379,2.068,1.29,1.29,0,0,0,1.215.676,1.268,1.268,0,0,0,1.2-.649A4.268,4.268,0,0,0,38.359-4.3Zm6.078.318h1.2a1.7,1.7,0,0,0,1.273-.43,1.574,1.574,0,0,0,.414-1.141,1.392,1.392,0,0,0-.41-1.07,1.59,1.59,0,0,0-1.129-.383,1.666,1.666,0,0,0-1.086.355,1.137,1.137,0,0,0-.437.926H42.008a2.777,2.777,0,0,1,.48-1.6,3.2,3.2,0,0,1,1.344-1.105,4.485,4.485,0,0,1,1.9-.4,4.253,4.253,0,0,1,2.828.863,2.945,2.945,0,0,1,1.023,2.379,2.394,2.394,0,0,1-.477,1.438,3.1,3.1,0,0,1-1.25,1.008,2.826,2.826,0,0,1,1.434,1.031,2.8,2.8,0,0,1,.473,1.625A2.994,2.994,0,0,1,48.66-.758a4.445,4.445,0,0,1-2.926.914,4.214,4.214,0,0,1-2.785-.9,2.934,2.934,0,0,1-1.082-2.375h2.258a1.308,1.308,0,0,0,.48,1.047,1.771,1.771,0,0,0,1.184.406,1.779,1.779,0,0,0,1.262-.426,1.47,1.47,0,0,0,.457-1.129q0-1.7-1.875-1.7h-1.2ZM58.977-4.7A5.762,5.762,0,0,1,58-1.094,3.409,3.409,0,0,1,55.141.156,3.433,3.433,0,0,1,52.3-1.07a5.594,5.594,0,0,1-1.008-3.516V-6.68a5.687,5.687,0,0,1,.988-3.617,3.434,3.434,0,0,1,2.848-1.234,3.437,3.437,0,0,1,2.844,1.223A5.576,5.576,0,0,1,58.977-6.8Zm-2.258-2.3a4.165,4.165,0,0,0-.387-2.061,1.307,1.307,0,0,0-1.207-.645,1.284,1.284,0,0,0-1.176.614,3.9,3.9,0,0,0-.4,1.92v2.768a4.372,4.372,0,0,0,.379,2.068,1.29,1.29,0,0,0,1.215.676,1.268,1.268,0,0,0,1.2-.649A4.268,4.268,0,0,0,56.719-4.3ZM67.18-4.281h1.289v1.82H67.18V0H64.922V-2.461H60.258l-.1-1.422L64.9-11.375H67.18Zm-4.773,0h2.516V-8.3l-.148.258Zm14.688-4.07a2.646,2.646,0,0,1-.414,1.469,2.98,2.98,0,0,1-1.141,1.023,3.3,3.3,0,0,1,1.313,1.1,2.816,2.816,0,0,1,.484,1.645A2.981,2.981,0,0,1,76.3-.723a4.183,4.183,0,0,1-2.8.879,4.2,4.2,0,0,1-2.812-.883,2.974,2.974,0,0,1-1.039-2.391,2.834,2.834,0,0,1,.484-1.648,3.239,3.239,0,0,1,1.3-1.094A2.95,2.95,0,0,1,70.3-6.883a2.664,2.664,0,0,1-.41-1.469,2.948,2.948,0,0,1,.969-2.316,3.814,3.814,0,0,1,2.633-.863,3.839,3.839,0,0,1,2.629.855A2.937,2.937,0,0,1,77.094-8.352ZM75.07-3.281a1.638,1.638,0,0,0-.43-1.187,1.532,1.532,0,0,0-1.156-.445,1.529,1.529,0,0,0-1.148.441,1.635,1.635,0,0,0-.43,1.191,1.634,1.634,0,0,0,.422,1.172,1.537,1.537,0,0,0,1.172.445,1.533,1.533,0,0,0,1.152-.43A1.631,1.631,0,0,0,75.07-3.281Zm-.234-4.961a1.563,1.563,0,0,0-.352-1.066,1.247,1.247,0,0,0-.992-.4,1.256,1.256,0,0,0-.984.391,1.553,1.553,0,0,0-.352,1.078,1.633,1.633,0,0,0,.352,1.094,1.23,1.23,0,0,0,.992.414,1.219,1.219,0,0,0,.988-.414A1.645,1.645,0,0,0,74.836-8.242Z" transform="translate(114.873 183.637)" fill="#12263f"/>
      </g>
      <path id="Trazado_125625" data-name="Trazado 125625" d="M-3.134-13.793H-.653a3.5,3.5,0,0,0,2.626-.886,3.247,3.247,0,0,0,.854-2.353,2.871,2.871,0,0,0-.846-2.208,3.278,3.278,0,0,0-2.328-.79,3.436,3.436,0,0,0-2.24.733,2.344,2.344,0,0,0-.9,1.909H-8.145a5.727,5.727,0,0,1,.991-3.3,6.6,6.6,0,0,1,2.771-2.28,9.25,9.25,0,0,1,3.924-.822A8.772,8.772,0,0,1,5.374-22,6.075,6.075,0,0,1,7.485-17.1,4.937,4.937,0,0,1,6.5-14.131a6.386,6.386,0,0,1-2.578,2.079A5.829,5.829,0,0,1,6.88-9.926a5.77,5.77,0,0,1,.975,3.352,6.176,6.176,0,0,1-2.28,5.011A9.167,9.167,0,0,1-.459.322,8.692,8.692,0,0,1-6.2-1.531a6.052,6.052,0,0,1-2.232-4.9h4.657A2.7,2.7,0,0,0-2.788-4.27a3.652,3.652,0,0,0,2.441.838,3.669,3.669,0,0,0,2.6-.878A3.031,3.031,0,0,0,3.2-6.639q0-3.513-3.867-3.513H-3.134Z" transform="translate(571.115 488.516)" fill="#12263f"/>
    </g>
  </g>
</svg>
