<svg xmlns="http://www.w3.org/2000/svg" width="134" height="134" viewBox="0 0 134 134">
  <g id="Grupo_57252" data-name="Grupo 57252" transform="translate(-1153 -1255)">
    <rect id="Rectángulo_5958" data-name="Rectángulo 5958" width="134" height="134" transform="translate(1153 1255)" fill="none"/>
    <g id="Grupo_57249" data-name="Grupo 57249" transform="translate(1161 1260)">
      <g id="Trazado_121049" data-name="Trazado 121049" transform="translate(-1735.829 -837.509)" fill="#fff" stroke-miterlimit="10">
        <path d="M 1790.277587890625 960.5215454101562 L 1790.277587890625 907.7635498046875 L 1843.2265625 873.5133666992188 L 1843.2265625 926.2713623046875 L 1790.277587890625 960.5215454101562 Z" stroke="none"/>
        <path d="M 1790.777587890625 959.6026000976562 L 1842.7265625 925.999267578125 L 1842.7265625 874.4323120117188 L 1790.777587890625 908.03564453125 L 1790.777587890625 959.6026000976562 M 1789.777587890625 961.4404296875 L 1789.777587890625 907.4915161132812 L 1843.7265625 872.594482421875 L 1843.7265625 926.5433959960938 L 1789.777587890625 961.4404296875 Z" stroke="none" fill="#000"/>
      </g>
      <g id="Trazado_121050" data-name="Trazado 121050" transform="translate(-1723.137 -837.509)" fill="#fff" stroke-miterlimit="10">
        <path d="M 1776.5859375 960.5215454101562 L 1723.636962890625 926.2713623046875 L 1723.636962890625 873.5133666992188 L 1776.5859375 907.7635498046875 L 1776.5859375 960.5215454101562 Z" stroke="none"/>
        <path d="M 1776.0859375 959.6026000976562 L 1776.0859375 908.03564453125 L 1724.136962890625 874.4323120117188 L 1724.136962890625 925.999267578125 L 1776.0859375 959.6026000976562 M 1777.0859375 961.4404296875 L 1723.136962890625 926.5433959960938 L 1723.136962890625 872.594482421875 L 1777.0859375 907.4915161132812 L 1777.0859375 961.4404296875 Z" stroke="none" fill="#000"/>
      </g>
      <g id="Trazado_121051" data-name="Trazado 121051" transform="translate(-1723.137 -829.255)" fill="#fff" stroke-miterlimit="10">
        <path d="M 1777.0859375 898.6420288085938 L 1724.055786132812 864.3392944335938 L 1777.0859375 829.8511962890625 L 1830.116088867188 864.3392944335938 L 1777.0859375 898.6420288085938 Z" stroke="none"/>
        <path d="M 1777.0859375 830.4476318359375 L 1724.974609375 864.3381958007812 L 1777.0859375 898.0465087890625 L 1829.197265625 864.3381958007812 L 1777.0859375 830.4476318359375 M 1777.0859375 829.2547607421875 L 1831.034912109375 864.3404541015625 L 1777.0859375 899.2374877929688 L 1723.136962890625 864.3404541015625 L 1777.0859375 829.2547607421875 Z" stroke="none" fill="#000"/>
      </g>
      <line id="Línea_230" data-name="Línea 230" x1="78.693" y2="46.442" transform="translate(39.58 56.386)" fill="#fff" stroke="#000" stroke-miterlimit="10" stroke-width="3"/>
      <line id="Línea_231" data-name="Línea 231" y2="82.511" transform="translate(80.923 34.991)" fill="#fff" stroke="#000" stroke-miterlimit="10" stroke-width="3"/>
    </g>
  </g>
</svg>
