<svg id="Grupo_55996" data-name="Grupo 55996" xmlns="http://www.w3.org/2000/svg" xmlns:xlink="http://www.w3.org/1999/xlink" width="312" height="182" viewBox="0 0 312 182">
  <defs>
    <clipPath id="clip-path">
      <rect id="Rect치ngulo_5790" data-name="Rect치ngulo 5790" width="312" height="182" rx="25" fill="none" opacity="0.4"/>
    </clipPath>
  </defs>
  <rect id="Rect치ngulo_5791" data-name="Rect치ngulo 5791" width="312" height="182" rx="25" fill="none" opacity="0.4"/>
  <g id="Grupo_9" data-name="Grupo 9" clip-path="url(#clip-path)">
    <g id="Grupo_59475" data-name="Grupo 59475" transform="translate(18 37.411)">
      <g id="Grupo_59478" data-name="Grupo 59478" transform="translate(0 45.583)">
        <path id="Trazado_124803" data-name="Trazado 124803" d="M481.668,279.785h99.505a.666.666,0,0,0,.681-.649V226.2a.682.682,0,0,0-1.363,0v52.288H481.668a.65.65,0,1,0,0,1.3Z" transform="translate(-478.805 -222.887)" fill="#fff"/>
        <path id="Trazado_124804" data-name="Trazado 124804" d="M481.771,269.907a.241.241,0,0,1,.036,0h30.619a.927.927,0,0,0,.771-.405.834.834,0,0,0,.047-.838l-15.49-30.308a.914.914,0,0,0-.818-.487.875.875,0,0,0-.82.494l-15.032,30.114a.834.834,0,0,0-.222.565A.886.886,0,0,0,481.771,269.907Zm29.2-1.73H483.244l13.7-27.448Z" transform="translate(-410.056 -212.82)" fill="#fff"/>
        <path id="Trazado_124805" data-name="Trazado 124805" d="M481.365,230.8a.24.24,0,0,1,.036,0h1.474a.924.924,0,0,0,.687-.3.833.833,0,0,0,.213-.689l-.745-4.981a.893.893,0,0,0-.9-.743h0a.893.893,0,0,0-.9.745l-.694,4.747a.824.824,0,0,0-.08.354A.888.888,0,0,0,481.365,230.8Z" transform="translate(-379.77 -224.085)" fill="#fff"/>
        <path id="Trazado_124806" data-name="Trazado 124806" d="M539.194,257.8a.934.934,0,0,0,.542-.171.854.854,0,0,0,.367-.694v-2.077a.854.854,0,0,0-.369-.7.948.948,0,0,0-.81-.129l-3.538,1.05a.854.854,0,0,0,.007,1.654l3.538,1.025A.926.926,0,0,0,539.194,257.8Z" transform="translate(-534.747 -199.645)" fill="#fff"/>
        <path id="Trazado_124807" data-name="Trazado 124807" d="M499.352,265.957a.249.249,0,0,1,.036,0h30.617a.919.919,0,0,0,.805-.462.831.831,0,0,0-.055-.892l-15.488-21.522a.925.925,0,0,0-.751-.378h-.005a.925.925,0,0,0-.75.383l-15.011,21.356a.844.844,0,0,0-.307.649A.886.886,0,0,0,499.352,265.957Zm28.931-1.73H501.089l13.437-19.116Z" transform="translate(-459.587 -208.869)" fill="#fff"/>
        <path id="Trazado_124808" data-name="Trazado 124808" d="M517.025,262.006a.244.244,0,0,1,.036,0H547.68a.906.906,0,0,0,.851-.563.837.837,0,0,0-.258-.956l-15.488-12.737a.94.94,0,0,0-1.2.005L516.6,260.379a.856.856,0,0,0-.48.761A.888.888,0,0,0,517.025,262.006Zm28.213-1.73H519.46L532.2,249.552Z" transform="translate(-509.377 -204.918)" fill="#fff"/>
        <g id="Grupo_59475-2" data-name="Grupo 59475" transform="translate(86.27 14.697)">
          <path id="Trazado_124809" data-name="Trazado 124809" d="M487.065,235.07h5.612a.65.65,0,1,1,0,1.3h-4.93v5.166a.682.682,0,0,1-1.363,0v-5.815A.666.666,0,0,1,487.065,235.07Z" transform="translate(-486.383 -229.804)" fill="#fff"/>
          <path id="Trazado_124810" data-name="Trazado 124810" d="M488.482,234.315l-.685-2.142h.672l.357,1.245.085.473.08-.473.374-1.245h.6l-.706,2.1.742,2.26h-.65l-.415-1.34-.094-.485-.087.485-.417,1.34h-.614Z" transform="translate(-485.468 -232.172)" fill="#fff"/>
        </g>
        <g id="Grupo_59476" data-name="Grupo 59476" transform="translate(48.679 18.936)">
          <path id="Trazado_124811" data-name="Trazado 124811" d="M507.749,237.4h5.614a.666.666,0,0,1,.682.649v9.886a.682.682,0,0,1-1.363,0V238.7h-4.932a.65.65,0,1,1,0-1.3Z" transform="translate(-507.068 -232.137)" fill="#fff"/>
          <path id="Trazado_124812" data-name="Trazado 124812" d="M508.924,234.5l.421,1.637.048.486h.023l.043-.475.43-1.649h.664l-.832,2.74v1.618h-.557v-1.625l-.836-2.733Z" transform="translate(-505.86 -234.505)" fill="#fff"/>
        </g>
        <g id="Grupo_59477" data-name="Grupo 59477" transform="translate(17.004 27.864)">
          <path id="Trazado_124813" data-name="Trazado 124813" d="M531.168,242.316v10.535H529.8v-9.238h-4.931v-1.3Z" transform="translate(-524.874 -237.05)" fill="#fff"/>
          <path id="Trazado_124814" data-name="Trazado 124814" d="M528.022,240.139v-.721h-1.783v.721h1.221l-.186.255-1.034,2.659v.723h1.783v-.723H526.8l.181-.237Z" transform="translate(-524.208 -239.418)" fill="#fff"/>
        </g>
      </g>
      <g id="Grupo_59482" data-name="Grupo 59482" transform="translate(88.411 0)">
        <g id="Grupo_59479" data-name="Grupo 59479" transform="translate(0)">
          <path id="Trazado_124815" data-name="Trazado 124815" d="M483.248,204.105a1.352,1.352,0,0,1-.963-.4,7.823,7.823,0,0,0-2.531-1.7,1.36,1.36,0,0,1,1.05-2.51,10.522,10.522,0,0,1,3.407,2.288,1.361,1.361,0,0,1-.963,2.322Z" transform="translate(-466.209 -198.684)"/>
          <path id="Trazado_124816" data-name="Trazado 124816" d="M488.665,205.315a1.36,1.36,0,0,1-1.254.836,1.329,1.329,0,0,1-.525-.105,1.361,1.361,0,0,1-.731-1.781,10.47,10.47,0,0,1,2.3-3.406,1.362,1.362,0,0,1,1.917,1.935A7.774,7.774,0,0,0,488.665,205.315Z" transform="translate(-485.334 -197.804)"/>
          <path id="Trazado_124817" data-name="Trazado 124817" d="M487.329,201.723a7.786,7.786,0,0,0-2.966.582,1.325,1.325,0,0,1-.516.1,1.36,1.36,0,0,1-.516-2.619,10.459,10.459,0,0,1,4-.787h.029a1.348,1.348,0,0,1,1.347,1.361A1.372,1.372,0,0,1,487.329,201.723Z" transform="translate(-476.789 -199.001)"/>
          <path id="Trazado_124818" data-name="Trazado 124818" d="M478.139,206.989a7.757,7.757,0,0,0-.592-2.986,1.362,1.362,0,0,1,2.517-1.041,10.494,10.494,0,0,1,.8,4.027v.105A1.316,1.316,0,0,1,479.5,208.4,1.406,1.406,0,0,1,478.139,206.989Z" transform="translate(-459.781 -196.449)"/>
          <path id="Trazado_124819" data-name="Trazado 124819" d="M479.975,206.862a1.36,1.36,0,1,1,2.5,1.069,10.476,10.476,0,0,1-2.317,3.387,1.36,1.36,0,1,1-1.9-1.941A7.828,7.828,0,0,0,479.975,206.862Z" transform="translate(-462.244 -193.253)"/>
          <path id="Trazado_124820" data-name="Trazado 124820" d="M488.535,204.038a1.382,1.382,0,0,1,1.361,1.387,7.791,7.791,0,0,0,.574,2.946,1.361,1.361,0,0,1-.749,1.774,1.335,1.335,0,0,1-.512.1,1.359,1.359,0,0,1-1.259-.849,10.494,10.494,0,0,1-.776-3.973v-.053A1.337,1.337,0,0,1,488.535,204.038Z" transform="translate(-487.174 -194.885)"/>
          <path id="Trazado_124821" data-name="Trazado 124821" d="M486.793,208a7.847,7.847,0,0,0,2.521,1.712,1.362,1.362,0,0,1-.533,2.615,1.389,1.389,0,0,1-.532-.109,10.536,10.536,0,0,1-3.393-2.308,1.36,1.36,0,1,1,1.937-1.91Z" transform="translate(-481.821 -191.974)"/>
          <path id="Trazado_124822" data-name="Trazado 124822" d="M482,209.4a7.723,7.723,0,0,0,2.926-.567,1.361,1.361,0,0,1,1.019,2.524,10.487,10.487,0,0,1-3.945.765h-.078a1.328,1.328,0,0,1-1.323-1.361A1.4,1.4,0,0,1,482,209.4Z" transform="translate(-471.464 -191.045)"/>
        </g>
        <g id="Grupo_59480" data-name="Grupo 59480" transform="translate(135.658 43.249)">
          <path id="Trazado_124823" data-name="Trazado 124823" d="M398.359,222.8h4.127a1.361,1.361,0,1,1,0,2.722h-4.127a1.361,1.361,0,1,1,0-2.722Z" transform="translate(-372.236 -222.8)" fill="#fff"/>
          <path id="Trazado_124824" data-name="Trazado 124824" d="M402.9,222.8h4.127a1.361,1.361,0,1,1,0,2.722H402.9a1.361,1.361,0,0,1,0-2.722Z" transform="translate(-385.032 -222.8)" fill="#fff"/>
          <path id="Trazado_124825" data-name="Trazado 124825" d="M407.443,222.8h4.127a1.361,1.361,0,0,1,0,2.722h-4.127a1.361,1.361,0,1,1,0-2.722Z" transform="translate(-397.828 -222.8)" fill="#fff"/>
          <path id="Trazado_124826" data-name="Trazado 124826" d="M411.985,222.8h4.127a1.361,1.361,0,0,1,0,2.722h-4.127a1.361,1.361,0,0,1,0-2.722Z" transform="translate(-410.624 -222.8)" fill="#fff"/>
        </g>
        <g id="Grupo_59481" data-name="Grupo 59481" transform="translate(68.524 -5.09)">
          <path id="Trazado_124827" data-name="Trazado 124827" d="M441.255,203.3h4.127a1.361,1.361,0,0,1,0,2.722h-4.127a1.361,1.361,0,0,1,0-2.722Z" transform="translate(-425.951 -196.85)"/>
          <path id="Trazado_124828" data-name="Trazado 124828" d="M436.713,203.3h4.127a1.361,1.361,0,1,1,0,2.722h-4.127a1.361,1.361,0,1,1,0-2.722Z" transform="translate(-413.155 -196.85)"/>
          <path id="Trazado_124829" data-name="Trazado 124829" d="M444.436,204.664A1.36,1.36,0,0,1,445.8,203.3h4.127a1.361,1.361,0,1,1,0,2.722H445.8A1.36,1.36,0,0,1,444.436,204.664Z" transform="translate(-438.747 -196.85)"/>
          <path id="Trazado_124830" data-name="Trazado 124830" d="M432.171,203.3H436.3a1.361,1.361,0,0,1,0,2.722h-4.127a1.361,1.361,0,1,1,0-2.722Z" transform="translate(-400.359 -196.85)"/>
          <path id="Trazado_124831" data-name="Trazado 124831" d="M448.725,202.331l-2.646,1.323a1.346,1.346,0,0,1-.607.144,1.361,1.361,0,0,1-.611-2.579l2.646-1.323a1.361,1.361,0,0,1,1.218,2.435Z" transform="translate(-436.347 -199.752)"/>
          <path id="Trazado_124832" data-name="Trazado 124832" d="M447.766,205.959a1.367,1.367,0,0,1,.451-.485,1.314,1.314,0,0,1-.095-.164,1.36,1.36,0,0,1,.609-1.826l3.691-1.844a1.361,1.361,0,0,1,1.218,2.435l-3.393,1.7,2.982,1.645a1.362,1.362,0,0,1-.658,2.555,1.383,1.383,0,0,1-.656-.169l-3.613-1.994A1.363,1.363,0,0,1,447.766,205.959Z" transform="translate(-447.597 -198.326)"/>
          <path id="Trazado_124833" data-name="Trazado 124833" d="M445.889,205.927l3.615,1.994a1.361,1.361,0,0,1-1.314,2.384l-3.613-1.992a1.362,1.362,0,0,1,1.312-2.386Z" transform="translate(-436.645 -194.843)"/>
        </g>
      </g>
      <g id="Grupo_59483" data-name="Grupo 59483" transform="translate(110.565 2.237)">
        <path id="Trazado_124834" data-name="Trazado 124834" d="M448.316,232.364a3.2,3.2,0,1,1,3.2-3.2A3.2,3.2,0,0,1,448.316,232.364Z" transform="translate(-393.84 -179.207)" fill="#8aa8ba"/>
        <path id="Trazado_124835" data-name="Trazado 124835" d="M472.688,237.306h-2.951a4.459,4.459,0,0,0-4,2.591,11.2,11.2,0,0,1-1.359,2.2,4.455,4.455,0,0,0-.422,5l1.412,2.448a1.719,1.719,0,0,1-.629,2.344,1.751,1.751,0,0,1-2.342-.627l-1.577-2.733a4.5,4.5,0,0,0-4.336-2.172,11.262,11.262,0,0,1-2.41-.055,4.451,4.451,0,0,0-4.449,2.146l-1.5,2.593a1.766,1.766,0,0,1-2.346.629,1.72,1.72,0,0,1-.627-2.344l1.576-2.73a4.468,4.468,0,0,0-.3-4.843,11.192,11.192,0,0,1-1.218-2.148,4.46,4.46,0,0,0-4.072-2.746h-2.931a1.715,1.715,0,1,1,0-3.431h2.935a4.443,4.443,0,0,0,4.063-2.73,11.2,11.2,0,0,1,1.328-2.3,4.457,4.457,0,0,0,.338-4.9l-1.341-2.324a1.714,1.714,0,0,1,.627-2.344,1.757,1.757,0,0,1,2.344.627l1.354,2.344a4.388,4.388,0,0,0,4.409,2.153,11.266,11.266,0,0,1,2.8.031,4.44,4.44,0,0,0,4.458-2.144l1.25-2.164a1.762,1.762,0,0,1,2.344-.629,1.72,1.72,0,0,1,.627,2.344l-1.358,2.352a4.451,4.451,0,0,0,.28,4.816A11.228,11.228,0,0,1,466,231.018a4.432,4.432,0,0,0,4.114,2.857h2.57a1.716,1.716,0,1,1,0,3.431Zm-17.151-8.052a5.9,5.9,0,1,0,5.9,5.9A5.906,5.906,0,0,0,455.537,229.254Z" transform="translate(-401.061 -185.198)" fill="#fff"/>
        <path id="Trazado_124836" data-name="Trazado 124836" d="M418.592,214.248a1.329,1.329,0,0,0-.447-.949,6.365,6.365,0,0,1,6.259-5.179h79.614v69.857a1.348,1.348,0,0,0,1.347,1.348h9.622a9.352,9.352,0,0,1,9.352,9.332,1.324,1.324,0,0,0,.492,1.018,6.407,6.407,0,0,1-6.342,5.564H438.894V224.69a1.348,1.348,0,0,0-1.348-1.348h-9.621A9.378,9.378,0,0,1,418.592,214.248Zm71.18,25.52H487.2a1.748,1.748,0,0,1-1.608-1.152,13.915,13.915,0,0,0-1.657-3.028,1.73,1.73,0,0,1-.133-1.894l1.357-2.352a4.418,4.418,0,0,0-1.614-6.024,4.528,4.528,0,0,0-6.026,1.616l-1.248,2.164a1.724,1.724,0,0,1-1.759.821,13.856,13.856,0,0,0-3.48-.035,1.773,1.773,0,0,1-1.761-.827l-1.352-2.344A4.53,4.53,0,0,0,461.9,225.1a4.409,4.409,0,0,0-1.612,6.024l1.341,2.324a1.743,1.743,0,0,1-.164,1.937,13.887,13.887,0,0,0-1.645,2.846,1.754,1.754,0,0,1-1.588,1.1h-2.935a4.411,4.411,0,0,0,0,8.823h2.931a1.748,1.748,0,0,1,1.6,1.114,14.027,14.027,0,0,0,1.508,2.664,1.749,1.749,0,0,1,.149,1.917l-1.576,2.729a4.419,4.419,0,0,0,1.614,6.024,4.525,4.525,0,0,0,6.024-1.616l1.5-2.591a1.743,1.743,0,0,1,1.761-.823,14.3,14.3,0,0,0,3,.067l.2-.009a1.763,1.763,0,0,1,1.565.845l1.576,2.731a4.41,4.41,0,1,0,7.638-4.41l-1.412-2.446a1.779,1.779,0,0,1,.2-1.992,13.788,13.788,0,0,0,1.685-2.731,1.73,1.73,0,0,1,1.563-1.036h2.951a4.41,4.41,0,0,0,0-8.821Zm-41.958,27.146,6.262,7.349a1.348,1.348,0,0,0,2.052-1.748l-1.238-1.452h37.3l2.728,3.2a1.347,1.347,0,0,0,1.027.474,1.329,1.329,0,0,0,.872-.323,1.347,1.347,0,0,0,.153-1.9l-2.811-3.3V253.39a1.347,1.347,0,1,0-2.693,0v12.668l-.76-.892a1.348,1.348,0,0,0-2.052,1.748l1.239,1.452h-36.57V253.357a1.347,1.347,0,1,0-2.693,0v12.7l-.76-.89a1.348,1.348,0,0,0-2.052,1.748Z" transform="translate(-418.145 -193.786)" fill="#8aa8ba"/>
        <path id="Trazado_124837" data-name="Trazado 124837" d="M426.692,283.077h-8.276V200.232h8.276a9.361,9.361,0,0,1,9.352,9.352v77.947A12.039,12.039,0,0,0,426.692,283.077Z" transform="translate(-329.85 -200.232)" fill="#5f7380"/>
        <path id="Trazado_124838" data-name="Trazado 124838" d="M476.27,220h8.274v82.827H476.27a9.354,9.354,0,0,1-9.353-9.333V215.506A12.06,12.06,0,0,0,476.27,220Z" transform="translate(-466.49 -187.749)" fill="#5f7380"/>
      </g>
      <g id="Grupo_59487" data-name="Grupo 59487" transform="translate(136.434 92.69)">
        <circle id="Elipse_4593" data-name="Elipse 4593" cx="12.314" cy="12.314" r="12.314" transform="translate(19.243)" fill="#ffa326"/>
        <g id="Grupo_59484" data-name="Grupo 59484" transform="translate(85.465 6.96)">
          <path id="Trazado_124839" data-name="Trazado 124839" d="M409.792,258.941a1.352,1.352,0,0,1-.963-.4,7.851,7.851,0,0,0-2.531-1.7,1.36,1.36,0,1,1,1.05-2.51,10.522,10.522,0,0,1,3.407,2.288,1.361,1.361,0,0,1-.963,2.322Z" transform="translate(-392.751 -253.52)"/>
          <path id="Trazado_124840" data-name="Trazado 124840" d="M404.681,261.825a7.772,7.772,0,0,0-.591-2.988,1.362,1.362,0,1,1,2.517-1.039,10.55,10.55,0,0,1,.8,4.092l-1.361.045H407.4a1.314,1.314,0,0,1-1.359,1.307A1.409,1.409,0,0,1,404.681,261.825Z" transform="translate(-386.323 -251.287)"/>
          <path id="Trazado_124841" data-name="Trazado 124841" d="M415.211,260.15a1.357,1.357,0,0,1-1.254.836,1.343,1.343,0,0,1-.527-.105,1.361,1.361,0,0,1-.729-1.781,10.471,10.471,0,0,1,2.3-3.406,1.361,1.361,0,0,1,1.915,1.935A7.8,7.8,0,0,0,415.211,260.15Z" transform="translate(-411.882 -252.641)"/>
          <path id="Trazado_124842" data-name="Trazado 124842" d="M413.873,256.559a7.742,7.742,0,0,0-2.964.581,1.362,1.362,0,1,1-1.032-2.521,10.5,10.5,0,0,1,4-.783h.025a1.35,1.35,0,0,1,1.348,1.361A1.371,1.371,0,0,1,413.873,256.559Z" transform="translate(-403.333 -253.837)"/>
          <path id="Trazado_124843" data-name="Trazado 124843" d="M415.08,258.873a1.382,1.382,0,0,1,1.361,1.387,7.826,7.826,0,0,0,.572,2.949,1.361,1.361,0,1,1-2.522,1.021,10.516,10.516,0,0,1-.772-3.971v-.053A1.337,1.337,0,0,1,415.08,258.873Z" transform="translate(-413.719 -249.721)"/>
          <path id="Trazado_124844" data-name="Trazado 124844" d="M413.338,262.838a7.8,7.8,0,0,0,2.521,1.714,1.362,1.362,0,0,1-.532,2.615,1.381,1.381,0,0,1-.532-.109,10.494,10.494,0,0,1-3.393-2.31,1.36,1.36,0,1,1,1.937-1.91Z" transform="translate(-408.368 -246.812)"/>
          <path id="Trazado_124845" data-name="Trazado 124845" d="M408.552,264.238a7.779,7.779,0,0,0,2.922-.563,1.36,1.36,0,1,1,1.019,2.522,10.52,10.52,0,0,1-3.992.761h-.013l-.018-1.361v1.361a1.327,1.327,0,0,1-1.321-1.361A1.4,1.4,0,0,1,408.552,264.238Z" transform="translate(-398.012 -245.88)"/>
          <path id="Trazado_124846" data-name="Trazado 124846" d="M406.521,261.7a1.361,1.361,0,1,1,2.5,1.072,10.542,10.542,0,0,1-2.321,3.386,1.361,1.361,0,0,1-1.906-1.944A7.8,7.8,0,0,0,406.521,261.7Z" transform="translate(-388.787 -248.086)"/>
        </g>
        <g id="Grupo_59485" data-name="Grupo 59485" transform="translate(35.727 14.756)">
          <path id="Trazado_124847" data-name="Trazado 124847" d="M426.924,258.127h4.125a1.361,1.361,0,1,1,0,2.722h-4.125a1.361,1.361,0,1,1,0-2.722Z" transform="translate(-400.801 -258.127)"/>
          <path id="Trazado_124848" data-name="Trazado 124848" d="M431.466,258.127h4.125a1.361,1.361,0,1,1,0,2.722h-4.125a1.361,1.361,0,0,1,0-2.722Z" transform="translate(-413.597 -258.127)"/>
          <path id="Trazado_124849" data-name="Trazado 124849" d="M436.008,258.127h4.125a1.361,1.361,0,0,1,0,2.722h-4.125a1.361,1.361,0,1,1,0-2.722Z" transform="translate(-426.393 -258.127)"/>
          <path id="Trazado_124850" data-name="Trazado 124850" d="M440.55,258.127h4.125a1.361,1.361,0,1,1,0,2.722H440.55a1.361,1.361,0,0,1,0-2.722Z" transform="translate(-439.189 -258.127)"/>
        </g>
        <g id="Grupo_59486" data-name="Grupo 59486" transform="translate(0 30.759)">
          <path id="Trazado_124851" data-name="Trazado 124851" d="M445.747,266.933h4.345a1.361,1.361,0,1,1,0,2.722h-4.345a1.361,1.361,0,0,1,0-2.722Z" transform="translate(-418.323 -266.933)"/>
          <path id="Trazado_124852" data-name="Trazado 124852" d="M450.528,266.933h4.345a1.361,1.361,0,0,1,0,2.722h-4.345a1.361,1.361,0,0,1,0-2.722Z" transform="translate(-431.792 -266.933)"/>
          <path id="Trazado_124853" data-name="Trazado 124853" d="M460.09,266.933h4.343a1.361,1.361,0,0,1,0,2.722H460.09a1.361,1.361,0,1,1,0-2.722Z" transform="translate(-458.729 -266.933)"/>
          <path id="Trazado_124854" data-name="Trazado 124854" d="M455.308,266.933h4.345a1.361,1.361,0,1,1,0,2.722h-4.345a1.361,1.361,0,0,1,0-2.722Z" transform="translate(-445.259 -266.933)"/>
        </g>
      </g>
    </g>
  </g>
</svg>
