<svg xmlns="http://www.w3.org/2000/svg" width="312" height="263" viewBox="0 0 312 263">
  <g id="Grupo_55999" data-name="Grupo 55999" transform="translate(0 81)">
    <g id="Grupo_55994" data-name="Grupo 55994" transform="translate(0 -72.685)">
      <rect id="Rectángulo_5785" data-name="Rectángulo 5785" width="312" height="263" rx="25" transform="translate(0 -8.316)" fill="none" opacity="0.4"/>
      <g id="Grupo_59471" data-name="Grupo 59471" transform="translate(28.425 59.071)">
        <g id="Grupo_59469" data-name="Grupo 59469" transform="translate(130.579 13.301)">
          <g id="Grupo_59465" data-name="Grupo 59465" transform="translate(2.85 3.858)">
            <g id="Grupo_59464" data-name="Grupo 59464">
              <rect id="Rectángulo_30201" data-name="Rectángulo 30201" width="34.972" height="9.761" transform="matrix(0.707, -0.707, 0.707, 0.707, 55.402, 35.355)" fill="#ffa326"/>
              <rect id="Rectángulo_30202" data-name="Rectángulo 30202" width="34.972" height="9.761" transform="matrix(0.707, -0.707, 0.707, 0.707, 64.161, 44.114)" fill="#ffa326"/>
              <rect id="Rectángulo_30203" data-name="Rectángulo 30203" width="28.368" height="9.761" transform="matrix(0.707, -0.707, 0.707, 0.707, 17.744, 72.994)" fill="#ffa326"/>
              <rect id="Rectángulo_30204" data-name="Rectángulo 30204" width="28.381" height="9.761" transform="translate(26.501 81.773) rotate(-45)" fill="#ffa326"/>
              <path id="Trazado_124546" data-name="Trazado 124546" d="M529.082,148.623,524,153.687a9.667,9.667,0,0,1-13.71,0l-1.951-1.951a9.689,9.689,0,0,1,0-13.729l5.083-5.064Z" transform="translate(-505.488 -50.139)" fill="#67ccee"/>
              <path id="Trazado_124547" data-name="Trazado 124547" d="M611.7,50.139l-3.207,8.478-5.2-5.2Z" transform="translate(-505.488 -50.139)" fill="#67ccee"/>
            </g>
            <path id="Trazado_124548" data-name="Trazado 124548" d="M521.824,50.139,507.945,64.018l91.976,91.976L613.8,142.115Zm79.992,95.671a4.426,4.426,0,0,1-3.133-7.559,4.545,4.545,0,0,1,6.265,0,4.426,4.426,0,0,1-3.132,7.559Z" transform="translate(-505.488 -50.139)" fill="#92a7ba"/>
          </g>
          <g id="Grupo_59468" data-name="Grupo 59468">
            <g id="Grupo_59466" data-name="Grupo 59466">
              <path id="Trazado_124549" data-name="Trazado 124549" d="M567.791,95.809a1.556,1.556,0,0,1-1.1-.456l-8.759-8.759a1.557,1.557,0,0,1,0-2.2L584.505,57.8a1.6,1.6,0,0,1,2.2,0l8.759,8.759a1.557,1.557,0,0,1,0,2.2L568.894,95.352A1.555,1.555,0,0,1,567.791,95.809Zm-6.557-10.316,6.557,6.555,24.374-24.391L585.607,61.1Z" transform="translate(-502.638 -46.28)"/>
              <path id="Trazado_124550" data-name="Trazado 124550" d="M576.55,104.568a1.561,1.561,0,0,1-1.1-.456l-8.759-8.759a1.557,1.557,0,0,1,0-2.2l26.574-26.6a1.6,1.6,0,0,1,2.2,0l8.759,8.759a1.556,1.556,0,0,1,0,2.2l-26.574,26.6A1.563,1.563,0,0,1,576.55,104.568Zm-6.557-10.317,6.557,6.556,24.374-24.392-6.558-6.555Z" transform="translate(-502.638 -46.28)"/>
              <path id="Trazado_124551" data-name="Trazado 124551" d="M530.131,133.47h0a1.561,1.561,0,0,1-1.1-.457l-8.761-8.778a1.558,1.558,0,0,1,0-2.2L542.2,100.126a1.558,1.558,0,0,1,2.2,0l8.759,8.759a1.558,1.558,0,0,1,0,2.2l-21.925,21.925A1.561,1.561,0,0,1,530.131,133.47Zm-6.56-10.334,6.562,6.573,19.719-19.722-6.556-6.556Z" transform="translate(-502.638 -46.28)"/>
              <path id="Trazado_124552" data-name="Trazado 124552" d="M538.889,142.228a1.56,1.56,0,0,1-1.1-.455l-8.759-8.759a1.557,1.557,0,0,1,0-2.2l21.924-21.926a1.607,1.607,0,0,1,2.2,0l8.758,8.759a1.555,1.555,0,0,1,0,2.2L539.99,141.773A1.56,1.56,0,0,1,538.889,142.228Zm-6.555-10.316,6.555,6.557,19.721-19.723-6.555-6.557Z" transform="translate(-502.638 -46.28)"/>
              <path id="Trazado_124553" data-name="Trazado 124553" d="M517.152,159.4a12.479,12.479,0,0,1-8.885-3.677l-1.951-1.95a12.594,12.594,0,0,1,0-17.789l13.953-13.953a1.554,1.554,0,0,1,1.1-.457h0a1.558,1.558,0,0,1,1.1.457l17.517,17.535a1.557,1.557,0,0,1,0,2.2l-13.955,13.953A12.478,12.478,0,0,1,517.152,159.4Zm4.218-34.065L508.517,138.19a9.472,9.472,0,0,0,0,13.382l1.952,1.951a9.454,9.454,0,0,0,13.364,0l12.853-12.852Z" transform="translate(-502.638 -46.28)"/>
              <path id="Trazado_124554" data-name="Trazado 124554" d="M530.937,150.181h0a1.563,1.563,0,0,1-1.1-.457l-17.517-17.537a1.556,1.556,0,0,1,0-2.2l7.95-7.952a1.554,1.554,0,0,1,1.1-.457h0a1.558,1.558,0,0,1,1.1.457l17.517,17.535a1.558,1.558,0,0,1,0,2.2l-7.952,7.952A1.565,1.565,0,0,1,530.937,150.181Zm-15.316-19.094,15.316,15.333,5.749-5.749L521.37,125.338Z" transform="translate(-502.638 -46.28)"/>
              <path id="Trazado_124555" data-name="Trazado 124555" d="M608.992,62.529a1.562,1.562,0,0,1-1.1-.456l-8.046-8.047a1.557,1.557,0,0,1,.534-2.553l13.032-5.087a1.557,1.557,0,0,1,2.022,2l-4.985,13.133a1.556,1.556,0,0,1-1.129.971A1.535,1.535,0,0,1,608.992,62.529Zm-5.26-9.021,4.659,4.659,2.885-7.6Z" transform="translate(-502.638 -46.28)"/>
              <path id="Trazado_124556" data-name="Trazado 124556" d="M603.145,77.973h-.02a1.561,1.561,0,0,1-1.1-.457L584.525,60a1.559,1.559,0,0,1,.538-2.552l15.322-5.965a1.554,1.554,0,0,1,1.666.35l8.045,8.046a1.555,1.555,0,0,1,.356,1.654L604.6,76.968A1.556,1.556,0,0,1,603.145,77.973ZM588.414,59.485l14.124,14.139,4.644-12.256-6.614-6.614Z" transform="translate(-502.638 -46.28)"/>
            </g>
            <g id="Grupo_59467" data-name="Grupo 59467" transform="translate(1.889 0.457)">
              <path id="Trazado_124557" data-name="Trazado 124557" d="M599.914,159.4a1.556,1.556,0,0,1-1.1-.456L504.984,65.114a1.557,1.557,0,0,1,0-2.2l15.734-15.736a1.6,1.6,0,0,1,2.2,0l93.832,93.831a1.556,1.556,0,0,1,0,2.2l-15.736,15.736A1.556,1.556,0,0,1,599.914,159.4ZM508.288,64.012l91.626,91.629,13.533-13.533L521.819,50.479Z" transform="translate(-504.527 -46.738)" fill="#fff"/>
              <path id="Trazado_124558" data-name="Trazado 124558" d="M513.078,72.564a1.558,1.558,0,0,1-1.1-2.659l8.352-8.354a1.557,1.557,0,0,1,2.2,2.2l-8.353,8.354A1.551,1.551,0,0,1,513.078,72.564Z" transform="translate(-504.527 -46.738)" fill="#fff"/>
              <path id="Trazado_124559" data-name="Trazado 124559" d="M520.072,79.557a1.557,1.557,0,0,1-1.1-2.659l8.352-8.354a1.557,1.557,0,1,1,2.2,2.2L521.173,79.1A1.551,1.551,0,0,1,520.072,79.557Z" transform="translate(-504.527 -46.738)" fill="#fff"/>
              <path id="Trazado_124560" data-name="Trazado 124560" d="M534.058,93.544a1.557,1.557,0,0,1-1.1-2.659l8.354-8.354a1.557,1.557,0,0,1,2.2,2.2l-8.355,8.354A1.551,1.551,0,0,1,534.058,93.544Z" transform="translate(-504.527 -46.738)" fill="#fff"/>
              <path id="Trazado_124561" data-name="Trazado 124561" d="M541.052,100.538a1.558,1.558,0,0,1-1.1-2.659L551.8,86.028a1.557,1.557,0,0,1,2.2,2.2l-11.849,11.851A1.556,1.556,0,0,1,541.052,100.538Z" transform="translate(-504.527 -46.738)" fill="#fff"/>
              <path id="Trazado_124562" data-name="Trazado 124562" d="M576.02,135.506a1.558,1.558,0,0,1-1.1-2.66L586.769,121a1.557,1.557,0,0,1,2.2,2.2L577.121,135.05A1.555,1.555,0,0,1,576.02,135.506Z" transform="translate(-504.527 -46.738)" fill="#fff"/>
              <path id="Trazado_124563" data-name="Trazado 124563" d="M527.064,86.551a1.558,1.558,0,0,1-1.1-2.659l8.354-8.354a1.557,1.557,0,0,1,2.2,2.2L528.165,86.1A1.551,1.551,0,0,1,527.064,86.551Z" transform="translate(-504.527 -46.738)" fill="#fff"/>
              <path id="Trazado_124564" data-name="Trazado 124564" d="M548.046,107.532a1.557,1.557,0,0,1-1.1-2.659l8.353-8.354a1.557,1.557,0,0,1,2.2,2.2l-8.352,8.354A1.555,1.555,0,0,1,548.046,107.532Z" transform="translate(-504.527 -46.738)" fill="#fff"/>
              <path id="Trazado_124565" data-name="Trazado 124565" d="M555.04,114.525a1.558,1.558,0,0,1-1.1-2.66l8.353-8.353a1.557,1.557,0,1,1,2.2,2.2l-8.352,8.354A1.555,1.555,0,0,1,555.04,114.525Z" transform="translate(-504.527 -46.738)" fill="#fff"/>
              <path id="Trazado_124566" data-name="Trazado 124566" d="M569.026,128.512a1.558,1.558,0,0,1-1.1-2.66l8.355-8.352a1.557,1.557,0,0,1,2.2,2.2l-8.354,8.353A1.559,1.559,0,0,1,569.026,128.512Z" transform="translate(-504.527 -46.738)" fill="#fff"/>
              <path id="Trazado_124567" data-name="Trazado 124567" d="M562.032,121.519a1.558,1.558,0,0,1-1.1-2.66l8.355-8.353a1.557,1.557,0,0,1,2.2,2.2l-8.354,8.354A1.556,1.556,0,0,1,562.032,121.519Z" transform="translate(-504.527 -46.738)" fill="#fff"/>
              <path id="Trazado_124568" data-name="Trazado 124568" d="M601.809,146.052a4.672,4.672,0,0,1-3.3-7.978,4.786,4.786,0,0,1,6.61,0,4.673,4.673,0,0,1-3.306,7.977Zm0-6.232a1.559,1.559,0,0,0-1.1,2.66,1.593,1.593,0,0,0,2.2,0,1.558,1.558,0,0,0-1.1-2.661Z" transform="translate(-504.527 -46.738)" fill="#fff"/>
            </g>
          </g>
        </g>
        <g id="Grupo_59470" data-name="Grupo 59470">
          <path id="Trazado_124569" data-name="Trazado 124569" d="M486.014,87.984a1.417,1.417,0,0,1,1.418-1.417h9.679A42,42,0,0,0,492.166,68.1l-8.317,4.8a1.417,1.417,0,1,1-1.417-2.455l8.312-4.8a42.628,42.628,0,0,0-13.48-13.508l-4.77,8.26a1.417,1.417,0,1,1-2.453-1.418l4.777-8.273a42.025,42.025,0,0,0-18.524-4.987V60.9a27.122,27.122,0,0,1,0,54.167V130.25a42.019,42.019,0,0,0,18.389-4.918l-4.9-8.493a1.417,1.417,0,0,1,2.455-1.417l4.9,8.491a42.625,42.625,0,0,0,13.585-13.555l-8.441-4.873a1.417,1.417,0,1,1,1.418-2.454l8.449,4.878A42.008,42.008,0,0,0,497.111,89.4h-9.679A1.417,1.417,0,0,1,486.014,87.984Z" transform="translate(-372.059 -32.979)" fill="#8aa8ba"/>
          <path id="Trazado_124570" data-name="Trazado 124570" d="M400.691,74.289l-9.407,26.7h5.175l5.852-16.612A10.681,10.681,0,0,0,400.691,74.289Z" transform="translate(-372.059 -32.979)" fill="#f12e34"/>
          <path id="Trazado_124571" data-name="Trazado 124571" d="M431.14,145.859h5.175l-14.8-42.035h-5.171Z" transform="translate(-372.059 -32.979)" fill="#f12e34"/>
          <path id="Trazado_124572" data-name="Trazado 124572" d="M453.426,113.689a1.412,1.412,0,0,1,.033-.3V62.578a1.415,1.415,0,0,1-.033-.3,1.429,1.429,0,0,1,.033-.3V44.564a1.388,1.388,0,0,1,0-.6V40.969H441.538v3.724h6.417a1.417,1.417,0,1,1,0,2.834h-6.417V51.25h6.417a1.417,1.417,0,0,1,0,2.835h-6.417v3.724h6.417a1.418,1.418,0,0,1,0,2.835h-6.417v3.723h6.417a1.417,1.417,0,1,1,0,2.834h-6.417v3.724h9.7a1.417,1.417,0,0,1,0,2.835h-9.7v3.723h6.417a1.417,1.417,0,1,1,0,2.834h-6.417v3.725h6.417a1.417,1.417,0,1,1,0,2.834h-6.417V90.6h6.417a1.417,1.417,0,0,1,0,2.835h-6.417v3.724h6.417a1.417,1.417,0,1,1,0,2.834h-6.417v3.723h9.7a1.418,1.418,0,0,1,0,2.835h-9.7v4.433h6.417a1.417,1.417,0,1,1,0,2.834h-6.417v3.723h6.417a1.417,1.417,0,0,1,0,2.835h-6.417V124.1h6.417a1.417,1.417,0,1,1,0,2.834h-6.417v3.723h6.417a1.417,1.417,0,0,1,0,2.835h-6.417V135h11.921v-2.993a1.388,1.388,0,0,1,0-.6V113.99A1.415,1.415,0,0,1,453.426,113.689Z" transform="translate(-372.059 -32.979)" fill="#8aa8ba"/>
          <path id="Trazado_124573" data-name="Trazado 124573" d="M432.125,148.709l2.131,6.509,2.115-6.509Z" transform="translate(-372.059 -32.979)" fill="#f1989b"/>
          <path id="Trazado_124574" data-name="Trazado 124574" d="M407.121,98.566a1.219,1.219,0,1,0-2.437,0v2.424h2.437Z" transform="translate(-372.059 -32.979)" fill="#f1989b"/>
          <path id="Trazado_124575" data-name="Trazado 124575" d="M406.533,84.371l0-.013c-.033-.125-.057-.251-.088-.376-.046-.2-.1-.393-.134-.59-.027-.14-.045-.281-.068-.421-.03-.183-.061-.366-.083-.55-.018-.145-.027-.29-.04-.436-.015-.178-.032-.356-.041-.535-.007-.148-.007-.3-.009-.445,0-.174-.005-.348,0-.521,0-.151.014-.3.022-.452.01-.17.02-.34.037-.509.014-.151.033-.3.053-.451.021-.168.045-.334.073-.5.024-.15.054-.3.084-.448s.069-.328.108-.491.075-.3.116-.442.092-.32.143-.479.094-.291.146-.435.116-.313.178-.468.114-.284.176-.424.14-.305.214-.456.132-.274.2-.409c.08-.151.165-.3.251-.447.075-.131.149-.262.229-.39.093-.15.193-.295.293-.441.082-.122.162-.244.248-.363.11-.151.228-.3.344-.443.086-.109.169-.22.259-.326.135-.161.28-.315.424-.47.08-.086.155-.176.238-.26q.346-.354.721-.688a1.554,1.554,0,0,1,1.356-.371,1.436,1.436,0,0,1,1.042.842l3.136,8.907a14.2,14.2,0,0,0,4.109-10.058,14.382,14.382,0,0,0-14.173-14.36h-.4a14.381,14.381,0,0,0-14.172,14.36,14.231,14.231,0,0,0,4.118,10.062l3.149-8.914a1.417,1.417,0,0,1,2.342-.526c.255.225.5.459.732.7.079.082.151.167.228.25.151.161.3.322.443.49.087.1.167.211.251.316.122.153.244.305.358.461.084.116.162.235.243.352.1.153.208.305.306.461.077.123.148.25.221.376.09.154.18.309.264.467.069.131.133.264.2.4.077.157.153.314.223.474.06.136.116.273.171.411.065.161.128.322.186.485.051.14.1.282.144.423.052.165.1.329.148.5.041.143.078.286.113.431.041.167.078.336.113.5.029.145.058.29.083.437.029.171.053.342.075.515.019.145.038.291.053.438.017.175.027.35.038.526.008.145.017.29.021.436,0,.179,0,.359,0,.538,0,.144,0,.287-.009.431-.008.185-.026.369-.042.554-.012.139-.021.277-.038.416-.023.195-.056.39-.088.585-.021.128-.037.257-.062.385-.043.221-.1.441-.151.661-.025.1-.044.2-.071.3l0,.02C405.688,84.386,406.123,84.385,406.533,84.371Z" transform="translate(-372.059 -32.979)" fill="#f12e34"/>
          <path id="Trazado_124576" data-name="Trazado 124576" d="M414.172,82.99l-3.055-8.7A10.692,10.692,0,0,0,409.5,84.38l5.847,16.61h5.171L414.2,83.043C414.191,83.025,414.179,83.009,414.172,82.99Z" transform="translate(-372.059 -32.979)" fill="#f12e34"/>
          <path id="Trazado_124577" data-name="Trazado 124577" d="M406.089,52.816h.819l2.23-14.868a2.229,2.229,0,0,0-2.224-2.134H404.89a2.23,2.23,0,0,0-2.225,2.134L404.9,52.816h.8c.065,0,.129-.01.194-.01S406.023,52.815,406.089,52.816Z" transform="translate(-372.059 -32.979)" fill="#f1989b"/>
          <path id="Trazado_124578" data-name="Trazado 124578" d="M404.684,105.438a1.219,1.219,0,1,0,2.437,0v-1.614h-2.437Z" transform="translate(-372.059 -32.979)" fill="#f1989b"/>
          <path id="Trazado_124579" data-name="Trazado 124579" d="M375.432,148.709l2.117,6.509,2.13-6.509Z" transform="translate(-372.059 -32.979)" fill="#f1989b"/>
          <path id="Trazado_124580" data-name="Trazado 124580" d="M380.651,145.859l14.81-42.035h-5.175l-14.81,42.035Z" transform="translate(-372.059 -32.979)" fill="#f12e34"/>
          <path id="Trazado_124581" data-name="Trazado 124581" d="M407.414,74.928c-.074.151-.146.3-.214.456C407.268,75.231,407.34,75.079,407.414,74.928Z" transform="translate(-372.059 -32.979)"/>
          <path id="Trazado_124582" data-name="Trazado 124582" d="M408.39,73.241c-.1.146-.2.291-.293.441C408.19,73.532,408.29,73.387,408.39,73.241Z" transform="translate(-372.059 -32.979)"/>
          <path id="Trazado_124583" data-name="Trazado 124583" d="M407.868,74.072c-.086.148-.171.3-.251.447C407.7,74.368,407.782,74.22,407.868,74.072Z" transform="translate(-372.059 -32.979)"/>
          <path id="Trazado_124584" data-name="Trazado 124584" d="M406.123,79.523c-.017.169-.027.339-.037.509C406.1,79.862,406.106,79.692,406.123,79.523Z" transform="translate(-372.059 -32.979)"/>
          <path id="Trazado_124585" data-name="Trazado 124585" d="M408.982,72.435c-.116.146-.234.292-.344.443C408.748,72.727,408.866,72.581,408.982,72.435Z" transform="translate(-372.059 -32.979)"/>
          <path id="Trazado_124586" data-name="Trazado 124586" d="M406.249,78.571c-.028.167-.052.333-.073.5C406.2,78.9,406.221,78.738,406.249,78.571Z" transform="translate(-372.059 -32.979)"/>
          <path id="Trazado_124587" data-name="Trazado 124587" d="M406.075,81.45c.009.179.026.357.041.535C406.1,81.807,406.084,81.629,406.075,81.45Z" transform="translate(-372.059 -32.979)"/>
          <path id="Trazado_124588" data-name="Trazado 124588" d="M406.441,77.632c-.039.163-.075.327-.108.491C406.366,77.959,406.4,77.795,406.441,77.632Z" transform="translate(-372.059 -32.979)"/>
          <path id="Trazado_124589" data-name="Trazado 124589" d="M406.7,76.711q-.077.239-.143.479Q406.623,76.95,406.7,76.711Z" transform="translate(-372.059 -32.979)"/>
          <path id="Trazado_124590" data-name="Trazado 124590" d="M407.024,75.808c-.062.155-.122.311-.178.468C406.9,76.119,406.962,75.963,407.024,75.808Z" transform="translate(-372.059 -32.979)"/>
          <path id="Trazado_124591" data-name="Trazado 124591" d="M406.156,82.421c.022.184.053.367.083.55C406.209,82.788,406.178,82.605,406.156,82.421Z" transform="translate(-372.059 -32.979)"/>
          <path id="Trazado_124592" data-name="Trazado 124592" d="M409.665,71.639c-.144.155-.289.309-.424.47C409.376,71.948,409.521,71.794,409.665,71.639Z" transform="translate(-372.059 -32.979)"/>
          <path id="Trazado_124593" data-name="Trazado 124593" d="M405.475,78.125c-.035-.169-.072-.338-.113-.5C405.4,77.787,405.44,77.956,405.475,78.125Z" transform="translate(-372.059 -32.979)"/>
          <path id="Trazado_124594" data-name="Trazado 124594" d="M406.307,83.392c.038.2.088.393.134.59C406.395,83.785,406.345,83.589,406.307,83.392Z" transform="translate(-372.059 -32.979)"/>
          <path id="Trazado_124595" data-name="Trazado 124595" d="M405.249,77.189c-.046-.166-.1-.33-.148-.5C405.153,76.858,405.2,77.023,405.249,77.189Z" transform="translate(-372.059 -32.979)"/>
          <path id="Trazado_124596" data-name="Trazado 124596" d="M405.354,84.047c.054-.22.108-.44.151-.661C405.462,83.607,405.408,83.827,405.354,84.047Z" transform="translate(-372.059 -32.979)"/>
          <path id="Trazado_124597" data-name="Trazado 124597" d="M405.693,82c.016-.185.034-.369.042-.554C405.727,81.631,405.709,81.815,405.693,82Z" transform="translate(-372.059 -32.979)"/>
          <path id="Trazado_124598" data-name="Trazado 124598" d="M405.724,80.041c-.011-.176-.021-.351-.038-.526C405.7,79.69,405.713,79.865,405.724,80.041Z" transform="translate(-372.059 -32.979)"/>
          <path id="Trazado_124599" data-name="Trazado 124599" d="M405.633,79.077c-.022-.173-.046-.344-.075-.515C405.587,78.733,405.611,78.9,405.633,79.077Z" transform="translate(-372.059 -32.979)"/>
          <path id="Trazado_124600" data-name="Trazado 124600" d="M403.694,73.661c-.1-.156-.2-.308-.306-.461C403.492,73.353,403.6,73.5,403.694,73.661Z" transform="translate(-372.059 -32.979)"/>
          <path id="Trazado_124601" data-name="Trazado 124601" d="M403.145,72.848c-.114-.156-.236-.308-.358-.461C402.909,72.54,403.031,72.692,403.145,72.848Z" transform="translate(-372.059 -32.979)"/>
          <path id="Trazado_124602" data-name="Trazado 124602" d="M402.536,72.071c-.141-.168-.292-.329-.443-.49C402.243,71.742,402.395,71.9,402.536,72.071Z" transform="translate(-372.059 -32.979)"/>
          <path id="Trazado_124603" data-name="Trazado 124603" d="M404.6,75.375c-.07-.16-.146-.317-.223-.474C404.454,75.058,404.53,75.215,404.6,75.375Z" transform="translate(-372.059 -32.979)"/>
          <path id="Trazado_124604" data-name="Trazado 124604" d="M404.179,74.5c-.084-.158-.174-.313-.264-.467C404.005,74.191,404.1,74.346,404.179,74.5Z" transform="translate(-372.059 -32.979)"/>
          <path id="Trazado_124605" data-name="Trazado 124605" d="M404.957,76.271c-.058-.163-.121-.324-.186-.485C404.836,75.947,404.9,76.108,404.957,76.271Z" transform="translate(-372.059 -32.979)"/>
          <path id="Trazado_124606" data-name="Trazado 124606" d="M405.567,83c.032-.195.065-.39.088-.585C405.632,82.611,405.6,82.806,405.567,83Z" transform="translate(-372.059 -32.979)"/>
          <path id="Trazado_124607" data-name="Trazado 124607" d="M414.2,83.043l-3.082-8.751,3.055,8.7C414.179,83.009,414.191,83.025,414.2,83.043Z" transform="translate(-372.059 -32.979)"/>
          <path id="Trazado_124608" data-name="Trazado 124608" d="M408.129,55.651h-2.035a14.382,14.382,0,0,1,14.173,14.36,14.2,14.2,0,0,1-4.109,10.058l1.026,2.915A17.01,17.01,0,0,0,423.1,70.011,17.225,17.225,0,0,0,409.71,53.247l-.18,1.2A1.417,1.417,0,0,1,408.129,55.651Z" transform="translate(-372.059 -32.979)"/>
          <path id="Trazado_124609" data-name="Trazado 124609" d="M406.066,81c0-.174-.005-.348,0-.521C406.061,80.657,406.063,80.831,406.066,81Z" transform="translate(-372.059 -32.979)"/>
          <path id="Trazado_124610" data-name="Trazado 124610" d="M395.642,80.073a14.231,14.231,0,0,1-4.118-10.062A14.381,14.381,0,0,1,405.7,55.651h-2.021a1.418,1.418,0,0,1-1.4-1.207l-.18-1.2a17.224,17.224,0,0,0-13.4,16.767,17.047,17.047,0,0,0,5.931,12.983l4.17-11.835Z" transform="translate(-372.059 -32.979)"/>
          <path id="Trazado_124611" data-name="Trazado 124611" d="M405.895,52.806c-.065,0-.129.009-.194.01h.388C406.023,52.815,405.96,52.806,405.895,52.806Z" transform="translate(-372.059 -32.979)"/>
          <path id="Trazado_124612" data-name="Trazado 124612" d="M401.133,70.633c.255.225.5.459.732.7C401.631,71.092,401.388,70.858,401.133,70.633Z" transform="translate(-372.059 -32.979)"/>
          <path id="Trazado_124613" data-name="Trazado 124613" d="M407.468,87.143l-.643-1.825q-.167-.479-.3-.96l0,.013c-.41.014-.845.015-1.255,0l0-.02c-.087.323-.185.645-.3.965l-.263.75-.379,1.077c.5.046,1.014.074,1.551.074S406.96,87.189,407.468,87.143Z" transform="translate(-372.059 -32.979)"/>
          <path id="Trazado_124614" data-name="Trazado 124614" d="M409.9,71.379q.346-.354.721-.688Q410.249,71.024,409.9,71.379Z" transform="translate(-372.059 -32.979)"/>
          <path id="Trazado_124615" data-name="Trazado 124615" d="M405.745,80.477c0,.179,0,.359,0,.538C405.747,80.836,405.749,80.656,405.745,80.477Z" transform="translate(-372.059 -32.979)"/>
          <path id="Trazado_124616" data-name="Trazado 124616" d="M400.691,74.289a10.681,10.681,0,0,1,1.62,10.089l-5.852,16.612h3.006l4.879-13.847.379-1.077.263-.75c.112-.32.21-.642.3-.965.027-.1.046-.2.071-.3.054-.22.108-.44.151-.661.025-.128.041-.257.062-.385.032-.195.065-.39.088-.585.017-.139.026-.277.038-.416.016-.185.034-.369.042-.554.007-.144.007-.287.009-.431,0-.179.005-.359,0-.538,0-.146-.013-.291-.021-.436-.011-.176-.022-.351-.038-.526-.015-.147-.034-.293-.053-.438-.022-.173-.046-.344-.075-.515-.025-.147-.054-.292-.083-.437-.035-.169-.072-.338-.113-.5-.035-.145-.072-.288-.113-.431-.046-.166-.1-.331-.148-.5-.046-.141-.093-.283-.144-.423-.058-.163-.121-.324-.186-.485-.055-.138-.111-.275-.171-.411-.07-.16-.146-.317-.223-.474-.065-.133-.129-.266-.2-.4-.084-.158-.174-.313-.264-.467-.073-.126-.144-.253-.221-.376-.1-.156-.2-.308-.306-.461-.081-.117-.159-.236-.243-.352-.114-.156-.236-.308-.358-.461-.084-.105-.164-.213-.251-.316-.141-.168-.293-.329-.443-.49-.077-.083-.149-.168-.228-.25-.234-.239-.477-.473-.732-.7a1.417,1.417,0,0,0-2.342.526l-4.17,11.835-6.34,18h3Z" transform="translate(-372.059 -32.979)"/>
          <path id="Trazado_124617" data-name="Trazado 124617" d="M379.685,148.693h-4.258l.005.016h4.247Z" transform="translate(-372.059 -32.979)"/>
          <path id="Trazado_124618" data-name="Trazado 124618" d="M380.651,145.859h.989a1.416,1.416,0,0,1,1.345,1.858l-.071.22c.007-.019.021-.034.028-.053l15.524-44.06H395.46Z" transform="translate(-372.059 -32.979)"/>
          <path id="Trazado_124619" data-name="Trazado 124619" d="M372.077,147.073a1.392,1.392,0,0,0,.1.788l-.048-.147A1.4,1.4,0,0,1,372.077,147.073Z" transform="translate(-372.059 -32.979)"/>
          <path id="Trazado_124620" data-name="Trazado 124620" d="M373.477,145.859h2l14.81-42.035h-3l-15.149,43a1.164,1.164,0,0,0-.039.175,1.4,1.4,0,0,1,.236-.553A1.418,1.418,0,0,1,373.477,145.859Z" transform="translate(-372.059 -32.979)"/>
          <path id="Trazado_124621" data-name="Trazado 124621" d="M382.787,146.445a1.418,1.418,0,0,0-1.147-.586h-8.163a1.418,1.418,0,0,0-1.147.584,1.4,1.4,0,0,0-.236.553.71.71,0,0,0-.017.077,1.4,1.4,0,0,0,.053.641l.048.147,4.019,12.364a1.417,1.417,0,0,0,1.346.98h0a1.417,1.417,0,0,0,1.346-.977l4.024-12.291.071-.22A1.415,1.415,0,0,0,382.787,146.445Zm-5.238,8.773-2.117-6.509-.005-.016h4.258l-.006.016Z" transform="translate(-372.059 -32.979)"/>
          <path id="Trazado_124622" data-name="Trazado 124622" d="M436.376,148.693H432.12l.005.016h4.246Z" transform="translate(-372.059 -32.979)"/>
          <path id="Trazado_124623" data-name="Trazado 124623" d="M439.554,146.525l-15.034-42.7h-3l14.8,42.035h2.013a1.416,1.416,0,0,1,1.347,1.855l-.1.317a1.455,1.455,0,0,0,.208-.739A1.414,1.414,0,0,0,439.554,146.525Z" transform="translate(-372.059 -32.979)"/>
          <path id="Trazado_124624" data-name="Trazado 124624" d="M429.017,146.445a1.419,1.419,0,0,1,1.148-.586h.975l-14.8-42.035h-3.005l15.509,44.06a1.269,1.269,0,0,0,.063.114l-.093-.281A1.418,1.418,0,0,1,429.017,146.445Z" transform="translate(-372.059 -32.979)"/>
          <path id="Trazado_124625" data-name="Trazado 124625" d="M413.022,71.162a1.436,1.436,0,0,0-1.042-.842,1.554,1.554,0,0,0-1.356.371q-.375.333-.721.688c-.083.084-.158.174-.238.26-.144.155-.289.309-.424.47-.09.106-.173.217-.259.326-.116.146-.234.292-.344.443-.086.119-.166.241-.248.363-.1.146-.2.291-.293.441-.08.128-.154.259-.229.39-.086.148-.171.3-.251.447-.071.135-.137.272-.2.409s-.146.3-.214.456-.119.282-.176.424-.122.311-.178.468-.1.289-.146.435-.1.319-.143.479-.08.294-.116.442-.075.327-.108.491-.06.3-.084.448c-.028.167-.052.333-.073.5-.02.15-.039.3-.053.451-.017.169-.027.339-.037.509-.008.151-.018.3-.022.452,0,.173,0,.347,0,.521,0,.148,0,.3.009.445.009.179.026.357.041.535.013.146.022.291.04.436.022.184.053.367.083.55.023.14.041.281.068.421.038.2.088.393.134.59.031.125.055.251.088.376q.131.481.3.96l.643,1.825,4.874,13.847h3L409.5,84.38a10.692,10.692,0,0,1,1.618-10.088l3.082,8.751,6.318,17.947h3.006l-6.339-18.006-1.026-2.915Z" transform="translate(-372.059 -32.979)"/>
          <path id="Trazado_124626" data-name="Trazado 124626" d="M439.474,146.443a1.418,1.418,0,0,0-1.147-.584h-8.162a1.417,1.417,0,0,0-1.347,1.858l.093.281,4,12.23a1.417,1.417,0,0,0,1.346.977h0a1.416,1.416,0,0,0,1.346-.98l3.965-12.194.1-.317A1.417,1.417,0,0,0,439.474,146.443Zm-5.218,8.775-2.131-6.509-.005-.016h4.256l-.005.016Z" transform="translate(-372.059 -32.979)"/>
          <path id="Trazado_124627" data-name="Trazado 124627" d="M403.675,55.651h4.454a1.417,1.417,0,0,0,1.4-1.207l.18-1.2,2.248-15a1.491,1.491,0,0,0,.016-.211,5.067,5.067,0,0,0-5.06-5.061H404.89a5.068,5.068,0,0,0-5.061,5.061,1.486,1.486,0,0,0,.016.211l2.249,14.993.18,1.2A1.418,1.418,0,0,0,403.675,55.651Zm1.221-2.835-2.231-14.868a2.23,2.23,0,0,1,2.225-2.134h2.024a2.229,2.229,0,0,1,2.224,2.134l-2.23,14.868H404.9Z" transform="translate(-372.059 -32.979)"/>
          <path id="Trazado_124628" data-name="Trazado 124628" d="M399.465,100.99H382.422a1.417,1.417,0,0,0,0,2.834h19.427V100.99Z" transform="translate(-372.059 -32.979)" fill="#fff"/>
          <rect id="Rectángulo_30205" data-name="Rectángulo 30205" width="2.437" height="2.834" transform="translate(32.625 68.011)"/>
          <path id="Trazado_124629" data-name="Trazado 124629" d="M421.515,103.824h7.867a1.417,1.417,0,1,0,0-2.834H409.955v2.834h11.56Z" transform="translate(-372.059 -32.979)" fill="#fff"/>
          <path id="Trazado_124630" data-name="Trazado 124630" d="M409.955,98.566a4.053,4.053,0,1,0-8.106,0v6.872a4.053,4.053,0,1,0,8.106,0V98.566Zm-2.834,6.872a1.219,1.219,0,1,1-2.437,0V98.566a1.219,1.219,0,1,1,2.437,0v6.872Z" transform="translate(-372.059 -32.979)"/>
          <path id="Trazado_124631" data-name="Trazado 124631" d="M454.843,112.272c.488,0,.97-.018,1.451-.047V63.742c-.481-.029-.963-.047-1.451-.047a1.418,1.418,0,0,1-1.384-1.117v50.811A1.418,1.418,0,0,1,454.843,112.272Z" transform="translate(-372.059 -32.979)"/>
          <path id="Trazado_124632" data-name="Trazado 124632" d="M454.843,115.107a1.418,1.418,0,0,1-1.384-1.117V131.4a1.417,1.417,0,0,1,1.384-1.116c.487,0,.968-.021,1.451-.037V115.067Q455.572,115.106,454.843,115.107Z" transform="translate(-372.059 -32.979)"/>
          <path id="Trazado_124633" data-name="Trazado 124633" d="M454.843,60.86q.73,0,1.451.04V45.717c-.483-.016-.964-.037-1.451-.037a1.417,1.417,0,0,1-1.384-1.116V61.976A1.419,1.419,0,0,1,454.843,60.86Z" transform="translate(-372.059 -32.979)"/>
          <path id="Trazado_124634" data-name="Trazado 124634" d="M440.121,70.925h1.417V67.2h-1.417a1.416,1.416,0,0,1-1.417-1.417v6.558A1.417,1.417,0,0,1,440.121,70.925Z" transform="translate(-372.059 -32.979)"/>
          <path id="Trazado_124635" data-name="Trazado 124635" d="M440.121,64.367h1.417V60.644h-1.417a1.417,1.417,0,0,1-1.417-1.417v6.557A1.416,1.416,0,0,1,440.121,64.367Z" transform="translate(-372.059 -32.979)"/>
          <path id="Trazado_124636" data-name="Trazado 124636" d="M440.121,77.483h1.417V73.76h-1.417a1.417,1.417,0,0,1-1.417-1.418V78.9A1.417,1.417,0,0,1,440.121,77.483Z" transform="translate(-372.059 -32.979)"/>
          <path id="Trazado_124637" data-name="Trazado 124637" d="M440.121,97.158h1.417V93.434h-1.417a1.417,1.417,0,0,1-1.417-1.418v6.559A1.416,1.416,0,0,1,440.121,97.158Z" transform="translate(-372.059 -32.979)"/>
          <path id="Trazado_124638" data-name="Trazado 124638" d="M440.121,84.042h1.417V80.317h-1.417A1.416,1.416,0,0,1,438.7,78.9v6.559A1.416,1.416,0,0,1,440.121,84.042Z" transform="translate(-372.059 -32.979)"/>
          <path id="Trazado_124639" data-name="Trazado 124639" d="M440.121,103.715h1.417V99.992h-1.417a1.416,1.416,0,0,1-1.417-1.417v6.557A1.417,1.417,0,0,1,440.121,103.715Z" transform="translate(-372.059 -32.979)"/>
          <path id="Trazado_124640" data-name="Trazado 124640" d="M440.121,57.809h1.417V54.085h-1.417a1.416,1.416,0,0,1-1.417-1.417v6.559A1.417,1.417,0,0,1,440.121,57.809Z" transform="translate(-372.059 -32.979)"/>
          <path id="Trazado_124641" data-name="Trazado 124641" d="M440.121,110.983h1.417V106.55h-1.417a1.417,1.417,0,0,1-1.417-1.418V112.4A1.416,1.416,0,0,1,440.121,110.983Z" transform="translate(-372.059 -32.979)"/>
          <path id="Trazado_124642" data-name="Trazado 124642" d="M440.121,44.693h1.417V40.969h11.921v2.993a1.417,1.417,0,0,1,1.384-1.116c.487,0,.968.021,1.451.037V39.552a1.417,1.417,0,0,0-1.417-1.418H440.121a1.417,1.417,0,0,0-1.417,1.418V46.11A1.417,1.417,0,0,1,440.121,44.693Z" transform="translate(-372.059 -32.979)"/>
          <path id="Trazado_124643" data-name="Trazado 124643" d="M440.121,124.1h1.417v-3.724h-1.417a1.417,1.417,0,0,1-1.417-1.418v6.559A1.416,1.416,0,0,1,440.121,124.1Z" transform="translate(-372.059 -32.979)"/>
          <path id="Trazado_124644" data-name="Trazado 124644" d="M440.121,51.25h1.417V47.527h-1.417A1.416,1.416,0,0,1,438.7,46.11v6.558A1.417,1.417,0,0,1,440.121,51.25Z" transform="translate(-372.059 -32.979)"/>
          <path id="Trazado_124645" data-name="Trazado 124645" d="M453.459,132.005V135H441.538v-1.507h-1.417a1.417,1.417,0,0,1-1.417-1.417v4.341a1.416,1.416,0,0,0,1.417,1.417h14.756a1.416,1.416,0,0,0,1.417-1.417v-3.331c-.483.016-.964.037-1.451.037A1.417,1.417,0,0,1,453.459,132.005Z" transform="translate(-372.059 -32.979)"/>
          <path id="Trazado_124646" data-name="Trazado 124646" d="M440.121,117.54h1.417v-3.723h-1.417A1.416,1.416,0,0,1,438.7,112.4v6.557A1.417,1.417,0,0,1,440.121,117.54Z" transform="translate(-372.059 -32.979)"/>
          <path id="Trazado_124647" data-name="Trazado 124647" d="M440.121,130.656h1.417v-3.723h-1.417a1.416,1.416,0,0,1-1.417-1.417v6.558A1.417,1.417,0,0,1,440.121,130.656Z" transform="translate(-372.059 -32.979)"/>
          <path id="Trazado_124648" data-name="Trazado 124648" d="M440.121,90.6h1.417V86.876h-1.417a1.417,1.417,0,0,1-1.417-1.417v6.557A1.416,1.416,0,0,1,440.121,90.6Z" transform="translate(-372.059 -32.979)"/>
          <path id="Trazado_124649" data-name="Trazado 124649" d="M440.121,47.527h7.834a1.417,1.417,0,1,0,0-2.834h-7.834a1.417,1.417,0,0,0,0,2.834Z" transform="translate(-372.059 -32.979)"/>
          <path id="Trazado_124650" data-name="Trazado 124650" d="M440.121,54.085h7.834a1.417,1.417,0,0,0,0-2.835h-7.834a1.417,1.417,0,0,0,0,2.835Z" transform="translate(-372.059 -32.979)"/>
          <path id="Trazado_124651" data-name="Trazado 124651" d="M440.121,67.2h7.834a1.417,1.417,0,1,0,0-2.834h-7.834a1.417,1.417,0,0,0,0,2.834Z" transform="translate(-372.059 -32.979)"/>
          <path id="Trazado_124652" data-name="Trazado 124652" d="M440.121,73.76h11.113a1.417,1.417,0,0,0,0-2.835H440.121a1.417,1.417,0,0,0,0,2.835Z" transform="translate(-372.059 -32.979)"/>
          <path id="Trazado_124653" data-name="Trazado 124653" d="M440.121,106.55h11.113a1.418,1.418,0,0,0,0-2.835H440.121a1.418,1.418,0,0,0,0,2.835Z" transform="translate(-372.059 -32.979)"/>
          <path id="Trazado_124654" data-name="Trazado 124654" d="M440.121,60.644h7.834a1.418,1.418,0,0,0,0-2.835h-7.834a1.418,1.418,0,0,0,0,2.835Z" transform="translate(-372.059 -32.979)"/>
          <path id="Trazado_124655" data-name="Trazado 124655" d="M440.121,80.317h7.834a1.417,1.417,0,1,0,0-2.834h-7.834a1.417,1.417,0,0,0,0,2.834Z" transform="translate(-372.059 -32.979)"/>
          <path id="Trazado_124656" data-name="Trazado 124656" d="M440.121,86.876h7.834a1.417,1.417,0,1,0,0-2.834h-7.834a1.417,1.417,0,0,0,0,2.834Z" transform="translate(-372.059 -32.979)"/>
          <path id="Trazado_124657" data-name="Trazado 124657" d="M440.121,99.992h7.834a1.417,1.417,0,1,0,0-2.834h-7.834a1.417,1.417,0,0,0,0,2.834Z" transform="translate(-372.059 -32.979)"/>
          <path id="Trazado_124658" data-name="Trazado 124658" d="M440.121,93.434h7.834a1.417,1.417,0,0,0,0-2.835h-7.834a1.417,1.417,0,0,0,0,2.835Z" transform="translate(-372.059 -32.979)"/>
          <path id="Trazado_124659" data-name="Trazado 124659" d="M440.121,113.817h7.834a1.417,1.417,0,1,0,0-2.834h-7.834a1.417,1.417,0,0,0,0,2.834Z" transform="translate(-372.059 -32.979)"/>
          <path id="Trazado_124660" data-name="Trazado 124660" d="M440.121,120.375h7.834a1.417,1.417,0,0,0,0-2.835h-7.834a1.417,1.417,0,0,0,0,2.835Z" transform="translate(-372.059 -32.979)"/>
          <path id="Trazado_124661" data-name="Trazado 124661" d="M440.121,133.491h7.834a1.417,1.417,0,0,0,0-2.835h-7.834a1.417,1.417,0,0,0,0,2.835Z" transform="translate(-372.059 -32.979)"/>
          <path id="Trazado_124662" data-name="Trazado 124662" d="M440.121,126.933h7.834a1.417,1.417,0,1,0,0-2.834h-7.834a1.417,1.417,0,0,0,0,2.834Z" transform="translate(-372.059 -32.979)"/>
          <path id="Trazado_124663" data-name="Trazado 124663" d="M493.49,67.331l-1.324.764a42,42,0,0,1,4.945,18.472h1.453a1.416,1.416,0,0,1,1.417,1.417,44.841,44.841,0,0,0-5.8-22.1A1.415,1.415,0,0,1,493.49,67.331Z" transform="translate(-372.059 -32.979)"/>
          <path id="Trazado_124664" data-name="Trazado 124664" d="M498.564,89.4h-1.453a42.008,42.008,0,0,1-4.963,18.508l1.192.688a1.417,1.417,0,0,1-1.417,2.455l-1.2-.694a42.625,42.625,0,0,1-13.585,13.555l.664,1.15a1.417,1.417,0,1,1-2.455,1.417l-.663-1.148a42.019,42.019,0,0,1-18.389,4.918c-.483.016-.964.037-1.451.037a1.417,1.417,0,0,0,0,2.834c.487,0,.968-.021,1.451-.037a45.182,45.182,0,0,0,43.687-45.1A1.416,1.416,0,0,1,498.564,89.4Z" transform="translate(-372.059 -32.979)"/>
          <path id="Trazado_124665" data-name="Trazado 124665" d="M478.061,50.754l-.8,1.381a42.628,42.628,0,0,1,13.48,13.508l1.329-.767a1.422,1.422,0,0,1,1.6.132,45.465,45.465,0,0,0-15.668-15.747A1.413,1.413,0,0,1,478.061,50.754Z" transform="translate(-372.059 -32.979)"/>
          <path id="Trazado_124666" data-name="Trazado 124666" d="M453.459,43.962a1.417,1.417,0,0,0,1.384,1.718c.487,0,.968.021,1.451.037A42.025,42.025,0,0,1,474.818,50.7l.789-1.367a1.416,1.416,0,0,1,1.318-.7,44.806,44.806,0,0,0-20.631-5.755c-.483-.016-.964-.037-1.451-.037A1.417,1.417,0,0,0,453.459,43.962Z" transform="translate(-372.059 -32.979)"/>
          <path id="Trazado_124667" data-name="Trazado 124667" d="M453.459,61.976a1.429,1.429,0,0,0-.033.3,1.422,1.422,0,0,0,1.417,1.418c.488,0,.97.018,1.451.047a24.285,24.285,0,0,1,0,48.483c-.481.029-.963.047-1.451.047a1.418,1.418,0,0,0,0,2.835q.73,0,1.451-.04a27.122,27.122,0,0,0,0-54.167q-.722-.039-1.451-.04A1.419,1.419,0,0,0,453.459,61.976Z" transform="translate(-372.059 -32.979)"/>
          <path id="Trazado_124668" data-name="Trazado 124668" d="M498.564,86.567H487.432a1.417,1.417,0,1,0,0,2.834h11.132a1.417,1.417,0,0,0,0-2.834Z" transform="translate(-372.059 -32.979)"/>
          <path id="Trazado_124669" data-name="Trazado 124669" d="M492.073,64.876l-1.329.767-8.312,4.8a1.417,1.417,0,1,0,1.417,2.455l8.317-4.8,1.324-.764a1.415,1.415,0,0,0,.687-1.45,1.36,1.36,0,0,0-.5-.873A1.422,1.422,0,0,0,492.073,64.876Z" transform="translate(-372.059 -32.979)"/>
          <path id="Trazado_124670" data-name="Trazado 124670" d="M475.607,49.337l-.789,1.367-4.777,8.273a1.417,1.417,0,1,0,2.453,1.418l4.77-8.26.8-1.381a1.435,1.435,0,0,0-.519-1.936,1.4,1.4,0,0,0-.617-.18A1.416,1.416,0,0,0,475.607,49.337Z" transform="translate(-372.059 -32.979)"/>
          <path id="Trazado_124671" data-name="Trazado 124671" d="M470.3,114.9a1.419,1.419,0,0,0-.519,1.936l4.9,8.493.663,1.148a1.417,1.417,0,1,0,2.455-1.417l-.664-1.15-4.9-8.491A1.421,1.421,0,0,0,470.3,114.9Z" transform="translate(-372.059 -32.979)"/>
          <path id="Trazado_124672" data-name="Trazado 124672" d="M481.763,103.549a1.418,1.418,0,0,0,.518,1.936l8.441,4.873,1.2.694a1.417,1.417,0,0,0,1.417-2.455l-1.192-.688-8.449-4.878A1.42,1.42,0,0,0,481.763,103.549Z" transform="translate(-372.059 -32.979)"/>
        </g>
      </g>
    </g>
  </g>
</svg>
