<svg xmlns="http://www.w3.org/2000/svg" width="610" height="398" viewBox="0 0 610 398">
  <g id="Grupo_59867" data-name="Grupo 59867" transform="translate(-810 -9638)">
    <rect id="Rectángulo_30671" data-name="Rectángulo 30671" width="610" height="398" transform="translate(810 9638)" fill="#92a7ba" opacity="0.068"/>
    <g id="Grupo_59866" data-name="Grupo 59866">
      <path id="Trazado_125314" data-name="Trazado 125314" d="M391.286,143.368l69.6,30L358.605,410.643,14.895,262.483l36.726-85.2L117.174,25.209Z" transform="translate(869.209 9621.875)" fill="#8a898f" style="mix-blend-mode: multiply;isolation: isolate"/>
      <g id="Grupo_59832" data-name="Grupo 59832" transform="translate(896.213 9642)">
        <rect id="Rectángulo_30448" data-name="Rectángulo 30448" width="374.283" height="258.38" transform="matrix(-0.918, -0.396, 0.396, -0.918, 343.711, 385.433)" fill="#fff"/>
        <path id="Trazado_125315" data-name="Trazado 125315" d="M61.768,198.826a190.636,190.636,0,0,0,48,41.217c34.886,21.028,76.032,28.074,116.133,21.945,39.231-6,77.617-21.717,106.184-49.855,22.607-22.255,38.515-50.945,47.887-81.292l69.6,30L347.293,398.117,3.582,249.958l36.727-85.2A159.622,159.622,0,0,0,61.768,198.826Z" transform="translate(-3.582 -12.683)" fill="#b6b8bf"/>
        <g id="Grupo_59831" data-name="Grupo 59831" transform="translate(64.698 56.684)">
          <g id="Grupo_59825" data-name="Grupo 59825" transform="translate(133.385 155.465)">
            <rect id="Rectángulo_30449" data-name="Rectángulo 30449" width="4.076" height="74.66" transform="translate(68.561 98.119) rotate(-156.681)" fill="none" stroke="#072c39" stroke-miterlimit="10" stroke-width="1.71"/>
            <rect id="Rectángulo_30450" data-name="Rectángulo 30450" width="4.069" height="74.66" transform="translate(3.742 70.177) rotate(-156.691)" fill="none" stroke="#072c39" stroke-miterlimit="10" stroke-width="1.71"/>
            <rect id="Rectángulo_30451" data-name="Rectángulo 30451" width="74.661" height="4.07" transform="translate(68.559 98.122) rotate(-156.676)" fill="none" stroke="#072c39" stroke-miterlimit="10" stroke-width="1.71"/>
            <rect id="Rectángulo_30452" data-name="Rectángulo 30452" width="50.93" height="4.072" transform="matrix(-0.918, -0.396, 0.396, -0.918, 96.506, 33.292)" fill="none" stroke="#072c39" stroke-miterlimit="10" stroke-width="1.71"/>
            <path id="Trazado_125316" data-name="Trazado 125316" d="M213.107,230.917s-5.652,13.351-24.395,6.923" transform="translate(-163.373 -217.781)" fill="none" stroke="#072c39" stroke-miterlimit="10" stroke-width="1.71"/>
          </g>
          <g id="Grupo_59826" data-name="Grupo 59826" transform="translate(107.06 27.942)">
            <rect id="Rectángulo_30453" data-name="Rectángulo 30453" width="4.073" height="74.659" transform="matrix(-0.918, -0.396, 0.396, -0.918, 68.55, 98.116)" fill="none" stroke="#072c39" stroke-miterlimit="10" stroke-width="1.71"/>
            <rect id="Rectángulo_30454" data-name="Rectángulo 30454" width="4.074" height="74.66" transform="translate(3.742 70.18) rotate(-156.694)" fill="none" stroke="#072c39" stroke-miterlimit="10" stroke-width="1.71"/>
            <rect id="Rectángulo_30455" data-name="Rectángulo 30455" width="74.659" height="4.075" transform="translate(96.496 33.297) rotate(-156.686)" fill="none" stroke="#072c39" stroke-miterlimit="10" stroke-width="1.71"/>
            <rect id="Rectángulo_30456" data-name="Rectángulo 30456" width="50.924" height="4.071" transform="translate(68.554 98.118) rotate(-156.681)" fill="none" stroke="#072c39" stroke-miterlimit="10" stroke-width="1.71"/>
            <path id="Trazado_125317" data-name="Trazado 125317" d="M248.756,170.332s5.816-13.28-11.716-22.488" transform="translate(-225.355 -96.111)" fill="none" stroke="#072c39" stroke-miterlimit="10" stroke-width="1.71"/>
          </g>
          <g id="Grupo_59827" data-name="Grupo 59827" transform="translate(42.235 0)">
            <rect id="Rectángulo_30457" data-name="Rectángulo 30457" width="4.071" height="74.659" transform="translate(3.739 70.177) rotate(-156.686)" fill="none" stroke="#072c39" stroke-miterlimit="10" stroke-width="1.71"/>
            <rect id="Rectángulo_30458" data-name="Rectángulo 30458" width="74.661" height="4.076" transform="translate(96.498 33.305) rotate(-156.675)" fill="none" stroke="#072c39" stroke-miterlimit="10" stroke-width="1.71"/>
            <rect id="Rectángulo_30459" data-name="Rectángulo 30459" width="50.93" height="4.071" transform="translate(68.558 98.12) rotate(-156.676)" fill="none" stroke="#072c39" stroke-miterlimit="10" stroke-width="1.71"/>
            <path id="Trazado_125318" data-name="Trazado 125318" d="M309.31,144.227s5.825-13.276-11.714-22.489" transform="translate(-285.909 -70.008)" fill="none" stroke="#072c39" stroke-miterlimit="10" stroke-width="1.71"/>
          </g>
          <g id="Grupo_59828" data-name="Grupo 59828" transform="translate(0 97.973)">
            <rect id="Rectángulo_30460" data-name="Rectángulo 30460" width="4.075" height="74.66" transform="translate(68.563 98.116) rotate(-156.68)" fill="none" stroke="#072c39" stroke-miterlimit="10" stroke-width="1.71"/>
            <rect id="Rectángulo_30461" data-name="Rectángulo 30461" width="4.071" height="74.66" transform="matrix(-0.918, -0.396, 0.396, -0.918, 3.739, 70.172)" fill="none" stroke="#072c39" stroke-miterlimit="10" stroke-width="1.71"/>
            <rect id="Rectángulo_30462" data-name="Rectángulo 30462" width="74.661" height="4.074" transform="translate(68.563 98.117) rotate(-156.679)" fill="none" stroke="#072c39" stroke-miterlimit="10" stroke-width="1.71"/>
            <rect id="Rectángulo_30463" data-name="Rectángulo 30463" width="50.93" height="4.072" transform="translate(96.507 33.291) rotate(-156.686)" fill="none" stroke="#072c39" stroke-miterlimit="10" stroke-width="1.71"/>
            <path id="Trazado_125319" data-name="Trazado 125319" d="M337.708,177.206s-5.653,13.35-24.392,6.922" transform="translate(-287.972 -164.073)" fill="none" stroke="#072c39" stroke-miterlimit="10" stroke-width="1.71"/>
          </g>
          <rect id="Rectángulo_30464" data-name="Rectángulo 30464" width="70.585" height="4.074" transform="translate(133.383 224.031) rotate(-156.679)" fill="none" stroke="#072c39" stroke-miterlimit="10" stroke-width="1.71"/>
          <rect id="Rectángulo_30465" data-name="Rectángulo 30465" width="51.639" height="4.072" transform="translate(165.061 160.822) rotate(-156.671)" fill="none" stroke="#072c39" stroke-miterlimit="10" stroke-width="1.71"/>
          <rect id="Rectángulo_30466" data-name="Rectángulo 30466" width="21.225" height="7.654" transform="translate(97.163 196.2) rotate(-156.685)" fill="none" stroke="#072c39" stroke-miterlimit="10" stroke-width="1.71"/>
          <path id="Trazado_125320" data-name="Trazado 125320" d="M276.259,227.965a10.667,10.667,0,1,0,5.581,14.021A10.663,10.663,0,0,0,276.259,227.965Z" transform="translate(-177.372 -62.586)" fill="none" stroke="#072c39" stroke-miterlimit="10" stroke-width="1.71"/>
          <path id="Trazado_125321" data-name="Trazado 125321" d="M274.713,230.817a7.319,7.319,0,1,0,3.831,9.621A7.315,7.315,0,0,0,274.713,230.817Z" transform="translate(-177.152 -62.366)" fill="none" stroke="#072c39" stroke-miterlimit="10" stroke-width="1.71"/>
          <rect id="Rectángulo_30467" data-name="Rectángulo 30467" width="3.033" height="66.515" transform="translate(103.588 206.749) rotate(-156.681)" fill="none" stroke="#072c39" stroke-miterlimit="10" stroke-width="1.71"/>
          <path id="Trazado_125322" data-name="Trazado 125322" d="M224.9,221.876a3.034,3.034,0,1,0,1.584,3.991A3.032,3.032,0,0,0,224.9,221.876Z" transform="translate(-77.828 -62.971)" fill="none" stroke="#072c39" stroke-miterlimit="10" stroke-width="1.71"/>
          <path id="Trazado_125323" data-name="Trazado 125323" d="M274.007,200.872c.044.018.1.036.147.057,4.563,1.967,6.938,6.621,5.308,10.4l-2.5,5.792c-1.629,3.78-6.643,5.249-11.207,3.282l-.145-.063Z" transform="translate(-179.176 -64.433)" fill="none" stroke="#072c39" stroke-miterlimit="10" stroke-width="1.71"/>
          <rect id="Rectángulo_30468" data-name="Rectángulo 30468" width="4.076" height="181.193" transform="translate(244.802 272.058) rotate(-156.676)" fill="none" stroke="#072c39" stroke-miterlimit="10" stroke-width="1.71"/>
          <rect id="Rectángulo_30469" data-name="Rectángulo 30469" width="125.411" height="4.076" transform="matrix(-0.918, -0.396, 0.396, -0.918, 314.925, 109.402)" fill="none" stroke="#072c39" stroke-miterlimit="10" stroke-width="1.71"/>
          <rect id="Rectángulo_30470" data-name="Rectángulo 30470" width="10.58" height="4.074" transform="translate(207.917 256.158) rotate(-156.675)" fill="none" stroke="#072c39" stroke-miterlimit="10" stroke-width="1.71"/>
          <g id="Grupo_59829" data-name="Grupo 59829" transform="translate(191.961 81.823)">
            <path id="Trazado_125324" data-name="Trazado 125324" d="M167.894,156.711a16.812,16.812,0,1,0,8.784,22.093A16.813,16.813,0,0,0,167.894,156.711Z" transform="translate(-139.487 -149.465)" fill="none" stroke="#072c39" stroke-miterlimit="10" stroke-width="1.71"/>
            <path id="Trazado_125325" data-name="Trazado 125325" d="M143.161,174.279c-1.474-.636-3.481.747-4.491,3.091s-.64,4.755.834,5.391,3.485-.75,4.5-3.094S144.636,174.915,143.161,174.279Z" transform="translate(-99.233 -148.141)" fill="none" stroke="#072c39" stroke-miterlimit="10" stroke-width="1.71"/>
            <path id="Trazado_125326" data-name="Trazado 125326" d="M179.468,158.626c-1.467-.633-3.48.748-4.491,3.091s-.633,4.758.834,5.391,3.489-.748,4.5-3.09S180.944,159.262,179.468,158.626Z" transform="translate(-174.411 -149.244)" fill="none" stroke="#072c39" stroke-miterlimit="10" stroke-width="1.71"/>
            <path id="Trazado_125327" data-name="Trazado 125327" d="M164.281,188.221c-.633,1.47.749,3.482,3.1,4.494s4.756.634,5.39-.835-.746-3.483-3.093-4.494S164.915,186.75,164.281,188.221Z" transform="translate(-155.446 -147.247)" fill="none" stroke="#072c39" stroke-miterlimit="10" stroke-width="1.71"/>
            <path id="Trazado_125328" data-name="Trazado 125328" d="M148.346,151.253c-.635,1.473.748,3.482,3.1,4.495s4.756.636,5.39-.836-.747-3.48-3.093-4.492S148.98,149.783,148.346,151.253Z" transform="translate(-122.453 -149.851)" fill="none" stroke="#072c39" stroke-miterlimit="10" stroke-width="1.71"/>
          </g>
          <g id="Grupo_59830" data-name="Grupo 59830" transform="translate(267.005 103.068)">
            <path id="Trazado_125329" data-name="Trazado 125329" d="M106.648,170.473a9.476,9.476,0,0,0-12.451,4.95L82.285,203.057a9.478,9.478,0,0,0,4.951,12.449h0a9.473,9.473,0,0,0,12.453-4.948L111.6,182.925a9.475,9.475,0,0,0-4.954-12.451Z" transform="translate(-81.51 -169.697)" fill="none" stroke="#072c39" stroke-miterlimit="10" stroke-width="1.71"/>
            <path id="Trazado_125330" data-name="Trazado 125330" d="M96.284,174.992a2.987,2.987,0,0,0-3.842,1.731L75.025,217.129a2.989,2.989,0,0,0,1.379,3.984h0a2.986,2.986,0,0,0,3.84-1.735l17.418-40.406a2.984,2.984,0,0,0-1.378-3.98Z" transform="translate(-59.832 -169.339)" fill="none" stroke="#072c39" stroke-miterlimit="10" stroke-width="1.71"/>
          </g>
          <path id="Trazado_125331" data-name="Trazado 125331" d="M108.542,206.424a9.469,9.469,0,0,0,12.451-4.945l11.912-27.635a9.474,9.474,0,0,0-4.951-12.453h0a9.479,9.479,0,0,0-12.455,4.95l-11.912,27.634a9.475,9.475,0,0,0,4.954,12.449Z" transform="translate(141.388 -67.269)" fill="none" stroke="#072c39" stroke-miterlimit="10" stroke-width="1.71"/>
          <path id="Trazado_125332" data-name="Trazado 125332" d="M118.4,201.905a2.983,2.983,0,0,0,3.836-1.734l17.416-40.4a2.985,2.985,0,0,0-1.372-3.985h0a2.984,2.984,0,0,0-3.842,1.737l-17.416,40.4a2.986,2.986,0,0,0,1.378,3.982Z" transform="translate(120.217 -67.625)" fill="none" stroke="#072c39" stroke-miterlimit="10" stroke-width="1.71"/>
          <path id="Trazado_125333" data-name="Trazado 125333" d="M124.349,313.051S134.5,289.1,168.13,300.629" transform="translate(83.885 -57.626)" fill="none" stroke="#072c39" stroke-miterlimit="10" stroke-width="1.71"/>
        </g>
        <rect id="Rectángulo_30471" data-name="Rectángulo 30471" width="351.975" height="235.963" transform="translate(337.905 370.725) rotate(-156.681)" fill="none" stroke="#072c39" stroke-miterlimit="10" stroke-width="1.71"/>
        <rect id="Rectángulo_30472" data-name="Rectángulo 30472" width="332.994" height="223.238" transform="translate(331.708 361.126) rotate(-156.681)" fill="none" stroke="#072c39" stroke-miterlimit="10" stroke-width="1.617"/>
      </g>
      <g id="Grupo_59847" data-name="Grupo 59847" transform="translate(1143.861 9746.893)">
        <path id="Trazado_125334" data-name="Trazado 125334" d="M18.184,147.028h0l.665-.086h0l1.112-.142h0l.814-.1h0l1.313-.169.5-.066v0l1.529-.2.353-.046h0l1.068-.138h0l.682-.087,1.135-.146h0l.816-.1h0l3.465-.445.207-.028h0l1.07-.138h0l.635-.08,1.291-.166h0l.818-.106v0l1-.128h0l.818-.1,2.948-.379h0l.817-.1,1-.127h0l.219-.028,1.575-.2h0l.718-.091,1.165-.15h0l.818-.1h0l1.062-.137h0l.818-.1,1.111-.143h0l.819-.1h0l1-.128h0l.819-.1,2.949-.379h0l.815-.106v0l1.291-.166.525-.069h0l3.27-.421.4-.052h0l1.075-.139.811-.1h0l1.11-.142h0l.815-.1h0l1-.128.819-.107h0l2.946-.379h0l.52-.065L72,140.108l.35-.045,1.442-.185h0l.3-.037,3.469-.446.817-.106h0l1.112-.142h0l.816-.1h0l1-.128.816-.1h0l1.416-.182.467-.061h0l1.158-.149.725-.094h0l1-.128.817-.106h0l.974-.124h0l.26-.033,2.1-.27.347-.045h0l2.993-.385h0l.437-.056L96.182,137h0l.816-.1,1.4-.18.485-.063h0l1.367-.176.515-.067h0l1-.128h0l.82-.106h0l.976-.125h0l.814-.1h0l1.068-.137h0l.815-.106h0l1.14-.146.747-.1v0l1.185-.152.74-.1v0l1.725-.223.09-.011,2.95-.38.816-.1h0l1-.128v0l.818-.1h0l.974-.125h0l.817-.1h0l1.065-.137v0l.817-.1v0l1.5-.194.377-.048,1.716-.221.213-.028,1-.128.814-.106h0l1.065-.137h0l.818-.106h0l1.066-.137.455-.058,1.359-.174.128-.017,2.175-.279.3-.04h0l2.95-.38h0l.819-.106h0l1.7-.219.225-.029h0l1.413-.182.4-.051h0l1.066-.137h0l.817-.1h0l1.065-.137v0l.819-.1h0l1-.128h0l.818-.1h0l2.959-.38.715-.093h0l1.069-.138.817-.106h0l1.107-.142h0l.82-.1,1-.128v0l.817-.1h0l1.066-.138h0l.747-.094,1.135-.147h0l.816-.1v0l3.042-.392.566-.074h0l1.068-.137h0l.816-.1,1.637-.21.246-.032h0l1.828-.234h.01l1.449-.187.364-.047h0l1.327-.171.557-.072h0l1.065-.137h0l.546-.07,1.27-.163h0l.817-.1,24.966,194.142L4.453,148.793Zm143.462,95.239-10.454-81.306-72.222,9.285Z" transform="translate(-4.453 -117.873)" fill="#8a898f" style="mix-blend-mode: multiply;isolation: isolate"/>
        <g id="Grupo_59846" data-name="Grupo 59846" transform="translate(3.729 0)">
          <path id="Trazado_125335" data-name="Trazado 125335" d="M.969,140.623l172.443-22.174,24.966,194.142Zm74.517,21.452L158.162,234.1,147.707,152.79Z" transform="translate(-0.969 -118.449)" fill="#1ba4b6"/>
          <path id="Trazado_125336" data-name="Trazado 125336" d="M.969,140.623l172.443-22.174,24.966,194.142Zm37.691,9.044L177.252,270.4,159.725,134.1Z" transform="translate(-0.969 -118.449)" fill="#cfd1d6" style="mix-blend-mode: multiply;isolation: isolate"/>
          <g id="Grupo_59845" data-name="Grupo 59845" transform="translate(13.728)" style="mix-blend-mode: multiply;isolation: isolate">
            <rect id="Rectángulo_30473" data-name="Rectángulo 30473" width="5.267" height="0.824" transform="matrix(-0.127, -0.992, 0.992, -0.127, 143.778, 7.231)" fill="#828086"/>
            <rect id="Rectángulo_30474" data-name="Rectángulo 30474" width="8.079" height="0.825" transform="translate(151.528 9.07) rotate(-97.246)" fill="#828086"/>
            <rect id="Rectángulo_30475" data-name="Rectángulo 30475" width="8.08" height="0.825" transform="matrix(-0.128, -0.992, 0.992, -0.128, 136.742, 10.972)" fill="#828086"/>
            <rect id="Rectángulo_30476" data-name="Rectángulo 30476" width="4.443" height="0.826" transform="translate(149.23 5.7) rotate(-97.308)" fill="#828086"/>
            <rect id="Rectángulo_30477" data-name="Rectángulo 30477" width="4.443" height="0.823" transform="matrix(-0.129, -0.992, 0.992, -0.129, 147.354, 5.941)" fill="#828086"/>
            <rect id="Rectángulo_30478" data-name="Rectángulo 30478" width="4.445" height="0.824" transform="matrix(-0.128, -0.992, 0.992, -0.128, 145.468, 6.185)" fill="#828086"/>
            <rect id="Rectángulo_30479" data-name="Rectángulo 30479" width="4.445" height="0.823" transform="matrix(-0.128, -0.992, 0.992, -0.128, 141.859, 6.648)" fill="#828086"/>
            <path id="Trazado_125337" data-name="Trazado 125337" d="M41.6,125.183l.814-.107-.567-4.406-.815.1Z" transform="translate(98.375 -118.292)" fill="#828086"/>
            <rect id="Rectángulo_30480" data-name="Rectángulo 30480" width="4.445" height="0.825" transform="translate(138.093 7.132) rotate(-97.308)" fill="#828086"/>
            <rect id="Rectángulo_30481" data-name="Rectángulo 30481" width="5.267" height="0.823" transform="translate(158.569 5.329) rotate(-97.3)" fill="#828086"/>
            <rect id="Rectángulo_30482" data-name="Rectángulo 30482" width="8.079" height="0.825" transform="translate(151.528 9.07) rotate(-97.246)" fill="#828086"/>
            <rect id="Rectángulo_30483" data-name="Rectángulo 30483" width="4.444" height="0.823" transform="translate(156.652 4.746) rotate(-97.367)" fill="#828086"/>
            <path id="Trazado_125338" data-name="Trazado 125338" d="M27.782,123.405l.816-.1-.567-4.409-.815.106Z" transform="translate(126.986 -118.417)" fill="#828086"/>
            <rect id="Rectángulo_30484" data-name="Rectángulo 30484" width="4.444" height="0.822" transform="matrix(-0.127, -0.992, 0.992, -0.127, 152.885, 5.23)" fill="#828086"/>
            <rect id="Rectángulo_30485" data-name="Rectángulo 30485" width="5.268" height="0.825" transform="translate(128.895 9.145) rotate(-97.273)" fill="#828086"/>
            <rect id="Rectángulo_30486" data-name="Rectángulo 30486" width="8.079" height="0.826" transform="matrix(-0.128, -0.992, 0.992, -0.128, 121.863, 12.886)" fill="#828086"/>
            <rect id="Rectángulo_30487" data-name="Rectángulo 30487" width="4.443" height="0.824" transform="translate(134.352 7.613) rotate(-97.337)" fill="#828086"/>
            <rect id="Rectángulo_30488" data-name="Rectángulo 30488" width="4.443" height="0.824" transform="translate(132.468 7.855) rotate(-97.348)" fill="#828086"/>
            <rect id="Rectángulo_30489" data-name="Rectángulo 30489" width="4.443" height="0.822" transform="translate(130.589 8.098) rotate(-97.384)" fill="#828086"/>
            <rect id="Rectángulo_30490" data-name="Rectángulo 30490" width="4.445" height="0.826" transform="translate(126.973 8.561) rotate(-97.228)" fill="#828086"/>
            <rect id="Rectángulo_30491" data-name="Rectángulo 30491" width="4.445" height="0.823" transform="translate(125.096 8.804) rotate(-97.337)" fill="#828086"/>
            <rect id="Rectángulo_30492" data-name="Rectángulo 30492" width="4.444" height="0.824" transform="translate(123.211 9.046) rotate(-97.337)" fill="#828086"/>
            <rect id="Rectángulo_30493" data-name="Rectángulo 30493" width="5.268" height="0.824" transform="translate(114.02 11.059) rotate(-97.395)" fill="#828086"/>
            <path id="Trazado_125339" data-name="Trazado 125339" d="M72.889,132.809l.815-.1-1.031-8.016-.814.106Z" transform="translate(34.092 -118.009)" fill="#828086"/>
            <rect id="Rectángulo_30494" data-name="Rectángulo 30494" width="4.444" height="0.825" transform="translate(119.47 9.527) rotate(-97.364)" fill="#828086"/>
            <rect id="Rectángulo_30495" data-name="Rectángulo 30495" width="4.444" height="0.821" transform="translate(117.589 9.77) rotate(-97.348)" fill="#828086"/>
            <rect id="Rectángulo_30496" data-name="Rectángulo 30496" width="4.443" height="0.822" transform="translate(115.707 10.011) rotate(-97.413)" fill="#828086"/>
            <rect id="Rectángulo_30497" data-name="Rectángulo 30497" width="4.444" height="0.823" transform="matrix(-0.129, -0.992, 0.992, -0.129, 112.099, 10.476)" fill="#828086"/>
            <rect id="Rectángulo_30498" data-name="Rectángulo 30498" width="4.445" height="0.825" transform="translate(110.21 10.717) rotate(-97.253)" fill="#828086"/>
            <rect id="Rectángulo_30499" data-name="Rectángulo 30499" width="4.445" height="0.821" transform="translate(108.332 10.959) rotate(-97.302)" fill="#828086"/>
            <rect id="Rectángulo_30500" data-name="Rectángulo 30500" width="5.267" height="0.825" transform="translate(99.136 12.971) rotate(-97.319)" fill="#828086"/>
            <rect id="Rectángulo_30501" data-name="Rectángulo 30501" width="8.081" height="0.824" transform="matrix(-0.128, -0.992, 0.992, -0.128, 92.099, 16.714)" fill="#828086"/>
            <rect id="Rectángulo_30502" data-name="Rectángulo 30502" width="4.444" height="0.822" transform="translate(104.591 11.441) rotate(-97.383)" fill="#828086"/>
            <rect id="Rectángulo_30503" data-name="Rectángulo 30503" width="4.446" height="0.823" transform="matrix(-0.127, -0.992, 0.992, -0.127, 102.704, 11.683)" fill="#828086"/>
            <path id="Trazado_125340" data-name="Trazado 125340" d="M78.178,129.887l.815-.106-.563-4.409-.816.106Z" transform="translate(22.644 -117.961)" fill="#828086"/>
            <rect id="Rectángulo_30504" data-name="Rectángulo 30504" width="4.443" height="0.821" transform="translate(97.208 12.387) rotate(-97.112)" fill="#828086"/>
            <rect id="Rectángulo_30505" data-name="Rectángulo 30505" width="4.442" height="0.824" transform="translate(95.33 12.631) rotate(-97.291)" fill="#828086"/>
            <rect id="Rectángulo_30506" data-name="Rectángulo 30506" width="4.444" height="0.822" transform="translate(93.449 12.873) rotate(-97.302)" fill="#828086"/>
            <rect id="Rectángulo_30507" data-name="Rectángulo 30507" width="5.268" height="0.826" transform="translate(84.249 14.886) rotate(-97.245)" fill="#828086"/>
            <rect id="Rectángulo_30508" data-name="Rectángulo 30508" width="8.079" height="0.824" transform="translate(77.215 18.626) rotate(-97.308)" fill="#828086"/>
            <rect id="Rectángulo_30509" data-name="Rectángulo 30509" width="4.444" height="0.826" transform="translate(89.706 13.354) rotate(-97.318)" fill="#828086"/>
            <path id="Trazado_125341" data-name="Trazado 125341" d="M90.32,131.448l.818-.107-.567-4.408-.815.106Z" transform="translate(-2.499 -117.851)" fill="#828086"/>
            <rect id="Rectángulo_30510" data-name="Rectángulo 30510" width="4.444" height="0.822" transform="translate(85.942 13.839) rotate(-97.337)" fill="#828086"/>
            <path id="Trazado_125342" data-name="Trazado 125342" d="M95.45,132.106l.818-.1-.569-4.409-.816.107Z" transform="translate(-13.117 -117.804)" fill="#828086"/>
            <path id="Trazado_125343" data-name="Trazado 125343" d="M97.21,132.331l.816-.1-.567-4.41-.818.108Z" transform="translate(-16.759 -117.789)" fill="#828086"/>
            <rect id="Rectángulo_30511" data-name="Rectángulo 30511" width="4.444" height="0.823" transform="translate(78.571 14.787) rotate(-97.394)" fill="#828086"/>
            <rect id="Rectángulo_30512" data-name="Rectángulo 30512" width="5.267" height="0.823" transform="translate(69.373 16.798) rotate(-97.339)" fill="#828086"/>
            <rect id="Rectángulo_30513" data-name="Rectángulo 30513" width="8.081" height="0.823" transform="translate(62.334 20.54) rotate(-97.302)" fill="#828086"/>
            <rect id="Rectángulo_30514" data-name="Rectángulo 30514" width="4.443" height="0.823" transform="translate(74.829 15.268) rotate(-97.394)" fill="#828086"/>
            <path id="Trazado_125344" data-name="Trazado 125344" d="M104.223,133.236l.817-.106-.566-4.408-.818.106Z" transform="translate(-31.281 -117.725)" fill="#828086"/>
            <rect id="Rectángulo_30515" data-name="Rectángulo 30515" width="4.444" height="0.824" transform="translate(71.056 15.753) rotate(-97.272)" fill="#828086"/>
            <path id="Trazado_125345" data-name="Trazado 125345" d="M109.353,133.9l.816-.107-.566-4.408-.816.106Z" transform="translate(-41.901 -117.679)" fill="#828086"/>
            <rect id="Rectángulo_30516" data-name="Rectángulo 30516" width="4.443" height="0.824" transform="translate(65.568 16.458) rotate(-97.3)" fill="#828086"/>
            <rect id="Rectángulo_30517" data-name="Rectángulo 30517" width="4.444" height="0.823" transform="translate(63.688 16.701) rotate(-97.358)" fill="#828086"/>
            <rect id="Rectángulo_30518" data-name="Rectángulo 30518" width="5.267" height="0.824" transform="translate(54.49 18.713) rotate(-97.33)" fill="#828086"/>
            <rect id="Rectángulo_30519" data-name="Rectángulo 30519" width="8.081" height="0.822" transform="translate(47.461 22.454) rotate(-97.44)" fill="#828086"/>
            <rect id="Rectángulo_30520" data-name="Rectángulo 30520" width="4.444" height="0.825" transform="translate(59.942 17.181) rotate(-97.308)" fill="#828086"/>
            <rect id="Rectángulo_30521" data-name="Rectángulo 30521" width="4.444" height="0.824" transform="matrix(-0.127, -0.992, 0.992, -0.127, 58.059, 17.425)" fill="#828086"/>
            <rect id="Rectángulo_30522" data-name="Rectángulo 30522" width="4.443" height="0.824" transform="matrix(-0.129, -0.992, 0.992, -0.129, 56.179, 17.666)" fill="#828086"/>
            <rect id="Rectángulo_30523" data-name="Rectángulo 30523" width="4.444" height="0.823" transform="matrix(-0.127, -0.992, 0.992, -0.127, 52.569, 18.13)" fill="#828086"/>
            <rect id="Rectángulo_30524" data-name="Rectángulo 30524" width="4.443" height="0.824" transform="matrix(-0.128, -0.992, 0.992, -0.128, 50.689, 18.372)" fill="#828086"/>
            <rect id="Rectángulo_30525" data-name="Rectángulo 30525" width="4.446" height="0.826" transform="translate(48.804 18.615) rotate(-97.31)" fill="#828086"/>
            <rect id="Rectángulo_30526" data-name="Rectángulo 30526" width="5.267" height="0.822" transform="matrix(-0.126, -0.992, 0.992, -0.126, 39.607, 20.626)" fill="#828086"/>
            <rect id="Rectángulo_30527" data-name="Rectángulo 30527" width="8.081" height="0.826" transform="translate(32.574 24.368) rotate(-97.375)" fill="#828086"/>
            <path id="Trazado_125346" data-name="Trazado 125346" d="M130.27,136.584l.815-.106-.565-4.408-.818.106Z" transform="translate(-85.207 -117.489)" fill="#828086"/>
            <rect id="Rectángulo_30528" data-name="Rectángulo 30528" width="4.444" height="0.822" transform="matrix(-0.126, -0.992, 0.992, -0.126, 43.177, 19.337)" fill="#828086"/>
            <rect id="Rectángulo_30529" data-name="Rectángulo 30529" width="4.444" height="0.821" transform="translate(41.3 19.579) rotate(-97.355)" fill="#828086"/>
            <rect id="Rectángulo_30530" data-name="Rectángulo 30530" width="4.445" height="0.823" transform="translate(37.688 20.043) rotate(-97.291)" fill="#828086"/>
            <rect id="Rectángulo_30531" data-name="Rectángulo 30531" width="4.444" height="0.825" transform="translate(35.803 20.286) rotate(-97.272)" fill="#828086"/>
            <rect id="Rectángulo_30532" data-name="Rectángulo 30532" width="4.446" height="0.825" transform="matrix(-0.127, -0.992, 0.992, -0.127, 33.923, 20.529)" fill="#828086"/>
            <path id="Trazado_125347" data-name="Trazado 125347" d="M149.37,139.855l.818-.1-.673-5.223-.818.1Z" transform="translate(-124.643 -117.316)" fill="#828086"/>
            <rect id="Rectángulo_30533" data-name="Rectángulo 30533" width="8.081" height="0.825" transform="translate(17.687 26.281) rotate(-97.283)" fill="#828086"/>
            <rect id="Rectángulo_30534" data-name="Rectángulo 30534" width="4.444" height="0.824" transform="matrix(-0.127, -0.992, 0.992, -0.127, 30.178, 21.009)" fill="#828086"/>
            <rect id="Rectángulo_30535" data-name="Rectángulo 30535" width="4.445" height="0.824" transform="matrix(-0.128, -0.992, 0.992, -0.128, 28.299, 21.251)" fill="#828086"/>
            <rect id="Rectángulo_30536" data-name="Rectángulo 30536" width="4.444" height="0.824" transform="matrix(-0.128, -0.992, 0.992, -0.128, 26.415, 21.493)" fill="#828086"/>
            <rect id="Rectángulo_30537" data-name="Rectángulo 30537" width="4.446" height="0.824" transform="matrix(-0.128, -0.992, 0.992, -0.128, 22.807, 21.958)" fill="#828086"/>
            <rect id="Rectángulo_30538" data-name="Rectángulo 30538" width="4.444" height="0.822" transform="matrix(-0.125, -0.992, 0.992, -0.125, 20.922, 22.199)" fill="#828086"/>
            <path id="Trazado_125348" data-name="Trazado 125348" d="M154.576,139.71l.817-.107-.568-4.406-.818.1Z" transform="translate(-135.534 -117.269)" fill="#828086"/>
            <rect id="Rectángulo_30539" data-name="Rectángulo 30539" width="5.268" height="0.822" transform="matrix(-0.127, -0.992, 0.992, -0.127, 9.848, 24.454)" fill="#828086"/>
            <rect id="Rectángulo_30540" data-name="Rectángulo 30540" width="8.082" height="0.822" transform="matrix(-0.127, -0.992, 0.992, -0.127, 2.809, 28.196)" fill="#828086"/>
            <rect id="Rectángulo_30541" data-name="Rectángulo 30541" width="4.443" height="0.822" transform="translate(15.301 22.922) rotate(-97.337)" fill="#828086"/>
            <rect id="Rectángulo_30542" data-name="Rectángulo 30542" width="4.443" height="0.821" transform="translate(13.417 23.164) rotate(-97.32)" fill="#828086"/>
            <rect id="Rectángulo_30543" data-name="Rectángulo 30543" width="4.444" height="0.824" transform="translate(11.535 23.407) rotate(-97.365)" fill="#828086"/>
            <rect id="Rectángulo_30544" data-name="Rectángulo 30544" width="4.445" height="0.822" transform="translate(7.924 23.871) rotate(-97.263)" fill="#828086"/>
            <path id="Trazado_125349" data-name="Trazado 125349" d="M166.721,141.271l.816-.1-.569-4.41-.816.107Z" transform="translate(-160.677 -117.159)" fill="#828086"/>
            <path id="Trazado_125350" data-name="Trazado 125350" d="M168.479,141.5l.815-.106-.567-4.409-.815.107Z" transform="translate(-164.317 -117.143)" fill="#828086"/>
            <rect id="Rectángulo_30545" data-name="Rectángulo 30545" width="4.444" height="0.672" transform="translate(0.572 24.816) rotate(-97.394)" fill="#828086"/>
            <g id="Grupo_59834" data-name="Grupo 59834" transform="translate(151.93 10.766)">
              <path id="Trazado_125351" data-name="Trazado 125351" d="M30.6,132.364l-.384-2.985.5-.064-.054-.409a.865.865,0,0,1-.42-.107.768.768,0,0,1-.316-.292l-.408.054.5,3.879Z" transform="translate(-29.513 -128.506)" fill="#828086"/>
            </g>
            <g id="Grupo_59835" data-name="Grupo 59835" transform="translate(136.388 12.7)">
              <path id="Trazado_125352" data-name="Trazado 125352" d="M44.933,131.3a1.13,1.13,0,0,0-.4-.8.913.913,0,0,0-.709-.17.867.867,0,0,0-.617.37.959.959,0,0,0-.185.706,1.786,1.786,0,0,0,.275.742,5.719,5.719,0,0,0,.54.644c.076.083.188.212.338.387l.126.143c.08.094.142.17.186.225a.235.235,0,0,1,.032.052l-1.148.148.073.573,1.858-.239-.069-.536a1.243,1.243,0,0,0-.155-.2c-.047-.055-.1-.113-.158-.18l-.181-.2q-.156-.164-.493-.53a3.826,3.826,0,0,1-.489-.632,1.167,1.167,0,0,1-.169-.452.469.469,0,0,1,.061-.314.35.35,0,0,1,.262-.167.364.364,0,0,1,.381.238.641.641,0,0,1,.063.218l.019.149.575-.073Z" transform="translate(-43.011 -130.313)" fill="#828086"/>
            </g>
            <g id="Grupo_59836" data-name="Grupo 59836" transform="translate(121.95 14.515)">
              <path id="Trazado_125353" data-name="Trazado 125353" d="M57.9,135.382q-.4.051-.451-.322l-.029-.229a.546.546,0,0,1,.548-.678l-.064-.5a.63.63,0,0,1-.523-.124.716.716,0,0,1-.209-.457l-.013-.09c-.032-.254.065-.394.287-.423a.3.3,0,0,1,.29.106.547.547,0,0,1,.1.272l.013.1.573-.074-.012-.09a1.049,1.049,0,0,0-.3-.647.818.818,0,0,0-.709-.211.846.846,0,0,0-.623.363.913.913,0,0,0-.142.653l.021.165a.954.954,0,0,0,.3.6.885.885,0,0,0,.241.161.991.991,0,0,0-.347.493.848.848,0,0,0-.026.378l.039.306a.925.925,0,0,0,.385.667.947.947,0,0,0,.711.18.934.934,0,0,0,.806-1.044l-.012-.1-.563.029.005.137a.364.364,0,0,1-.073.252A.322.322,0,0,1,57.9,135.382Z" transform="translate(-56.633 -132.008)" fill="#828086"/>
            </g>
            <g id="Grupo_59837" data-name="Grupo 59837" transform="translate(106.689 16.551)">
              <path id="Trazado_125354" data-name="Trazado 125354" d="M72.954,136.233l-1.349-2.323-.586.075.316,2.457-.375.048.077.588.374-.048.107.835.586-.075L72,136.953l1.033-.133Zm-1.033.133-.156-1.211.638,1.15Z" transform="translate(-70.961 -133.91)" fill="#828086"/>
            </g>
            <g id="Grupo_59838" data-name="Grupo 59838" transform="translate(92.17 18.28)">
              <path id="Trazado_125355" data-name="Trazado 125355" d="M85.637,136.19l.108.832a.56.56,0,0,0-.27-.161.506.506,0,0,0-.2-.009.646.646,0,0,0-.534.341,1.176,1.176,0,0,0-.072.677l.107.834a.975.975,0,0,0,.361.671.888.888,0,0,0,.692.182.826.826,0,0,0,.6-.361.93.93,0,0,0,.162-.681l-.012-.093-.565.029,0,.135a.348.348,0,0,1-.149.334.251.251,0,0,1-.1.039.327.327,0,0,1-.407-.329l-.122-.951a.363.363,0,0,1,.088-.3.243.243,0,0,1,.158-.074.252.252,0,0,1,.245.091.445.445,0,0,1,.09.215l.014.106.586-.076-.273-2.119-1.712.221.076.588Z" transform="translate(-84.435 -135.526)" fill="#828086"/>
            </g>
            <g id="Grupo_59839" data-name="Grupo 59839" transform="translate(77.104 20.284)">
              <path id="Trazado_125356" data-name="Trazado 125356" d="M99.243,138.451l-.013-.1a.39.39,0,0,1,.045-.248.289.289,0,0,1,.43-.056.373.373,0,0,1,.106.23l.1.774a.655.655,0,0,0-.466-.123.67.67,0,0,0-.544.344,1.1,1.1,0,0,0-.086.674l.085.666h0a.93.93,0,0,0,.348.588.846.846,0,0,0,.644.172.831.831,0,0,0,.6-.359.93.93,0,0,0,.162-.681l-.272-2.116a1,1,0,0,0-.2-.495.848.848,0,0,0-.436-.29.877.877,0,0,0-.963.332.922.922,0,0,0-.161.68l.01.083Zm.841,1.949a.38.38,0,0,1-.041.244.264.264,0,0,1-.206.13.259.259,0,0,1-.231-.074.369.369,0,0,1-.1-.225l-.092-.718a.359.359,0,0,1,.088-.294.238.238,0,0,1,.158-.074.26.26,0,0,1,.246.09.414.414,0,0,1,.09.212Z" transform="translate(-98.613 -137.398)" fill="#828086"/>
            </g>
            <g id="Grupo_59840" data-name="Grupo 59840" transform="translate(62.125 22.137)">
              <path id="Trazado_125357" data-name="Trazado 125357" d="M112.757,139.355l.075.589,1.244,3.187.574-.075-1.243-3.186,1.183-.152-.076-.589Z" transform="translate(-112.757 -139.129)" fill="#828086"/>
            </g>
            <g id="Grupo_59841" data-name="Grupo 59841" transform="translate(47.157 24.126)">
              <path id="Trazado_125358" data-name="Trazado 125358" d="M126.742,144.165a.932.932,0,0,0,1.047.806l.046-.005a.935.935,0,0,0,.806-1.044l-.045-.353a.909.909,0,0,0-.319-.591.877.877,0,0,0-.261-.157.816.816,0,0,0,.313-.45.912.912,0,0,0,.018-.374l-.028-.211a.9.9,0,0,0-.3-.6.838.838,0,0,0-.69-.194l-.046.006a.846.846,0,0,0-.623.363.912.912,0,0,0-.142.654l.026.21a.875.875,0,0,0,.294.573.756.756,0,0,0,.236.139.994.994,0,0,0-.347.495.841.841,0,0,0-.026.377Zm.549-.35a.557.557,0,0,1,.1-.484.346.346,0,0,1,.2-.082.313.313,0,0,1,.34.157.861.861,0,0,1,.091.315l.025.186a.426.426,0,0,1-.078.324.373.373,0,0,1-.233.138.358.358,0,0,1-.362-.194.419.419,0,0,1-.058-.176Zm-.238-1.7c-.03-.265.032-.443.187-.531a.313.313,0,0,1,.13-.042.368.368,0,0,1,.258.051.362.362,0,0,1,.132.161.809.809,0,0,1,.061.263.755.755,0,0,1-.034.374.383.383,0,0,1-.61.07A.663.663,0,0,1,127.053,142.111Z" transform="translate(-126.504 -140.987)" fill="#828086"/>
            </g>
            <g id="Grupo_59842" data-name="Grupo 59842" transform="translate(32.412 26.031)">
              <path id="Trazado_125359" data-name="Trazado 125359" d="M141.136,142.775a.829.829,0,0,0-.6.36.925.925,0,0,0-.161.681l.271,2.116a.934.934,0,0,0,.338.623.878.878,0,0,0,1.264-.169.932.932,0,0,0,.162-.681l-.011-.084-.606.077.011.1a.38.38,0,0,1-.044.249.292.292,0,0,1-.43.055.374.374,0,0,1-.107-.229l-.1-.775a.7.7,0,0,0,1.006-.218,1.119,1.119,0,0,0,.087-.679l-.086-.665h0a.938.938,0,0,0-.216-.465.84.84,0,0,0-.422-.271A.859.859,0,0,0,141.136,142.775Zm-.187.973a.387.387,0,0,1,.046-.249.26.26,0,0,1,.2-.126.264.264,0,0,1,.227.071.377.377,0,0,1,.107.23l.093.718a.364.364,0,0,1-.089.3.23.23,0,0,1-.156.074.27.27,0,0,1-.309-.2.445.445,0,0,1-.029-.106Z" transform="translate(-140.363 -142.766)" fill="#828086"/>
            </g>
            <g id="Grupo_59843" data-name="Grupo 59843" transform="translate(16.776 27.855)">
              <path id="Trazado_125360" data-name="Trazado 125360" d="M154.74,148.328l-.383-2.985.5-.064-.054-.409a.866.866,0,0,1-.421-.107.789.789,0,0,1-.316-.292l-.408.054.5,3.879Z" transform="translate(-151.395 -144.47)" fill="#828086"/>
              <path id="Trazado_125361" data-name="Trazado 125361" d="M155.17,147.81a.934.934,0,1,0,1.852-.239l-.271-2.115a.932.932,0,0,0-1.047-.808.893.893,0,0,0-.622.356.9.9,0,0,0-.184.689Zm.333-2.206a.339.339,0,0,1,.294-.38.337.337,0,0,1,.376.293l.273,2.121a.327.327,0,0,1-.066.249.32.32,0,0,1-.224.13.337.337,0,0,1-.38-.293Z" transform="translate(-154.889 -144.458)" fill="#828086"/>
            </g>
            <g id="Grupo_59844" data-name="Grupo 59844" transform="translate(2.413 29.792)">
              <path id="Trazado_125362" data-name="Trazado 125362" d="M168.812,150.137l-.383-2.986.5-.063-.052-.409a.866.866,0,0,1-.42-.108.766.766,0,0,1-.316-.291l-.409.052.5,3.879Z" transform="translate(-166.166 -146.28)" fill="#828086"/>
              <path id="Trazado_125363" data-name="Trazado 125363" d="M170.272,150.325l-.383-2.985.5-.064-.052-.409a.866.866,0,0,1-.421-.107.782.782,0,0,1-.316-.292l-.409.054.5,3.879Z" transform="translate(-169.188 -146.267)" fill="#828086"/>
            </g>
          </g>
        </g>
      </g>
      <g id="Grupo_59865" data-name="Grupo 59865" transform="translate(888.612 9696.78)">
        <path id="Trazado_125364" data-name="Trazado 125364" d="M392.429,80.1h28.913V327.566H385.691V80.1Z" transform="translate(-376.779 -71.038)" fill="#8a898f" style="mix-blend-mode: multiply;isolation: isolate"/>
        <g id="Grupo_59864" data-name="Grupo 59864">
          <rect id="Rectángulo_30546" data-name="Rectángulo 30546" width="35.651" height="247.464" fill="#e89739"/>
          <rect id="Rectángulo_30547" data-name="Rectángulo 30547" width="17.828" height="247.464" transform="translate(17.823)" fill="#cfd1d6" style="mix-blend-mode: multiply;isolation: isolate"/>
          <g id="Grupo_59863" data-name="Grupo 59863" transform="translate(20.506)" style="mix-blend-mode: multiply;isolation: isolate">
            <rect id="Rectángulo_30548" data-name="Rectángulo 30548" width="5.775" height="0.902" transform="translate(9.37 230.219)" fill="#828086"/>
            <rect id="Rectángulo_30549" data-name="Rectángulo 30549" width="8.858" height="0.902" transform="translate(6.287 238.391)" fill="#828086"/>
            <rect id="Rectángulo_30550" data-name="Rectángulo 30550" width="8.858" height="0.903" transform="translate(6.287 222.046)" fill="#828086"/>
            <rect id="Rectángulo_30551" data-name="Rectángulo 30551" width="4.869" height="0.905" transform="translate(10.276 236.359)" fill="#828086"/>
            <rect id="Rectángulo_30552" data-name="Rectángulo 30552" width="4.869" height="0.903" transform="translate(10.276 234.278)" fill="#828086"/>
            <rect id="Rectángulo_30553" data-name="Rectángulo 30553" width="4.869" height="0.902" transform="translate(10.276 232.2)" fill="#828086"/>
            <rect id="Rectángulo_30554" data-name="Rectángulo 30554" width="4.869" height="0.905" transform="translate(10.276 228.213)" fill="#828086"/>
            <rect id="Rectángulo_30555" data-name="Rectángulo 30555" width="4.869" height="0.903" transform="translate(10.276 226.132)" fill="#828086"/>
            <rect id="Rectángulo_30556" data-name="Rectángulo 30556" width="4.869" height="0.901" transform="translate(10.276 224.053)" fill="#828086"/>
            <rect id="Rectángulo_30557" data-name="Rectángulo 30557" width="5.775" height="0.901" transform="translate(9.37 246.563)" fill="#828086"/>
            <rect id="Rectángulo_30558" data-name="Rectángulo 30558" width="8.858" height="0.902" transform="translate(6.287 238.391)" fill="#828086"/>
            <rect id="Rectángulo_30559" data-name="Rectángulo 30559" width="4.869" height="0.902" transform="translate(10.276 244.558)" fill="#828086"/>
            <rect id="Rectángulo_30560" data-name="Rectángulo 30560" width="4.869" height="0.902" transform="translate(10.276 242.477)" fill="#828086"/>
            <rect id="Rectángulo_30561" data-name="Rectángulo 30561" width="4.869" height="0.903" transform="translate(10.276 240.396)" fill="#828086"/>
            <rect id="Rectángulo_30562" data-name="Rectángulo 30562" width="5.775" height="0.902" transform="translate(9.37 213.775)" fill="#828086"/>
            <rect id="Rectángulo_30563" data-name="Rectángulo 30563" width="8.858" height="0.902" transform="translate(6.287 205.602)" fill="#828086"/>
            <rect id="Rectángulo_30564" data-name="Rectángulo 30564" width="4.869" height="0.902" transform="translate(10.276 219.915)" fill="#828086"/>
            <rect id="Rectángulo_30565" data-name="Rectángulo 30565" width="4.869" height="0.904" transform="translate(10.276 217.835)" fill="#828086"/>
            <rect id="Rectángulo_30566" data-name="Rectángulo 30566" width="4.869" height="0.904" transform="translate(10.276 215.755)" fill="#828086"/>
            <rect id="Rectángulo_30567" data-name="Rectángulo 30567" width="4.869" height="0.902" transform="translate(10.276 211.768)" fill="#828086"/>
            <rect id="Rectángulo_30568" data-name="Rectángulo 30568" width="4.869" height="0.902" transform="translate(10.276 209.689)" fill="#828086"/>
            <rect id="Rectángulo_30569" data-name="Rectángulo 30569" width="4.869" height="0.902" transform="translate(10.276 207.608)" fill="#828086"/>
            <rect id="Rectángulo_30570" data-name="Rectángulo 30570" width="5.775" height="0.904" transform="translate(9.37 197.329)" fill="#828086"/>
            <rect id="Rectángulo_30571" data-name="Rectángulo 30571" width="8.858" height="0.9" transform="translate(6.287 189.161)" fill="#828086"/>
            <rect id="Rectángulo_30572" data-name="Rectángulo 30572" width="4.869" height="0.902" transform="translate(10.276 203.471)" fill="#828086"/>
            <rect id="Rectángulo_30573" data-name="Rectángulo 30573" width="4.869" height="0.902" transform="translate(10.276 201.392)" fill="#828086"/>
            <rect id="Rectángulo_30574" data-name="Rectángulo 30574" width="4.869" height="0.902" transform="translate(10.276 199.311)" fill="#828086"/>
            <rect id="Rectángulo_30575" data-name="Rectángulo 30575" width="4.869" height="0.9" transform="translate(10.276 195.326)" fill="#828086"/>
            <rect id="Rectángulo_30576" data-name="Rectángulo 30576" width="4.869" height="0.902" transform="translate(10.276 193.245)" fill="#828086"/>
            <rect id="Rectángulo_30577" data-name="Rectángulo 30577" width="4.869" height="0.902" transform="translate(10.276 191.164)" fill="#828086"/>
            <rect id="Rectángulo_30578" data-name="Rectángulo 30578" width="5.775" height="0.903" transform="translate(9.37 180.886)" fill="#828086"/>
            <rect id="Rectángulo_30579" data-name="Rectángulo 30579" width="8.858" height="0.905" transform="translate(6.287 172.714)" fill="#828086"/>
            <rect id="Rectángulo_30580" data-name="Rectángulo 30580" width="4.869" height="0.901" transform="translate(10.276 187.029)" fill="#828086"/>
            <rect id="Rectángulo_30581" data-name="Rectángulo 30581" width="4.869" height="0.903" transform="translate(10.276 184.946)" fill="#828086"/>
            <rect id="Rectángulo_30582" data-name="Rectángulo 30582" width="4.869" height="0.902" transform="translate(10.276 182.867)" fill="#828086"/>
            <rect id="Rectángulo_30583" data-name="Rectángulo 30583" width="4.869" height="0.904" transform="translate(10.276 178.879)" fill="#828086"/>
            <rect id="Rectángulo_30584" data-name="Rectángulo 30584" width="4.869" height="0.903" transform="translate(10.276 176.799)" fill="#828086"/>
            <rect id="Rectángulo_30585" data-name="Rectángulo 30585" width="4.869" height="0.903" transform="translate(10.276 174.719)" fill="#828086"/>
            <rect id="Rectángulo_30586" data-name="Rectángulo 30586" width="5.775" height="0.904" transform="translate(9.37 164.441)" fill="#828086"/>
            <rect id="Rectángulo_30587" data-name="Rectángulo 30587" width="8.858" height="0.9" transform="translate(6.287 156.272)" fill="#828086"/>
            <rect id="Rectángulo_30588" data-name="Rectángulo 30588" width="4.869" height="0.902" transform="translate(10.276 170.584)" fill="#828086"/>
            <rect id="Rectángulo_30589" data-name="Rectángulo 30589" width="4.869" height="0.903" transform="translate(10.276 168.505)" fill="#828086"/>
            <rect id="Rectángulo_30590" data-name="Rectángulo 30590" width="4.869" height="0.902" transform="translate(10.276 166.423)" fill="#828086"/>
            <rect id="Rectángulo_30591" data-name="Rectángulo 30591" width="4.869" height="0.903" transform="translate(10.276 162.436)" fill="#828086"/>
            <rect id="Rectángulo_30592" data-name="Rectángulo 30592" width="4.869" height="0.903" transform="translate(10.276 160.356)" fill="#828086"/>
            <rect id="Rectángulo_30593" data-name="Rectángulo 30593" width="4.869" height="0.901" transform="translate(10.276 158.276)" fill="#828086"/>
            <rect id="Rectángulo_30594" data-name="Rectángulo 30594" width="5.775" height="0.903" transform="translate(9.37 147.997)" fill="#828086"/>
            <rect id="Rectángulo_30595" data-name="Rectángulo 30595" width="8.858" height="0.901" transform="translate(6.287 139.828)" fill="#828086"/>
            <rect id="Rectángulo_30596" data-name="Rectángulo 30596" width="4.869" height="0.901" transform="translate(10.276 154.14)" fill="#828086"/>
            <rect id="Rectángulo_30597" data-name="Rectángulo 30597" width="4.869" height="0.904" transform="translate(10.276 152.058)" fill="#828086"/>
            <rect id="Rectángulo_30598" data-name="Rectángulo 30598" width="4.869" height="0.903" transform="translate(10.276 149.978)" fill="#828086"/>
            <rect id="Rectángulo_30599" data-name="Rectángulo 30599" width="4.869" height="0.904" transform="translate(10.276 145.991)" fill="#828086"/>
            <rect id="Rectángulo_30600" data-name="Rectángulo 30600" width="4.869" height="0.901" transform="translate(10.276 143.912)" fill="#828086"/>
            <rect id="Rectángulo_30601" data-name="Rectángulo 30601" width="4.869" height="0.902" transform="translate(10.276 141.832)" fill="#828086"/>
            <rect id="Rectángulo_30602" data-name="Rectángulo 30602" width="5.775" height="0.901" transform="translate(9.37 131.556)" fill="#828086"/>
            <rect id="Rectángulo_30603" data-name="Rectángulo 30603" width="8.858" height="0.904" transform="translate(6.287 123.382)" fill="#828086"/>
            <rect id="Rectángulo_30604" data-name="Rectángulo 30604" width="4.869" height="0.903" transform="translate(10.276 137.694)" fill="#828086"/>
            <rect id="Rectángulo_30605" data-name="Rectángulo 30605" width="4.869" height="0.904" transform="translate(10.276 135.613)" fill="#828086"/>
            <rect id="Rectángulo_30606" data-name="Rectángulo 30606" width="4.869" height="0.903" transform="translate(10.276 133.534)" fill="#828086"/>
            <rect id="Rectángulo_30607" data-name="Rectángulo 30607" width="4.869" height="0.9" transform="translate(10.276 129.549)" fill="#828086"/>
            <rect id="Rectángulo_30608" data-name="Rectángulo 30608" width="4.869" height="0.904" transform="translate(10.276 127.467)" fill="#828086"/>
            <rect id="Rectángulo_30609" data-name="Rectángulo 30609" width="4.869" height="0.902" transform="translate(10.276 125.387)" fill="#828086"/>
            <rect id="Rectángulo_30610" data-name="Rectángulo 30610" width="5.775" height="0.901" transform="translate(9.37 115.111)" fill="#828086"/>
            <rect id="Rectángulo_30611" data-name="Rectángulo 30611" width="8.858" height="0.903" transform="translate(6.287 106.937)" fill="#828086"/>
            <rect id="Rectángulo_30612" data-name="Rectángulo 30612" width="4.869" height="0.903" transform="translate(10.276 121.251)" fill="#828086"/>
            <rect id="Rectángulo_30613" data-name="Rectángulo 30613" width="4.869" height="0.904" transform="translate(10.276 119.169)" fill="#828086"/>
            <rect id="Rectángulo_30614" data-name="Rectángulo 30614" width="4.869" height="0.905" transform="translate(10.276 117.088)" fill="#828086"/>
            <rect id="Rectángulo_30615" data-name="Rectángulo 30615" width="4.869" height="0.901" transform="translate(10.276 113.106)" fill="#828086"/>
            <rect id="Rectángulo_30616" data-name="Rectángulo 30616" width="4.869" height="0.904" transform="translate(10.276 111.022)" fill="#828086"/>
            <rect id="Rectángulo_30617" data-name="Rectángulo 30617" width="4.869" height="0.903" transform="translate(10.276 108.944)" fill="#828086"/>
            <rect id="Rectángulo_30618" data-name="Rectángulo 30618" width="5.775" height="0.901" transform="translate(9.37 98.664)" fill="#828086"/>
            <rect id="Rectángulo_30619" data-name="Rectángulo 30619" width="8.858" height="0.902" transform="translate(6.287 90.492)" fill="#828086"/>
            <rect id="Rectángulo_30620" data-name="Rectángulo 30620" width="4.869" height="0.903" transform="translate(10.276 104.807)" fill="#828086"/>
            <rect id="Rectángulo_30621" data-name="Rectángulo 30621" width="4.869" height="0.902" transform="translate(10.276 102.725)" fill="#828086"/>
            <rect id="Rectángulo_30622" data-name="Rectángulo 30622" width="4.869" height="0.902" transform="translate(10.276 100.645)" fill="#828086"/>
            <rect id="Rectángulo_30623" data-name="Rectángulo 30623" width="4.869" height="0.902" transform="translate(10.276 96.658)" fill="#828086"/>
            <rect id="Rectángulo_30624" data-name="Rectángulo 30624" width="4.869" height="0.903" transform="translate(10.276 94.579)" fill="#828086"/>
            <rect id="Rectángulo_30625" data-name="Rectángulo 30625" width="4.869" height="0.901" transform="translate(10.276 92.499)" fill="#828086"/>
            <rect id="Rectángulo_30626" data-name="Rectángulo 30626" width="5.775" height="0.901" transform="translate(9.37 82.221)" fill="#828086"/>
            <rect id="Rectángulo_30627" data-name="Rectángulo 30627" width="8.858" height="0.901" transform="translate(6.287 74.049)" fill="#828086"/>
            <rect id="Rectángulo_30628" data-name="Rectángulo 30628" width="4.869" height="0.901" transform="translate(10.276 88.362)" fill="#828086"/>
            <rect id="Rectángulo_30629" data-name="Rectángulo 30629" width="4.869" height="0.902" transform="translate(10.276 86.283)" fill="#828086"/>
            <rect id="Rectángulo_30630" data-name="Rectángulo 30630" width="4.869" height="0.9" transform="translate(10.276 84.202)" fill="#828086"/>
            <rect id="Rectángulo_30631" data-name="Rectángulo 30631" width="4.869" height="0.901" transform="translate(10.276 80.215)" fill="#828086"/>
            <rect id="Rectángulo_30632" data-name="Rectángulo 30632" width="4.869" height="0.901" transform="translate(10.276 78.135)" fill="#828086"/>
            <rect id="Rectángulo_30633" data-name="Rectángulo 30633" width="4.869" height="0.902" transform="translate(10.276 76.054)" fill="#828086"/>
            <rect id="Rectángulo_30634" data-name="Rectángulo 30634" width="5.775" height="0.902" transform="translate(9.37 65.777)" fill="#828086"/>
            <rect id="Rectángulo_30635" data-name="Rectángulo 30635" width="8.858" height="0.905" transform="translate(6.287 57.603)" fill="#828086"/>
            <rect id="Rectángulo_30636" data-name="Rectángulo 30636" width="4.869" height="0.903" transform="translate(10.276 71.918)" fill="#828086"/>
            <rect id="Rectángulo_30637" data-name="Rectángulo 30637" width="4.869" height="0.903" transform="translate(10.276 69.836)" fill="#828086"/>
            <rect id="Rectángulo_30638" data-name="Rectángulo 30638" width="4.869" height="0.903" transform="translate(10.276 67.758)" fill="#828086"/>
            <rect id="Rectángulo_30639" data-name="Rectángulo 30639" width="4.869" height="0.902" transform="translate(10.276 63.772)" fill="#828086"/>
            <rect id="Rectángulo_30640" data-name="Rectángulo 30640" width="4.869" height="0.905" transform="translate(10.276 61.689)" fill="#828086"/>
            <rect id="Rectángulo_30641" data-name="Rectángulo 30641" width="4.869" height="0.902" transform="translate(10.276 59.61)" fill="#828086"/>
            <rect id="Rectángulo_30642" data-name="Rectángulo 30642" width="5.775" height="0.904" transform="translate(9.37 49.333)" fill="#828086"/>
            <rect id="Rectángulo_30643" data-name="Rectángulo 30643" width="8.858" height="0.903" transform="translate(6.287 41.16)" fill="#828086"/>
            <rect id="Rectángulo_30644" data-name="Rectángulo 30644" width="4.869" height="0.902" transform="translate(10.276 55.475)" fill="#828086"/>
            <rect id="Rectángulo_30645" data-name="Rectángulo 30645" width="4.869" height="0.901" transform="translate(10.276 53.395)" fill="#828086"/>
            <rect id="Rectángulo_30646" data-name="Rectángulo 30646" width="4.869" height="0.905" transform="translate(10.276 51.311)" fill="#828086"/>
            <rect id="Rectángulo_30647" data-name="Rectángulo 30647" width="4.869" height="0.904" transform="translate(10.276 47.328)" fill="#828086"/>
            <rect id="Rectángulo_30648" data-name="Rectángulo 30648" width="4.869" height="0.9" transform="translate(10.276 45.247)" fill="#828086"/>
            <rect id="Rectángulo_30649" data-name="Rectángulo 30649" width="4.869" height="0.903" transform="translate(10.276 43.166)" fill="#828086"/>
            <rect id="Rectángulo_30650" data-name="Rectángulo 30650" width="5.775" height="0.904" transform="translate(9.37 32.888)" fill="#828086"/>
            <rect id="Rectángulo_30651" data-name="Rectángulo 30651" width="8.858" height="0.903" transform="translate(6.287 24.716)" fill="#828086"/>
            <rect id="Rectángulo_30652" data-name="Rectángulo 30652" width="4.869" height="0.905" transform="translate(10.276 39.029)" fill="#828086"/>
            <rect id="Rectángulo_30653" data-name="Rectángulo 30653" width="4.869" height="0.902" transform="translate(10.276 36.95)" fill="#828086"/>
            <rect id="Rectángulo_30654" data-name="Rectángulo 30654" width="4.869" height="0.905" transform="translate(10.276 34.867)" fill="#828086"/>
            <rect id="Rectángulo_30655" data-name="Rectángulo 30655" width="4.869" height="0.903" transform="translate(10.276 30.883)" fill="#828086"/>
            <rect id="Rectángulo_30656" data-name="Rectángulo 30656" width="4.869" height="0.903" transform="translate(10.276 28.803)" fill="#828086"/>
            <rect id="Rectángulo_30657" data-name="Rectángulo 30657" width="4.869" height="0.901" transform="translate(10.276 26.722)" fill="#828086"/>
            <rect id="Rectángulo_30658" data-name="Rectángulo 30658" width="5.775" height="0.899" transform="translate(9.37 16.446)" fill="#828086"/>
            <rect id="Rectángulo_30659" data-name="Rectángulo 30659" width="8.858" height="0.904" transform="translate(6.287 8.271)" fill="#828086"/>
            <rect id="Rectángulo_30660" data-name="Rectángulo 30660" width="4.869" height="0.904" transform="translate(10.276 22.585)" fill="#828086"/>
            <rect id="Rectángulo_30661" data-name="Rectángulo 30661" width="4.869" height="0.903" transform="translate(10.276 20.506)" fill="#828086"/>
            <rect id="Rectángulo_30662" data-name="Rectángulo 30662" width="4.869" height="0.903" transform="translate(10.276 18.424)" fill="#828086"/>
            <rect id="Rectángulo_30663" data-name="Rectángulo 30663" width="4.869" height="0.903" transform="translate(10.276 14.438)" fill="#828086"/>
            <rect id="Rectángulo_30664" data-name="Rectángulo 30664" width="4.869" height="0.905" transform="translate(10.276 12.356)" fill="#828086"/>
            <rect id="Rectángulo_30665" data-name="Rectángulo 30665" width="4.869" height="0.904" transform="translate(10.276 10.277)" fill="#828086"/>
            <rect id="Rectángulo_30666" data-name="Rectángulo 30666" width="5.775" height="0.902" transform="translate(9.37)" fill="#828086"/>
            <rect id="Rectángulo_30667" data-name="Rectángulo 30667" width="4.869" height="0.902" transform="translate(10.276 6.141)" fill="#828086"/>
            <rect id="Rectángulo_30668" data-name="Rectángulo 30668" width="4.869" height="0.901" transform="translate(10.276 4.061)" fill="#828086"/>
            <rect id="Rectángulo_30669" data-name="Rectángulo 30669" width="4.869" height="0.903" transform="translate(10.276 1.98)" fill="#828086"/>
            <g id="Grupo_59848" data-name="Grupo 59848" transform="translate(0.048 238.577)">
              <path id="Trazado_125365" data-name="Trazado 125365" d="M404.114,295.156h3.3v.551h.452a.95.95,0,0,1,.177-.443.856.856,0,0,1,.361-.3v-.451h-4.287Z" transform="translate(-404.114 -294.51)" fill="#828086"/>
            </g>
            <g id="Grupo_59849" data-name="Grupo 59849" transform="translate(0.051 221.28)">
              <path id="Trazado_125366" data-name="Trazado 125366" d="M407.184,280.447a1.243,1.243,0,0,0,.929-.328,1.008,1.008,0,0,0,.285-.745.959.959,0,0,0-.318-.723,1.05,1.05,0,0,0-.743-.3,1.942,1.942,0,0,0-.845.195,6.276,6.276,0,0,0-.775.5q-.151.106-.469.315l-.174.116c-.113.075-.2.133-.27.171a.243.243,0,0,1-.061.028V278.4h-.633v2.054h.592a1.425,1.425,0,0,0,.237-.141c.066-.043.139-.092.218-.147L405.4,280c.134-.1.349-.252.645-.461a4.207,4.207,0,0,1,.755-.445,1.3,1.3,0,0,1,.517-.12.513.513,0,0,1,.331.109.385.385,0,0,1,.143.307.4.4,0,0,1-.311.383.693.693,0,0,1-.245.039h-.165v.635Z" transform="translate(-404.111 -278.352)" fill="#828086"/>
            </g>
            <g id="Grupo_59850" data-name="Grupo 59850" transform="translate(0.003 205.289)">
              <path id="Trazado_125367" data-name="Trazado 125367" d="M404.724,264.5c0-.3.137-.444.413-.444h.253q.658,0,.658.69h.553a.683.683,0,0,1,.208-.55.775.775,0,0,1,.526-.165h.1c.28,0,.421.124.421.37a.325.325,0,0,1-.157.3.587.587,0,0,1-.308.072h-.112v.633h.1a1.146,1.146,0,0,0,.745-.232.9.9,0,0,0,.328-.742.924.924,0,0,0-.307-.728,1,1,0,0,0-.69-.246h-.181a1.055,1.055,0,0,0-.692.239,1.014,1.014,0,0,0-.208.24,1.078,1.078,0,0,0-.489-.444.915.915,0,0,0-.407-.082h-.338a1.019,1.019,0,0,0-.779.325,1.049,1.049,0,0,0-.294.748.982.982,0,0,0,.3.725.992.992,0,0,0,.721.3h.106l.047-.616-.15-.014a.4.4,0,0,1-.262-.115A.346.346,0,0,1,404.724,264.5Z" transform="translate(-404.064 -263.413)" fill="#828086"/>
            </g>
            <g id="Grupo_59851" data-name="Grupo 59851" transform="translate(0.051 188.238)">
              <path id="Trazado_125368" data-name="Trazado 125368" d="M405.682,249.686l2.716-1.142V247.9h-2.716v-.414h-.649v.414h-.923v.645h.923v1.142Zm0-1.142h1.339l-1.339.533Z" transform="translate(-404.111 -247.484)" fill="#828086"/>
            </g>
            <g id="Grupo_59852" data-name="Grupo 59852" transform="translate(0 172.498)">
              <path id="Trazado_125369" data-name="Trazado 125369" d="M407.8,234.069h-.918a.624.624,0,0,0,.212-.271.578.578,0,0,0,.037-.216.7.7,0,0,0-.3-.626,1.274,1.274,0,0,0-.725-.176h-.923a1.066,1.066,0,0,0-.78.3.975.975,0,0,0-.293.725.913.913,0,0,0,.308.7,1.021,1.021,0,0,0,.717.27h.1l.047-.619-.147-.014a.381.381,0,0,1-.343-.208.278.278,0,0,1-.027-.117q0-.4.414-.4h1.049a.4.4,0,0,1,.31.137.266.266,0,0,1,.059.182.278.278,0,0,1-.134.255.47.47,0,0,1-.246.069h-.116v.647h2.342v-1.891H407.8Z" transform="translate(-404.111 -232.78)" fill="#828086"/>
            </g>
            <g id="Grupo_59853" data-name="Grupo 59853" transform="translate(0.003 155.781)">
              <path id="Trazado_125370" data-name="Trazado 125370" d="M407.332,217.836h.106a.415.415,0,0,1,.264.083.315.315,0,0,1,0,.475.415.415,0,0,1-.264.084h-.855a.715.715,0,0,0,.2-.488.732.732,0,0,0-.3-.639,1.2,1.2,0,0,0-.72-.188h-.735v0a1.013,1.013,0,0,0-.687.3.964.964,0,0,0,.028,1.38,1.021,1.021,0,0,0,.717.27h2.338a1.084,1.084,0,0,0,.568-.152.921.921,0,0,0,.375-.432.961.961,0,0,0-.225-1.094,1.024,1.024,0,0,0-.718-.27h-.092Zm-2.235.642a.421.421,0,0,1-.261-.078.316.316,0,0,1,0-.482.41.41,0,0,1,.261-.082h.793a.4.4,0,0,1,.307.138.264.264,0,0,1,.059.182.282.282,0,0,1-.134.254.448.448,0,0,1-.243.068Z" transform="translate(-404.064 -217.163)" fill="#828086"/>
            </g>
            <g id="Grupo_59854" data-name="Grupo 59854" transform="translate(0.051 139.343)">
              <path id="Trazado_125371" data-name="Trazado 125371" d="M408.4,201.807h-.651l-3.636.907v.634l3.636-.907v1.308h.651Z" transform="translate(-404.111 -201.807)" fill="#828086"/>
            </g>
            <g id="Grupo_59855" data-name="Grupo 59855" transform="translate(0.003 122.638)">
              <path id="Trazado_125372" data-name="Trazado 125372" d="M405.086,186.2a.984.984,0,0,0-.725.3,1,1,0,0,0-.3.725v.051a.982.982,0,0,0,.3.725.992.992,0,0,0,.721.3h.39a1.02,1.02,0,0,0,.9-.527.9.9,0,0,0,.444.4,1,1,0,0,0,.4.072h.232a1,1,0,0,0,.69-.246.92.92,0,0,0,.307-.725v-.051a.924.924,0,0,0-.307-.728,1,1,0,0,0-.69-.246h-.232a.95.95,0,0,0-.664.239.857.857,0,0,0-.184.237,1.077,1.077,0,0,0-.489-.444.915.915,0,0,0-.407-.082Zm2.19.625q.438.008.551.277a.358.358,0,0,1,.028.147.384.384,0,0,1-.285.395.892.892,0,0,1-.294.029.824.824,0,0,1-.4-.089.418.418,0,0,1,.011-.673A.729.729,0,0,1,407.276,186.827Zm-1.886.02a.617.617,0,0,1,.514.174.38.38,0,0,1,.061.229.344.344,0,0,1-.219.349.952.952,0,0,1-.355.055h-.2a.463.463,0,0,1-.343-.13.4.4,0,0,1-.116-.274.391.391,0,0,1,.259-.365.469.469,0,0,1,.2-.039Z" transform="translate(-404.064 -186.202)" fill="#828086"/>
            </g>
            <g id="Grupo_59856" data-name="Grupo 59856" transform="translate(0.003 106.399)">
              <path id="Trazado_125373" data-name="Trazado 125373" d="M408.45,172.005a.911.911,0,0,0-.307-.7,1.024,1.024,0,0,0-.718-.27h-2.338a1.025,1.025,0,0,0-.725.278.964.964,0,0,0,.007,1.4,1.021,1.021,0,0,0,.717.27h.092v-.67h-.106a.414.414,0,0,1-.263-.084.319.319,0,0,1,0-.475.414.414,0,0,1,.263-.084h.859a.719.719,0,0,0-.2.489.728.728,0,0,0,.3.635,1.212,1.212,0,0,0,.726.188h.734v0a1.034,1.034,0,0,0,.534-.169.935.935,0,0,0,.354-.422A.948.948,0,0,0,408.45,172.005Zm-1.032-.338a.423.423,0,0,1,.266.084.317.317,0,0,1,0,.475.423.423,0,0,1-.266.084h-.793a.4.4,0,0,1-.311-.137.253.253,0,0,1-.057-.181.294.294,0,0,1,.259-.307.674.674,0,0,1,.119-.017Z" transform="translate(-404.064 -171.031)" fill="#828086"/>
            </g>
            <g id="Grupo_59857" data-name="Grupo 59857" transform="translate(0.003 89.117)">
              <path id="Trazado_125374" data-name="Trazado 125374" d="M404.114,157.976h3.3v.55h.452a.95.95,0,0,1,.177-.443.853.853,0,0,1,.361-.3v-.452h-4.287Z" transform="translate(-404.069 -154.715)" fill="#828086"/>
              <path id="Trazado_125375" data-name="Trazado 125375" d="M405.086,154.887a.979.979,0,0,0-.725.3,1.024,1.024,0,0,0,.725,1.747h2.338a1.024,1.024,0,1,0,0-2.048Zm2.352.669a.375.375,0,0,1,.373.374.354.354,0,0,1-.109.261.361.361,0,0,1-.263.107H405.1a.361.361,0,0,1-.263-.107.35.35,0,0,1-.109-.261.355.355,0,0,1,.109-.263.36.36,0,0,1,.263-.11Z" transform="translate(-404.064 -154.887)" fill="#828086"/>
            </g>
            <g id="Grupo_59858" data-name="Grupo 59858" transform="translate(0.048 73.361)">
              <path id="Trazado_125376" data-name="Trazado 125376" d="M404.114,142.427h3.3v.55h.452a.942.942,0,0,1,.177-.442.849.849,0,0,1,.361-.3v-.452h-4.287Z" transform="translate(-404.114 -140.054)" fill="#828086"/>
              <path id="Trazado_125377" data-name="Trazado 125377" d="M404.114,140.815h3.3v.55h.452a.95.95,0,0,1,.177-.443.846.846,0,0,1,.361-.3v-.452h-4.287Z" transform="translate(-404.114 -140.168)" fill="#828086"/>
            </g>
            <g id="Grupo_59859" data-name="Grupo 59859" transform="translate(0.048 55.558)">
              <path id="Trazado_125378" data-name="Trazado 125378" d="M404.114,126.645h3.3v.55h.452a.95.95,0,0,1,.177-.443.846.846,0,0,1,.361-.3V126h-4.287Z" transform="translate(-404.114 -123.363)" fill="#828086"/>
              <path id="Trazado_125379" data-name="Trazado 125379" d="M407.184,125.632a1.239,1.239,0,0,0,.929-.329,1,1,0,0,0,.285-.745.959.959,0,0,0-.318-.723,1.055,1.055,0,0,0-.743-.3,1.943,1.943,0,0,0-.845.195,6.418,6.418,0,0,0-.775.5c-.1.072-.257.176-.469.315l-.174.117q-.17.112-.27.17a.242.242,0,0,1-.061.028v-1.268h-.633v2.055h.592a1.424,1.424,0,0,0,.237-.141q.1-.066.218-.148l.243-.168c.134-.1.349-.252.645-.462a4.2,4.2,0,0,1,.755-.444,1.3,1.3,0,0,1,.517-.12.513.513,0,0,1,.331.109.384.384,0,0,1,.143.307.4.4,0,0,1-.311.383.72.72,0,0,1-.245.037h-.165v.636Z" transform="translate(-404.108 -123.536)" fill="#828086"/>
            </g>
            <g id="Grupo_59860" data-name="Grupo 59860" transform="translate(0.003 39.59)">
              <path id="Trazado_125380" data-name="Trazado 125380" d="M404.114,111.7h3.3v.551h.452a.95.95,0,0,1,.177-.443.856.856,0,0,1,.361-.3v-.451h-4.287Z" transform="translate(-404.069 -108.447)" fill="#828086"/>
              <path id="Trazado_125381" data-name="Trazado 125381" d="M404.724,109.71c0-.3.137-.444.413-.444h.253q.658,0,.658.69h.553a.683.683,0,0,1,.208-.55.775.775,0,0,1,.526-.165h.1c.28,0,.421.124.421.37a.325.325,0,0,1-.157.3.587.587,0,0,1-.308.072h-.112v.633h.1a1.146,1.146,0,0,0,.745-.232.9.9,0,0,0,.328-.742.924.924,0,0,0-.307-.728,1,1,0,0,0-.69-.246h-.181a1.055,1.055,0,0,0-.692.239,1.014,1.014,0,0,0-.208.24,1.077,1.077,0,0,0-.489-.444.915.915,0,0,0-.407-.082h-.338a1.019,1.019,0,0,0-.779.325,1.049,1.049,0,0,0-.294.748.982.982,0,0,0,.3.725.992.992,0,0,0,.721.3h.106l.047-.616-.15-.014a.4.4,0,0,1-.262-.115A.344.344,0,0,1,404.724,109.71Z" transform="translate(-404.064 -108.619)" fill="#828086"/>
            </g>
            <g id="Grupo_59861" data-name="Grupo 59861" transform="translate(0.048 23.036)">
              <path id="Trazado_125382" data-name="Trazado 125382" d="M404.114,96.339h3.3v.55h.452a.946.946,0,0,1,.177-.442.856.856,0,0,1,.361-.3v-.451h-4.287Z" transform="translate(-404.114 -92.976)" fill="#828086"/>
              <path id="Trazado_125383" data-name="Trazado 125383" d="M405.682,95.357l2.716-1.142v-.645h-2.716v-.414h-.649v.414h-.923v.645h.923v1.142Zm0-1.142h1.339l-1.339.533Z" transform="translate(-404.108 -93.155)" fill="#828086"/>
            </g>
            <g id="Grupo_59862" data-name="Grupo 59862" transform="translate(0 6.763)">
              <path id="Trazado_125384" data-name="Trazado 125384" d="M404.114,80.979h3.3v.55h.452a.95.95,0,0,1,.177-.443.846.846,0,0,1,.361-.3v-.452h-4.287Z" transform="translate(-404.066 -77.785)" fill="#828086"/>
              <path id="Trazado_125385" data-name="Trazado 125385" d="M407.8,79.242h-.918a.627.627,0,0,0,.212-.27.584.584,0,0,0,.037-.217.7.7,0,0,0-.3-.626,1.274,1.274,0,0,0-.725-.176h-.923a1.063,1.063,0,0,0-.78.3.971.971,0,0,0-.293.724.911.911,0,0,0,.308.7,1.017,1.017,0,0,0,.717.27h.1l.047-.619-.147-.013a.384.384,0,0,1-.343-.209A.27.27,0,0,1,404.77,79q0-.4.414-.4h1.049a.4.4,0,0,1,.31.137.268.268,0,0,1,.059.183.275.275,0,0,1-.134.254.47.47,0,0,1-.246.069h-.116v.647h2.342V78H407.8Z" transform="translate(-404.111 -77.953)" fill="#828086"/>
            </g>
          </g>
          <rect id="Rectángulo_30670" data-name="Rectángulo 30670" width="4.347" height="247.464" transform="translate(6.739)" fill="#cfd1d6" opacity="0.5" style="mix-blend-mode: soft-light;isolation: isolate"/>
        </g>
      </g>
    </g>
  </g>
</svg>
