<svg xmlns="http://www.w3.org/2000/svg" width="197" height="200.001" viewBox="0 0 197 200.001">
  <g id="Grupo_57246" data-name="Grupo 57246" transform="translate(-1067 -918.999)">
    <rect id="Rectángulo_5953" data-name="Rectángulo 5953" width="197" height="200" transform="translate(1067 919)" fill="none"/>
    <g id="Grupo_57245" data-name="Grupo 57245" transform="translate(-317.7 346.637)">
      <g id="Trazado_121040" data-name="Trazado 121040" transform="translate(1.189 13.24)" fill="#fff" stroke-miterlimit="10">
        <path d="M 1481.093017578125 758.0578002929688 L 1395.093872070312 702.4288940429688 L 1395.093872070312 616.6206665039062 L 1481.093017578125 672.2494506835938 L 1481.093017578125 758.0578002929688 Z" stroke="none"/>
        <path d="M 1480.593017578125 757.1388549804688 L 1480.593017578125 672.5215454101562 L 1395.593872070312 617.5396118164062 L 1395.593872070312 702.1567993164062 L 1480.593017578125 757.1388549804688 M 1481.593017578125 758.9766845703125 L 1394.593872070312 702.700927734375 L 1394.593872070312 615.7017822265625 L 1481.593017578125 671.9774169921875 L 1481.593017578125 758.9766845703125 Z" stroke="none" fill="#000"/>
      </g>
      <g id="Trazado_121041" data-name="Trazado 121041" transform="translate(21.548 13.24)" fill="#fff" stroke-miterlimit="10">
        <path d="M 1461.734619140625 758.0578002929688 L 1461.734619140625 672.2494506835938 L 1547.733642578125 616.6206665039062 L 1547.733642578125 702.4288940429688 L 1461.734619140625 758.0578002929688 Z" stroke="none"/>
        <path d="M 1462.234619140625 757.1388549804688 L 1547.233642578125 702.1567993164062 L 1547.233642578125 617.5396118164062 L 1462.234619140625 672.5215454101562 L 1462.234619140625 757.1388549804688 M 1461.234619140625 758.9766845703125 L 1461.234619140625 671.9774169921875 L 1548.233642578125 615.7017822265625 L 1548.233642578125 702.700927734375 L 1461.234619140625 758.9766845703125 Z" stroke="none" fill="#000"/>
      </g>
      <g id="Trazado_121042" data-name="Trazado 121042" transform="translate(1.189)" fill="#fff" stroke-miterlimit="10">
        <path d="M 1481.593017578125 684.6221313476562 L 1395.5126953125 628.9407958984375 L 1481.593017578125 572.95849609375 L 1567.673217773438 628.9407958984375 L 1481.593017578125 684.6221313476562 Z" stroke="none"/>
        <path d="M 1481.593017578125 573.554931640625 L 1396.431518554688 628.939697265625 L 1481.593017578125 684.026611328125 L 1566.75439453125 628.939697265625 L 1481.593017578125 573.554931640625 M 1481.593017578125 572.362060546875 L 1568.592041015625 628.9419555664062 L 1481.593017578125 685.2175903320312 L 1394.593872070312 628.9419555664062 L 1481.593017578125 572.362060546875 Z" stroke="none" fill="#000"/>
      </g>
      <g id="Elipse_4586" data-name="Elipse 4586" transform="translate(1438.979 602.629)" fill="#fff" stroke="#000" stroke-miterlimit="10" stroke-width="1">
        <ellipse cx="43.804" cy="26.161" rx="43.804" ry="26.161" stroke="none"/>
        <ellipse cx="43.804" cy="26.161" rx="43.304" ry="25.661" fill="none"/>
      </g>
      <g id="Elipse_4587" data-name="Elipse 4587" transform="matrix(0.721, -0.693, 0.693, 0.721, 1478.004, 707.237)" fill="#fff" stroke="#000" stroke-miterlimit="10" stroke-width="1">
        <ellipse cx="39.655" cy="28.845" rx="39.655" ry="28.845" stroke="none"/>
        <ellipse cx="39.655" cy="28.845" rx="39.155" ry="28.345" fill="none"/>
      </g>
      <g id="Elipse_4588" data-name="Elipse 4588" transform="matrix(0.693, -0.721, 0.721, 0.693, 1390.701, 693.922)" fill="#fff" stroke="#000" stroke-miterlimit="10" stroke-width="1">
        <ellipse cx="28.845" cy="39.655" rx="28.845" ry="39.655" stroke="none"/>
        <ellipse cx="28.845" cy="39.655" rx="28.345" ry="39.155" fill="none"/>
      </g>
    </g>
  </g>
</svg>
