<svg xmlns="http://www.w3.org/2000/svg" width="791.276" height="266.74" viewBox="0 0 791.276 266.74">
  <g id="Grupo_59401" data-name="Grupo 59401" transform="translate(-393 -717)">
    <g id="Grupo_59400" data-name="Grupo 59400" transform="translate(272.245 627.078)">
      <line id="Línea_239" data-name="Línea 239" x2="194.149" transform="translate(355.318 225.74)" fill="none" stroke="#8f8f8f" stroke-miterlimit="10" stroke-width="1" stroke-dasharray="12 4"/>
      <line id="Línea_240" data-name="Línea 240" x2="194.149" transform="translate(601.901 225.74)" fill="none" stroke="#8f8f8f" stroke-miterlimit="10" stroke-width="1" stroke-dasharray="12 4"/>
      <rect id="Rectángulo_30104" data-name="Rectángulo 30104" width="13.146" height="13.146" transform="translate(475.16 219.575)" fill="none" stroke="#707070" stroke-miterlimit="10" stroke-width="1"/>
      <line id="Línea_241" data-name="Línea 241" x2="124.77" y2="42.786" transform="translate(356.963 183.362)" fill="none" stroke="#000" stroke-miterlimit="10" stroke-width="1"/>
      <line id="Línea_242" data-name="Línea 242" y1="92.457" x2="26.435" transform="translate(455.298 226.148)" fill="none" stroke="#000" stroke-miterlimit="10" stroke-width="1"/>
      <line id="Línea_243" data-name="Línea 243" x2="130.169" y2="42.337" transform="translate(151.883 184.538)" fill="none" stroke="#000" stroke-miterlimit="10" stroke-width="1"/>
      <line id="Línea_244" data-name="Línea 244" y1="57.625" x2="49.489" transform="translate(246.743 264.508)" fill="none" stroke="#000" stroke-miterlimit="10" stroke-width="1"/>
      <line id="Línea_245" data-name="Línea 245" x2="126.527" y2="41.61" transform="translate(589.979 184.538)" fill="none" stroke="#000" stroke-miterlimit="10" stroke-width="1"/>
      <line id="Línea_246" data-name="Línea 246" y1="94.082" x2="77.618" transform="translate(688.151 224.523)" fill="none" stroke="#000" stroke-miterlimit="10" stroke-width="1"/>
      <line id="Línea_247" data-name="Línea 247" y2="57.624" transform="translate(295.218 231.377)" fill="none" stroke="#707070" stroke-miterlimit="10" stroke-width="1"/>
      <line id="Línea_248" data-name="Línea 248" x2="50.036" transform="translate(271.488 264.573)" fill="none" stroke="#707070" stroke-miterlimit="10" stroke-width="1"/>
      <line id="Línea_249" data-name="Línea 249" y2="65.858" transform="translate(766.224 205.706)" fill="none" stroke="#707070" stroke-miterlimit="10" stroke-width="1"/>
      <line id="Línea_250" data-name="Línea 250" x2="54.491" transform="translate(738.039 235.762)" fill="none" stroke="#707070" stroke-miterlimit="10" stroke-width="1"/>
      <line id="Línea_251" data-name="Línea 251" y2="57.623" transform="translate(481.867 196.302)" fill="none" stroke="#000" stroke-miterlimit="10" stroke-width="1"/>
      <g id="Grupo_59399" data-name="Grupo 59399" transform="translate(709.932 219.575)">
        <rect id="Rectángulo_30105" data-name="Rectángulo 30105" width="6.573" height="6.573" fill="none" stroke="#000" stroke-miterlimit="10" stroke-width="1"/>
        <rect id="Rectángulo_30106" data-name="Rectángulo 30106" width="6.573" height="6.573" transform="translate(6.573)" fill="none" stroke="#000" stroke-miterlimit="10" stroke-width="1"/>
        <rect id="Rectángulo_30107" data-name="Rectángulo 30107" width="6.573" height="6.573" transform="translate(0 6.573)" fill="none" stroke="#000" stroke-miterlimit="10" stroke-width="1"/>
        <rect id="Rectángulo_30108" data-name="Rectángulo 30108" width="6.573" height="6.573" transform="translate(6.573 6.573)" fill="none" stroke="#000" stroke-miterlimit="10" stroke-width="1"/>
      </g>
      <line id="Línea_252" data-name="Línea 252" x1="7.962" y1="10.757" transform="translate(762.26 219.126)" fill="none" stroke="#000" stroke-miterlimit="10" stroke-width="1"/>
      <line id="Línea_253" data-name="Línea 253" x1="9.049" y2="9.86" transform="translate(761.716 219.575)" fill="none" stroke="#000" stroke-miterlimit="10" stroke-width="1"/>
      <path id="Trazado_125601" data-name="Trazado 125601" d="M11.125-5.445A6.654,6.654,0,0,1,9.962-1.338,3.731,3.731,0,0,1,6.819.205,3.456,3.456,0,0,1,4.1-.964V4.266H1.138v-15.36H3.886l.1,1.087A3.483,3.483,0,0,1,6.8-11.3,3.757,3.757,0,0,1,9.987-9.782,6.834,6.834,0,0,1,11.125-5.6ZM8.162-5.671a4.391,4.391,0,0,0-.549-2.4,1.785,1.785,0,0,0-1.594-.843A1.94,1.94,0,0,0,4.1-7.841v4.556a1.972,1.972,0,0,0,1.938,1.1Q8.162-2.184,8.162-5.671ZM19.605-1.128A3.716,3.716,0,0,1,16.57.205,3.5,3.5,0,0,1,13.848-.82a4.377,4.377,0,0,1-.959-3v-7.27h2.963v7.176q0,1.735,1.579,1.735A2.14,2.14,0,0,0,19.5-3.231v-7.863h2.974V0H19.688Zm7.834-9.967.092,1.282A3.874,3.874,0,0,1,30.721-11.3a3.219,3.219,0,0,1,2.625,1.036,4.832,4.832,0,0,1,.882,3.1V0H31.264V-7.112a1.93,1.93,0,0,0-.41-1.372,1.833,1.833,0,0,0-1.364-.426,2.038,2.038,0,0,0-1.876,1.069V0H24.65V-11.095Zm12.582-2.728v2.728h1.9v2.174h-1.9v5.537a1.322,1.322,0,0,0,.236.882,1.184,1.184,0,0,0,.9.267,4.726,4.726,0,0,0,.872-.072V-.062a6.1,6.1,0,0,1-1.794.267q-3.117,0-3.179-3.148V-8.921h-1.62v-2.174h1.62v-2.728ZM42.8-5.65a6.58,6.58,0,0,1,.636-2.943,4.654,4.654,0,0,1,1.83-2A5.34,5.34,0,0,1,48.04-11.3a5.052,5.052,0,0,1,3.666,1.374A5.514,5.514,0,0,1,53.29-6.193l.021.759a5.8,5.8,0,0,1-1.425,4.1A4.954,4.954,0,0,1,48.06.205a4.979,4.979,0,0,1-3.83-1.538A5.9,5.9,0,0,1,42.8-5.517Zm2.963.21a4.147,4.147,0,0,0,.595,2.418,1.962,1.962,0,0,0,1.7.837,1.966,1.966,0,0,0,1.682-.827,4.538,4.538,0,0,0,.6-2.644,4.106,4.106,0,0,0-.6-2.4,1.967,1.967,0,0,0-1.7-.852,1.934,1.934,0,0,0-1.682.847A4.614,4.614,0,0,0,45.763-5.44ZM63.492,0H60.519V-11.095h2.974ZM60.344-13.966a1.459,1.459,0,0,1,.446-1.1,1.676,1.676,0,0,1,1.215-.431,1.679,1.679,0,0,1,1.21.431,1.451,1.451,0,0,1,.451,1.1,1.455,1.455,0,0,1-.456,1.107,1.684,1.684,0,0,1-1.2.431,1.684,1.684,0,0,1-1.2-.431A1.455,1.455,0,0,1,60.344-13.966Zm8.316,2.871.092,1.282A3.874,3.874,0,0,1,71.941-11.3a3.219,3.219,0,0,1,2.625,1.036,4.832,4.832,0,0,1,.882,3.1V0H72.485V-7.112a1.93,1.93,0,0,0-.41-1.372,1.833,1.833,0,0,0-1.364-.426,2.038,2.038,0,0,0-1.876,1.069V0H65.871V-11.095ZM80.821,0H77.848V-11.095h2.974ZM77.673-13.966a1.459,1.459,0,0,1,.446-1.1,1.676,1.676,0,0,1,1.215-.431,1.679,1.679,0,0,1,1.21.431,1.451,1.451,0,0,1,.451,1.1,1.455,1.455,0,0,1-.456,1.107,1.684,1.684,0,0,1-1.2.431,1.684,1.684,0,0,1-1.2-.431A1.455,1.455,0,0,1,77.673-13.966Zm10.2,11.782a1.944,1.944,0,0,0,1.333-.451,1.581,1.581,0,0,0,.533-1.2h2.779a3.8,3.8,0,0,1-.615,2.066A4.06,4.06,0,0,1,90.25-.313a5.183,5.183,0,0,1-2.323.518,4.817,4.817,0,0,1-3.753-1.512A5.985,5.985,0,0,1,82.8-5.486v-.195a5.917,5.917,0,0,1,1.364-4.091A4.761,4.761,0,0,1,87.907-11.3a4.667,4.667,0,0,1,3.338,1.184,4.193,4.193,0,0,1,1.277,3.153H89.742a2.036,2.036,0,0,0-.533-1.407,1.778,1.778,0,0,0-1.354-.541,1.785,1.785,0,0,0-1.564.755,4.374,4.374,0,0,0-.528,2.449V-5.4a4.43,4.43,0,0,0,.523,2.465A1.807,1.807,0,0,0,87.876-2.184ZM97.34,0H94.367V-11.095H97.34ZM94.192-13.966a1.459,1.459,0,0,1,.446-1.1,1.676,1.676,0,0,1,1.215-.431,1.679,1.679,0,0,1,1.21.431,1.451,1.451,0,0,1,.451,1.1,1.455,1.455,0,0,1-.456,1.107,1.684,1.684,0,0,1-1.2.431,1.684,1.684,0,0,1-1.2-.431A1.455,1.455,0,0,1,94.192-13.966ZM106.21,0a3.291,3.291,0,0,1-.3-.995,3.586,3.586,0,0,1-2.8,1.2,3.939,3.939,0,0,1-2.7-.943A3.034,3.034,0,0,1,99.34-3.117a3.135,3.135,0,0,1,1.307-2.707,6.451,6.451,0,0,1,3.779-.954h1.364v-.636a1.828,1.828,0,0,0-.395-1.23,1.553,1.553,0,0,0-1.246-.461,1.766,1.766,0,0,0-1.174.359,1.219,1.219,0,0,0-.426.984H99.586a2.977,2.977,0,0,1,.595-1.784,3.931,3.931,0,0,1,1.682-1.287,6.129,6.129,0,0,1,2.44-.467,4.842,4.842,0,0,1,3.256,1.031,3.605,3.605,0,0,1,1.2,2.9v4.809A5.3,5.3,0,0,0,109.2-.174V0Zm-2.451-2.061a2.552,2.552,0,0,0,1.21-.292,1.919,1.919,0,0,0,.82-.784V-5.045h-1.107q-2.225,0-2.369,1.538l-.01.174a1.186,1.186,0,0,0,.39.913A1.514,1.514,0,0,0,103.759-2.061ZM114.167,0h-2.974V-15.75h2.974Z" transform="translate(139.755 352.397)" fill="#12263f"/>
      <path id="Trazado_125600" data-name="Trazado 125600" d="M11.125-5.445A6.654,6.654,0,0,1,9.962-1.338,3.731,3.731,0,0,1,6.819.205,3.456,3.456,0,0,1,4.1-.964V4.266H1.138v-15.36H3.886l.1,1.087A3.483,3.483,0,0,1,6.8-11.3,3.757,3.757,0,0,1,9.987-9.782,6.834,6.834,0,0,1,11.125-5.6ZM8.162-5.671a4.391,4.391,0,0,0-.549-2.4,1.785,1.785,0,0,0-1.594-.843A1.94,1.94,0,0,0,4.1-7.841v4.556a1.972,1.972,0,0,0,1.938,1.1Q8.162-2.184,8.162-5.671ZM19.605-1.128A3.716,3.716,0,0,1,16.57.205,3.5,3.5,0,0,1,13.848-.82a4.377,4.377,0,0,1-.959-3v-7.27h2.963v7.176q0,1.735,1.579,1.735A2.14,2.14,0,0,0,19.5-3.231v-7.863h2.974V0H19.688Zm7.834-9.967.092,1.282A3.874,3.874,0,0,1,30.721-11.3a3.219,3.219,0,0,1,2.625,1.036,4.832,4.832,0,0,1,.882,3.1V0H31.264V-7.112a1.93,1.93,0,0,0-.41-1.372,1.833,1.833,0,0,0-1.364-.426,2.038,2.038,0,0,0-1.876,1.069V0H24.65V-11.095Zm12.582-2.728v2.728h1.9v2.174h-1.9v5.537a1.322,1.322,0,0,0,.236.882,1.184,1.184,0,0,0,.9.267,4.726,4.726,0,0,0,.872-.072V-.062a6.1,6.1,0,0,1-1.794.267q-3.117,0-3.179-3.148V-8.921h-1.62v-2.174h1.62v-2.728ZM42.8-5.65a6.58,6.58,0,0,1,.636-2.943,4.654,4.654,0,0,1,1.83-2A5.34,5.34,0,0,1,48.04-11.3a5.052,5.052,0,0,1,3.666,1.374A5.514,5.514,0,0,1,53.29-6.193l.021.759a5.8,5.8,0,0,1-1.425,4.1A4.954,4.954,0,0,1,48.06.205a4.979,4.979,0,0,1-3.83-1.538A5.9,5.9,0,0,1,42.8-5.517Zm2.963.21a4.147,4.147,0,0,0,.595,2.418,1.962,1.962,0,0,0,1.7.837,1.966,1.966,0,0,0,1.682-.827,4.538,4.538,0,0,0,.6-2.644,4.106,4.106,0,0,0-.6-2.4,1.967,1.967,0,0,0-1.7-.852,1.934,1.934,0,0,0-1.682.847A4.614,4.614,0,0,0,45.763-5.44ZM66.794,0a3.291,3.291,0,0,1-.3-.995,3.586,3.586,0,0,1-2.8,1.2A3.939,3.939,0,0,1,61-.738a3.034,3.034,0,0,1-1.072-2.379,3.135,3.135,0,0,1,1.307-2.707,6.451,6.451,0,0,1,3.779-.954h1.364v-.636a1.828,1.828,0,0,0-.395-1.23,1.553,1.553,0,0,0-1.246-.461,1.766,1.766,0,0,0-1.174.359,1.219,1.219,0,0,0-.426.984H60.17a2.977,2.977,0,0,1,.595-1.784,3.931,3.931,0,0,1,1.682-1.287,6.129,6.129,0,0,1,2.44-.467,4.842,4.842,0,0,1,3.256,1.031,3.605,3.605,0,0,1,1.2,2.9v4.809a5.3,5.3,0,0,0,.441,2.389V0ZM64.343-2.061a2.552,2.552,0,0,0,1.21-.292,1.919,1.919,0,0,0,.82-.784V-5.045H65.266q-2.225,0-2.369,1.538l-.01.174a1.186,1.186,0,0,0,.39.913A1.514,1.514,0,0,0,64.343-2.061Zm6.819-3.568a6.686,6.686,0,0,1,1.164-4.132A3.776,3.776,0,0,1,75.51-11.3a3.4,3.4,0,0,1,2.676,1.21v-5.66H81.16V0H78.483L78.34-1.179A3.487,3.487,0,0,1,75.489.205a3.766,3.766,0,0,1-3.143-1.543A6.9,6.9,0,0,1,71.162-5.629Zm2.963.211a4.4,4.4,0,0,0,.543,2.4,1.769,1.769,0,0,0,1.579.834,1.982,1.982,0,0,0,1.938-1.164v-4.4a1.954,1.954,0,0,0-1.917-1.164Q74.125-8.911,74.125-5.419ZM83-5.65a6.632,6.632,0,0,1,1.164-4.132A3.8,3.8,0,0,1,87.353-11.3a3.406,3.406,0,0,1,2.84,1.364l.195-1.159h2.6V4.266H90.019V-.954A3.416,3.416,0,0,1,87.333.205a3.777,3.777,0,0,1-3.158-1.538A6.957,6.957,0,0,1,83-5.65Zm2.963.21a4.35,4.35,0,0,0,.559,2.424,1.789,1.789,0,0,0,1.574.832,1.993,1.993,0,0,0,1.928-1.089V-7.863a1.976,1.976,0,0,0-1.907-1.048,1.811,1.811,0,0,0-1.589.832A4.8,4.8,0,0,0,85.958-5.44Zm16.006,4.312A3.716,3.716,0,0,1,98.93.205,3.5,3.5,0,0,1,96.207-.82a4.377,4.377,0,0,1-.959-3v-7.27h2.963v7.176q0,1.735,1.579,1.735a2.14,2.14,0,0,0,2.071-1.047v-7.863h2.974V0h-2.789ZM110.2,0h-2.974V-11.095H110.2Zm-3.148-13.966a1.459,1.459,0,0,1,.446-1.1,1.676,1.676,0,0,1,1.215-.431,1.679,1.679,0,0,1,1.21.431,1.451,1.451,0,0,1,.451,1.1,1.455,1.455,0,0,1-.456,1.107,1.684,1.684,0,0,1-1.2.431,1.684,1.684,0,0,1-1.2-.431A1.455,1.455,0,0,1,107.051-13.966Zm11.823,5.65a8.051,8.051,0,0,0-1.066-.082,2.171,2.171,0,0,0-2.2,1.138V0h-2.963V-11.095h2.8l.082,1.323a2.746,2.746,0,0,1,2.471-1.528,3.105,3.105,0,0,1,.923.133ZM123.426,0h-2.974V-11.095h2.974Zm-3.148-13.966a1.459,1.459,0,0,1,.446-1.1,1.676,1.676,0,0,1,1.215-.431,1.679,1.679,0,0,1,1.21.431,1.451,1.451,0,0,1,.451,1.1,1.455,1.455,0,0,1-.456,1.107,1.684,1.684,0,0,1-1.2.431,1.684,1.684,0,0,1-1.2-.431A1.455,1.455,0,0,1,120.278-13.966Zm5.127,8.336a6.686,6.686,0,0,1,1.164-4.132,3.776,3.776,0,0,1,3.184-1.538,3.4,3.4,0,0,1,2.676,1.21v-5.66H135.4V0h-2.676l-.144-1.179A3.487,3.487,0,0,1,129.732.205a3.766,3.766,0,0,1-3.143-1.543A6.9,6.9,0,0,1,125.405-5.629Zm2.963.211a4.4,4.4,0,0,0,.543,2.4,1.769,1.769,0,0,0,1.579.834,1.982,1.982,0,0,0,1.938-1.164v-4.4a1.954,1.954,0,0,0-1.917-1.164Q128.369-8.911,128.369-5.419Zm8.87-.231a6.58,6.58,0,0,1,.636-2.943,4.654,4.654,0,0,1,1.83-2,5.34,5.34,0,0,1,2.774-.708,5.052,5.052,0,0,1,3.666,1.374,5.514,5.514,0,0,1,1.584,3.732l.021.759a5.8,5.8,0,0,1-1.425,4.1A4.954,4.954,0,0,1,142.5.205a4.979,4.979,0,0,1-3.83-1.538,5.9,5.9,0,0,1-1.43-4.184Zm2.963.21a4.147,4.147,0,0,0,.595,2.418,1.962,1.962,0,0,0,1.7.837,1.966,1.966,0,0,0,1.682-.827,4.538,4.538,0,0,0,.6-2.644,4.106,4.106,0,0,0-.6-2.4,1.967,1.967,0,0,0-1.7-.852,1.934,1.934,0,0,0-1.682.847A4.614,4.614,0,0,0,140.2-5.44Z" transform="translate(332.354 336.425)" fill="#12263f"/>
      <path id="Trazado_125604" data-name="Trazado 125604" d="M11.655-5.7a6.971,6.971,0,0,1-1.219,4.3A3.909,3.909,0,0,1,7.144.215,3.621,3.621,0,0,1,4.3-1.01V4.469h-3.1V-11.623H4.071l.107,1.139a3.649,3.649,0,0,1,2.943-1.354,3.936,3.936,0,0,1,3.341,1.59,7.16,7.16,0,0,1,1.192,4.383Zm-3.1-.237a4.6,4.6,0,0,0-.575-2.511,1.87,1.87,0,0,0-1.67-.884A2.032,2.032,0,0,0,4.3-8.214v4.773a2.066,2.066,0,0,0,2.03,1.153Q8.551-2.288,8.551-5.941ZM20.539-1.182a3.893,3.893,0,0,1-3.18,1.4A3.672,3.672,0,0,1,14.507-.859a4.586,4.586,0,0,1-1-3.147v-7.616h3.1v7.518q0,1.817,1.654,1.817a2.242,2.242,0,0,0,2.17-1.1v-8.238h3.115V0H20.625Zm8.207-10.441.1,1.343a4.058,4.058,0,0,1,3.341-1.558,3.372,3.372,0,0,1,2.75,1.085,5.062,5.062,0,0,1,.924,3.244V0h-3.1V-7.451a2.022,2.022,0,0,0-.43-1.437,1.921,1.921,0,0,0-1.429-.447,2.135,2.135,0,0,0-1.966,1.12V0h-3.1V-11.623ZM41.927-14.48v2.857h1.987v2.277H41.927v5.8a1.385,1.385,0,0,0,.247.924,1.241,1.241,0,0,0,.945.279,4.951,4.951,0,0,0,.913-.075V-.064a6.391,6.391,0,0,1-1.88.279q-3.266,0-3.33-3.3V-9.346h-1.7v-2.277h1.7V-14.48Zm2.911,8.562A6.893,6.893,0,0,1,45.5-9,4.876,4.876,0,0,1,47.421-11.1a5.594,5.594,0,0,1,2.906-.741,5.293,5.293,0,0,1,3.84,1.439,5.777,5.777,0,0,1,1.66,3.91l.021.795A6.075,6.075,0,0,1,54.355-1.4,5.19,5.19,0,0,1,50.349.215,5.216,5.216,0,0,1,46.336-1.4a6.182,6.182,0,0,1-1.5-4.383Zm3.1.22a4.345,4.345,0,0,0,.623,2.534,2.055,2.055,0,0,0,1.783.877,2.06,2.06,0,0,0,1.762-.866,4.754,4.754,0,0,0,.634-2.77,4.3,4.3,0,0,0-.634-2.518,2.06,2.06,0,0,0-1.783-.893,2.027,2.027,0,0,0-1.762.888A4.834,4.834,0,0,0,47.942-5.7ZM63.991,0V-9.346H62.262v-2.277h1.729v-.537a4.359,4.359,0,0,1,1.348-3.378,5.424,5.424,0,0,1,3.744-1.187,12.417,12.417,0,0,1,3.523.634l-.451,2.567a13.747,13.747,0,0,0-1.633-.4,8.023,8.023,0,0,0-1.246-.091q-2.17,0-2.17,1.923v.473h2.288v2.277H67.106V0ZM74.057,0H70.941V-11.623h3.115Zm5.425-11.623.1,1.343a4.058,4.058,0,0,1,3.341-1.558,3.372,3.372,0,0,1,2.75,1.085,5.062,5.062,0,0,1,.924,3.244V0h-3.1V-7.451a2.022,2.022,0,0,0-.43-1.437,1.921,1.921,0,0,0-1.429-.447,2.135,2.135,0,0,0-1.966,1.12V0h-3.1V-11.623ZM95.681,0a3.448,3.448,0,0,1-.312-1.042A3.756,3.756,0,0,1,92.437.215a4.127,4.127,0,0,1-2.831-.988,3.178,3.178,0,0,1-1.123-2.492A3.285,3.285,0,0,1,89.853-6.1a6.758,6.758,0,0,1,3.958-1H95.24v-.666a1.915,1.915,0,0,0-.414-1.289,1.627,1.627,0,0,0-1.305-.483,1.85,1.85,0,0,0-1.23.376,1.277,1.277,0,0,0-.446,1.031h-3.1A3.118,3.118,0,0,1,89.364-10a4.118,4.118,0,0,1,1.762-1.348,6.42,6.42,0,0,1,2.557-.489,5.073,5.073,0,0,1,3.411,1.08,3.777,3.777,0,0,1,1.262,3.035v5.038a5.557,5.557,0,0,0,.462,2.5V0ZM93.113-2.159a2.674,2.674,0,0,0,1.268-.306,2.011,2.011,0,0,0,.859-.822v-2H94.08q-2.331,0-2.481,1.611l-.011.183A1.243,1.243,0,0,0,92-2.535,1.586,1.586,0,0,0,93.113-2.159ZM104.017,0H100.9V-16.5h3.115Z" transform="translate(563.473 330.849)" fill="#12263f"/>
      <path id="Trazado_125606" data-name="Trazado 125606" d="M11.125-5.445A6.654,6.654,0,0,1,9.962-1.338,3.731,3.731,0,0,1,6.819.205,3.456,3.456,0,0,1,4.1-.964V4.266H1.138v-15.36H3.886l.1,1.087A3.483,3.483,0,0,1,6.8-11.3,3.757,3.757,0,0,1,9.987-9.782,6.834,6.834,0,0,1,11.125-5.6ZM8.162-5.671a4.391,4.391,0,0,0-.549-2.4,1.785,1.785,0,0,0-1.594-.843A1.94,1.94,0,0,0,4.1-7.841v4.556a1.972,1.972,0,0,0,1.938,1.1Q8.162-2.184,8.162-5.671ZM19.605-1.128A3.716,3.716,0,0,1,16.57.205,3.5,3.5,0,0,1,13.848-.82a4.377,4.377,0,0,1-.959-3v-7.27h2.963v7.176q0,1.735,1.579,1.735A2.14,2.14,0,0,0,19.5-3.231v-7.863h2.974V0H19.688Zm7.834-9.967.092,1.282A3.874,3.874,0,0,1,30.721-11.3a3.219,3.219,0,0,1,2.625,1.036,4.832,4.832,0,0,1,.882,3.1V0H31.264V-7.112a1.93,1.93,0,0,0-.41-1.372,1.833,1.833,0,0,0-1.364-.426,2.038,2.038,0,0,0-1.876,1.069V0H24.65V-11.095Zm12.582-2.728v2.728h1.9v2.174h-1.9v5.537a1.322,1.322,0,0,0,.236.882,1.184,1.184,0,0,0,.9.267,4.726,4.726,0,0,0,.872-.072V-.062a6.1,6.1,0,0,1-1.794.267q-3.117,0-3.179-3.148V-8.921h-1.62v-2.174h1.62v-2.728ZM42.8-5.65a6.58,6.58,0,0,1,.636-2.943,4.654,4.654,0,0,1,1.83-2A5.34,5.34,0,0,1,48.04-11.3a5.052,5.052,0,0,1,3.666,1.374A5.514,5.514,0,0,1,53.29-6.193l.021.759a5.8,5.8,0,0,1-1.425,4.1A4.954,4.954,0,0,1,48.06.205a4.979,4.979,0,0,1-3.83-1.538A5.9,5.9,0,0,1,42.8-5.517Zm2.963.21a4.147,4.147,0,0,0,.595,2.418,1.962,1.962,0,0,0,1.7.837,1.966,1.966,0,0,0,1.682-.827,4.538,4.538,0,0,0,.6-2.644,4.106,4.106,0,0,0-.6-2.4,1.967,1.967,0,0,0-1.7-.852,1.934,1.934,0,0,0-1.682.847A4.614,4.614,0,0,0,45.763-5.44ZM61.083,0V-8.921H59.432v-2.174h1.651v-.513a4.161,4.161,0,0,1,1.287-3.225,5.178,5.178,0,0,1,3.573-1.133,11.853,11.853,0,0,1,3.363.6l-.431,2.451a13.122,13.122,0,0,0-1.559-.385,7.658,7.658,0,0,0-1.189-.087q-2.071,0-2.071,1.835v.451H66.24v2.174H64.056V0ZM70.69,0H67.717V-11.095H70.69Zm5.178-11.095.092,1.282A3.874,3.874,0,0,1,79.15-11.3a3.219,3.219,0,0,1,2.625,1.036,4.832,4.832,0,0,1,.882,3.1V0H79.693V-7.112a1.93,1.93,0,0,0-.41-1.372,1.833,1.833,0,0,0-1.364-.426,2.038,2.038,0,0,0-1.876,1.069V0H73.08V-11.095ZM91.332,0a3.291,3.291,0,0,1-.3-.995,3.586,3.586,0,0,1-2.8,1.2,3.939,3.939,0,0,1-2.7-.943,3.034,3.034,0,0,1-1.072-2.379,3.135,3.135,0,0,1,1.307-2.707,6.451,6.451,0,0,1,3.779-.954h1.364v-.636a1.828,1.828,0,0,0-.395-1.23,1.553,1.553,0,0,0-1.246-.461,1.766,1.766,0,0,0-1.174.359,1.219,1.219,0,0,0-.426.984H84.708A2.977,2.977,0,0,1,85.3-9.546a3.931,3.931,0,0,1,1.682-1.287,6.129,6.129,0,0,1,2.44-.467,4.842,4.842,0,0,1,3.256,1.031,3.605,3.605,0,0,1,1.2,2.9v4.809a5.3,5.3,0,0,0,.441,2.389V0ZM88.881-2.061a2.552,2.552,0,0,0,1.21-.292,1.919,1.919,0,0,0,.82-.784V-5.045H89.8q-2.225,0-2.369,1.538l-.01.174a1.186,1.186,0,0,0,.39.913A1.514,1.514,0,0,0,88.881-2.061ZM99.289,0H96.315V-15.75h2.974Zm2.584-1.456a1.492,1.492,0,0,1,.477-1.148,1.692,1.692,0,0,1,1.195-.441,1.706,1.706,0,0,1,1.2.441,1.492,1.492,0,0,1,.477,1.148,1.472,1.472,0,0,1-.472,1.133,1.713,1.713,0,0,1-1.21.436,1.7,1.7,0,0,1-1.2-.436A1.472,1.472,0,0,1,101.873-1.456Zm0-8.4A1.492,1.492,0,0,1,102.349-11a1.692,1.692,0,0,1,1.195-.441,1.706,1.706,0,0,1,1.2.441,1.492,1.492,0,0,1,.477,1.148,1.471,1.471,0,0,1-.472,1.133,1.713,1.713,0,0,1-1.21.436,1.7,1.7,0,0,1-1.2-.436A1.472,1.472,0,0,1,101.873-9.854Z" transform="translate(806.805 228.274)" fill="#12263f"/>
      <path id="Trazado_125605" data-name="Trazado 125605" d="M11.591-6.467A7.923,7.923,0,0,1,10.248-1.5,4.687,4.687,0,0,1,6.316.215a4.72,4.72,0,0,1-3.91-1.687A7.691,7.691,0,0,1,1.021-6.306V-9.185a7.819,7.819,0,0,1,1.359-4.974,4.722,4.722,0,0,1,3.916-1.7,4.726,4.726,0,0,1,3.91,1.681,7.668,7.668,0,0,1,1.386,4.829Zm-3.1-3.165a5.727,5.727,0,0,0-.532-2.833,1.8,1.8,0,0,0-1.66-.887,1.765,1.765,0,0,0-1.617.844,5.36,5.36,0,0,0-.553,2.64v3.806a6.012,6.012,0,0,0,.521,2.844,1.773,1.773,0,0,0,1.67.93A1.743,1.743,0,0,0,7.96-3.181a5.868,5.868,0,0,0,.526-2.731ZM14.62,3.921,13,3.072l.387-.7a5.582,5.582,0,0,0,.741-2.61V-2.643h2.621L16.736-.494a5.581,5.581,0,0,1-.6,2.406A6.169,6.169,0,0,1,14.62,3.921ZM28.241-5.887h1.772v2.5H28.241V0h-3.1V-3.384H18.724l-.14-1.955,6.521-10.3h3.137Zm-6.563,0h3.459v-5.521l-.2.354Zm20.2-5.6a3.638,3.638,0,0,1-.569,2.02,4.1,4.1,0,0,1-1.568,1.407,4.536,4.536,0,0,1,1.8,1.509,3.872,3.872,0,0,1,.666,2.261A4.1,4.1,0,0,1,40.788-.994,5.752,5.752,0,0,1,36.932.215,5.778,5.778,0,0,1,33.064-1a4.089,4.089,0,0,1-1.429-3.287A3.9,3.9,0,0,1,32.3-6.553a4.454,4.454,0,0,1,1.794-1.5,4.056,4.056,0,0,1-1.563-1.407,3.664,3.664,0,0,1-.564-2.02A4.054,4.054,0,0,1,33.3-14.668a5.244,5.244,0,0,1,3.62-1.187,5.279,5.279,0,0,1,3.615,1.176A4.038,4.038,0,0,1,41.873-11.483ZM39.091-4.512A2.252,2.252,0,0,0,38.5-6.145a2.107,2.107,0,0,0-1.59-.612,2.1,2.1,0,0,0-1.579.607,2.248,2.248,0,0,0-.591,1.638A2.247,2.247,0,0,0,35.32-2.9a2.113,2.113,0,0,0,1.611.612,2.108,2.108,0,0,0,1.584-.591A2.243,2.243,0,0,0,39.091-4.512Zm-.322-6.821a2.149,2.149,0,0,0-.483-1.466,1.715,1.715,0,0,0-1.364-.553,1.727,1.727,0,0,0-1.354.537,2.136,2.136,0,0,0-.483,1.482,2.245,2.245,0,0,0,.483,1.5,1.692,1.692,0,0,0,1.364.569,1.676,1.676,0,0,0,1.359-.569A2.261,2.261,0,0,0,38.769-11.333Zm8.175,4.694,6.123,2.159v3.008L43.817-5.393V-7.928l9.249-3.921v3.008Zm19.078.172A7.923,7.923,0,0,1,64.679-1.5,4.687,4.687,0,0,1,60.747.215a4.72,4.72,0,0,1-3.91-1.687,7.691,7.691,0,0,1-1.386-4.834V-9.185a7.819,7.819,0,0,1,1.359-4.974,4.722,4.722,0,0,1,3.916-1.7,4.726,4.726,0,0,1,3.91,1.681,7.668,7.668,0,0,1,1.386,4.829Zm-3.1-3.165a5.727,5.727,0,0,0-.532-2.833,1.8,1.8,0,0,0-1.66-.887,1.765,1.765,0,0,0-1.617.844,5.36,5.36,0,0,0-.553,2.64v3.806a6.012,6.012,0,0,0,.521,2.844,1.773,1.773,0,0,0,1.67.93,1.743,1.743,0,0,0,1.644-.892,5.868,5.868,0,0,0,.526-2.731Z" transform="translate(806.806 253.765)" fill="#12263f"/>
      <path id="Trazado_125599" data-name="Trazado 125599" d="M7.373-8.316A8.051,8.051,0,0,0,6.306-8.4,2.171,2.171,0,0,0,4.1-7.26V0H1.138V-11.095h2.8L4.02-9.772A2.746,2.746,0,0,1,6.491-11.3a3.105,3.105,0,0,1,.923.133Zm8.07,7.188A3.716,3.716,0,0,1,12.407.205,3.5,3.5,0,0,1,9.685-.82a4.377,4.377,0,0,1-.959-3v-7.27h2.963v7.176q0,1.735,1.579,1.735A2.14,2.14,0,0,0,15.34-3.231v-7.863h2.974V0H15.524ZM24.1-13.822v2.728h1.9v2.174H24.1v5.537a1.322,1.322,0,0,0,.236.882,1.184,1.184,0,0,0,.9.267,4.726,4.726,0,0,0,.872-.072V-.062a6.1,6.1,0,0,1-1.794.267q-3.117,0-3.179-3.148V-8.921h-1.62v-2.174h1.62v-2.728ZM34.074,0a3.291,3.291,0,0,1-.3-.995,3.586,3.586,0,0,1-2.8,1.2,3.939,3.939,0,0,1-2.7-.943A3.034,3.034,0,0,1,27.2-3.117a3.135,3.135,0,0,1,1.307-2.707,6.451,6.451,0,0,1,3.779-.954h1.364v-.636a1.828,1.828,0,0,0-.395-1.23,1.553,1.553,0,0,0-1.246-.461,1.766,1.766,0,0,0-1.174.359,1.219,1.219,0,0,0-.426.984H27.45a2.977,2.977,0,0,1,.595-1.784,3.931,3.931,0,0,1,1.682-1.287,6.129,6.129,0,0,1,2.44-.467,4.842,4.842,0,0,1,3.256,1.031,3.605,3.605,0,0,1,1.2,2.9v4.809a5.3,5.3,0,0,0,.441,2.389V0ZM31.623-2.061a2.552,2.552,0,0,0,1.21-.292,1.919,1.919,0,0,0,.82-.784V-5.045H32.546q-2.225,0-2.369,1.538l-.01.174a1.186,1.186,0,0,0,.39.913A1.514,1.514,0,0,0,31.623-2.061ZM43.671-5.629a6.686,6.686,0,0,1,1.164-4.132A3.776,3.776,0,0,1,48.019-11.3,3.4,3.4,0,0,1,50.7-10.09v-5.66h2.974V0H50.993l-.144-1.179A3.487,3.487,0,0,1,48,.205a3.766,3.766,0,0,1-3.143-1.543A6.9,6.9,0,0,1,43.671-5.629Zm2.963.211a4.4,4.4,0,0,0,.543,2.4,1.769,1.769,0,0,0,1.579.834A1.982,1.982,0,0,0,50.7-3.348v-4.4a1.954,1.954,0,0,0-1.917-1.164Q46.635-8.911,46.635-5.419ZM61.072.205a5.447,5.447,0,0,1-3.973-1.5,5.321,5.321,0,0,1-1.533-3.989v-.287a6.7,6.7,0,0,1,.646-2.989,4.741,4.741,0,0,1,1.83-2.03,5.137,5.137,0,0,1,2.7-.713,4.6,4.6,0,0,1,3.584,1.436,5.833,5.833,0,0,1,1.307,4.071v1.21H58.57a2.753,2.753,0,0,0,.866,1.743,2.619,2.619,0,0,0,1.83.656,3.2,3.2,0,0,0,2.676-1.241L65.4-1.794a4.449,4.449,0,0,1-1.8,1.471A5.921,5.921,0,0,1,61.072.205Zm-.338-9.116a1.852,1.852,0,0,0-1.43.6,3.093,3.093,0,0,0-.7,1.71h4.122V-6.84A2.206,2.206,0,0,0,62.19-8.37,1.91,1.91,0,0,0,60.734-8.911ZM78.976,0a3.291,3.291,0,0,1-.3-.995,3.586,3.586,0,0,1-2.8,1.2,3.939,3.939,0,0,1-2.7-.943,3.034,3.034,0,0,1-1.072-2.379,3.135,3.135,0,0,1,1.307-2.707,6.451,6.451,0,0,1,3.779-.954h1.364v-.636a1.828,1.828,0,0,0-.395-1.23,1.553,1.553,0,0,0-1.246-.461,1.766,1.766,0,0,0-1.174.359,1.219,1.219,0,0,0-.426.984H72.352a2.977,2.977,0,0,1,.595-1.784,3.931,3.931,0,0,1,1.682-1.287,6.129,6.129,0,0,1,2.44-.467,4.842,4.842,0,0,1,3.256,1.031,3.605,3.605,0,0,1,1.2,2.9v4.809A5.3,5.3,0,0,0,81.97-.174V0ZM76.525-2.061a2.552,2.552,0,0,0,1.21-.292,1.919,1.919,0,0,0,.82-.784V-5.045H77.448q-2.225,0-2.369,1.538l-.01.174a1.186,1.186,0,0,0,.39.913A1.514,1.514,0,0,0,76.525-2.061ZM86.933,0H83.959V-15.75h2.974ZM92.5,0H89.527V-11.095H92.5ZM89.353-13.966a1.459,1.459,0,0,1,.446-1.1,1.676,1.676,0,0,1,1.215-.431,1.679,1.679,0,0,1,1.21.431,1.451,1.451,0,0,1,.451,1.1,1.455,1.455,0,0,1-.456,1.107,1.684,1.684,0,0,1-1.2.431,1.684,1.684,0,0,1-1.2-.431A1.455,1.455,0,0,1,89.353-13.966Zm8.316,2.871.092,1.282A3.874,3.874,0,0,1,100.95-11.3a3.219,3.219,0,0,1,2.625,1.036,4.832,4.832,0,0,1,.882,3.1V0h-2.963V-7.112a1.93,1.93,0,0,0-.41-1.372,1.833,1.833,0,0,0-1.364-.426,2.038,2.038,0,0,0-1.876,1.069V0H94.879V-11.095Zm14.14,11.3a5.447,5.447,0,0,1-3.973-1.5A5.321,5.321,0,0,1,106.3-5.281v-.287a6.7,6.7,0,0,1,.646-2.989,4.741,4.741,0,0,1,1.83-2.03,5.137,5.137,0,0,1,2.7-.713,4.6,4.6,0,0,1,3.584,1.436,5.833,5.833,0,0,1,1.307,4.071v1.21h-7.065a2.753,2.753,0,0,0,.866,1.743,2.619,2.619,0,0,0,1.83.656,3.2,3.2,0,0,0,2.676-1.241l1.456,1.63a4.449,4.449,0,0,1-1.8,1.471A5.921,5.921,0,0,1,111.809.205Zm-.338-9.116a1.852,1.852,0,0,0-1.43.6,3.093,3.093,0,0,0-.7,1.71h4.122V-6.84a2.206,2.206,0,0,0-.533-1.529A1.91,1.91,0,0,0,111.47-8.911ZM124.482,0a3.291,3.291,0,0,1-.3-.995,3.586,3.586,0,0,1-2.8,1.2,3.939,3.939,0,0,1-2.7-.943,3.034,3.034,0,0,1-1.072-2.379,3.135,3.135,0,0,1,1.307-2.707,6.451,6.451,0,0,1,3.779-.954h1.364v-.636a1.828,1.828,0,0,0-.395-1.23,1.553,1.553,0,0,0-1.246-.461,1.766,1.766,0,0,0-1.174.359,1.219,1.219,0,0,0-.426.984h-2.963a2.977,2.977,0,0,1,.595-1.784,3.931,3.931,0,0,1,1.682-1.287,6.129,6.129,0,0,1,2.44-.467,4.842,4.842,0,0,1,3.256,1.031,3.605,3.605,0,0,1,1.2,2.9v4.809a5.3,5.3,0,0,0,.441,2.389V0Zm-2.451-2.061a2.552,2.552,0,0,0,1.21-.292,1.919,1.919,0,0,0,.82-.784V-5.045h-1.107q-2.225,0-2.369,1.538l-.01.174a1.186,1.186,0,0,0,.39.913A1.514,1.514,0,0,0,122.032-2.061Zm11.895-.123a1.944,1.944,0,0,0,1.333-.451,1.581,1.581,0,0,0,.533-1.2h2.779a3.8,3.8,0,0,1-.615,2.066A4.06,4.06,0,0,1,136.3-.313a5.183,5.183,0,0,1-2.323.518,4.817,4.817,0,0,1-3.753-1.512,5.985,5.985,0,0,1-1.374-4.178v-.195a5.917,5.917,0,0,1,1.364-4.091,4.761,4.761,0,0,1,3.743-1.528,4.667,4.667,0,0,1,3.338,1.184,4.193,4.193,0,0,1,1.277,3.153h-2.779a2.036,2.036,0,0,0-.533-1.407,1.778,1.778,0,0,0-1.354-.541,1.785,1.785,0,0,0-1.564.755,4.374,4.374,0,0,0-.528,2.449V-5.4a4.43,4.43,0,0,0,.523,2.465A1.807,1.807,0,0,0,133.926-2.184ZM143.391,0h-2.974V-11.095h2.974Zm-3.148-13.966a1.459,1.459,0,0,1,.446-1.1,1.676,1.676,0,0,1,1.215-.431,1.679,1.679,0,0,1,1.21.431,1.451,1.451,0,0,1,.451,1.1,1.455,1.455,0,0,1-.456,1.107,1.684,1.684,0,0,1-1.2.431,1.684,1.684,0,0,1-1.2-.431A1.455,1.455,0,0,1,140.243-13.966ZM145.37-5.65a6.58,6.58,0,0,1,.636-2.943,4.654,4.654,0,0,1,1.83-2,5.34,5.34,0,0,1,2.774-.708,5.052,5.052,0,0,1,3.666,1.374,5.514,5.514,0,0,1,1.584,3.732l.021.759a5.8,5.8,0,0,1-1.425,4.1A4.954,4.954,0,0,1,150.63.205a4.979,4.979,0,0,1-3.83-1.538,5.9,5.9,0,0,1-1.43-4.184Zm2.963.21a4.147,4.147,0,0,0,.595,2.418,1.962,1.962,0,0,0,1.7.837,1.966,1.966,0,0,0,1.682-.827,4.538,4.538,0,0,0,.6-2.644,4.106,4.106,0,0,0-.6-2.4,1.967,1.967,0,0,0-1.7-.852,1.934,1.934,0,0,0-1.682.847A4.614,4.614,0,0,0,148.333-5.44Zm2.861-10.31h3.23l-2.84,3.179h-2.41Zm9.239,4.655.092,1.282a3.874,3.874,0,0,1,3.189-1.487,3.219,3.219,0,0,1,2.625,1.036,4.832,4.832,0,0,1,.882,3.1V0h-2.963V-7.112a1.93,1.93,0,0,0-.41-1.372,1.833,1.833,0,0,0-1.364-.426,2.038,2.038,0,0,0-1.876,1.069V0h-2.963V-11.095Z" transform="translate(404.696 174.786)" fill="#12263f"/>
      <path id="Trazado_125602" data-name="Trazado 125602" d="M8.213,0H5.25V-11.439L1.712-10.346v-2.389L7.9-14.95h.318Z" transform="translate(231.827 319.827)" fill="#12263f"/>
      <path id="Trazado_125603" data-name="Trazado 125603" d="M11.249,0H1.015V-2.03l4.83-5.147a11.915,11.915,0,0,0,1.471-1.9,3.048,3.048,0,0,0,.477-1.538,2.28,2.28,0,0,0-.5-1.564,1.814,1.814,0,0,0-1.436-.569,1.956,1.956,0,0,0-1.584.692,2.742,2.742,0,0,0-.579,1.82H.718a4.894,4.894,0,0,1,.651-2.492,4.589,4.589,0,0,1,1.841-1.769,5.594,5.594,0,0,1,2.7-.641A5.3,5.3,0,0,1,9.49-14.027,3.918,3.918,0,0,1,10.767-10.9a5.02,5.02,0,0,1-.574,2.256A12.536,12.536,0,0,1,8.224-5.968L4.83-2.389h6.419Z" transform="translate(493.004 211.471)" fill="#12263f"/>
      <path id="Trazado_125607" data-name="Trazado 125607" d="M4.03-8.777H5.609A2.225,2.225,0,0,0,7.28-9.341a2.067,2.067,0,0,0,.543-1.5,1.827,1.827,0,0,0-.538-1.4,2.086,2.086,0,0,0-1.482-.5,2.187,2.187,0,0,0-1.425.467A1.492,1.492,0,0,0,3.8-11.064H.841a3.644,3.644,0,0,1,.631-2.1,4.2,4.2,0,0,1,1.764-1.451,5.886,5.886,0,0,1,2.5-.523A5.582,5.582,0,0,1,9.444-14a3.866,3.866,0,0,1,1.343,3.122,3.141,3.141,0,0,1-.625,1.887A4.064,4.064,0,0,1,8.521-7.67,3.71,3.71,0,0,1,10.4-6.316a3.672,3.672,0,0,1,.62,2.133A3.93,3.93,0,0,1,9.572-.995a5.834,5.834,0,0,1-3.84,1.2A5.531,5.531,0,0,1,2.076-.974,3.851,3.851,0,0,1,.656-4.091H3.62A1.717,1.717,0,0,0,4.25-2.717,2.324,2.324,0,0,0,5.8-2.184,2.335,2.335,0,0,0,7.46-2.743a1.929,1.929,0,0,0,.6-1.482Q8.06-6.46,5.6-6.46H4.03Z" transform="translate(777.988 211.471)" fill="#12263f"/>
      <line id="Línea_254" data-name="Línea 254" y1="12.214" x2="10.554" transform="translate(244.875 312.018)" fill="none" stroke="#707070" stroke-miterlimit="10" stroke-width="1"/>
      <line id="Línea_255" data-name="Línea 255" x2="10.804" y2="12.214" transform="translate(245.581 312.018)" fill="none" stroke="#707070" stroke-miterlimit="10" stroke-width="1"/>
      <path id="Trazado_124316" data-name="Trazado 124316" d="M309.716,220.787v-54.2H339.78" transform="translate(58.47 3.717)" fill="none" stroke="#12263f" stroke-miterlimit="10" stroke-width="1"/>
    </g>
    <g id="Grupo_60003" data-name="Grupo 60003" transform="translate(-372 -2605)">
      <rect id="Rectángulo_30674" data-name="Rectángulo 30674" width="4" height="21" transform="translate(765 3322)" fill="#fba321"/>
      <path id="Trazado_125598" data-name="Trazado 125598" d="M4.462-3.739H2.292V0H1.066V-9.242h3.06a3.621,3.621,0,0,1,2.4.711A2.558,2.558,0,0,1,7.37-6.462a2.488,2.488,0,0,1-.467,1.5A2.785,2.785,0,0,1,5.6-4L7.776-.076V0H6.468Zm-2.171-1H4.164a2.112,2.112,0,0,0,1.444-.471,1.591,1.591,0,0,0,.536-1.259,1.676,1.676,0,0,0-.511-1.316,2.164,2.164,0,0,0-1.476-.464H2.292ZM11.743.127A3,3,0,0,1,9.471-.79a3.4,3.4,0,0,1-.876-2.453v-.216a4.121,4.121,0,0,1,.39-1.825,3.045,3.045,0,0,1,1.092-1.257A2.745,2.745,0,0,1,11.6-7a2.572,2.572,0,0,1,2.082.882,3.82,3.82,0,0,1,.743,2.526V-3.1H9.769a2.441,2.441,0,0,0,.594,1.641,1.866,1.866,0,0,0,1.444.625,2.045,2.045,0,0,0,1.054-.254,2.648,2.648,0,0,0,.755-.673l.717.559A2.884,2.884,0,0,1,11.743.127ZM11.6-6.03a1.566,1.566,0,0,0-1.193.517,2.515,2.515,0,0,0-.6,1.45h3.44v-.089a2.237,2.237,0,0,0-.482-1.387A1.475,1.475,0,0,0,11.6-6.03ZM16.358,0V-5.96H15.272v-.908h1.085v-.7a2.339,2.339,0,0,1,.59-1.708,2.23,2.23,0,0,1,1.669-.6,3.1,3.1,0,0,1,.806.107l-.063.946a3.373,3.373,0,0,0-.635-.057,1.146,1.146,0,0,0-.882.334,1.356,1.356,0,0,0-.311.958v.726H19v.908H17.532V0Zm6.633.127A3,3,0,0,1,20.719-.79a3.4,3.4,0,0,1-.876-2.453v-.216a4.121,4.121,0,0,1,.39-1.825,3.045,3.045,0,0,1,1.092-1.257A2.745,2.745,0,0,1,22.845-7a2.572,2.572,0,0,1,2.082.882,3.82,3.82,0,0,1,.743,2.526V-3.1H21.017a2.441,2.441,0,0,0,.594,1.641,1.866,1.866,0,0,0,1.444.625,2.045,2.045,0,0,0,1.054-.254,2.648,2.648,0,0,0,.755-.673l.717.559A2.884,2.884,0,0,1,22.991.127ZM22.845-6.03a1.566,1.566,0,0,0-1.193.517,2.515,2.515,0,0,0-.6,1.45H24.5v-.089a2.237,2.237,0,0,0-.482-1.387A1.475,1.475,0,0,0,22.845-6.03Zm7.5.216a3.519,3.519,0,0,0-.578-.044,1.547,1.547,0,0,0-1.568.984V0H27.028V-6.868h1.143l.019.793A1.829,1.829,0,0,1,29.828-7a1.2,1.2,0,0,1,.521.089ZM34.157.127A3,3,0,0,1,31.884-.79a3.4,3.4,0,0,1-.876-2.453v-.216a4.121,4.121,0,0,1,.39-1.825A3.045,3.045,0,0,1,32.49-6.541,2.745,2.745,0,0,1,34.011-7a2.572,2.572,0,0,1,2.082.882,3.82,3.82,0,0,1,.743,2.526V-3.1H32.183a2.441,2.441,0,0,0,.594,1.641,1.866,1.866,0,0,0,1.444.625,2.045,2.045,0,0,0,1.054-.254,2.648,2.648,0,0,0,.755-.673l.717.559A2.884,2.884,0,0,1,34.157.127ZM34.011-6.03a1.566,1.566,0,0,0-1.193.517,2.515,2.515,0,0,0-.6,1.45h3.44v-.089a2.237,2.237,0,0,0-.482-1.387A1.475,1.475,0,0,0,34.011-6.03ZM39.3-6.868,39.343-6A2.5,2.5,0,0,1,41.4-7q2.177,0,2.2,2.457V0H42.421V-4.545a1.581,1.581,0,0,0-.34-1.1A1.361,1.361,0,0,0,41.044-6a1.7,1.7,0,0,0-1,.3,2.069,2.069,0,0,0-.673.8V0H38.194V-6.868ZM48.122-.832a1.692,1.692,0,0,0,1.1-.381,1.34,1.34,0,0,0,.521-.952h1.111a2.13,2.13,0,0,1-.406,1.124,2.676,2.676,0,0,1-1,.851,2.885,2.885,0,0,1-1.323.317A2.829,2.829,0,0,1,45.89-.809a3.729,3.729,0,0,1-.828-2.561v-.2a4.135,4.135,0,0,1,.368-1.784,2.8,2.8,0,0,1,1.057-1.212A3,3,0,0,1,48.115-7a2.755,2.755,0,0,1,1.92.692,2.473,2.473,0,0,1,.816,1.8H49.74a1.618,1.618,0,0,0-.5-1.095,1.57,1.57,0,0,0-1.12-.428,1.644,1.644,0,0,0-1.387.644,3.026,3.026,0,0,0-.492,1.863V-3.3a2.965,2.965,0,0,0,.489,1.828A1.651,1.651,0,0,0,48.122-.832ZM53.447,0H52.273V-6.868h1.174Zm-1.27-8.69a.7.7,0,0,1,.175-.482.655.655,0,0,1,.517-.2.666.666,0,0,1,.521.2.694.694,0,0,1,.178.482.671.671,0,0,1-.178.476.678.678,0,0,1-.521.19.667.667,0,0,1-.517-.19A.678.678,0,0,1,52.178-8.69ZM59.566,0A2.467,2.467,0,0,1,59.4-.724a2.62,2.62,0,0,1-1.955.851A2.424,2.424,0,0,1,55.78-.448,1.859,1.859,0,0,1,55.129-1.9a1.942,1.942,0,0,1,.816-1.666,3.846,3.846,0,0,1,2.295-.594h1.143V-4.7a1.319,1.319,0,0,0-.368-.981,1.48,1.48,0,0,0-1.085-.365,1.712,1.712,0,0,0-1.054.317.935.935,0,0,0-.425.768H55.269a1.621,1.621,0,0,1,.365-.993,2.491,2.491,0,0,1,.99-.759A3.331,3.331,0,0,1,58-7a2.715,2.715,0,0,1,1.86.594,2.141,2.141,0,0,1,.7,1.635v3.161A3.865,3.865,0,0,0,60.8-.1V0ZM57.618-.9a2.064,2.064,0,0,0,1.047-.286,1.728,1.728,0,0,0,.717-.743V-3.333h-.92q-2.158,0-2.158,1.263a1.069,1.069,0,0,0,.368.863A1.415,1.415,0,0,0,57.618-.9ZM69.856,0a2.467,2.467,0,0,1-.165-.724,2.62,2.62,0,0,1-1.955.851A2.424,2.424,0,0,1,66.07-.448,1.859,1.859,0,0,1,65.419-1.9a1.942,1.942,0,0,1,.816-1.666,3.846,3.846,0,0,1,2.295-.594h1.143V-4.7a1.319,1.319,0,0,0-.368-.981,1.48,1.48,0,0,0-1.085-.365,1.712,1.712,0,0,0-1.054.317.935.935,0,0,0-.425.768H65.559a1.621,1.621,0,0,1,.365-.993,2.491,2.491,0,0,1,.99-.759A3.331,3.331,0,0,1,68.288-7a2.715,2.715,0,0,1,1.86.594,2.141,2.141,0,0,1,.7,1.635v3.161a3.865,3.865,0,0,0,.241,1.5V0ZM67.907-.9a2.064,2.064,0,0,0,1.047-.286,1.728,1.728,0,0,0,.717-.743V-3.333h-.92q-2.158,0-2.158,1.263a1.069,1.069,0,0,0,.368.863A1.415,1.415,0,0,0,67.907-.9Zm7.687-2.6a4.057,4.057,0,0,1,.4-1.815,2.96,2.96,0,0,1,1.1-1.244A3.007,3.007,0,0,1,78.711-7a2.9,2.9,0,0,1,2.269.971,3.736,3.736,0,0,1,.866,2.583v.083a4.092,4.092,0,0,1-.384,1.8,2.916,2.916,0,0,1-1.1,1.241,3.041,3.041,0,0,1-1.641.444,2.889,2.889,0,0,1-2.263-.971,3.718,3.718,0,0,1-.866-2.571Zm1.181.14a2.938,2.938,0,0,0,.53,1.834,1.7,1.7,0,0,0,1.419.692,1.686,1.686,0,0,0,1.422-.7A3.213,3.213,0,0,0,80.672-3.5a2.933,2.933,0,0,0-.536-1.831,1.705,1.705,0,0,0-1.425-.7,1.686,1.686,0,0,0-1.4.692A3.189,3.189,0,0,0,76.775-3.358Zm12.359,0a4.084,4.084,0,0,1-.724,2.53,2.312,2.312,0,0,1-1.942.955,2.394,2.394,0,0,1-2.012-.92L84.4,0H83.319V-9.75h1.174v3.637A2.381,2.381,0,0,1,86.455-7a2.326,2.326,0,0,1,1.965.946,4.206,4.206,0,0,1,.714,2.59Zm-1.174-.133A3.173,3.173,0,0,0,87.5-5.345,1.534,1.534,0,0,0,86.163-6a1.724,1.724,0,0,0-1.669,1.079v2.971A1.772,1.772,0,0,0,86.176-.87a1.526,1.526,0,0,0,1.314-.654A3.375,3.375,0,0,0,87.959-3.491Zm3.866-3.377V.793q0,1.98-1.8,1.98a2.191,2.191,0,0,1-.717-.114V1.727a2.27,2.27,0,0,0,.533.051.8.8,0,0,0,.6-.213,1.052,1.052,0,0,0,.206-.74V-6.868ZM90.53-8.69a.7.7,0,0,1,.175-.479.642.642,0,0,1,.511-.2.666.666,0,0,1,.521.2.694.694,0,0,1,.178.482.671.671,0,0,1-.178.476.678.678,0,0,1-.521.19.657.657,0,0,1-.514-.19A.685.685,0,0,1,90.53-8.69ZM96.567.127A3,3,0,0,1,94.294-.79a3.4,3.4,0,0,1-.876-2.453v-.216a4.121,4.121,0,0,1,.39-1.825A3.045,3.045,0,0,1,94.9-6.541,2.745,2.745,0,0,1,96.421-7a2.572,2.572,0,0,1,2.082.882,3.82,3.82,0,0,1,.743,2.526V-3.1H94.593a2.441,2.441,0,0,0,.594,1.641,1.866,1.866,0,0,0,1.444.625,2.045,2.045,0,0,0,1.054-.254,2.648,2.648,0,0,0,.755-.673l.717.559A2.884,2.884,0,0,1,96.567.127ZM96.421-6.03a1.566,1.566,0,0,0-1.193.517,2.515,2.515,0,0,0-.6,1.45h3.44v-.089a2.237,2.237,0,0,0-.482-1.387A1.475,1.475,0,0,0,96.421-6.03Zm5.776-2.5v1.663h1.282v.908H102.2V-1.7a.953.953,0,0,0,.171.62.721.721,0,0,0,.584.207,2.843,2.843,0,0,0,.559-.076V0a3.424,3.424,0,0,1-.9.126,1.462,1.462,0,0,1-1.187-.476,2.045,2.045,0,0,1-.4-1.352V-5.96h-1.25v-.908h1.25V-8.531ZM104.413-3.5a4.057,4.057,0,0,1,.4-1.815,2.96,2.96,0,0,1,1.1-1.244A3.007,3.007,0,0,1,107.529-7a2.9,2.9,0,0,1,2.269.971,3.736,3.736,0,0,1,.866,2.583v.083a4.092,4.092,0,0,1-.384,1.8,2.916,2.916,0,0,1-1.1,1.241,3.041,3.041,0,0,1-1.641.444,2.889,2.889,0,0,1-2.263-.971,3.718,3.718,0,0,1-.866-2.571Zm1.181.14a2.938,2.938,0,0,0,.53,1.834,1.7,1.7,0,0,0,1.419.692,1.686,1.686,0,0,0,1.422-.7,3.213,3.213,0,0,0,.527-1.965,2.933,2.933,0,0,0-.536-1.831,1.705,1.705,0,0,0-1.425-.7,1.686,1.686,0,0,0-1.4.692A3.189,3.189,0,0,0,105.593-3.358Zm10.543,1.536a.864.864,0,0,0-.359-.74,3.452,3.452,0,0,0-1.25-.454,5.912,5.912,0,0,1-1.416-.457,2.014,2.014,0,0,1-.774-.635,1.518,1.518,0,0,1-.251-.876,1.782,1.782,0,0,1,.714-1.428A2.789,2.789,0,0,1,114.626-7a2.87,2.87,0,0,1,1.895.6,1.915,1.915,0,0,1,.727,1.542h-1.181a1.06,1.06,0,0,0-.409-.832,1.534,1.534,0,0,0-1.031-.349,1.606,1.606,0,0,0-1,.279.879.879,0,0,0-.362.73.712.712,0,0,0,.336.641,4.139,4.139,0,0,0,1.216.413,6.334,6.334,0,0,1,1.425.47,2.079,2.079,0,0,1,.809.657,1.615,1.615,0,0,1,.263.936,1.758,1.758,0,0,1-.736,1.476,3.089,3.089,0,0,1-1.911.555,3.459,3.459,0,0,1-1.46-.292,2.375,2.375,0,0,1-.993-.816,1.966,1.966,0,0,1-.359-1.133h1.174a1.216,1.216,0,0,0,.473.936,1.835,1.835,0,0,0,1.165.346,1.894,1.894,0,0,0,1.07-.27A.829.829,0,0,0,116.137-1.822Zm11.724-1.536a4.113,4.113,0,0,1-.717,2.526A2.3,2.3,0,0,1,125.2.127a2.519,2.519,0,0,1-1.968-.793V2.641h-1.174V-6.868h1.073l.057.762A2.419,2.419,0,0,1,125.182-7a2.342,2.342,0,0,1,1.958.933,4.157,4.157,0,0,1,.72,2.6Zm-1.174-.133a3.035,3.035,0,0,0-.5-1.834A1.6,1.6,0,0,0,124.833-6a1.726,1.726,0,0,0-1.6.946v3.282a1.73,1.73,0,0,0,1.612.939,1.587,1.587,0,0,0,1.343-.67A3.313,3.313,0,0,0,126.687-3.491Zm6.906,2.812a2.494,2.494,0,0,1-2.012.806,2.135,2.135,0,0,1-1.673-.638,2.761,2.761,0,0,1-.581-1.888V-6.868H130.5v4.437q0,1.562,1.27,1.562a1.758,1.758,0,0,0,1.79-1v-5h1.174V0h-1.117Zm4.037-6.189.038.863A2.5,2.5,0,0,1,139.725-7q2.177,0,2.2,2.457V0h-1.174V-4.545a1.581,1.581,0,0,0-.34-1.1A1.361,1.361,0,0,0,139.369-6a1.7,1.7,0,0,0-1,.3,2.069,2.069,0,0,0-.673.8V0h-1.174V-6.868Zm7.655-1.663v1.663h1.282v.908h-1.282V-1.7a.953.953,0,0,0,.171.62.721.721,0,0,0,.584.207,2.843,2.843,0,0,0,.559-.076V0a3.424,3.424,0,0,1-.9.126,1.462,1.462,0,0,1-1.187-.476,2.045,2.045,0,0,1-.4-1.352V-5.96h-1.25v-.908h1.25V-8.531ZM147.5-3.5a4.057,4.057,0,0,1,.4-1.815A2.959,2.959,0,0,1,149-6.557,3.007,3.007,0,0,1,150.617-7a2.9,2.9,0,0,1,2.269.971,3.736,3.736,0,0,1,.866,2.583v.083a4.092,4.092,0,0,1-.384,1.8,2.916,2.916,0,0,1-1.1,1.241,3.041,3.041,0,0,1-1.641.444,2.889,2.889,0,0,1-2.263-.971,3.718,3.718,0,0,1-.866-2.571Zm1.181.14a2.938,2.938,0,0,0,.53,1.834,1.7,1.7,0,0,0,1.419.692,1.686,1.686,0,0,0,1.422-.7,3.213,3.213,0,0,0,.527-1.965,2.933,2.933,0,0,0-.536-1.831,1.705,1.705,0,0,0-1.425-.7,1.686,1.686,0,0,0-1.4.692A3.189,3.189,0,0,0,148.681-3.358ZM158.837,0V-5.96h-1.085v-.908h1.085v-.584a2.386,2.386,0,0,1,.657-1.79,2.548,2.548,0,0,1,1.857-.641,5.591,5.591,0,0,1,1.8.387l-.2.99a4.069,4.069,0,0,0-1.511-.317,1.478,1.478,0,0,0-1.089.34,1.4,1.4,0,0,0-.333,1.019v.6h1.4v.908h-1.4V0Zm4.894,0h-1.181V-6.868h1.181Zm3.021-6.868.038.863A2.5,2.5,0,0,1,168.848-7q2.177,0,2.2,2.457V0H169.87V-4.545a1.581,1.581,0,0,0-.34-1.1A1.361,1.361,0,0,0,168.492-6a1.7,1.7,0,0,0-1,.3,2.069,2.069,0,0,0-.673.8V0h-1.174V-6.868ZM177.055,0a2.467,2.467,0,0,1-.165-.724,2.62,2.62,0,0,1-1.955.851,2.424,2.424,0,0,1-1.666-.574,1.859,1.859,0,0,1-.651-1.457,1.942,1.942,0,0,1,.816-1.666,3.846,3.846,0,0,1,2.295-.594h1.143V-4.7a1.319,1.319,0,0,0-.368-.981,1.48,1.48,0,0,0-1.085-.365,1.712,1.712,0,0,0-1.054.317.935.935,0,0,0-.425.768h-1.181a1.621,1.621,0,0,1,.365-.993,2.491,2.491,0,0,1,.99-.759A3.331,3.331,0,0,1,175.487-7a2.715,2.715,0,0,1,1.86.594,2.141,2.141,0,0,1,.7,1.635v3.161a3.865,3.865,0,0,0,.241,1.5V0Zm-1.949-.9a2.064,2.064,0,0,0,1.047-.286,1.728,1.728,0,0,0,.717-.743V-3.333h-.92q-2.158,0-2.158,1.263a1.069,1.069,0,0,0,.368.863A1.415,1.415,0,0,0,175.106-.9Zm6.056.9h-1.174V-9.75h1.174Z" transform="translate(780 3337)" fill="#12263f"/>
    </g>
  </g>
</svg>
