<svg xmlns="http://www.w3.org/2000/svg" width="34.273" height="38.316" viewBox="0 0 34.273 38.316">
  <g id="Grupo_60127" data-name="Grupo 60127" transform="translate(585.571 -494.318)">
    <path id="Trazado_125566" data-name="Trazado 125566" d="M-490.888,566.946c-.029-.056-.056-.113-.084-.169A.2.2,0,0,0-490.888,566.946Z" transform="translate(-63.735 -48.818)" fill="#fefefe"/>
    <path id="Trazado_125567" data-name="Trazado 125567" d="M-552.724,525.226c-.591-2.33-1.181-4.66-1.9-6.955a.2.2,0,0,1-.084-.169c-.5-1-.8-2.068-1.235-3.09-.874-2.06-1.73-4.129-2.7-6.148-.735-1.536-1.467-3.074-2.248-4.586a110.735,110.735,0,0,0-5.622-9.747h0l-3.848,0c-1.531,2.358-2.941,4.785-4.292,7.25-1.037,1.894-2.031,3.808-2.96,5.755-1.572,3.3-3.052,6.634-4.311,10.065-.038.105-.012.274-.2.268h0c-.539,1.593-.934,3.227-1.371,4.848-.767,2.846-1.442,5.715-2.052,8.6-.066.313-.015.5.3.632.51.218,1,.477,1.5.719h0a27.708,27.708,0,0,0,1.179-2.787c.626-1.473,1.224-2.958,1.816-4.444a.993.993,0,0,1,.358-.463c-.148-.4.142-.692.26-1.015.259-.711.6-1.39.867-2.1a.983.983,0,0,1,.615-.605c2.434-.984,4.889-1.913,7.386-2.724,3.453-1.122,6.933-2.153,10.459-3.026.34-.085.467-.026.6.294.684,1.629,1.4,3.246,2.1,4.867.1.228.305.473-.083.639h0c.255-.028.379.089.478.329.882,2.147,1.784,4.287,2.669,6.433.584,1.415,1.149,2.838,1.728,4.255a2.988,2.988,0,0,0,.2.349c.484-.234.959-.493,1.456-.693.362-.146.409-.349.333-.7C-551.759,529.251-552.214,527.232-552.724,525.226Zm-10.428-15.169c-.827.471-1.651.948-2.476,1.423h0l-6.881,4.059c-.131.077-.26.157-.39.236h0l-4.989,2.908,2.159-4.97q1.241-2.686,2.484-5.371a1.5,1.5,0,0,1,.141-.205c.5-1.2,1.115-2.349,1.718-3.5a28.822,28.822,0,0,1,2.339-3.9c.512-.686.724-.686,1.238.018a38.243,38.243,0,0,1,3.008,5.209c.385.752.752,1.513,1.127,2.269h0c.212.455.418.912.639,1.363C-562.937,509.794-562.943,509.938-563.151,510.057Z" transform="translate(0 -0.143)" fill="#1688cd"/>
    <path id="Trazado_125568" data-name="Trazado 125568" d="M-547.518,575.272c-1.006-3.3-2.062-6.584-3.262-9.819-.1-.279-.2-.472.258-.516.984-.094,1.961-.253,2.942-.385h0c.388-.166.182-.411.083-.639-.7-1.622-1.414-3.238-2.1-4.867-.134-.32-.26-.378-.6-.294-3.526.874-7.006,1.9-10.459,3.026-2.5.811-4.952,1.74-7.386,2.724a.983.983,0,0,0-.615.605c-.264.709-.608,1.388-.867,2.1-.118.323-.408.619-.26,1.015,1.2-.25,2.4-.5,3.6-.753.164-.035.345-.136.481-.013.16.144,0,.32-.052.464-.8,2.361-1.583,4.727-2.3,7.115-.076.254-.278.505-.108.8.8-.529,1.6-1.065,2.409-1.584a.63.63,0,0,0,.315-.578,44.564,44.564,0,0,1,.622-6.037.555.555,0,0,1,.524-.543c4.081-.742,8.179-1.375,12.286-1.96.521-.074.659.064.765.522a41.345,41.345,0,0,1,1.022,7.916.8.8,0,0,0,.408.734c.785.493,1.552,1.016,2.326,1.527C-547.29,575.633-547.469,575.435-547.518,575.272Z" transform="translate(-10.61 -43.387)" fill="#1378ba"/>
    <path id="Trazado_125569" data-name="Trazado 125569" d="M-505.286,583.354c-.885-2.146-1.788-4.286-2.669-6.433-.1-.24-.223-.357-.478-.329h0c-.98.132-1.958.291-2.942.385-.456.044-.362.237-.258.516,1.2,3.235,2.256,6.519,3.262,9.819.05.163.229.361.036.557.051.041.1.116.154.119a32.665,32.665,0,0,0,4.82-.03,2.98,2.98,0,0,1-.2-.349C-504.137,586.192-504.7,584.77-505.286,583.354Z" transform="translate(-49.758 -55.429)" fill="#53acdc"/>
    <path id="Trazado_125570" data-name="Trazado 125570" d="M-574.891,592.957c.714-2.389,1.5-4.754,2.3-7.115.049-.144.212-.32.052-.464-.136-.123-.317-.022-.481.013-1.2.255-2.4.5-3.6.753a.993.993,0,0,0-.358.463c-.592,1.487-1.19,2.972-1.816,4.444a27.692,27.692,0,0,1-1.179,2.787h0a.32.32,0,0,0,.277.088h4.249a.5.5,0,0,0,.451-.172h0C-575.168,593.462-574.966,593.211-574.891,592.957Z" transform="translate(-3.771 -61.31)" fill="#53acdc"/>
    <path id="Trazado_125571" data-name="Trazado 125571" d="M-521.518,504.135c.781,1.512,1.513,3.05,2.248,4.586.966,2.019,1.821,4.087,2.7,6.148.434,1.022.739,2.095,1.235,3.09.028.056.054.114.084.169a3.087,3.087,0,0,0-.063-.347c-1.3-4.387-2.731-8.729-4.386-13-1.322-3.408-2.756-6.766-4.383-10.04-.085-.171-.111-.42-.38-.412a22.212,22.212,0,0,0-2.672.055h0A110.72,110.72,0,0,1-521.518,504.135Z" transform="translate(-39.367 0)" fill="#29a5e4"/>
    <path id="Trazado_125572" data-name="Trazado 125572" d="M-574.8,517.469c1.26-3.431,2.739-6.769,4.311-10.065.929-1.947,1.923-3.862,2.96-5.755,1.351-2.465,2.761-4.893,4.292-7.25-.72-.123-1.448,0-2.166-.062a.871.871,0,0,0-.992.6,137.563,137.563,0,0,0-7.077,17.744c-.546,1.675-1.116,3.345-1.533,5.061h0C-574.81,517.743-574.837,517.574-574.8,517.469Z" transform="translate(-7.121 -0.007)" fill="#1378ba"/>
    <path id="Trazado_125573" data-name="Trazado 125573" d="M-543,517.456c.145-.148.118-.409.345-.529l.28.529q2,1.165,3.993,2.332a1.054,1.054,0,0,0,.453.2h0c-.375-.757-.742-1.518-1.127-2.27a38.234,38.234,0,0,0-3.008-5.209c-.514-.7-.726-.7-1.238-.018a28.8,28.8,0,0,0-2.339,3.9c-.6,1.15-1.215,2.3-1.718,3.5.415.014.688-.3,1.007-.475C-545.221,518.788-544.115,518.114-543,517.456Z" transform="translate(-25.744 -11.9)" fill="#0c5998"/>
    <path id="Trazado_125574" data-name="Trazado 125574" d="M-550.759,534.138h0c.1-.213.193-.426.286-.641q1.027-2.367,2.053-4.733c-1.116.657-2.222,1.332-3.353,1.961-.32.178-.592.489-1.007.475a1.5,1.5,0,0,0-.141.205q-1.244,2.685-2.484,5.371c.94-.42,1.778-1.021,2.674-1.517C-552.069,534.894-551.416,534.513-550.759,534.138Z" transform="translate(-20.324 -23.207)" fill="#2c71a7"/>
    <path id="Trazado_125575" data-name="Trazado 125575" d="M-556.95,549.525q.866-2.145,1.733-4.289h0c-.657.375-1.31.756-1.971,1.121-.9.5-1.735,1.1-2.674,1.517l-2.158,4.97,4.989-2.908h0C-557.125,549.775-557,549.656-556.95,549.525Z" transform="translate(-15.867 -34.305)" fill="#3f95c9"/>
    <path id="Trazado_125576" data-name="Trazado 125576" d="M-527.635,531.3h0a1.054,1.054,0,0,1-.453-.2q-1.994-1.17-3.993-2.332c.052.14.1.282.156.419q1.167,2.681,2.336,5.361h0c.825-.475,1.649-.951,2.476-1.423.209-.119.214-.263.117-.461C-527.216,532.208-527.423,531.751-527.635,531.3Z" transform="translate(-36.038 -23.207)" fill="#2c71a7"/>
  </g>
</svg>
