<svg xmlns="http://www.w3.org/2000/svg" width="134" height="134" viewBox="0 0 134 134">
  <g id="Grupo_57251" data-name="Grupo 57251" transform="translate(-733 -1255)">
    <rect id="Rectángulo_5957" data-name="Rectángulo 5957" width="134" height="134" transform="translate(733 1255)" fill="none"/>
    <g id="Grupo_57247" data-name="Grupo 57247" transform="translate(746 1260)">
      <g id="Trazado_121043" data-name="Trazado 121043" transform="translate(-1546.516 -837.509)" fill="#fff" stroke-miterlimit="10">
        <path d="M 1599.96484375 960.5215454101562 L 1547.015869140625 926.2713623046875 L 1547.015869140625 873.5133666992188 L 1599.96484375 907.7635498046875 L 1599.96484375 960.5215454101562 Z" stroke="none"/>
        <path d="M 1599.46484375 959.6026000976562 L 1599.46484375 908.03564453125 L 1547.515869140625 874.4323120117188 L 1547.515869140625 925.999267578125 L 1599.46484375 959.6026000976562 M 1600.46484375 961.4404296875 L 1546.515869140625 926.5433959960938 L 1546.515869140625 872.594482421875 L 1600.46484375 907.4915161132812 L 1600.46484375 961.4404296875 Z" stroke="none" fill="#000"/>
      </g>
      <g id="Trazado_121044" data-name="Trazado 121044" transform="translate(-1559.208 -837.509)" fill="#fff" stroke-miterlimit="10">
        <path d="M 1613.656616210938 960.5215454101562 L 1613.656616210938 907.7635498046875 L 1666.605590820312 873.5133666992188 L 1666.605590820312 926.2713623046875 L 1613.656616210938 960.5215454101562 Z" stroke="none"/>
        <path d="M 1614.156616210938 959.6026000976562 L 1666.105590820312 925.999267578125 L 1666.105590820312 874.4323120117188 L 1614.156616210938 908.03564453125 L 1614.156616210938 959.6026000976562 M 1613.156616210938 961.4404296875 L 1613.156616210938 907.4915161132812 L 1667.105590820312 872.594482421875 L 1667.105590820312 926.5433959960938 L 1613.156616210938 961.4404296875 Z" stroke="none" fill="#000"/>
      </g>
      <g id="Trazado_121045" data-name="Trazado 121045" transform="translate(-1546.516 -829.255)" fill="#fff" stroke-miterlimit="10">
        <path d="M 1600.46484375 898.6420288085938 L 1547.434692382812 864.3392944335938 L 1600.46484375 829.8511962890625 L 1653.494995117188 864.3392944335938 L 1600.46484375 898.6420288085938 Z" stroke="none"/>
        <path d="M 1600.46484375 830.4476318359375 L 1548.353515625 864.3381958007812 L 1600.46484375 898.0465087890625 L 1652.576171875 864.3381958007812 L 1600.46484375 830.4476318359375 M 1600.46484375 829.2547607421875 L 1654.413818359375 864.3404541015625 L 1600.46484375 899.2374877929688 L 1546.515869140625 864.3404541015625 L 1600.46484375 829.2547607421875 Z" stroke="none" fill="#000"/>
      </g>
      <line id="Línea_226" data-name="Línea 226" x1="70.592" y2="51.768" transform="translate(18.47 9.971)" fill="#fff" stroke="#000" stroke-miterlimit="10" stroke-width="3"/>
      <line id="Línea_227" data-name="Línea 227" x2="76.666" y2="56.222" transform="translate(19.828 10.749)" fill="#fff" stroke="#000" stroke-miterlimit="10" stroke-width="3"/>
    </g>
  </g>
</svg>
