<svg xmlns="http://www.w3.org/2000/svg" width="314.697" height="183" viewBox="0 0 314.697 183">
  <g id="Grupo_55854" data-name="Grupo 55854" transform="translate(-2.697)">
    <rect id="Rectángulo_5773" data-name="Rectángulo 5773" width="314.697" height="183" rx="25" transform="translate(2.697)" fill="none" opacity="0.4"/>
    <g id="Grupo_59463" data-name="Grupo 59463" transform="translate(-0.439 -11.979)">
      <rect id="Rectángulo_30197" data-name="Rectángulo 30197" width="19.498" height="33.883" transform="translate(108.116 81.789)" fill="#fff"/>
      <rect id="Rectángulo_30198" data-name="Rectángulo 30198" width="20.3" height="33.883" transform="translate(85.008 81.789)" fill="#fff"/>
      <path id="Trazado_124496" data-name="Trazado 124496" d="M141.8,135.022V62.454H70.822v72.568ZM83.6,78.982h45.414a1.4,1.4,0,0,1,1.4,1.4v36.691a1.4,1.4,0,0,1-1.4,1.4H83.6a1.4,1.4,0,0,1-1.4-1.4V80.386A1.4,1.4,0,0,1,83.6,78.982Z" fill="#8aa8ba"/>
      <path id="Trazado_124497" data-name="Trazado 124497" d="M220.1,100.464h3.075a4.645,4.645,0,0,1,4.171,2.7,11.654,11.654,0,0,0,1.417,2.3,4.641,4.641,0,0,1,.44,5.215l-1.473,2.551a1.79,1.79,0,0,0,.654,2.442,1.829,1.829,0,0,0,2.442-.655l1.643-2.845a4.678,4.678,0,0,1,4.517-2.265,11.47,11.47,0,0,0,2.513-.056,4.632,4.632,0,0,1,4.632,2.236l1.561,2.7a1.828,1.828,0,0,0,2.442.654,1.785,1.785,0,0,0,.654-2.441l-1.64-2.841a4.66,4.66,0,0,1,.311-5.048,11.852,11.852,0,0,0,1.268-2.24,4.642,4.642,0,0,1,4.243-2.86h3.054a1.787,1.787,0,0,0,0-3.574h-3.058a4.63,4.63,0,0,1-4.234-2.844,11.7,11.7,0,0,0-1.383-2.392,4.642,4.642,0,0,1-.355-5.1l1.4-2.424a1.788,1.788,0,0,0-.654-2.442,1.836,1.836,0,0,0-2.442.654l-1.41,2.442a4.6,4.6,0,0,1-4.594,2.247,11.466,11.466,0,0,0-2.915.029,4.617,4.617,0,0,1-4.643-2.234l-1.3-2.256a1.836,1.836,0,0,0-2.442-.654,1.789,1.789,0,0,0-.655,2.442l1.416,2.45a4.639,4.639,0,0,1-.293,5.018,11.672,11.672,0,0,0-1.393,2.544,4.616,4.616,0,0,1-4.287,2.976H220.1a1.787,1.787,0,0,0,0,3.575Zm17.871-8.389a6.146,6.146,0,1,1-6.145,6.146A6.153,6.153,0,0,1,237.969,92.075Z" fill="#fff"/>
      <path id="Trazado_124498" data-name="Trazado 124498" d="M291.08,77.348c-.18.131-.357.266-.544.388-.164.107-.335.2-.5.3-.208.122-.416.243-.631.354-.168.086-.339.165-.511.243q-.344.159-.7.3c-.17.065-.34.128-.513.186-.253.086-.509.16-.768.229-.167.044-.333.091-.5.128-.29.065-.585.112-.881.156-.146.021-.289.05-.436.066a12.436,12.436,0,0,1-1.357.079h-8.621v86.294h8.621a9.744,9.744,0,0,0,9.744-9.723V75.092c-.052.064-.113.12-.166.183-.066.079-.138.151-.206.228A12.751,12.751,0,0,1,291.08,77.348Z" fill="#ffb959"/>
      <path id="Trazado_124499" data-name="Trazado 124499" d="M73.812,59.634h65.073L106.7,36.115Z" fill="#5d717d"/>
      <path id="Trazado_124500" data-name="Trazado 124500" d="M288.2,62.515H206.06v71.376a1.4,1.4,0,0,1-1.4,1.4H194.631a9.745,9.745,0,0,0-9.743,9.725,5.329,5.329,0,0,0,5.292,5.453H272.3v-72.1a1.4,1.4,0,0,1,1.4-1.4h10.025a9.774,9.774,0,0,0,9.725-9.477A5.212,5.212,0,0,0,288.2,62.515ZM220.1,94.081h2.678a1.827,1.827,0,0,0,1.677-1.2,14.523,14.523,0,0,1,1.726-3.155,1.8,1.8,0,0,0,.137-1.972L224.9,85.305a4.6,4.6,0,0,1,1.682-6.278,4.722,4.722,0,0,1,6.276,1.682l1.3,2.256a1.791,1.791,0,0,0,1.832.856,14.656,14.656,0,0,1,3.624-.036,1.829,1.829,0,0,0,1.834-.862l1.411-2.441a4.719,4.719,0,0,1,6.276-1.683,4.6,4.6,0,0,1,1.682,6.277l-1.4,2.424a1.811,1.811,0,0,0,.171,2.016,14.6,14.6,0,0,1,1.714,2.966,1.826,1.826,0,0,0,1.655,1.144h3.058a4.6,4.6,0,0,1,0,9.19h-3.054a1.839,1.839,0,0,0-1.663,1.159,14.609,14.609,0,0,1-1.574,2.776,1.83,1.83,0,0,0-.153,2l1.639,2.84a4.6,4.6,0,0,1-1.681,6.277,4.719,4.719,0,0,1-6.277-1.682l-1.56-2.7a1.814,1.814,0,0,0-1.834-.858,14.282,14.282,0,0,1-3.135.07l-.2-.009a1.844,1.844,0,0,0-1.633.88l-1.641,2.846a4.595,4.595,0,1,1-7.959-4.594l1.472-2.55a1.851,1.851,0,0,0-.21-2.072,14.5,14.5,0,0,1-1.759-2.848,1.8,1.8,0,0,0-1.627-1.079H220.1a4.6,4.6,0,1,1,0-9.191Zm43.715,28.285-6.525,7.655a1.4,1.4,0,1,1-2.136-1.82l1.29-1.514H217.584l-2.842,3.334a1.4,1.4,0,0,1-2.136-1.82l2.927-3.435V108.275a1.4,1.4,0,1,1,2.808,0v13.2l.79-.927a1.4,1.4,0,1,1,2.136,1.821l-1.29,1.513h38.1V108.241a1.4,1.4,0,1,1,2.808,0v13.232l.791-.928a1.4,1.4,0,1,1,2.136,1.821Z" fill="#ffa326"/>
      <path id="Trazado_124501" data-name="Trazado 124501" d="M237.969,101.558a3.337,3.337,0,1,0-3.338-3.337A3.34,3.34,0,0,0,237.969,101.558Z" fill="#fff"/>
      <path id="Trazado_124502" data-name="Trazado 124502" d="M194.631,46.174a9.754,9.754,0,0,0-9.743,9.743v81.212A12.635,12.635,0,0,1,187.4,134.8c.1-.073.2-.149.31-.219.214-.142.434-.273.656-.4.165-.1.329-.189.5-.277.2-.1.4-.2.6-.291s.417-.182.63-.265c.187-.073.374-.144.565-.208.243-.081.491-.15.741-.217.176-.047.349-.1.528-.136.288-.064.583-.11.879-.153.149-.022.3-.052.448-.069a12.686,12.686,0,0,1,1.372-.078h8.622V46.174Z" fill="#ffb959"/>
      <path id="Trazado_124503" data-name="Trazado 124503" d="M283.733,79.777a12.436,12.436,0,0,0,1.357-.079A12.421,12.421,0,0,1,283.733,79.777Z"/>
      <path id="Trazado_124504" data-name="Trazado 124504" d="M286.91,79.348c.259-.069.515-.143.768-.229C287.425,79.2,287.168,79.279,286.91,79.348Z"/>
      <path id="Trazado_124505" data-name="Trazado 124505" d="M187.713,134.583c-.106.07-.206.146-.31.219C187.507,134.729,187.607,134.653,187.713,134.583Z"/>
      <path id="Trazado_124506" data-name="Trazado 124506" d="M290.536,77.736c.187-.122.364-.257.544-.388C290.9,77.479,290.723,77.614,290.536,77.736Z"/>
      <path id="Trazado_124507" data-name="Trazado 124507" d="M289.4,78.393c.215-.111.423-.232.631-.354C289.824,78.161,289.616,78.282,289.4,78.393Z"/>
      <path id="Trazado_124508" data-name="Trazado 124508" d="M288.191,78.933q.355-.138.7-.3Q288.547,78.795,288.191,78.933Z"/>
      <path id="Trazado_124509" data-name="Trazado 124509" d="M285.526,79.632c.3-.044.591-.091.881-.156C286.118,79.54,285.822,79.588,285.526,79.632Z"/>
      <path id="Trazado_124510" data-name="Trazado 124510" d="M293.311,75.275c-.066.079-.138.152-.206.228C293.173,75.426,293.245,75.354,293.311,75.275Z"/>
      <path id="Trazado_124511" data-name="Trazado 124511" d="M191.4,132.924c-.25.067-.5.136-.741.217C190.906,133.06,191.155,132.99,191.4,132.924Z"/>
      <path id="Trazado_124512" data-name="Trazado 124512" d="M188.867,133.9c-.169.088-.333.181-.5.277C188.534,134.087,188.7,133.992,188.867,133.9Z"/>
      <path id="Trazado_124513" data-name="Trazado 124513" d="M192.811,132.635c-.3.043-.591.089-.879.153C192.22,132.724,192.515,132.678,192.811,132.635Z"/>
      <path id="Trazado_124514" data-name="Trazado 124514" d="M190.1,133.349c-.213.083-.423.17-.63.265Q189.779,133.473,190.1,133.349Z"/>
      <path id="Trazado_124515" data-name="Trazado 124515" d="M194.631,132.488a12.686,12.686,0,0,0-1.372.078A12.686,12.686,0,0,1,194.631,132.488Z"/>
      <path id="Trazado_124516" data-name="Trazado 124516" d="M189.468,133.614c-.2.092-.4.188-.6.291C189.064,133.8,189.265,133.706,189.468,133.614Z"/>
      <path id="Trazado_124517" data-name="Trazado 124517" d="M190.663,133.141c-.191.064-.378.135-.565.208C190.285,133.276,190.472,133.205,190.663,133.141Z"/>
      <path id="Trazado_124518" data-name="Trazado 124518" d="M193.259,132.566c-.152.017-.3.047-.448.069C192.96,132.613,193.107,132.583,193.259,132.566Z"/>
      <path id="Trazado_124519" data-name="Trazado 124519" d="M191.932,132.788c-.179.039-.352.089-.528.136C191.58,132.877,191.753,132.827,191.932,132.788Z"/>
      <path id="Trazado_124520" data-name="Trazado 124520" d="M188.369,134.182c-.222.128-.442.259-.656.4C187.926,134.441,188.147,134.311,188.369,134.182Z"/>
      <path id="Trazado_124521" data-name="Trazado 124521" d="M290.032,78.039c.169-.1.34-.2.5-.3C290.372,77.843,290.2,77.939,290.032,78.039Z"/>
      <path id="Trazado_124522" data-name="Trazado 124522" d="M286.407,79.476c.17-.037.336-.084.5-.128C286.743,79.392,286.577,79.439,286.407,79.476Z"/>
      <path id="Trazado_124523" data-name="Trazado 124523" d="M288.89,78.636c.172-.078.343-.157.511-.243C289.233,78.479,289.062,78.558,288.89,78.636Z"/>
      <path id="Trazado_124524" data-name="Trazado 124524" d="M287.678,79.119c.173-.058.343-.121.513-.186C288.022,79,287.851,79.061,287.678,79.119Z"/>
      <path id="Trazado_124525" data-name="Trazado 124525" d="M293.105,75.5a12.8,12.8,0,0,1-2.025,1.845A12.751,12.751,0,0,0,293.105,75.5Z"/>
      <path id="Trazado_124526" data-name="Trazado 124526" d="M285.09,79.7c.147-.016.29-.045.436-.066C285.38,79.653,285.237,79.682,285.09,79.7Z"/>
      <path id="Trazado_124527" data-name="Trazado 124527" d="M296.259,67.41a8.021,8.021,0,0,0-8.055-7.7H206.06V44.77a1.4,1.4,0,0,0-1.4-1.4H194.631A12.566,12.566,0,0,0,182.08,55.917v89.1c0,.02.005.039.006.059,0,.041-.006.08-.006.121a8.1,8.1,0,0,0,8.1,8.08H272.3v14.2a1.4,1.4,0,0,0,1.4,1.4h10.025a12.556,12.556,0,0,0,12.552-12.531V67.787A3.423,3.423,0,0,0,296.259,67.41ZM184.888,137.129V55.917a9.754,9.754,0,0,1,9.743-9.743h8.622v86.314h-8.622a12.686,12.686,0,0,0-1.372.078c-.152.017-.3.047-.448.069-.3.043-.591.089-.879.153-.179.039-.352.089-.528.136-.249.066-.5.136-.741.217-.191.064-.378.135-.565.208q-.32.125-.63.265c-.2.092-.4.188-.6.291-.169.087-.333.182-.5.277-.222.129-.443.259-.656.4-.106.07-.206.146-.31.219a12.479,12.479,0,0,0-1.155.932A12.026,12.026,0,0,0,184.888,137.129Zm5.292,13.344a5.329,5.329,0,0,1-5.292-5.453,9.745,9.745,0,0,1,9.743-9.725h10.025a1.4,1.4,0,0,0,1.4-1.4V62.515H288.2a5.212,5.212,0,0,1,5.254,4.978,9.774,9.774,0,0,1-9.725,9.477H273.708a1.4,1.4,0,0,0-1.4,1.4v72.1Zm103.3,5.875a9.744,9.744,0,0,1-9.744,9.723h-8.621V79.777h8.621a12.421,12.421,0,0,0,1.357-.079c.147-.016.29-.045.436-.066.3-.044.592-.092.881-.156.17-.037.336-.084.5-.128.258-.069.515-.144.768-.229.173-.058.344-.121.513-.186q.355-.138.7-.3c.172-.078.343-.157.511-.243.215-.111.423-.232.631-.354.169-.1.34-.2.5-.3.187-.122.364-.257.544-.388a12.8,12.8,0,0,0,2.025-1.845c.068-.076.14-.149.206-.228.053-.063.114-.119.166-.183Z"/>
      <path id="Trazado_124528" data-name="Trazado 124528" d="M237.969,104.366a6.146,6.146,0,1,0-6.145-6.145A6.152,6.152,0,0,0,237.969,104.366Zm0-9.483a3.337,3.337,0,1,1-3.338,3.338A3.34,3.34,0,0,1,237.969,94.883Z"/>
      <path id="Trazado_124529" data-name="Trazado 124529" d="M220.1,103.272h3.075a1.8,1.8,0,0,1,1.627,1.079,14.5,14.5,0,0,0,1.759,2.848,1.851,1.851,0,0,1,.21,2.072l-1.472,2.55a4.595,4.595,0,1,0,7.959,4.594l1.641-2.846a1.844,1.844,0,0,1,1.633-.88l.2.009a14.282,14.282,0,0,0,3.135-.07,1.814,1.814,0,0,1,1.834.858l1.56,2.7a4.719,4.719,0,0,0,6.277,1.682,4.6,4.6,0,0,0,1.681-6.277l-1.639-2.84a1.83,1.83,0,0,1,.153-2,14.609,14.609,0,0,0,1.574-2.776,1.839,1.839,0,0,1,1.663-1.159h3.054a4.6,4.6,0,0,0,0-9.19h-3.058a1.826,1.826,0,0,1-1.655-1.144,14.6,14.6,0,0,0-1.714-2.966,1.811,1.811,0,0,1-.171-2.016l1.4-2.424a4.6,4.6,0,0,0-1.682-6.277,4.719,4.719,0,0,0-6.276,1.683l-1.411,2.441a1.829,1.829,0,0,1-1.834.862,14.656,14.656,0,0,0-3.624.036,1.791,1.791,0,0,1-1.832-.856l-1.3-2.256a4.722,4.722,0,0,0-6.276-1.682,4.6,4.6,0,0,0-1.682,6.278l1.414,2.449a1.8,1.8,0,0,1-.137,1.972,14.523,14.523,0,0,0-1.726,3.155,1.827,1.827,0,0,1-1.677,1.2H220.1a4.6,4.6,0,1,0,0,9.191Zm0-6.383h2.678a4.616,4.616,0,0,0,4.287-2.976,11.672,11.672,0,0,1,1.393-2.544,4.639,4.639,0,0,0,.293-5.018l-1.416-2.45a1.789,1.789,0,0,1,.655-2.442,1.836,1.836,0,0,1,2.442.654l1.3,2.256a4.617,4.617,0,0,0,4.643,2.234,11.466,11.466,0,0,1,2.915-.029,4.6,4.6,0,0,0,4.594-2.247l1.41-2.442a1.836,1.836,0,0,1,2.442-.654,1.788,1.788,0,0,1,.654,2.442l-1.4,2.424a4.642,4.642,0,0,0,.355,5.1,11.7,11.7,0,0,1,1.383,2.392,4.63,4.63,0,0,0,4.234,2.844h3.058a1.787,1.787,0,0,1,0,3.574h-3.054a4.642,4.642,0,0,0-4.243,2.86,11.852,11.852,0,0,1-1.268,2.24,4.66,4.66,0,0,0-.311,5.048l1.64,2.841a1.785,1.785,0,0,1-.654,2.441,1.828,1.828,0,0,1-2.442-.654l-1.561-2.7a4.632,4.632,0,0,0-4.632-2.236,11.47,11.47,0,0,1-2.513.056,4.678,4.678,0,0,0-4.517,2.265l-1.643,2.845a1.829,1.829,0,0,1-2.442.655,1.79,1.79,0,0,1-.654-2.442l1.473-2.551a4.641,4.641,0,0,0-.44-5.215,11.654,11.654,0,0,1-1.417-2.3,4.645,4.645,0,0,0-4.171-2.7H220.1a1.787,1.787,0,0,1,0-3.575Z"/>
      <path id="Trazado_124530" data-name="Trazado 124530" d="M263.656,120.387a1.4,1.4,0,0,0-1.979.158l-.791.928V108.241a1.4,1.4,0,1,0-2.808,0v15.638h-38.1l1.29-1.513a1.4,1.4,0,1,0-2.136-1.821l-.79.927v-13.2a1.4,1.4,0,1,0-2.808,0v16.491l-2.927,3.435a1.4,1.4,0,1,0,2.136,1.82l2.842-3.334h38.858l-1.29,1.514a1.4,1.4,0,1,0,2.136,1.82l6.525-7.655A1.4,1.4,0,0,0,263.656,120.387Z" fill="#fff"/>
      <path id="Trazado_124531" data-name="Trazado 124531" d="M68.014,61.038h0a1.407,1.407,0,0,1,.069-.413A1.375,1.375,0,0,0,68.014,61.038Z"/>
      <path id="Trazado_124532" data-name="Trazado 124532" d="M68.6,59.909l.1-.075a1.4,1.4,0,0,0-.615.764A1.4,1.4,0,0,1,68.6,59.909Z"/>
      <path id="Trazado_124533" data-name="Trazado 124533" d="M143.97,59.864c.011.006.021.014.032.021Z"/>
      <path id="Trazado_124534" data-name="Trazado 124534" d="M143.243,62.454c-.011,0-.024,0-.04,0h-1.4v72.568H70.822V62.454h-1.4a1.4,1.4,0,0,1-1.337-.975,1.419,1.419,0,0,1-.067-.439v75.385a1.4,1.4,0,0,0,1.4,1.4H143.2a1.4,1.4,0,0,0,1.4-1.4V61.367A1.4,1.4,0,0,1,143.243,62.454Z"/>
      <path id="Trazado_124535" data-name="Trazado 124535" d="M73.794,59.646H138.9l-.018-.013H73.812Z"/>
      <path id="Trazado_124536" data-name="Trazado 124536" d="M73.812,59.634,106.7,36.115l32.184,23.519H143.2a1.391,1.391,0,0,1,.767.23,1.4,1.4,0,0,0-.12-.081L107.54,33.251a1.4,1.4,0,0,0-1.645-.009L68.706,59.834a1.394,1.394,0,0,1,.712-.2Z"/>
      <path id="Trazado_124537" data-name="Trazado 124537" d="M68.014,61.04v0Z"/>
      <path id="Trazado_124538" data-name="Trazado 124538" d="M144.607,61.038v.329a1.374,1.374,0,0,0,.039-.316A1.389,1.389,0,0,0,144,59.885,1.4,1.4,0,0,1,144.607,61.038Z"/>
      <rect id="Rectángulo_30199" data-name="Rectángulo 30199" width="70.978" height="0.013" transform="translate(70.822 62.441)"/>
      <path id="Trazado_124539" data-name="Trazado 124539" d="M68.083,60.625l.008-.027Z"/>
      <path id="Trazado_124540" data-name="Trazado 124540" d="M68.081,61.479a1.4,1.4,0,0,0,1.337.975h1.4v-.013H141.8v.013h1.4c.016,0,.029,0,.04,0a1.4,1.4,0,0,0,1.364-1.087v-.329a1.4,1.4,0,0,0-.6-1.153c-.011-.007-.021-.015-.032-.021a1.391,1.391,0,0,0-.767-.23h-4.317l.017.012H73.794l.018-.012H69.418a1.394,1.394,0,0,0-.712.2l-.1.075a1.4,1.4,0,0,0-.511.689l-.008.027a1.407,1.407,0,0,0-.069.413v0A1.419,1.419,0,0,0,68.081,61.479Z"/>
      <path id="Trazado_124541" data-name="Trazado 124541" d="M108.116,80.386v1.4h19.5v33.884h-19.5v1.4a1.4,1.4,0,0,1-1.4,1.4h22.306a1.4,1.4,0,0,0,1.4-1.4V80.386a1.4,1.4,0,0,0-1.4-1.4H106.712A1.4,1.4,0,0,1,108.116,80.386Z"/>
      <rect id="Rectángulo_30200" data-name="Rectángulo 30200" width="2.808" height="33.883" transform="translate(105.308 81.789)"/>
      <path id="Trazado_124542" data-name="Trazado 124542" d="M83.6,118.48h23.108a1.4,1.4,0,0,0,1.4-1.4v-1.4H85.008V81.789h23.108v-1.4a1.4,1.4,0,0,0-1.4-1.4H83.6a1.4,1.4,0,0,0-1.4,1.4v36.691A1.4,1.4,0,0,0,83.6,118.48Z"/>
      <path id="Trazado_124543" data-name="Trazado 124543" d="M166.4,135.791V64.123l1.5,1.307a1.4,1.4,0,1,0,1.845-2.116l-7.656-6.664a1.4,1.4,0,1,0-1.844,2.116l1,.87h-13.29a1.4,1.4,0,1,0,0,2.807h15.638v70.9l-1.5-1.307a1.4,1.4,0,1,0-1.844,2.116l1,.87H147.989a1.4,1.4,0,1,0,0,2.807h16.483l3.431,2.987a1.4,1.4,0,1,0,1.845-2.116Z" fill="#fff"/>
      <path id="Trazado_124544" data-name="Trazado 124544" d="M64.531,115.778h-15.6V84.04l.867,1a1.4,1.4,0,0,0,2.119-1.843l-1.308-1.5h13.96a1.4,1.4,0,0,0,0-2.808h-16.4l-2.911-3.345a1.4,1.4,0,1,0-2.119,1.842l2.988,3.433v32.618l-.869-1a1.4,1.4,0,0,0-2.119,1.843l6.663,7.655a1.4,1.4,0,0,0,2.119-1.842l-1.309-1.5H64.531a1.4,1.4,0,0,0,0-2.808Z" fill="#fff"/>
      <path id="Trazado_124545" data-name="Trazado 124545" d="M147.421,153.339a1.405,1.405,0,0,0-1.98.158l-.789.926v-13.23a1.4,1.4,0,1,0-2.807,0v15.639H72.466l1.289-1.514a1.4,1.4,0,0,0-2.138-1.821l-.789.926v-13.2a1.4,1.4,0,0,0-2.808,0v16.49l-2.927,3.435a1.4,1.4,0,0,0,2.138,1.821l2.842-3.335h70.133l-1.291,1.514a1.4,1.4,0,0,0,2.139,1.821l6.526-7.656A1.407,1.407,0,0,0,147.421,153.339Z" fill="#fff"/>
    </g>
  </g>
</svg>
